<?xml version="1.0" encoding="UTF-8"?>
<svg id="MusicFile" xmlns="http://www.w3.org/2000/svg" viewBox="0 0 1000 1000">
  <defs>
    <style>
      .cls-1 {
        fill: #a487fd;
      }

      .cls-2 {
        fill: #87fbfd;
      }
    </style>
  </defs>
  <path class="cls-1" d="M892.17,227.58V931.08c0,25.45-20.96,47.9-47.9,47.9H155.73c-25.45,0-47.9-20.96-47.9-47.9V68.92c0-25.45,20.96-47.9,46.4-47.9H685.61l206.56,206.56Z"/>
  <path class="cls-2" d="M729.01,227.58h161.66L685.61,21.02l1.5,161.66c-1.5,25.45,17.96,44.9,41.91,44.9Zm-257.45,242.48c10.48,0,19.46-5.99,22.45-14.97,1.5-5.99,2.99-10.48,1.5-16.47v-44.9c32.93,0,29.94,19.46,26.94,29.94-1.5,4.49,0,4.49,2.99,1.5,40.41-43.41-14.97-56.88-37.42-61.37-4.49-1.5-7.48,1.5-8.98,5.99v49.4c-2.99-1.5-5.99-1.5-8.98-1.5-13.47,0-25.45,10.48-25.45,25.45,1.5,14.97,13.47,26.94,26.94,26.94Zm-242.48,16.47c-5.99-1.5-10.48,2.99-11.97,7.48v70.35c-4.49-1.5-7.48-1.5-11.97-1.5-19.46,0-35.92,16.46-35.92,35.92s16.47,35.92,35.92,35.92c13.47,0,26.94-7.48,32.93-20.96,1.5-7.48,2.99-14.97,2.99-22.45v-62.87c46.4,0,43.41,26.94,37.42,43.41-1.5,5.99-1.5,7.48,2.99,1.5,56.88-62.87-20.96-82.33-52.39-86.82Zm538.85-10.48c-4.49-1.5-8.98,1.5-10.48,5.99v59.87c-2.99-1.5-7.48-1.5-10.48-1.5-16.46,0-29.94,13.47-31.43,29.94,0,16.46,13.47,29.94,29.94,31.43,11.97,0,22.45-7.48,28.44-17.96,1.5-5.99,2.99-13.47,2.99-19.46v-53.89c38.92,0,37.42,23.95,32.93,37.42-1.5,5.99,0,5.99,2.99,1.5,47.9-50.89-19.46-67.36-44.9-73.34Zm-366.72,239.49c-10.48-7.48-23.95-11.97-37.42-11.97-31.43,0-58.38,22.45-58.38,52.39s26.94,52.39,58.38,52.39,58.38-22.45,58.38-52.39v-178.12l175.13-43.41v131.72c-10.48-7.48-23.95-11.97-37.42-11.97-32.93,0-58.38,22.45-58.38,52.39s26.94,52.39,58.38,52.39,58.38-22.45,58.38-52.39v-248.47l-218.54,53.89v203.57h1.5Z"/>
</svg>