<?xml version="1.0" encoding="UTF-8"?>
<svg id="Layer_2" data-name="Layer 2" xmlns="http://www.w3.org/2000/svg" xmlns:xlink="http://www.w3.org/1999/xlink" viewBox="0 0 1920 1080">
  <defs>
    <style>
      .cls-1 {
        fill: url(#linear-gradient-2);
      }

      .cls-2 {
        fill: url(#New_Gradient_Swatch_4);
      }

      .cls-3 {
        fill: url(#linear-gradient);
      }
    </style>
    <linearGradient id="New_Gradient_Swatch_4" data-name="New Gradient Swatch 4" x1="0" y1="540" x2="1920" y2="540" gradientUnits="userSpaceOnUse">
      <stop offset="0" stop-color="#223459"/>
      <stop offset=".11" stop-color="#243964"/>
      <stop offset=".71" stop-color="#3359a5"/>
      <stop offset="1" stop-color="#3966bf"/>
    </linearGradient>
    <linearGradient id="linear-gradient" x1="547.44" y1="-591" x2="1561.56" y2="-591" gradientTransform="translate(1562 116) rotate(-180)" gradientUnits="userSpaceOnUse">
      <stop offset="0" stop-color="#ff7bac" stop-opacity=".8"/>
      <stop offset=".31" stop-color="#fa679d" stop-opacity=".87"/>
      <stop offset="1" stop-color="#f24182"/>
    </linearGradient>
    <linearGradient id="linear-gradient-2" x1="229" y1="-877.5" x2="534" y2="-877.5" gradientTransform="translate(1562 116) rotate(-180)" gradientUnits="userSpaceOnUse">
      <stop offset="0" stop-color="#f2e85e"/>
      <stop offset="1" stop-color="#f2c53d"/>
    </linearGradient>
  </defs>
  <g id="Layer_2-2" data-name="Layer 2">
    <g>
      <path class="cls-2" d="M1920,1080h-452.39c-43.68,0-86.62-11.21-124.72-32.56L50.76,323.44C19.41,305.88,0,272.75,0,236.82V0H1920V1080Z"/>
      <path class="cls-3" d="M45.71,337.96L980.05,870.46c21.29,12.13,34.51,35.31,34.51,60.48v110.28c0,21.42-16.76,38.78-37.43,38.78H.44s0-714.3,0-714.3c0-24.08,24.91-39.34,45.27-27.74Z"/>
      <path class="cls-1" d="M1066.3,909.73l256.32,144.53c6.4,2.97,10.38,7.22,10.38,13.39v2.9c0,5.22-5.02,9.46-11.21,9.46h-279.01c-8.16,0-14.78-5.58-14.78-12.47v-138.69c0-16.59,21.08-27.1,38.3-19.11Z"/>
    </g>
  </g>
</svg>