<?xml version="1.0" encoding="UTF-8"?>
<svg id="Layer_2" data-name="Layer 2" xmlns="http://www.w3.org/2000/svg" xmlns:xlink="http://www.w3.org/1999/xlink" viewBox="0 0 1924.15 1066.11">
  <defs>
    <style>
      .cls-1 {
        stroke: #f2c53d;
      }

      .cls-1, .cls-2, .cls-3 {
        opacity: .3;
      }

      .cls-1, .cls-2, .cls-3, .cls-4 {
        fill: none;
        stroke-miterlimit: 10;
        stroke-width: 2px;
      }

      .cls-2 {
        stroke: #3966bf;
      }

      .cls-3 {
        stroke: #f24182;
      }

      .cls-5 {
        fill: url(#New_Gradient_Swatch_2);
      }

      .cls-4 {
        opacity: .1;
        stroke: #ebf0f9;
      }

      .cls-6 {
        fill: url(#New_Gradient_Swatch_1);
      }

      .cls-7 {
        fill: url(#linear-gradient);
      }
    </style>
    <linearGradient id="New_Gradient_Swatch_2" data-name="New Gradient Swatch 2" x1="2.7" y1="497.92" x2="1924.15" y2="497.92" gradientUnits="userSpaceOnUse">
      <stop offset="0" stop-color="#223459"/>
      <stop offset=".56" stop-color="#3966bf"/>
      <stop offset=".68" stop-color="#3d65bd" stop-opacity=".99"/>
      <stop offset=".76" stop-color="#4b62b8" stop-opacity=".96"/>
      <stop offset=".83" stop-color="#645db0" stop-opacity=".91"/>
      <stop offset=".89" stop-color="#8756a5" stop-opacity=".83"/>
      <stop offset=".94" stop-color="#b44d96" stop-opacity=".73"/>
      <stop offset=".99" stop-color="#ea4284" stop-opacity=".62"/>
      <stop offset="1" stop-color="#f24182" stop-opacity=".6"/>
    </linearGradient>
    <linearGradient id="New_Gradient_Swatch_1" data-name="New Gradient Swatch 1" x1="761.11" y1="606.65" x2="1922.7" y2="606.65" gradientUnits="userSpaceOnUse">
      <stop offset="0" stop-color="#f24182"/>
      <stop offset=".73" stop-color="#ff7bac" stop-opacity=".8"/>
    </linearGradient>
    <linearGradient id="linear-gradient" x1="336.7" y1="973.38" x2="1752.7" y2="973.38" gradientUnits="userSpaceOnUse">
      <stop offset="0" stop-color="#f2c53d"/>
      <stop offset=".59" stop-color="#f2db52" stop-opacity=".87"/>
      <stop offset="1" stop-color="#f2e85e" stop-opacity=".8"/>
    </linearGradient>
  </defs>
  <g id="Layer_2-2" data-name="Layer 2">
    <path class="cls-5" d="M1924.15,61.47c-.45,3.69-.95,7.18-1.45,10.44-1.06,6.84-2.16,12.64-3.01,17.11-33.51,176.46-256.31,270.29-351.4,310.34-36.42,15.34-67.55,25.96-95.2,33.68h-.01c-115.48,32.27-169.97,14.01-293.42,77.93-151.91,78.66-125.5,135.36-288.76,255.02-226.6,166.1-474.35,201.18-560.05,212.36-116.72,15.22-228.78,29.83-328.15,.88V0H1922.7V62.88c.49-.47,.97-.94,1.45-1.41Z"/>
    <path class="cls-4" d="M484.41,2c18.8,69.72,47.39,131.62,10.29,215.39-30.44,68.73-90.15,118.42-150.06,153.2-70.43,40.86-141.14,61.11-164.94,67.41-67.67,17.88-122.3,19.76-179,15.2"/>
    <path class="cls-3" d="M1920.7,932.79c-98.69-19.43-227.41-20.12-332.94-49.28-66.54-18.38-123.87-48.07-158.63-100.93-59.98-91.2-25.06-209.18,7.87-282.56,14.52-32.38,28.65-56.07,34.08-64.97h0c.45-.75,.84-1.38,1.17-1.91,83.78-136.44,191.77-150.45,369.82-297.86,25.24-20.91,51.64-44.27,78.62-70.39,.49-.47,.97-.94,1.45-1.41"/>
    <path class="cls-2" d="M1920.7,339.05c-12.99,8.74-25.52,16.89-37.63,24.65-94.76,60.74-163.46,96.76-220.81,190.16-10.37,16.89-86.39,140.73-74.5,258.43,3.18,31.5,12.66,62.56,31.37,91.01,14.56,22.15,33.09,40.22,54.59,55.11,64.39,44.58,155.51,60.52,246.98,71.19"/>
    <path class="cls-1" d="M1922.7,948.1c-27.07-18.82-50.15-42.62-67.57-73.11-74.42-130.28-2.75-308.02,29.94-376.29,6.25-13.05,11.08-22.1,13.19-26.05,7.92-14.85,16.05-28.43,24.44-41.01"/>
    <path class="cls-4" d="M.7,340.9c153.67,9.6,240.07,37.42,343.94,29.69,29.04-2.15,59.44-7.09,93.06-15.97,44.05-11.65,248.78-71.09,315-220.6,21.98-49.62,20.9-91.57,12.46-132.02"/>
    <path class="cls-4" d="M53.36,2c18.79,68.32,45.82,129.54,9.34,211.92-14.83,33.5-36.62,62.47-62,87.4"/>
    <path class="cls-6" d="M1922.7,217.65V926.88c-62.05,54.11-165.8,67.96-252.95,68.74-65.28,.58-121.25-6.18-143.4-8.85-87.31-10.54-108.82-26.66-181.88-50.31-31.03-10.05-53.15-15.93-97.72-26.99-167.42-41.54-449.75-29.58-484.05-42.22-19-7,136.33-75.84,229-156,21.31-18.43,39.33-42.37,45-49,30.76-36,32.68-37.24,71-73,82.01-76.52,189.03-94.44,319.61-123.24,28.32-6.24,58.8-14.08,91.87-24.67,235.27-75.34,339.56-208.87,403.52-223.7Z"/>
    <path class="cls-7" d="M752.7,880.71c-55.55-1.24-61.34,22.77-144,52.11-159.12,56.47-272.41,49.86-272,63.4,.49,16.18,162.57,31.67,313,30.4,106.25-.9,119.07-9.16,206-4.34,90.98,5.04,116.67,16.73,231,29.53,91.24,10.21,159.57,12.25,215,13.9,196.7,5.85,451.14-53.64,451-61.45-.1-5.75-132.91,27.24-268-3-87.65-19.62-145.43-50.12-248-77-107.29-28.12-60-14-202-27-144.68-13.25-213-15-282-16.55Z"/>
  </g>
</svg>