<?xml version="1.0" encoding="UTF-8"?>
<svg id="Layer_2" data-name="Layer 2" xmlns="http://www.w3.org/2000/svg" xmlns:xlink="http://www.w3.org/1999/xlink" viewBox="0 0 1922.71 1080">
  <defs>
    <style>
      .cls-1 {
        stroke: #3966bf;
      }

      .cls-1, .cls-2 {
        opacity: .3;
      }

      .cls-1, .cls-2, .cls-3 {
        fill: none;
        stroke-miterlimit: 10;
        stroke-width: 2px;
      }

      .cls-2 {
        stroke: #f24182;
      }

      .cls-4 {
        fill: url(#New_Gradient_Swatch_2);
      }

      .cls-3 {
        opacity: .1;
        stroke: #ebf0f9;
      }

      .cls-5 {
        fill: url(#New_Gradient_Swatch_1);
      }

      .cls-6 {
        fill: url(#linear-gradient);
      }
    </style>
    <linearGradient id="New_Gradient_Swatch_2" data-name="New Gradient Swatch 2" x1=".71" y1="504.41" x2="1922.71" y2="504.41" gradientUnits="userSpaceOnUse">
      <stop offset="0" stop-color="#223459"/>
      <stop offset=".56" stop-color="#3966bf"/>
      <stop offset=".68" stop-color="#3d65bd" stop-opacity=".99"/>
      <stop offset=".76" stop-color="#4b62b8" stop-opacity=".96"/>
      <stop offset=".83" stop-color="#645db0" stop-opacity=".91"/>
      <stop offset=".89" stop-color="#8756a5" stop-opacity=".83"/>
      <stop offset=".94" stop-color="#b44d96" stop-opacity=".73"/>
      <stop offset=".99" stop-color="#ea4284" stop-opacity=".62"/>
      <stop offset="1" stop-color="#f24182" stop-opacity=".6"/>
    </linearGradient>
    <linearGradient id="New_Gradient_Swatch_1" data-name="New Gradient Swatch 1" x1="760.54" y1="614.56" x2="1921.26" y2="614.56" gradientUnits="userSpaceOnUse">
      <stop offset="0" stop-color="#f24182"/>
      <stop offset=".73" stop-color="#ff7bac" stop-opacity=".8"/>
    </linearGradient>
    <linearGradient id="linear-gradient" x1="336.45" y1="986.07" x2="1751.38" y2="986.07" gradientUnits="userSpaceOnUse">
      <stop offset="0" stop-color="#f2c53d"/>
      <stop offset=".59" stop-color="#f2db52" stop-opacity=".87"/>
      <stop offset="1" stop-color="#f2e85e" stop-opacity=".8"/>
    </linearGradient>
  </defs>
  <g id="Layer_2-2" data-name="Layer 2">
    <path class="cls-4" d="M1922.71,62.27c-.45,3.74-.95,7.28-1.45,10.58-1.06,6.93-2.16,12.8-3.01,17.33-33.52,178.76-256.38,273.81-351.5,314.38-36.43,15.54-67.57,26.3-95.23,34.12h-.01c-115.51,32.69-170.02,14.19-293.5,78.95-151.95,79.69-125.54,137.12-288.84,258.35-226.66,168.26-474.49,203.81-560.21,215.13-116.75,15.41-228.85,30.21-328.24,.89V0H1921.26V63.7c.49-.48,.97-.95,1.45-1.43Z"/>
    <path class="cls-2" d="M1920.71,945.2c-98.62-19.68-228.69-20.65-334.14-50.18-66.49-18.62-123.78-48.7-158.51-102.25-59.93-92.39-25.04-211.91,7.86-286.25,14.51-32.8,28.63-56.8,34.05-65.81h0c.45-.76,.84-1.4,1.17-1.94,83.72-138.21,191.63-152.41,369.54-301.74,25.22-21.18,51.6-44.85,78.56-71.31,.49-.48,.97-.95,1.45-1.43"/>
    <path class="cls-1" d="M1920.71,343.2c-12.98,8.85-26.95,17.38-39.05,25.24-94.69,61.53-163.34,98.02-220.64,192.64-10.36,17.11-86.32,142.56-74.44,261.8,3.18,31.91,12.65,63.37,31.35,92.2,14.55,22.44,33.07,40.75,54.55,55.83,64.34,45.16,156.84,61.49,248.24,72.3"/>
    <path class="cls-3" d="M.71,345.34c153.55,9.72,239.89,37.9,343.68,30.08,29.02-2.18,59.4-7.18,92.99-16.18,44.02-11.8,248.59-72.01,314.76-223.48,21.96-50.27,20.88-92.76,12.45-133.74"/>
    <path class="cls-3" d="M53.33,2.03c18.78,69.21,45.79,131.23,9.33,214.68-14.82,33.94-36.59,63.29-61.95,88.54"/>
    <path class="cls-5" d="M1921.26,220.48V938.96c-62.01,54.81-165.68,68.85-252.76,69.64-65.23,.59-121.16-6.26-143.3-8.97-87.24-10.68-108.74-27-181.74-50.96-31.01-10.18-53.11-16.14-97.65-27.34-167.29-42.08-449.41-29.97-483.69-42.77-18.99-7.09,136.23-76.83,228.83-158.03,21.29-18.67,39.3-42.92,44.97-49.64,30.73-36.47,32.66-37.73,70.95-73.95,81.95-77.51,188.89-95.67,319.37-124.85,28.3-6.33,58.75-14.26,91.8-24.99,235.09-76.32,339.3-211.59,403.22-226.61Z"/>
    <path class="cls-6" d="M752.14,892.18c-55.51-1.26-61.29,23.07-143.89,52.79-159,57.21-272.2,50.51-271.79,64.23,.49,16.4,162.44,32.09,312.76,30.79,106.17-.91,118.98-9.28,205.84-4.4,90.91,5.11,116.58,16.95,230.83,29.91,91.17,10.35,159.45,12.41,214.84,14.08,196.56,5.93,450.8-54.34,450.66-62.25-.1-5.82-132.81,27.6-267.8-3.04-87.58-19.88-145.32-50.77-247.81-78-107.2-28.49-59.95-14.18-201.85-27.35-144.58-13.42-212.84-15.2-281.79-16.76Z"/>
  </g>
</svg>