<?xml version="1.0" encoding="UTF-8" standalone="no"?>
<svg
   enable-background="new 0 0 2000 2000"
   viewBox="0 0 1000 1000"
   id="AvatarCircles"
   version="1.1"
   sodipodi:docname="Avatar White.svg"
   width="1000"
   height="1000"
   xmlns:inkscape="http://www.inkscape.org/namespaces/inkscape"
   xmlns:sodipodi="http://sodipodi.sourceforge.net/DTD/sodipodi-0.dtd"
   xmlns="http://www.w3.org/2000/svg"
   xmlns:svg="http://www.w3.org/2000/svg">
  <defs
     id="defs12" />
  <sodipodi:namedview
     id="namedview12"
     pagecolor="#505050"
     bordercolor="#ffffff"
     borderopacity="1"
     inkscape:showpageshadow="0"
     inkscape:pageopacity="0"
     inkscape:pagecheckerboard="1"
     inkscape:deskcolor="#505050"
     inkscape:zoom="0.3225"
     inkscape:cx="998.44961"
     inkscape:cy="1000"
     inkscape:window-width="1920"
     inkscape:window-height="1057"
     inkscape:window-x="-8"
     inkscape:window-y="-8"
     inkscape:window-maximized="1"
     inkscape:current-layer="AvatarCircles" />
  <linearGradient
     id="a"
     x1="952.349"
     x2="1140.175"
     y1="613.86102"
     y2="1637.514"
     gradientUnits="userSpaceOnUse"
     gradientTransform="matrix(0.96102392,0,0,0.96102392,-459.55337,-461.11309)">
    <stop
       offset="0"
       stop-color="#ffffff"
       class="stopColorff6107 svgShape"
       id="stop1" />
    <stop
       offset=".422"
       stop-color="#ffffff"
       class="stopColorfc9247 svgShape"
       id="stop2" />
    <stop
       offset="1"
       stop-color="#ffffff"
       class="stopColorfcb677 svgShape"
       id="stop3" />
  </linearGradient>
  <path
     fill="url(#a)"
     d="m 498.23183,168.69391 c -51.2994,0 -99.53322,19.97969 -135.81184,56.25834 -36.27867,36.27865 -56.25836,84.51244 -56.25836,135.81188 0,51.29946 19.97969,99.53326 56.25836,135.81191 36.27862,36.27861 84.50284,56.25833 135.81184,56.25833 51.30909,0 99.53328,-19.97972 135.81189,-56.25833 36.27872,-36.27865 56.25837,-84.51245 56.25837,-135.81191 0,-51.29944 -19.97965,-99.53323 -56.25837,-135.81188 -36.27861,-36.27865 -84.51243,-56.25834 -135.81189,-56.25834 z m 0,346.00703 c -84.88719,0 -153.94638,-69.05917 -153.94638,-153.94642 0,-84.88723 69.05919,-153.94641 153.94638,-153.94641 84.88724,0 153.94641,69.05918 153.94641,153.94641 0,84.88725 -69.05917,153.94642 -153.94641,153.94642 z"
     id="path3"
     style="fill:url(#a);stroke-width:0.961023"
     inkscape:label="path3" />
  <linearGradient
     id="b"
     x1="929.935"
     x2="1117.761"
     y1="617.974"
     y2="1641.626"
     gradientUnits="userSpaceOnUse"
     gradientTransform="matrix(0.96102392,0,0,0.96102392,-459.55337,-461.11309)">
    <stop
       offset="0"
       stop-color="#ffffff"
       class="stopColorff6107 svgShape"
       id="stop4" />
    <stop
       offset=".422"
       stop-color="#ffffff"
       class="stopColorfc9247 svgShape"
       id="stop5" />
    <stop
       offset="1"
       stop-color="#ffffff"
       class="stopColorfcb677 svgShape"
       id="stop6" />
  </linearGradient>
  <path
     fill="url(#b)"
     d="M 747.06978,867.10841 V 745.61573 c 0,-44.53387 -17.34654,-86.41519 -48.83924,-117.89836 -31.50237,-31.49281 -73.36451,-48.83925 -117.89836,-48.83925 h -157.7137 c -44.53385,0 -86.41525,17.34644 -117.89839,48.83925 -31.49275,31.50237 -48.83923,73.36449 -48.83923,117.89836 V 867.12761 C 227.02131,847.78225 200.28563,824.92905 176.30809,798.86615 101.15602,717.16944 59.764721,611.00517 59.764721,499.91079 c 0,-59.63154 11.676439,-117.48517 34.702569,-171.91756 22.2477,-52.60645 54.09603,-99.85038 94.67046,-140.4152 40.57443,-40.57442 87.80876,-72.42276 140.40559,-94.670467 54.44202,-23.02613 112.28602,-34.702567 171.91754,-34.702567 59.63153,0 117.4852,11.676437 171.91759,34.702567 52.59681,22.247707 99.84076,54.096047 140.4056,94.670467 40.57443,40.57443 72.42271,87.80875 94.67043,140.40558 23.02617,54.44201 34.70256,112.27643 34.70256,171.91757 h 38.12386 c 0,-64.7634 -12.68558,-127.60475 -37.71062,-186.775 C 919.4102,255.98371 884.80375,204.67464 840.75037,160.6213 796.69704,116.56798 745.37835,81.971117 688.24552,57.801366 629.07525,32.776301 566.2339,20.090787 501.47048,20.090787 c -64.76334,0 -127.60469,12.685514 -186.77496,37.710579 C 257.55304,81.971117 206.23437,116.56798 162.18103,160.63092 118.1277,204.68425 83.530843,256.00293 59.361092,313.1358 34.336025,372.30604 21.650511,435.14739 21.650511,499.91079 c 0,120.67574 44.966304,236.01789 126.605289,324.76842 81.14885,88.22197 191.33986,142.61596 310.27615,153.16799 l 3.36356,-37.98934 C 402.58113,934.60114 345.63088,917.47562 294.00468,889.98081 V 745.61573 c 0,-70.9139 57.69026,-128.60417 128.60419,-128.60417 h 157.71364 c 70.91398,0 128.60421,57.69027 128.60421,128.60417 v 144.35545 c -18.37478,9.79279 -37.4319,18.27867 -57.11364,25.39988 -48.10888,17.41372 -98.69714,26.24556 -150.36181,26.24556 v 38.12375 c 56.09495,0 111.04631,-9.59098 163.33563,-28.51352 50.52103,-18.28835 97.36136,-44.8222 139.22348,-78.88088 l -24.05436,-29.58033 c -10.60969,8.63966 -21.58459,16.76028 -32.88624,24.34277 z"
     id="path6"
     style="fill:url(#b);stroke-width:0.961023" />
  <linearGradient
     id="c"
     x1="1253.535"
     x2="1441.361"
     y1="558.59802"
     y2="1582.25"
     gradientUnits="userSpaceOnUse"
     gradientTransform="matrix(0.96102392,0,0,0.96102392,-459.55337,-461.11309)">
    <stop
       offset="0"
       stop-color="#ffffff"
       class="stopColorff6107 svgShape"
       id="stop7" />
    <stop
       offset=".422"
       stop-color="#ffffff"
       class="stopColorfc9247 svgShape"
       id="stop8" />
    <stop
       offset="1"
       stop-color="#ffffff"
       class="stopColorfcb677 svgShape"
       id="stop9" />
  </linearGradient>
  <path
     fill="url(#c)"
     d="m 811.23734,814.78068 26.73566,27.17769 c 38.28722,-37.67211 69.77034,-81.09119 93.56528,-129.04629 l -34.15475,-16.94282 c -21.90172,44.13981 -50.88624,84.11843 -86.14619,118.81142 z"
     id="path9"
     style="fill:url(#c);stroke-width:0.961023" />
  <linearGradient
     id="d"
     x1="1361.636"
     x2="1549.462"
     y1="538.763"
     y2="1562.415"
     gradientUnits="userSpaceOnUse"
     gradientTransform="matrix(0.96102392,0,0,0.96102392,-459.55337,-461.11309)">
    <stop
       offset="0"
       stop-color="#ffffff"
       class="stopColorff6107 svgShape"
       id="stop10" />
    <stop
       offset=".422"
       stop-color="#ffffff"
       class="stopColorfc9247 svgShape"
       id="stop11" />
    <stop
       offset="1"
       stop-color="#ffffff"
       class="stopColorfcb677 svgShape"
       id="stop12" />
  </linearGradient>
  <path
     fill="url(#d)"
     d="m 917.93984,647.42794 35.93265,12.72398 c 12.6951,-35.8366 21.09445,-73.24929 24.92893,-111.20012 l -37.92195,-3.85369 c -3.53656,34.92362 -11.25362,69.35714 -22.93963,102.32983 z"
     id="path12"
     style="fill:url(#d);stroke-width:0.961023" />
</svg>
