<?xml version="1.0" encoding="UTF-8" standalone="no"?>
<svg
   enable-background="new 0 0 2000 2000"
   viewBox="0 0 1000 1000"
   id="AvatarCircles"
   version="1.1"
   sodipodi:docname="Avatar.svg"
   width="1000"
   height="1000"
   xmlns:inkscape="http://www.inkscape.org/namespaces/inkscape"
   xmlns:sodipodi="http://sodipodi.sourceforge.net/DTD/sodipodi-0.dtd"
   xmlns="http://www.w3.org/2000/svg"
   xmlns:svg="http://www.w3.org/2000/svg">
  <defs
     id="defs12" />
  <sodipodi:namedview
     id="namedview12"
     pagecolor="#505050"
     bordercolor="#ffffff"
     borderopacity="1"
     inkscape:showpageshadow="0"
     inkscape:pageopacity="0"
     inkscape:pagecheckerboard="1"
     inkscape:deskcolor="#505050" />
  <linearGradient
     id="a"
     x1="952.349"
     x2="1140.175"
     y1="613.86102"
     y2="1637.514"
     gradientUnits="userSpaceOnUse"
     gradientTransform="matrix(0.95652611,0,0,0.95652611,-455.75113,-452.65035)">
    <stop
       offset="0"
       stop-color="#2224e1"
       class="stopColorff6107 svgShape"
       id="stop1" />
    <stop
       offset=".422"
       stop-color="#8796fd"
       class="stopColorfc9247 svgShape"
       id="stop2" />
    <stop
       offset="1"
       stop-color="#87c0fd"
       class="stopColorfcb677 svgShape"
       id="stop3" />
  </linearGradient>
  <path
     fill="url(#a)"
     d="m 497.55148,174.20903 c -51.05936,0 -99.06741,19.88618 -135.17627,55.99504 -36.10886,36.10886 -55.99504,84.11691 -55.99504,135.17627 0,51.05936 19.88618,99.06741 55.99504,135.17627 36.10886,36.10886 84.10734,55.99504 135.17627,55.99504 51.06893,0 99.06741,-19.88618 135.17627,-55.99504 36.10886,-36.10886 55.99504,-84.11691 55.99504,-135.17627 0,-51.05936 -19.88618,-99.06741 -55.99504,-135.17627 -36.10886,-36.10886 -84.1169,-55.99504 -135.17627,-55.99504 z m 0,344.38766 c -84.48995,0 -153.22591,-68.73596 -153.22591,-153.22592 0,-84.48995 68.73596,-153.22591 153.22591,-153.22591 84.48995,0 153.22592,68.73596 153.22592,153.22591 0,84.48996 -68.73597,153.22592 -153.22592,153.22592 z"
     id="path3"
     style="fill:url(#a);stroke-width:0.956526" />
  <linearGradient
     id="b"
     x1="929.935"
     x2="1117.761"
     y1="617.974"
     y2="1641.626"
     gradientUnits="userSpaceOnUse"
     gradientTransform="matrix(0.95652611,0,0,0.95652611,-455.75113,-452.65035)">
    <stop
       offset="0"
       stop-color="#2224e1"
       class="stopColorff6107 svgShape"
       id="stop4" />
    <stop
       offset=".422"
       stop-color="#8796fd"
       class="stopColorfc9247 svgShape"
       id="stop5" />
    <stop
       offset="1"
       stop-color="#87c0fd"
       class="stopColorfcb677 svgShape"
       id="stop6" />
  </linearGradient>
  <path
     fill="url(#b)"
     d="M 745.22479,869.35482 V 748.43079 c 0,-44.32542 -17.2653,-86.01083 -48.61066,-117.34663 -31.35492,-31.34536 -73.0212,-48.61065 -117.34662,-48.61065 h -156.9755 c -44.32542,0 -86.01083,17.26529 -117.34662,48.61065 -31.34537,31.35493 -48.61066,73.02121 -48.61066,117.34663 V 869.37395 C 227.61025,850.11908 200.99969,827.37289 177.13437,801.4319 102.33403,720.11761 61.136445,614.45017 61.136445,503.87576 c 0,-59.35245 11.621793,-116.93532 34.540158,-171.11296 22.143577,-52.36024 53.842857,-99.38306 94.227387,-139.75803 40.38453,-40.38453 87.39779,-72.08381 139.74846,-94.227387 54.18721,-22.91837 111.76052,-34.540163 171.11296,-34.540163 59.35245,0 116.93532,11.621793 171.11296,34.540163 52.35067,22.143577 99.37349,53.842857 139.74846,94.227387 40.38453,40.38453 72.08381,87.39779 94.22739,139.74846 22.91836,54.18721 34.54016,111.75095 34.54016,171.11296 h 37.94537 c 0,-64.46029 -12.62615,-127.00754 -37.53407,-185.90085 C 916.75862,261.0903 882.31411,210.02137 838.46695,166.17421 794.6198,122.32706 743.5413,87.892111 686.67583,63.83548 627.78251,38.92754 565.23527,26.301395 500.77498,26.301395 c -64.4603,0 -127.00754,12.626145 -185.90085,37.534085 -56.87505,24.056631 -107.95354,58.49158 -151.8007,102.3483 -43.84715,43.84715 -78.282094,94.92565 -102.338725,151.79113 -24.90794,58.89331 -37.534085,121.44055 -37.534085,185.90085 0,120.11098 44.755857,234.91324 126.01275,323.24843 80.76906,87.8091 190.44435,141.94847 308.82402,152.45113 l 3.34784,-37.81148 C 402.34844,936.53165 345.6647,919.48635 294.28012,892.12014 V 748.43079 c 0,-70.58207 57.42026,-128.00233 128.00232,-128.00233 h 156.9755 c 70.58206,0 128.00233,57.42026 128.00233,128.00233 v 143.67978 c -18.28878,9.747 -37.25669,18.19313 -56.84635,25.28099 -47.8837,17.33225 -98.23523,26.12273 -149.65807,26.12273 v 37.94539 c 55.83242,0 110.52659,-9.54613 162.57117,-28.38013 50.28458,-18.20269 96.90566,-44.61238 138.57194,-78.51167 l -23.94185,-29.44187 c -10.56005,8.59917 -21.48357,16.68182 -32.73232,24.22881 z"
     id="path6"
     style="fill:url(#b);stroke-width:0.956526" />
  <linearGradient
     id="c"
     x1="1253.535"
     x2="1441.361"
     y1="558.59802"
     y2="1582.25"
     gradientUnits="userSpaceOnUse"
     gradientTransform="matrix(0.95652611,0,0,0.95652611,-455.75113,-452.65035)">
    <stop
       offset="0"
       stop-color="#2224e1"
       class="stopColorff6107 svgShape"
       id="stop7" />
    <stop
       offset=".422"
       stop-color="#8796fd"
       class="stopColorfc9247 svgShape"
       id="stop8" />
    <stop
       offset="1"
       stop-color="#87c0fd"
       class="stopColorfcb677 svgShape"
       id="stop9" />
  </linearGradient>
  <path
     fill="url(#c)"
     d="m 809.09204,817.27197 26.61055,27.05056 c 38.108,-37.49583 69.4438,-80.71167 93.12739,-128.44233 l -33.99494,-16.86355 c -21.79923,43.93324 -50.64806,83.72473 -85.743,118.25532 z"
     id="path9"
     style="fill:url(#c);stroke-width:0.956526" />
  <linearGradient
     id="d"
     x1="1361.636"
     x2="1549.462"
     y1="538.763"
     y2="1562.415"
     gradientUnits="userSpaceOnUse"
     gradientTransform="matrix(0.95652611,0,0,0.95652611,-455.75113,-452.65035)">
    <stop
       offset="0"
       stop-color="#2224e1"
       class="stopColorff6107 svgShape"
       id="stop10" />
    <stop
       offset=".422"
       stop-color="#8796fd"
       class="stopColorfc9247 svgShape"
       id="stop11" />
    <stop
       offset="1"
       stop-color="#87c0fd"
       class="stopColorfcb677 svgShape"
       id="stop12" />
  </linearGradient>
  <path
     fill="url(#d)"
     d="m 915.29513,650.70251 35.76451,12.66441 c 12.63569,-35.66886 20.99573,-72.90642 24.81227,-110.67964 l -37.7445,-3.83567 c -3.52002,34.76016 -11.20092,69.03249 -22.83228,101.8509 z"
     id="path12"
     style="fill:url(#d);stroke-width:0.956526" />
</svg>
