<?xml version="1.0" encoding="UTF-8"?>
<svg id="BusinessteamdoingCreativebrainstorming" xmlns="http://www.w3.org/2000/svg" viewBox="0 0 1400 1000">
  <defs>
    <style>
      .cls-1 {
        stroke: #413b54;
      }

      .cls-1, .cls-2, .cls-3, .cls-4 {
        fill: none;
      }

      .cls-1, .cls-2, .cls-4 {
        stroke-linecap: round;
        stroke-linejoin: round;
      }

      .cls-1, .cls-3 {
        stroke-width: 3.7px;
      }

      .cls-5 {
        fill: #a487fd;
      }

      .cls-6 {
        fill: #432f80;
      }

      .cls-7, .cls-8 {
        fill: #fff;
      }

      .cls-9 {
        fill: #cdc5e6;
      }

      .cls-10 {
        fill: #5f45b0;
      }

      .cls-11 {
        fill: #49e3e6;
      }

      .cls-12 {
        fill: #c2affe;
      }

      .cls-13 {
        fill: #c6b3ff;
      }

      .cls-2 {
        stroke: #7656da;
      }

      .cls-2, .cls-4 {
        stroke-width: 4.11px;
      }

      .cls-14 {
        fill: #87809e;
      }

      .cls-15 {
        fill: #331887;
      }

      .cls-16 {
        fill: #413b54;
      }

      .cls-17 {
        fill: #3ac7c9;
      }

      .cls-18 {
        fill: #b49cff;
      }

      .cls-19 {
        fill: #d1c2ff;
      }

      .cls-20 {
        fill: #c1adff;
      }

      .cls-21 {
        fill: #1f1a2e;
      }

      .cls-22 {
        fill: #d0f1f2;
      }

      .cls-3 {
        stroke: #b49cff;
        stroke-miterlimit: 10;
      }

      .cls-23 {
        fill: #cdbdff;
      }

      .cls-8 {
        isolation: isolate;
        opacity: .4;
      }

      .cls-24 {
        fill: #7fe9eb;
      }

      .cls-25 {
        fill: #dcd1ff;
      }

      .cls-26 {
        fill: #1a1a1a;
      }

      .cls-27 {
        fill: #543d9c;
      }

      .cls-28 {
        fill: #4d3694;
      }

      .cls-29 {
        fill: #978fb0;
      }

      .cls-4 {
        stroke: #9775ff;
      }

      .cls-30 {
        fill: #bcf1f2;
      }

      .cls-31 {
        fill: #7656da;
      }

      .cls-32 {
        fill: #87fbfd;
      }

      .cls-33 {
        fill: #2d293b;
      }

      .cls-34 {
        fill: #402a82;
      }
    </style>
  </defs>
  <path class="cls-31" d="M1304.56,1002.95c7.62-24.28,11.49-49.59,11.47-75.04,0-114.08-76.44-210.3-180.9-240.23,7.61-18.44,11.51-38.19,11.49-58.14,0-84.19-68.25-152.44-152.44-152.44-14.11-.01-28.16,1.93-41.73,5.78-56.36-90.68-156.86-151.06-271.5-151.06-148.22,0-272.85,100.96-308.93,237.86-171.78,5.3-309.42,146.2-309.42,319.27-.04,38.97,7.07,77.61,20.98,114.02l1220.98-.02Z"/>
  <path class="cls-27" d="M397.54,791.95c-63.95,0-117.87,42.89-134.59,101.47h269.18c-16.72-58.58-70.65-101.47-134.59-101.47h0Zm367.18,0c-63.95,0-117.87,42.89-134.59,101.47h269.18c-16.72-58.58-70.65-101.47-134.59-101.47h0Z"/>
  <path class="cls-27" d="M589.79,748.48c-91.32,0-168.37,61.26-192.25,144.93h384.49c-23.88-83.67-100.92-144.93-192.25-144.93Z"/>
  <path class="cls-17" d="M1204.02,834.97c-48.68,29.04-107.58,20-107.58,20l176.3-105.16s-20.03,56.12-68.71,85.16Z"/>
  <path class="cls-11" d="M1272.73,749.81l-176.3,105.16s20.03-56.12,68.7-85.15c48.67-29.03,107.6-20,107.6-20Z"/>
  <path class="cls-17" d="M1165.4,768.21c-17.13,54.04-67.18,86.39-67.18,86.39l62.03-195.68s22.28,55.26,5.15,109.3h0Z"/>
  <path class="cls-11" d="M1160.25,658.91l-62.02,195.68s-22.28-55.27-5.15-109.31c17.13-54.04,67.18-86.37,67.18-86.37Z"/>
  <path class="cls-30" d="M1001.54,843.26c-27.99,0-52.6,18.55-60.31,45.46h120.61c-7.71-26.91-32.31-45.46-60.31-45.46h0Zm164.53,0c-27.99,0-52.6,18.55-60.31,45.46h120.61c-7.71-26.91-32.31-45.46-60.31-45.46h0Z"/>
  <path class="cls-30" d="M1087.68,823.79c-40.93,0-75.44,27.45-86.14,64.94h172.29c-10.7-37.49-45.22-64.94-86.14-64.94h0Z"/>
  <path class="cls-10" d="M1034.1,931.32H344.57c-12.74,0-23.07-10.33-23.07-23.07s10.33-23.07,23.07-23.07h689.52c12.74,0,23.07,10.33,23.07,23.07s-10.33,23.07-23.07,23.07Z"/>
  <path class="cls-22" d="M117.52,312.35c-44.47,0-81.97,29.82-93.6,70.56H211.12c-11.63-40.74-49.15-70.56-93.6-70.56Zm255.36,0c-44.47,0-81.97,29.82-93.6,70.56h187.2c-11.62-40.74-49.13-70.56-93.6-70.56Z"/>
  <path class="cls-22" d="M251.24,282.13c-63.52,0-117.09,42.6-133.69,100.78H384.93c-16.62-58.18-70.19-100.78-133.69-100.78h0Z"/>
  <path class="cls-7" d="M132.54,372.79c-26.84,0-50.44,17.8-57.82,43.6h115.64c-7.38-25.81-30.97-43.6-57.82-43.6Zm157.74,0c-26.84,0-50.44,17.8-57.82,43.6h115.64c-7.38-25.81-30.97-43.6-57.82-43.6Z"/>
  <path class="cls-7" d="M215.13,354.12c-39.24,0-72.33,26.33-82.59,62.26h165.18c-10.28-35.94-43.35-62.26-82.59-62.26h0Z"/>
  <path class="cls-22" d="M298.56,104.41c-44.47,0-81.97,29.82-93.6,70.56h187.2c-11.63-40.74-49.15-70.56-93.6-70.56Zm255.36,0c-44.47,0-81.97,29.82-93.6,70.56h187.2c-11.62-40.74-49.13-70.56-93.6-70.56Z"/>
  <path class="cls-22" d="M432.28,74.19c-63.52,0-117.09,42.6-133.69,100.78h267.38c-16.62-58.18-70.19-100.78-133.69-100.78h0Z"/>
  <path class="cls-7" d="M313.58,164.85c-26.84,0-50.44,17.8-57.82,43.6h115.64c-7.38-25.81-30.97-43.6-57.82-43.6Zm157.74,0c-26.84,0-50.44,17.8-57.82,43.6h115.64c-7.38-25.81-30.97-43.6-57.82-43.6Z"/>
  <path class="cls-7" d="M396.17,146.18c-39.24,0-72.33,26.33-82.59,62.26h165.18c-10.28-35.94-43.35-62.26-82.59-62.26h0Z"/>
  <path class="cls-22" d="M934.17,210.15c-44.47,0-81.97,29.82-93.6,70.56h187.2c-11.63-40.74-49.15-70.56-93.6-70.56Zm255.36,0c-44.47,0-81.97,29.82-93.6,70.56h187.2c-11.62-40.74-49.13-70.56-93.6-70.56Z"/>
  <path class="cls-22" d="M1067.88,179.92c-63.52,0-117.09,42.6-133.69,100.78h267.38c-16.62-58.18-70.19-100.78-133.69-100.78h0Z"/>
  <path class="cls-7" d="M949.19,270.59c-26.84,0-50.44,17.8-57.82,43.6h115.64c-7.38-25.81-30.97-43.6-57.82-43.6Zm157.74,0c-26.84,0-50.44,17.8-57.82,43.6h115.64c-7.38-25.81-30.97-43.6-57.82-43.6Z"/>
  <path class="cls-7" d="M1031.78,251.92c-39.24,0-72.33,26.33-82.59,62.26h165.18c-10.28-35.94-43.35-62.26-82.59-62.26h0Z"/>
  <path class="cls-22" d="M995.75,73.55c-44.47,0-81.97,29.82-93.6,70.56h187.2c-11.63-40.74-49.15-70.56-93.6-70.56Zm255.36,0c-44.47,0-81.97,29.82-93.6,70.56h187.2c-11.62-40.74-49.13-70.56-93.6-70.56Z"/>
  <path class="cls-22" d="M1129.47,43.32c-63.52,0-117.09,42.6-133.69,100.78h267.38c-16.62-58.18-70.19-100.78-133.69-100.78h0Z"/>
  <path class="cls-7" d="M1010.77,133.99c-26.84,0-50.44,17.8-57.82,43.6h115.64c-7.38-25.81-30.97-43.6-57.82-43.6Zm157.74,0c-26.84,0-50.44,17.8-57.82,43.6h115.64c-7.38-25.81-30.97-43.6-57.82-43.6Z"/>
  <path class="cls-7" d="M1093.36,115.32c-39.24,0-72.33,26.33-82.59,62.26h165.18c-10.28-35.94-43.35-62.26-82.59-62.26h0Z"/>
  <path class="cls-22" d="M1200.24,422.38c-21.89,0-41.14,14.51-47.16,35.56h94.33c-6.03-21.05-25.27-35.56-47.17-35.56Zm128.68,0c-21.89,0-41.14,14.51-47.16,35.56h94.33c-6.03-21.05-25.27-35.56-47.17-35.56h0Z"/>
  <path class="cls-22" d="M1267.62,407.14c-31.28,0-58.77,20.72-67.38,50.79h134.74c-8.61-30.06-36.09-50.78-67.36-50.79h0Z"/>
  <path class="cls-7" d="M499.8,644.58s-40.45-13.76-44.1-23.86,36.33-1.39,53.03,18.31l-8.93,5.55Z"/>
  <path class="cls-33" d="M489.49,643.94c-4.79-5.67,9.64-11,14.29-17.03,101.9,106.44-61.15,195.26-80.13,40.72-2.9-23.64-1.65-16.09,13.86-20.57,1.59-2.21,1.13-2.11,0,0,15.5-4.49,19.13,1.39,19.11,16.53-.12,98.95,103.58,64.07,32.87-19.65h0Zm31.6,264.3h-78.66c-2.88-21.05-7.13-44.07-12.75-69.21,22.77-5.85,43.46-21.07,66.5-25.78,11.88,31.93,22.38,65.11,24.9,94.99h0Z"/>
  <path class="cls-12" d="M420.2,851.43c10.72-4.71,22.26-7.79,49.64-9.99l.56-.05c20.19-1.58,32.74-22.69,24.23-41.07-34.52-74.6-41.6-115.51-38.8-140.37,1.65-14.5-4.55-28.75-16.45-37.18l-4.64-3.29c-21.56-15.31-51.79-2.67-55.85,23.47-1.52,9.9-2.34,19.9-2.47,29.92-.73,53.27,12.53,109.18,43.78,178.56h0Z"/>
  <path class="cls-7" d="M395.14,579.01c10.23,22.68,34.32,33.94,48.18,27.68s12.24-27.65,2.01-50.33c-10.23-22.68-26.67-29.15-40.53-22.9s-19.87,22.86-9.65,45.54h0Z"/>
  <path class="cls-7" d="M399.18,579.66l25.89-3.5c.48,3.55,4.47,37.33,3.62,50.14-.82,3.97-7.22,6.01-14.32,4.57-6.38-1.3-11.11-4.98-11.42-8.59h-.03c.52-7.68-2.07-30.22-3.74-42.62h0Z"/>
  <path class="cls-21" d="M447.8,582.07c-2.62-.25-5.48-.44-7.66,1.04-.77,.53-1.41,1.23-2.22,1.72-.56,.32-1.19,.52-1.76,.82-1.27,.67-2.2,1.83-3.09,2.96-1.26,1.6-4.27,6.11-.49,6.71,.88,.1,1.77-.07,2.54-.5,2.6-1.32,4.08-4.21,6.62-5.64,.46-.25,.94-.47,1.43-.66,1.56-.66,3.12-1.31,4.74-1.81,.74-.18,1.45-.47,2.1-.86,.66-.41,1.03-1.15,.98-1.93-.21-1.31-1.86-1.73-3.18-1.86Zm-49.93,2.83s7.49-1.13,3.74-8.73-4.88-16.11-2.44-16.11,7.89,3.06,9.58-2.72,4.42-1.36,9.19-3.4,23.83-5.19,25.53-15.87-1.3-16.12-6.61-14.42-3.16-2.51-8.83-1.59c-5.67,.91-6.06,3.67-14.05,4.99s-29.32,8.32-26.64,19.98c0,0-9.21,4.87-5.47,14.4,3.74,9.53,11.27,29.17,15.99,23.48h0Z"/>
  <path class="cls-7" d="M388.39,589.74c2.38,5.28,10.67,9.67,14.49,7.94s2.85-6.43,.47-11.72-7.71-8.82-11.52-7.1c-3.81,1.72-5.82,5.59-3.44,10.87Z"/>
  <path class="cls-21" d="M405.08,590.21s-3.25-.72-.62,3.68,19.22,18.81,35.43,17.15,15.94-17.14,15.43-20.23-2.06-4.59-3.94,2.56-8.72,12.83-16.21,12.41c-7.48-.42-20.63-6.99-24.4-9.96-2.12-1.64-4.03-3.52-5.7-5.62Z"/>
  <path class="cls-33" d="M369.55,671.58c.17-11.22-1.65-17.23-.28-25.97,3.21-20.7,12.53-33.38,31.26-29.98-.82,40.25,87.4,266.87,86.83,266.92-27.38,2.19-42.95,6.95-53.67,11.66-31.25-69.38-64.9-169.34-64.14-222.63h0Zm59.63-58.42c5.15,.92,10.02,2.97,14.29,5.99l4.64,3.29c11.89,8.42,18.06,22.68,16.45,37.18-3.29,29.07-6.05,64.37,31.26,143.19-26.03-7.37-67.45-149.4-66.64-189.65h0Z"/>
  <path class="cls-7" d="M379.93,789.7s40.58-13.36,49.59-7.47c9.01,5.89-28.18,22.97-53.37,17.28l3.78-9.81Z"/>
  <path class="cls-33" d="M386.79,783.76c-1.58,6.31-3.18,13.18-4.74,19.54-110.54-34.14-127.87-122.36-12.44-170.96,23.81-10.02,30.03,23.97,11.24,30.35-109.13,37.07-65.44,86.7,5.94,121.06h0Z"/>
  <circle class="cls-33" cx="423.28" cy="657.76" r="2.58"/>
  <circle class="cls-33" cx="428.82" cy="679.67" r="2.58"/>
  <circle class="cls-33" cx="434.59" cy="700.2" r="2.58"/>
  <path class="cls-1" d="M239.63,895.65v-101.58m0,74.6l12-12m-12,.03l-12.44-12.44m12.44-20.46l-7.71-7.71"/>
  <path class="cls-6" d="M239.63,757.41v55.15s11.52-12.34,11.52-27.56-11.52-27.59-11.52-27.59Z"/>
  <path class="cls-28" d="M228.12,784.99c0,15.22,11.52,27.56,11.52,27.56v-55.13s-11.52,12.34-11.52,27.57Z"/>
  <path class="cls-6" d="M229.81,846.9l-38.81-38.81s.59,16.78,11.31,27.5,27.5,11.31,27.5,11.31h0Z"/>
  <path class="cls-28" d="M218.5,819.4c-10.72-10.72-27.5-11.31-27.5-11.31l38.81,38.81s-.59-16.78-11.31-27.5h0Z"/>
  <path class="cls-1" d="M239.63,835.38l5.95-5.95"/>
  <path class="cls-6" d="M283.58,791.43l-38.81,38.81s16.78-.59,27.5-11.31c10.72-10.72,11.31-27.5,11.31-27.5Z"/>
  <path class="cls-28" d="M256.07,802.74c-10.72,10.72-11.31,27.5-11.31,27.5l38.81-38.81s-16.78,.59-27.5,11.31Z"/>
  <path class="cls-7" d="M799.37,630.26c6.8,0,12.31-5.51,12.31-12.31,0,6.8,5.51,12.31,12.31,12.31-6.8,0-12.31,5.51-12.31,12.31,0-6.8-5.51-12.31-12.31-12.31Zm-569.08,77.85c6.8,0,12.31-5.51,12.31-12.31,0,6.8,5.51,12.31,12.31,12.31h0c-6.8,0-12.31,5.51-12.31,12.31h0c0-6.8-5.51-12.31-12.31-12.31Z"/>
  <circle class="cls-27" cx="689.33" cy="445.69" r="141.25"/>
  <path class="cls-7" d="M892.5,564.25s18.01-35.6,13.83-44.74-25.15,22.81-23.42,46.86l9.59-2.12Z"/>
  <path class="cls-19" d="M898.88,566.91c2.74-6.17-12.1-6.11-17.69-9.46-53.56,115.69,23.69,177.3,121.43,94.61,14.95-12.65,7.74-14.71-1.21-22.9,1.42-2.63,1.51-2.58,0,0-8.96-8.18-11.82-10.73-24.79,2.19-84.81,84.47-107.18,2.04-77.74-64.44Z"/>
  <path class="cls-33" d="M989.85,835.41c-12.13,22.66-21.39,47.14-28.25,72.84h-52.77c2.58-39.55,9.01-74.8,21.04-101.61,20.05,9.46,40.04,19.05,59.98,28.77Z"/>
  <path class="cls-16" d="M1004.77,908.24h-52.76c-4.8-31.02-7.32-65.28-7.77-103.87,22.37,2.97,44.71,6.23,67.01,9.77-4.57,34.49-6.81,65.6-6.48,94.1Z"/>
  <path class="cls-18" d="M1010.24,848.3c-10.7-4.22-26.1-8.31-53.01-9.46-18.28-.77-32.63-.13-43.86,1.37,47.06-100.99,55.22-151.33,50.95-179.69-2.12-14.15,3.41-28.34,14.74-37.02l4.42-3.4c20.57-15.78,50.64-4.52,55.57,20.95,1.84,9.64,3.01,19.4,3.49,29.21,2.7,52.18-4.24,108.91-32.32,178.04Z"/>
  <path class="cls-7" d="M897.16,773.23s-36.85-19.92-46.56-15.8,23.21,27.05,48.51,25.92l-1.95-10.12Z"/>
  <path class="cls-19" d="M891.82,769.19c-2.88,7.17-5.76,14.18-9.01,20.86,130.78,9.13,164.31-17.77,155.49-138.58-1.35-18.48-5.45-20.44-21.29-16.18-11.93,3.21-11.56,9.87-10.07,26.33,9.74,107.69,4.04,101.33-115.13,107.58Z"/>
  <path class="cls-7" d="M1018.9,576.6c-8.82,21.68-31.08,33.11-44.32,27.72-13.25-5.39-12.48-25.56-3.65-47.24,8.82-21.68,24.05-28.34,37.3-22.95,13.25,5.39,19.5,20.79,10.67,42.47Z"/>
  <path class="cls-21" d="M1027.67,564.06s1.07-15.75-7.75-25.19-30.11-17.1-42.46,.28c0,0-7.64,13.16,9,21.02s16.53-2.28,22.21,9.05c5.68,11.33,15.4,7.44,16.34,9.93l2.66-15.08Z"/>
  <path class="cls-15" d="M1021.77,581.96s-3.08-39.93-44.31-42.78c0,0,.05-8.64,11.22-12.91,11.17-4.27,32.18-6.09,57.14,14.31,0,0,6.45,9.08-2.11,10.93-8.55,1.85-7.94,3.37-8.23,7.33-.29,3.96-.27,28.38-13.71,23.12h0Z"/>
  <path class="cls-7" d="M1015.13,577.36l-24.46-2.39c-.33,3.35-2.88,35.25-1.65,47.27,.9,3.7,6.99,5.4,13.62,3.79,5.96-1.44,10.28-5.07,10.44-8.47h.03c-.75-7.21,.88-28.49,2.02-40.2h0Z"/>
  <path class="cls-7" d="M1025.63,588.03c-2.06,5.05-9.69,9.46-13.34,7.97s-2.92-5.95-.86-10.99,6.94-8.56,10.59-7.08,5.66,5.05,3.61,10.09h0Z"/>
  <path class="cls-26" d="M1008.43,585.45c-4.28-3.15-6.95,.94-14.55,7.37-7.6,6.43-23.08,8.12-27.97-11.62-3.12-12.58-6.28,9.58-6.29,9.6,.57,10.7,4.6,16.45,12.46,19.66,10.85,4.41,26.07,.56,38.14-10.21,1.21-5.53,1.14-12.67-1.79-14.81h0Z"/>
  <path class="cls-27" d="M799.67,478.77l60.47,53.57-60.47-20.22v-33.35Zm-220.67,0l-60.47,53.57,60.47-20.22v-33.35Z"/>
  <path class="cls-3" d="M641.62,465.18v141.36c0,9.51-7.71,17.22-17.22,17.22s-17.22-7.71-17.22-17.22v-77.41c0-8.82-7.15-15.98-15.98-15.98s-15.98,7.15-15.98,15.98v98.86c0,10.05-8.15,18.19-18.19,18.19s-18.19-8.15-18.19-18.19v-162.22c0-14.99-12.16-27.15-27.15-27.15s-27.15,12.16-27.15,27.15v72.4"/>
  <path class="cls-7" d="M712.69,348.11c0-39.26-31.83-71.08-71.08-71.08-1.13,0-2.25,.03-3.38,.08-36.69,1.69-66.34,31.67-67.66,68.37-.81,21.29,8,41.81,23.99,55.88,9.37,8.28,14.53,20.35,14.53,32.86v1.88c0,5.27,4.27,9.54,9.54,9.54h45.94c5.27,0,9.54-4.27,9.54-9.54v-1.9c0-12.66,5.41-24.71,14.85-33.14,15.11-13.46,23.74-32.73,23.72-52.97Z"/>
  <path class="cls-5" d="M649.07,493.46h-14.9c-4.07-.01-7.36-3.31-7.36-7.38v-40.37c0-.28,.23-.51,.51-.51h28.63c.28,0,.51,.23,.51,.51v40.37c0,4.08-3.3,7.38-7.38,7.38,0,0-.01,0-.02,0Z"/>
  <path class="cls-9" d="M658.4,485.71h-33.56c-4.91,0-8.89-3.98-8.89-8.89v-31c0-.34,.28-.62,.62-.62h50.12c.34,0,.62,.28,.62,.62v31c0,4.91-3.99,8.89-8.9,8.89Z"/>
  <rect class="cls-5" x="611.35" y="471.22" width="60.53" height="7.55" rx="2.2" ry="2.2"/>
  <rect class="cls-5" x="611.35" y="460.32" width="60.53" height="7.55" rx="2.2" ry="2.2"/>
  <rect class="cls-5" x="611.35" y="449.43" width="60.53" height="7.55" rx="2.2" ry="2.2"/>
  <path class="cls-18" d="M638.94,312.97c0-9-7.29-16.29-16.29-16.29s-16.29,7.29-16.29,16.29v.26c-6.7-1.41-13.29,2.88-14.7,9.58-.58,2.77-.2,5.65,1.07,8.17-7.81,3.97-10.92,13.53-6.94,21.34,.99,1.95,2.38,3.67,4.07,5.06-3.79,5.13-2.71,12.37,2.43,16.17,1.99,1.47,4.39,2.26,6.87,2.26,.26,0,.53,0,.79-.03v.03c0,5.77,4.68,10.44,10.44,10.44,2.6,0,5.11-.97,7.03-2.72,2.27,5.73,8.76,8.54,14.49,6.26,4.26-1.69,7.05-5.8,7.05-10.38v-66.44h0Z"/>
  <path class="cls-23" d="M628.42,362.91h.99v-2.42h-.99c-5.17,0-9.35-4.19-9.36-9.36v-16.54h-2.42v28.96c-2.27,.56-3.88,2.59-3.88,4.94h2.42c0-1.48,1.2-2.67,2.67-2.67s2.67,1.2,2.67,2.67h2.42c0-2.34-1.61-4.38-3.88-4.94v-5.29c2.22,2.92,5.69,4.64,9.36,4.64h0Z"/>
  <path class="cls-23" d="M640.22,337.11c0-.35-.03-.7-.08-1.05v-23.08h-2.42c0,7.78-6.31,14.09-14.09,14.11v2.42c5.76,0,11.1-3,14.1-7.92v10.02c-3.04-2.68-7.67-2.39-10.35,.64-1.19,1.34-1.84,3.07-1.84,4.86h2.42c.09-2.72,2.37-4.86,5.1-4.77,2.28,.08,4.21,1.71,4.67,3.94v35.03c-2.33-3.16-6.03-5.03-9.95-5.04v2.42c5.5,0,9.95,4.46,9.95,9.95v.77c0,5.5-4.46,9.95-9.95,9.95s-9.95-4.46-9.95-9.95h-2.42c0,1.26,.19,2.5,.57,3.7-4.05,3.1-9.84,2.32-12.94-1.73-2.36-3.09-2.53-7.32-.43-10.59,2,1.15,4.52,.82,6.15-.82l-1.71-1.71c-1.07,1.02-2.76,.98-3.78-.09-.99-1.03-.99-2.66,0-3.69l-1.71-1.71c-1.67,1.68-1.97,4.29-.71,6.3-1.15,1.63-1.86,3.52-2.06,5.5-5.71-.16-10.22-4.91-10.06-10.62,.15-5.63,4.78-10.11,10.42-10.06h1.21c.21-2.72,2.58-4.75,5.3-4.55,2.43,.19,4.36,2.12,4.55,4.55h2.42c0-4.05-3.29-7.34-7.34-7.33-2.28,0-4.43,1.06-5.82,2.87-1.28-2.88-4.14-4.74-7.3-4.74v2.42c2.65,0,4.93,1.87,5.46,4.47-3.03,.37-5.83,1.81-7.89,4.06-5.81-5.63-5.96-14.9-.33-20.71,2.5-2.58,5.86-4.15,9.45-4.42,.61,3.52,3.66,6.08,7.23,6.09v-2.42c-2.72-.21-4.75-2.58-4.55-5.3,.19-2.43,2.12-4.36,4.55-4.55v-2.42c-3.6,0-6.67,2.62-7.25,6.17-1.87,.12-3.71,.55-5.44,1.27-.44-1.28-.7-2.62-.76-3.98,0-6.18,5.02-11.19,11.2-11.19,5.77,0,10.6,4.4,11.14,10.15-2.26,.58-3.83,2.61-3.83,4.94h2.42c0-1.48,1.2-2.67,2.67-2.67s2.67,1.2,2.67,2.67h2.42c-.01-2.36-1.64-4.4-3.93-4.94-.45-5.65-4.35-10.43-9.8-12.01,.39-8.32,7.45-14.75,15.77-14.36,8.04,.38,14.36,6.99,14.38,15.04h2.42c.04-9.66-7.77-17.53-17.43-17.57-9.28-.04-16.97,7.17-17.54,16.43-7.48-.76-14.17,4.69-14.93,12.17-.05,.47-.07,.93-.07,1.4,.06,1.73,.4,3.44,1,5.07-8.11,4.81-10.78,15.28-5.97,23.38,.83,1.39,1.85,2.66,3.03,3.77-3.69,6-1.81,13.85,4.19,17.54,1.91,1.17,4.1,1.82,6.34,1.88,.72,6.39,6.49,10.99,12.88,10.27,1.89-.21,3.7-.89,5.26-1.96,3.3,5.98,10.83,8.15,16.81,4.85,3.94-2.18,6.39-6.33,6.39-10.83v-42.3h.08Z"/>
  <path class="cls-18" d="M644.29,312.97c0-9,7.29-16.29,16.29-16.29s16.29,7.29,16.29,16.29v.26c6.7-1.41,13.29,2.88,14.7,9.58,.58,2.77,.2,5.65-1.07,8.17,7.81,3.97,10.92,13.53,6.94,21.34-.99,1.95-2.38,3.67-4.07,5.06,3.79,5.13,2.71,12.37-2.43,16.17-1.99,1.47-4.39,2.26-6.87,2.26-.26,0-.53,0-.79-.03v.03c0,5.77-4.68,10.44-10.44,10.44-2.6,0-5.11-.97-7.03-2.72-2.27,5.73-8.76,8.54-14.49,6.26-4.26-1.69-7.05-5.8-7.05-10.38v-66.44h0Z"/>
  <path class="cls-23" d="M654.81,362.91h-.99v-2.42h.99c5.17,0,9.35-4.19,9.36-9.36v-16.54h2.42v28.96c2.27,.56,3.88,2.59,3.88,4.94h-2.42c0-1.48-1.2-2.67-2.67-2.67s-2.67,1.2-2.67,2.67h-2.42c0-2.34,1.61-4.38,3.88-4.94v-5.29c-2.22,2.92-5.69,4.64-9.36,4.64h0Z"/>
  <path class="cls-23" d="M643.01,337.11c0-.35,.03-.7,.08-1.05v-23.08h2.42c0,7.79,6.31,14.1,14.1,14.11v2.42c-5.76,0-11.1-3-14.1-7.92v10.02c3.04-2.68,7.67-2.39,10.35,.64,1.19,1.34,1.84,3.07,1.84,4.86h-2.42c-.09-2.72-2.37-4.86-5.1-4.77-2.28,.08-4.21,1.71-4.67,3.94v35.03c2.33-3.16,6.03-5.03,9.95-5.04v2.42c-5.5,0-9.95,4.46-9.95,9.95v.77c0,5.5,4.46,9.95,9.95,9.95s9.95-4.46,9.95-9.95h2.42c0,1.26-.19,2.5-.57,3.7,4.05,3.1,9.84,2.32,12.94-1.73,2.36-3.09,2.53-7.32,.43-10.59-2,1.15-4.52,.82-6.15-.82l1.71-1.71c1.07,1.02,2.76,.98,3.78-.09,.99-1.03,.99-2.66,0-3.69l1.71-1.71c1.67,1.68,1.97,4.29,.71,6.3,1.15,1.63,1.86,3.52,2.06,5.5,5.71-.16,10.22-4.91,10.06-10.62-.15-5.63-4.78-10.11-10.42-10.06h-1.21c-.21-2.72-2.58-4.75-5.3-4.55-2.43,.19-4.36,2.12-4.55,4.55h-2.42c0-4.05,3.29-7.34,7.34-7.33,2.28,0,4.43,1.06,5.82,2.87,1.28-2.88,4.14-4.74,7.3-4.74v2.42c-2.65,0-4.93,1.87-5.46,4.47,3.03,.37,5.83,1.81,7.89,4.06,5.81-5.63,5.96-14.9,.33-20.71-2.5-2.58-5.86-4.15-9.45-4.42-.61,3.52-3.66,6.08-7.23,6.09v-2.42c2.72-.21,4.75-2.58,4.55-5.3-.19-2.43-2.12-4.36-4.55-4.55v-2.42c3.6,0,6.67,2.62,7.25,6.17,1.87,.12,3.71,.55,5.44,1.27,.44-1.28,.7-2.62,.76-3.98,0-6.18-5.02-11.19-11.2-11.19-5.77,0-10.6,4.4-11.14,10.15,2.26,.58,3.83,2.61,3.83,4.94h-2.42c0-1.48-1.2-2.67-2.67-2.67s-2.67,1.2-2.67,2.67h-2.42c.01-2.36,1.64-4.4,3.93-4.94,.45-5.65,4.35-10.43,9.8-12.01-.39-8.32-7.45-14.75-15.77-14.36-8.04,.38-14.36,6.99-14.38,15.04h-2.42c-.04-9.66,7.77-17.53,17.43-17.57,9.28-.04,16.97,7.17,17.54,16.43,7.48-.76,14.17,4.69,14.93,12.17,.05,.47,.07,.93,.07,1.4-.06,1.73-.4,3.44-1,5.07,8.11,4.81,10.78,15.28,5.97,23.38-.83,1.39-1.85,2.66-3.03,3.77,3.69,6,1.81,13.85-4.19,17.54-1.91,1.17-4.1,1.82-6.34,1.88-.72,6.39-6.49,10.99-12.88,10.27-1.89-.21-3.7-.89-5.26-1.96-3.3,5.98-10.83,8.15-16.81,4.85-3.94-2.18-6.39-6.33-6.39-10.83v-42.3h-.09Z"/>
  <path class="cls-30" d="M493.12,548.98c1.54,0,2.79,1.25,2.79,2.79h0v22.05c0,1.54-1.25,2.79-2.79,2.79h0c-1.54,0-2.79-1.25-2.79-2.79h0v-22.05c0-1.54,1.25-2.79,2.79-2.79h0Zm-17.24,0c1.54,0,2.79,1.25,2.79,2.79h0v22.05c0,1.54-1.25,2.79-2.79,2.79h0c-1.54,0-2.79-1.25-2.79-2.79h0v-22.05c0-1.54,1.25-2.79,2.79-2.79h0Z"/>
  <path class="cls-14" d="M500.35,559.26h-31.7v-21.49c0-8.75,7.1-15.85,15.85-15.85h0c8.75,0,15.85,7.1,15.85,15.85h0v21.49h0Z"/>
  <rect class="cls-29" x="462.65" y="550.33" width="43.69" height="8.77" rx="1.25" ry="1.25"/>
  <circle class="cls-18" cx="484.5" cy="533.01" r="2.19"/>
  <path class="cls-18" d="M756.24,361.97c0-3.13-3.02-4.74-6.76-4.74-4.34,0-8.37,2.62-10.49,6.86l-17.95-8.98c5.14-9.68,15.33-16.34,31.46-16.34s27.63,6.66,27.63,19.26c0,15.43-16.13,18.15-16.13,25.92h-20.79c0-12.2,13.02-15.83,13.02-21.98h0Zm-15.93,37.92c0-6.75,5.45-11.9,13.31-11.9s13.31,5.14,13.31,11.9-5.45,12.1-13.31,12.1-13.31-5.45-13.31-12.1Z"/>
  <path class="cls-34" d="M700.1,495.74v-.12c-.02-.1-.04-.21-.06-.31v-.07c-.02-.11-.05-.21-.07-.31v-.16l-.05-.19v-.07l-.05-.19-.02-.08v-.07c-.03-.1-.06-.21-.09-.31l-.02-.07-.1-.3-.02-.07v-.04l1.59-1.16,1.19-.86c-.35-1.09-.86-2.12-1.51-3.06l-1.42,.41-1.89,.56-.05-.07-.18-.26-.05-.06-.19-.26-.04-.05-.09-.12-.09-.12-.04-.05-.2-.26-.05-.06-.21-.25-.05-.06,1.05-1.65,.79-1.23c-.73-.88-1.58-1.65-2.53-2.29l-1.16,.91-1.54,1.23-.03-.02-.07-.05-.27-.18-.07-.04-.27-.17-.07-.04-.07-.05-.17-.1h-.06l-.17-.1-.07-.04-.07-.04-.28-.16-.07-.04-.28-.15-.07-.04h-.04l.31-1.95,.23-1.46c-1.02-.52-2.1-.89-3.23-1.1l-.71,1.29-.94,1.73h-.1l-.32-.06h-.07l-.32-.05h-.07l-.14-.02h-.21l-.32-.04h-.07l-.32-.03h-.1l-.43-1.92-.32-1.44c-1.14-.11-2.29-.05-3.41,.18l-.18,1.47-.23,1.95h-.12l-.32,.06h-.07l-.32,.07h-.16l-.19,.05h-.07l-.19,.05-.08,.02h-.07l-.31,.09-.07,.02-.3,.1-.07,.02h-.04l-1.16-1.6-.86-1.19c-1.09,.35-2.12,.86-3.06,1.51l.41,1.42,.56,1.89-.06,.05-.27,.18-.06,.05-.26,.19-.05,.04-.12,.09-.12,.09-.05,.04-.26,.2-.06,.05-.25,.21-.06,.05-1.65-1.05-1.23-.79c-.88,.73-1.65,1.58-2.29,2.53l.91,1.16,1.23,1.54-.02,.04-.04,.06-.18,.27-.04,.06-.17,.28-.04,.06-.05,.07-.1,.17v.06l-.1,.17-.04,.07-.04,.07-.15,.28-.04,.07-.15,.28-.03,.07v.04l-1.94-.31-1.46-.23c-.52,1.02-.9,2.1-1.1,3.23l1.29,.71,1.73,.94v.1c-.02,.11-.04,.21-.06,.32v.07c0,.11-.04,.21-.05,.32v.07l-.02,.14v.21c0,.11-.02,.21-.04,.32v.07c0,.11-.02,.21-.03,.32v.1l-1.92,.43-1.44,.32c-.11,1.14-.05,2.29,.18,3.41l1.47,.18,1.95,.23v.12c0,.1,.04,.21,.06,.31v.08c.02,.1,.05,.21,.07,.31v.16l.05,.19v.07l.05,.19,.02,.08v.07c.03,.1,.06,.21,.09,.31l.02,.07,.1,.31,.02,.07v.04l-1.6,1.16-1.19,.86c.35,1.09,.86,2.12,1.51,3.06l1.42-.41,1.89-.56,.05,.07,.18,.26,.05,.06,.19,.26,.04,.05,.09,.12,.09,.12,.04,.05,.2,.26,.05,.06,.21,.25,.05,.06-1.05,1.65-.79,1.23c.73,.88,1.58,1.65,2.53,2.29l1.16-.91,1.54-1.23,.04,.02,.06,.04,.27,.18,.07,.04,.27,.17,.07,.04,.07,.05,.17,.1h.06l.17,.1,.07,.04,.06,.04,.28,.16,.07,.03,.29,.15,.07,.03h.04l-.31,1.94-.23,1.46c1.02,.52,2.1,.9,3.23,1.1l.71-1.29,.94-1.73h.1l.32,.06h.07l.32,.05h.07l.14,.02h.21l.32,.04h.07l.32,.03h.1l.43,1.92,.32,1.44c1.14,.11,2.29,.05,3.41-.18l.18-1.47,.23-1.95h.12l.31-.06h.08l.31-.07h.08l.09-.02,.19-.05h.07l.19-.05,.08-.02h.07l.31-.09,.07-.02,.31-.1,.07-.02h.04l1.16,1.59,.86,1.19c1.09-.35,2.12-.86,3.06-1.51l-.41-1.42-.56-1.89,.07-.05,.26-.18,.07-.05,.26-.19,.05-.04,.12-.09,.12-.09,.05-.04,.26-.2,.06-.05,.25-.21,.06-.05,1.65,1.05,1.23,.79c.88-.73,1.65-1.58,2.29-2.53l-.91-1.16-1.23-1.54,.02-.03,.05-.07,.18-.26,.05-.07,.17-.27,.04-.07,.05-.07,.1-.17v-.07l.1-.17,.04-.07,.04-.07,.16-.28,.04-.07,.15-.29,.03-.07v-.04l1.94,.31,1.46,.23c.52-1.02,.89-2.1,1.1-3.23l-1.29-.71-1.73-.94h0s0-.07,0-.07c0-.1,.04-.21,.06-.32v-.08c0-.11,.03-.21,.05-.32v-.07s0-.09,.02-.14v-.21c0-.11,.02-.21,.04-.32v-.07c0-.11,.02-.21,.03-.32v-.1l1.92-.43,1.44-.32c.11-1.14,.05-2.29-.18-3.41l-1.47-.18-1.95-.22Zm-7.72,2.69c.27,5.23-3.75,9.69-8.98,9.97-5.23,.27-9.69-3.75-9.97-8.98-.27-5.23,3.75-9.69,8.98-9.97,0,0,0,0,0,0,5.22-.27,9.68,3.74,9.96,8.96v.02Zm83.54,20.54v-.08c0-.05,0-.11-.03-.16-.04-.21-.08-.42-.13-.63l-.04-.16c-.05-.21-.09-.41-.14-.63l-.04-.15c0-.06-.03-.11-.04-.17-.03-.13-.07-.26-.1-.39v-.14l-.1-.38c0-.06-.03-.11-.05-.17l-.04-.14c-.06-.21-.12-.41-.19-.63l-.04-.15c-.06-.21-.13-.41-.2-.62l-.05-.15-.02-.08,3.22-2.33,2.41-1.74c-.71-2.19-1.73-4.27-3.04-6.17l-2.85,.82-3.81,1.12-.02-.04-.09-.13c-.12-.18-.24-.36-.37-.53l-.09-.13-.38-.53-.08-.11-.17-.23-.18-.23-.08-.11-.41-.51-.1-.12-.41-.5-.1-.12-.03-.03,2.12-3.35,1.59-2.52c-1.48-1.79-3.22-3.34-5.16-4.62l-2.34,1.84-3.11,2.47-.07-.05-.13-.09-.54-.36-.13-.09-.55-.35-.13-.08-.14-.09-.35-.21-.06-.04-.07-.04-.34-.2-.15-.09-.14-.07-.57-.31-.14-.07-.57-.3-.14-.07-.07-.04,.63-3.92,.47-2.94c-2.05-1.06-4.25-1.8-6.52-2.23l-1.43,2.61-1.9,3.46h-.04l-.16-.03-.64-.12-.15-.02-.65-.1h-.13l-.28-.04-.29-.04h-.13l-.65-.08h-.15l-.65-.06h-.2l-.88-3.87-.66-2.91c-2.3-.22-4.62-.1-6.88,.36l-.35,2.96-.47,3.94h-.08l-.15,.03-.64,.13-.15,.03-.64,.14-.15,.04-.17,.04-.39,.1h-.14l-.39,.1-.17,.05-.15,.04-.63,.19-.15,.05-.61,.2-.15,.05-.08,.02-2.33-3.22-1.74-2.41c-2.19,.71-4.27,1.73-6.17,3.04l.82,2.85,1.12,3.81-.04,.02-.13,.09c-.18,.12-.36,.24-.53,.37l-.13,.09-.53,.38-.11,.08-.23,.17-.23,.18-.1,.08-.52,.41-.12,.09-.51,.41-.12,.09-.03,.03-3.35-2.12-2.52-1.59c-1.79,1.46-3.35,3.18-4.64,5.09l1.84,2.34,2.47,3.11-.05,.07-.09,.13c-.12,.18-.24,.36-.36,.54l-.08,.13-.35,.55-.08,.13-.09,.15-.21,.34-.03,.06-.04,.06-.2,.35-.09,.15-.07,.13-.31,.57-.07,.14c-.1,.19-.2,.38-.3,.58l-.07,.14-.04,.07-3.92-.63-2.94-.47c-1.06,2.05-1.81,4.25-2.23,6.52l2.61,1.43,3.49,1.9v.05l-.03,.15c-.04,.21-.08,.41-.12,.64l-.02,.15c-.04,.21-.07,.41-.1,.65v.13s-.03,.19-.04,.29l-.04,.29v.13c-.03,.22-.05,.44-.08,.65v.15c-.02,.22-.05,.43-.06,.65v.2l-3.87,.88-2.91,.66c-.22,2.3-.1,4.62,.36,6.88l2.96,.35,3.94,.47v.08c0,.05,0,.11,.03,.16,.04,.21,.08,.41,.13,.63,0,.05,.02,.1,.03,.15,.05,.21,.09,.41,.14,.63,0,.05,.02,.1,.04,.15l.04,.17c.03,.13,.07,.26,.1,.39v.14l.1,.39,.05,.16,.04,.14c.06,.21,.12,.41,.19,.63l.04,.14,.2,.62,.05,.14s0,.05,.02,.08l-3.22,2.33-2.41,1.74c.71,2.19,1.73,4.27,3.04,6.17l2.85-.82,3.81-1.12,.02,.04,.09,.13c.12,.18,.24,.36,.37,.53l.09,.13,.38,.53,.08,.11,.17,.23,.18,.23,.08,.1c.13,.17,.27,.35,.41,.52l.09,.12c.14,.17,.28,.34,.41,.51l.09,.12,.03,.03-2.12,3.35-1.59,2.52c1.47,1.78,3.2,3.33,5.12,4.61l2.34-1.84,3.11-2.47,.07,.05,.13,.09,.54,.36,.13,.08,.55,.35,.13,.08,.15,.09,.34,.21,.06,.03,.06,.04,.35,.2,.15,.09,.13,.07,.58,.32,.13,.07,.58,.3,.14,.07,.08,.04-.63,3.92-.47,2.94c2.05,1.06,4.25,1.81,6.52,2.23l1.43-2.61,1.9-3.49h.05l.15,.03,.64,.12,.15,.02,.65,.1h.13l.29,.04,.28,.04h.13l.65,.08h.15l.65,.06h.2l.88,3.87,.66,2.91c2.3,.22,4.62,.1,6.88-.36l.35-2.96,.47-3.94h.08l.16-.03,.63-.13,.16-.03,.63-.14,.15-.04,.17-.04,.39-.1h.14l.38-.1,.17-.05,.14-.04,.63-.19,.14-.04,.62-.2,.14-.05,.08-.02,2.33,3.22,1.74,2.41c2.19-.71,4.27-1.73,6.17-3.04l-.82-2.85-1.12-3.81,.04-.02,.13-.09,.53-.37,.13-.09,.53-.38,.11-.08,.23-.17,.23-.18,.1-.08,.51-.41,.12-.09,.5-.41,.12-.1,.03-.03,3.35,2.12,2.52,1.59c1.77-1.44,3.32-3.12,4.61-5l-1.84-2.34-2.47-3.11,.05-.07,.09-.14,.35-.53,.09-.14,.34-.54,.08-.14,.09-.15,.2-.34,.04-.06,.04-.06,.2-.35,.09-.15,.07-.13c.11-.19,.21-.38,.31-.57l.07-.14,.3-.58,.07-.14,.04-.08,3.92,.63,2.94,.47c1.06-2.05,1.8-4.25,2.23-6.52l-2.61-1.43-3.49-1.9s0-.03,0-.04l.03-.16c.04-.21,.08-.41,.12-.64l.03-.16c.04-.21,.07-.41,.1-.64v-.14s.03-.19,.04-.29l.04-.28v-.13c.03-.22,.05-.44,.08-.65v-.15l.06-.65v-.2l3.87-.88,2.91-.66c.22-2.3,.1-4.62-.36-6.88l-2.96-.35-3.82-.49Zm-15.58,5.44c.55,10.56-7.57,19.56-18.12,20.11-10.56,.55-19.56-7.57-20.11-18.12-.55-10.56,7.57-19.56,18.12-20.11,0,0,0,0,0,0,10.56-.55,19.56,7.57,20.1,18.13,0,0,0,0,0,0h0Z"/>
  <path class="cls-21" d="M692.15,543.23s-17.94,5.5-14.56,16.87,20.69-6.56,20.69-6.56c0,0,1.98-14.19-6.13-10.31Z"/>
  <path class="cls-18" d="M712.76,835.37c-8.29,23.79-15.87,48.13-22.98,72.87h-58.45c4.48-30.28,10.37-60.78,18.98-92,20.9,6.08,41.72,12.46,62.44,19.13h0Z"/>
  <path class="cls-18" d="M747.34,908.24h-58.41c-7.11-24.74-14.69-49.08-22.98-72.87,20.68-6.71,41.49-13.09,62.43-19.13,8.58,31.21,14.47,61.72,18.96,92Z"/>
  <path class="cls-33" d="M745.74,889.47c-18.65-1.13-48.91-11.93-67.8-8.08-1.45,.32-3.03,.56-4.72,.77v-40.4l-5.25,40.89c-12.31,.85-28.12-.11-33.93-2.06,10.26-56.48,27.92-157.53,30.79-211.85,1.13-21.76,8.28-33.32,15.99-39.24,1.75-1.33,3.65-2.47,5.65-3.39,13.04-6.66,25.96-7.1,36.01-1.58,8.23,4.44,14.57,12.84,17.6,25.03,2.26,9.05,1.65,16.23,.73,28.3-4.28,57.41-2.72,144.88,4.95,211.61h0Z"/>
  <path class="cls-7" d="M680.81,629.51l1.1,36.64,1.35,46.01,19.12-42.78,20.09-44.87c-10.08-5.52-22.97-5.09-36,1.57-2.01,.93-3.91,2.08-5.66,3.43Zm38.88-40.45c-12.59,19.36-36.29,26.28-48.13,18.59-11.84-7.7-7.32-27.1,5.29-46.45,12.61-19.36,28.59-22.97,40.42-15.28s15.01,23.78,2.42,43.15Z"/>
  <path class="cls-7" d="M716.9,585.85l-24.14-2.36c-.32,3.29-2.85,34.78-1.65,46.64,.88,3.65,6.91,5.35,13.44,3.74,5.88-1.43,10.14-5,10.28-8.36h.03c-.71-7.12,.9-28.11,2.03-39.66Z"/>
  <path class="cls-21" d="M707.9,595.7c-3.56-3.85-6.91-.38-15.47,4.43-8.56,4.81-23.86,3.57-24.94-16.47-.45-8.48-3.78-2.12-5.96,3.11-1.6,3.84-2.54,7.98-2.21,12.13,.51,6.41,3.43,10.84,8.69,14.26,7.88,5.13,19.58,5.49,31.05,1.04,6.09-2.36,10.51-8.14,10.14-14.67-.09-1.62-.49-2.97-1.3-3.83h0Z"/>
  <path class="cls-21" d="M666.83,582.89l.82,.44c4.22,2.28,23.34,13.02,25.28,20.93,2.18,8.9-10.28-3.44-14.06-9.14-3.77-5.7-8.33-4.94-12.43-6.14s-5.97-6.32,.38-6.09h0Zm63.69-4.33s3.97-15.06-2.81-25.85c-6.78-10.79-25.99-22.18-41.19-7.65,0,0-9.87,11.31,4.8,22.04s16.45,.88,19.84,12.91,13.53,10.08,13.99,12.67l5.37-14.12Z"/>
  <path class="cls-20" d="M681.91,666.16l1.35,46.01,19.12-42.77-.75-27.92h-8.44l-11.29,24.68h0Z"/>
  <path class="cls-7" d="M725.46,600.05c-2.93,4.52-11.15,7.36-14.4,5.24s-1.7-6.31,1.23-10.81c2.94-4.51,8.32-6.99,11.58-4.88,3.26,2.11,4.51,5.95,1.58,10.46Zm40.88,260.12s-28.3,30.12-38.67,29.28c-10.37-.84,13.32-32.55,37.35-39.38l1.32,10.09Z"/>
  <path class="cls-33" d="M768.49,866.27c-4.88-4.76-10.22-9.49-15.47-14.48,76.97-72.3,102.27-144.03-25.15-182.26-19.49-5.85-20.16-10.7-10.7-24-2.47-2.53-2.51-2.5,0,0,9.46-13.29,14.37-10.45,32.22-1.3,116.67,59.8,116.74,141,19.1,222.05Z"/>
  <path class="cls-7" d="M607.18,850.38s23.3,34.14,33.68,34.92c10.38,.77-8.12-34.22-30.81-44.68l-2.87,9.77Z"/>
  <path class="cls-33" d="M677.82,635.02l-2.62,32.91c-.16,.04-.36,.04-.53,.08-131.81,18.05-117.92,92.81-53.07,176.18-5.98,4.08-11.99,7.95-17.52,11.93-83.92-95.19-71.3-175.41,53.25-216.43,9.76-3.26,15.86-5.36,20.49-4.67h0Z"/>
  <path class="cls-16" d="M571.86,470.97l3.51-4.15,48.9,41.28-3.51,4.15-48.9-41.28Z"/>
  <path class="cls-17" d="M585.45,484.59l5.62-6.65,35.49,29.96-5.62,6.65-35.49-29.96Z"/>
  <path class="cls-16" d="M522.62,425.85c-12.21,14.47-10.38,36.09,4.09,48.3,14.47,12.21,36.09,10.38,48.3-4.09,12.21-14.47,10.38-36.09-4.08-48.3-14.47-12.21-36.09-10.38-48.31,4.08,0,0,0,0,0,0Zm50.03,42.23c-11.12,13.16-30.79,14.82-43.95,3.7-13.16-11.12-14.82-30.79-3.7-43.95,11.11-13.16,30.79-14.82,43.95-3.7,13.16,11.11,14.82,30.79,3.7,43.95h0Z"/>
  <circle class="cls-8" cx="548.83" cy="447.98" r="31.19" transform="translate(-147.52 578.39) rotate(-49.83)"/>
  <path class="cls-25" d="M724.38,399.99l-33.54,11.67,14.11,40.54,40.54-14.11-11.67-33.54-9.42-4.56h0Z"/>
  <path class="cls-13" d="M726.81,406.98l6.99-2.43-9.42-4.56,2.43,6.99Z"/>
  <path class="cls-7" d="M703.82,417.96l21.27-7.4,7.4,21.27-21.27,7.4-7.4-21.27Z"/>
  <path class="cls-2" d="M710.75,423.95l8.42,4.08m4.21-8.47l-4.08,8.42"/>
  <path class="cls-32" d="M761.51,427.97h-35.52v42.92h42.92v-35.52l-7.4-7.4Z"/>
  <path class="cls-17" d="M761.51,435.37h7.4l-7.4-7.4v7.4Z"/>
  <path class="cls-7" d="M736.19,438.17h22.52v22.52h-22.52v-22.52Z"/>
  <path class="cls-4" d="M743.07,445.05l8.76,8.76m0-8.76l-8.76,8.76"/>
  <path class="cls-9" d="M813.72,411.08h-35.51v42.92h42.92v-35.51l-7.4-7.4h0Z"/>
  <path class="cls-5" d="M813.72,418.48h7.4l-7.4-7.4v7.4Zm-29.72,2.86h31.34v2.46h-31.34v-2.46Zm0,4.38h31.34v2.46h-31.34v-2.46Zm0,4.38h31.34v2.46h-31.34v-2.46Zm0,4.38h31.34v2.46h-31.34v-2.46Zm0,4.38h31.34v2.46h-31.34v-2.46Zm0,4.38h23.43v2.46h-23.43v-2.46Z"/>
  <path class="cls-7" d="M783.4,485.71c6.8,0,12.31-5.51,12.31-12.31h0c0,6.8,5.51,12.31,12.31,12.31-6.8,0-12.31,5.51-12.31,12.31,0-6.8-5.51-12.31-12.31-12.31h0Zm-7-93.92c3.79,0,6.87-3.08,6.87-6.87,0,3.79,3.08,6.87,6.87,6.87-3.79,0-6.87,3.08-6.87,6.87,0-3.79-3.08-6.87-6.87-6.87Zm-120.69,142.51c3.79,0,6.88-3.06,6.88-6.86v-.02c0,3.79,3.08,6.87,6.87,6.87-3.79,0-6.87,3.08-6.87,6.87,0-3.79-3.08-6.87-6.88-6.86h0Z"/>
  <path class="cls-25" d="M236.27,882.26c-32.06,0-60.23,21.24-69.06,52.06h138.11c-8.83-30.82-37-52.06-69.06-52.06h0Zm188.4,0c-32.06,0-60.23,21.24-69.06,52.06h138.11c-8.83-30.82-37-52.06-69.06-52.06h0Z"/>
  <path class="cls-25" d="M334.91,859.96c-46.87,0-86.39,31.43-98.64,74.36h197.28c-12.25-42.93-51.77-74.36-98.64-74.36Z"/>
  <path class="cls-7" d="M832.59,667.38c3.79,0,6.87-3.08,6.87-6.87,0,3.79,3.08,6.87,6.87,6.87-3.79,0-6.87,3.08-6.87,6.87,0-3.79-3.08-6.87-6.87-6.87Zm-641.59,18.28c3.79,0,6.87-3.08,6.87-6.87,0,3.79,3.08,6.87,6.87,6.87-3.79,0-6.87,3.08-6.87,6.87,0-3.79-3.08-6.87-6.87-6.87Zm749.05-167.74c3.79,0,6.87-3.08,6.87-6.87,0,3.79,3.08,6.87,6.87,6.87-3.79,0-6.87,3.08-6.87,6.87,0-3.79-3.08-6.87-6.87-6.87ZM160.32,869.78c3.79,0,6.87-3.08,6.87-6.87,0,3.79,3.08,6.87,6.87,6.87-3.79,0-6.87,3.08-6.87,6.87,0-3.79-3.08-6.87-6.87-6.87Zm1080.23-22.88c3.79,0,6.87-3.08,6.87-6.87,0,3.79,3.08,6.87,6.87,6.87-3.79,0-6.87,3.08-6.87,6.87,0-3.79-3.08-6.87-6.87-6.87ZM583.84,430.11c3.79,0,6.87-3.08,6.87-6.87,0,3.79,3.08,6.87,6.87,6.87-3.79,0-6.87,3.08-6.87,6.87,0-3.79-3.08-6.87-6.87-6.87Z"/>
  <path class="cls-24" d="M866.82,906.69c-21.52,0-40.44,14.27-46.35,34.97h92.71c-5.92-20.7-24.83-34.96-46.36-34.97h0Zm126.46,0c-21.52,0-40.44,14.27-46.35,34.97h92.71c-5.92-20.7-24.83-34.96-46.36-34.97Z"/>
  <path class="cls-24" d="M933.03,891.72c-30.74,0-57.77,20.36-66.23,49.91h132.42c-8.46-29.54-35.46-49.9-66.19-49.91Z"/>
</svg>