<?xml version="1.0" encoding="UTF-8"?>
<svg id="BusinessMeeting" xmlns="http://www.w3.org/2000/svg" viewBox="0 0 1400 1000">
  <defs>
    <style>
      .cls-1 {
        fill: #a487fd;
      }

      .cls-2 {
        fill: #fff;
      }

      .cls-3, .cls-4 {
        fill: #1c0368;
      }

      .cls-5, .cls-6 {
        fill: #835ef4;
      }

      .cls-6, .cls-4, .cls-7 {
        fill-rule: evenodd;
      }

      .cls-7, .cls-8 {
        fill: #87fbfd;
      }
    </style>
  </defs>
  <path class="cls-8" d="M1019.64,263.89c0,19.87-40.08,17.21-67.83,9.39-40.08-9.39-67.83-28.16-58.58-68.84,0-32.86,32.38-27.42,70.91-12.52,32.37,12.52,55.49,52.1,55.49,71.97Z"/>
  <path class="cls-8" d="M89.34,805.2c0,43.4,19.9,85.75,44.35,120.8,38,54.47,105.53,75.15,171.91,75.15h791.61c46,0,76.47-65.02,77.98-111.03,2.24-68.39,41.32-145.87,29.92-260.95-17.77-179.35-138.58-234.15-264.73-302.23-126.15-68.09-44.42-167.72-261.18-227.51C462.44,39.65,233.25,237.26,240.35,421.59c7.11,184.33-151.02,210.9-151.02,383.61Z"/>
  <path class="cls-2" d="M585,1001.15h147.55c80.03-28.79,160.06-161.44,86.28-147.68-73.77,13.77-146.3,7.51-50.02-40.05,96.28-47.56,43.76-83.85,0-80.1-43.76,3.76-36.27-26.28-18.76-83.85,17.51-57.57,0-110.13-48.76-110.13s-10,142.67-48.77,152.68c-38.76,10.01-20.01-56.32-67.52-42.55-47.52,13.76,30.01,177.71,0,163.94-30.01-13.76-26.26-80.1-80.03-30.04-43.02,40.05,35.43,161.86,80.03,217.76Z"/>
  <path class="cls-2" d="M419.19,120.33c0-13.5,10.95-24.45,24.45-24.45h432.71c13.5,0,24.45,10.95,24.45,24.45V675.42c0,13.51-10.95,24.46-24.45,24.46H443.64c-13.5,0-24.45-10.95-24.45-24.46V120.33Z"/>
  <path class="cls-4" d="M415.53,120.33c0-15.53,12.59-28.12,28.12-28.12h432.71c15.53,0,28.12,12.59,28.12,28.12V675.42c0,15.53-12.59,28.12-28.12,28.12H443.64c-15.53,0-28.12-12.59-28.12-28.12V120.33Zm28.12-20.79c-11.48,0-20.79,9.31-20.79,20.79V675.42c0,11.48,9.31,20.79,20.79,20.79h432.71c11.48,0,20.78-9.31,20.78-20.79V120.33c0-11.48-9.31-20.79-20.78-20.79H443.64Z"/>
  <path class="cls-3" d="M419.19,120.33c0-13.5,10.95-24.45,24.45-24.45h432.71c13.5,0,24.45,10.95,24.45,24.45v58.45H419.19v-58.45Z"/>
  <path class="cls-2" d="M494.2,137.33c0,9.81-7.95,17.76-17.76,17.76s-17.77-7.95-17.77-17.76,7.95-17.76,17.77-17.76,17.76,7.95,17.76,17.76Zm59.22,0c0,9.81-7.95,17.76-17.77,17.76s-17.76-7.95-17.76-17.76,7.95-17.76,17.76-17.76,17.77,7.95,17.77,17.76Zm59.21,0c0,9.81-7.95,17.76-17.77,17.76s-17.76-7.95-17.76-17.76,7.95-17.76,17.76-17.76,17.77,7.95,17.77,17.76Z"/>
  <path class="cls-7" d="M738.95,245.61h-250.67v-7.33h250.67v7.33Zm0,256.6h-250.67v-7.33h250.67v7.33Zm0,71.06h-250.67v-7.33h250.67v7.33Z"/>
  <path class="cls-6" d="M490.53,321.66c0-15.53,12.59-28.12,28.12-28.12h243.22c15.53,0,28.12,12.59,28.12,28.12v93.21c0,15.53-12.59,28.12-28.12,28.12h-243.22c-15.53,0-28.12-12.59-28.12-28.12v-93.21Zm28.12-20.79c-11.48,0-20.79,9.31-20.79,20.79v93.21c0,11.48,9.31,20.79,20.79,20.79h243.22c11.48,0,20.79-9.31,20.79-20.79v-93.21c0-11.48-9.31-20.79-20.79-20.79h-243.22Z"/>
  <path class="cls-5" d="M636.32,633.53c0-13.5,10.95-24.45,24.46-24.45h2.41c13.5,0,24.45,10.95,24.45,24.45v2.41c0,13.5-10.95,24.46-24.45,24.46h-2.41c-13.51,0-24.46-10.95-24.46-24.46v-2.41Z"/>
  <path class="cls-7" d="M727.4,633.53c0-15.53,12.59-28.12,28.12-28.12h2.41c15.53,0,28.12,12.59,28.12,28.12v2.41c0,15.53-12.59,28.12-28.12,28.12h-2.41c-15.53,0-28.12-12.59-28.12-28.12v-2.41Zm28.12-20.79c-11.48,0-20.79,9.31-20.79,20.79v2.41c0,11.48,9.31,20.79,20.79,20.79h2.41c11.48,0,20.79-9.31,20.79-20.79v-2.41c0-11.48-9.31-20.79-20.79-20.79h-2.41Z"/>
  <path class="cls-6" d="M598.74,335.29c-4.41-6.96-14.63-6.78-18.79,.34l-30.96,52.89c-3.29,5.62-9.31,9.07-15.82,9.07h-38.96v-7.33h38.96c3.91,0,7.52-2.07,9.5-5.44l30.96-52.89c6.94-11.85,23.96-12.15,31.31-.55l27.37,43.16c4.06,6.4,13.21,6.88,17.91,.94l22.07-27.83c6.93-8.74,19.98-9.32,27.66-1.24l21.53,22.66c2.08,2.19,4.96,3.43,7.98,3.43h54.89v7.33h-54.89c-5.02,0-9.83-2.06-13.29-5.71l-21.53-22.66c-4.61-4.85-12.44-4.5-16.6,.74l-22.07,27.83c-7.84,9.88-23.09,9.08-29.85-1.57l-27.37-43.17Z"/>
  <path class="cls-3" d="M653.45,999.28c-23.69-42.64-128.3-72.16-177.65-82.03l-41.54,82.03h219.18Z"/>
  <path class="cls-1" d="M297.27,444.82l-11.28,35.33,67,25.04,9.22-50.98c10.78,1.24,35.41-6.25,47.69-46.09,15.35-49.8-4.88-112.83-47.52-119.17-42.64-6.34-73.75,29.6-81.53,76.42-6.23,37.45,8.35,68.58,16.42,79.46Z"/>
  <path class="cls-3" d="M297.01,442.86c6.88,3.88,35.21,5.33,48.51,5.57,9.78-1.29,14.63-9.88,20.65-24.62,4.82-11.78-2.83-21.52-7.26-24.92-27.09-24.31,.73-47.88,9.48-49.02,8.9-1.17,10.13,16.03,10.35,31.62,.07,5.16,6,6.15,7.98,1.38,4.5-10.79,9.62-22.03,13.83-30.44,3.87-7.72,11.07-12.78,18.88-16.48,40.73-19.26,38.41-56.43,28.27-64.21-11.07-8.5-17.1,6.23-56.6-6.5-39.5-12.73-96.77-9.18-122.06,55.86-25.29,65.04,19.35,116.9,27.95,121.74Z"/>
  <path class="cls-1" d="M797.53,834.35c-10.23-43.8-67.62-52.4-95.04-51.22l-3.65,51.22h98.69Z"/>
  <path class="cls-5" d="M258.68,469.19c-33.16,25.26-74.44,94.29-89.01,144.25-36.23,124.23-84.61,366.6,42.56,385.84,108.06,.13,197.98,.05,229.44,0,14.7-22.17,41.91-72.86,33.15-101.77l-4.93-43.42c57.76,25.36,161.7,7.57,221.3-8.25,11.39-3.02,18.52-14.06,17.16-25.76l-5.14-44.2c-1.38-11.83-11.16-20.9-23.02-21.9-128.89-10.9-162.5-53.99-192.53-95.29-31.58-43.43-90.79-138.17-116.45-159.88-25.66-21.71-71.06-61.19-112.51-29.61Z"/>
  <path class="cls-3" d="M317.9,704.07c37.9,75.79,102.64,128.3,153.96,151.99l1.97,37.5c-110.54-66.32-150.01-153.96-155.93-189.49Z"/>
  <path class="cls-3" d="M491.59,861.98c-11.18-24.34-50.53-74.21-118.43-78.95,20.4,23.03,72.64,71.06,118.43,78.95Z"/>
  <path class="cls-2" d="M95.44,875.32c22.14,104.28,73.15,120.33,106.75,120.33h245.14c43.49,0,37.56-13.68,37.56-25.53-13.84-59.25-47.45-82.95-148.27-112.57-100.82-29.63-122.57-148.12-156.18-225.14-33.61-77.02-124.55-79-136.41-63.2-11.86,15.8,23.72,175.76,51.4,306.11Z"/>
  <path class="cls-4" d="M53.15,567.69c-3.39,1.2-5.33,2.58-6.18,3.73-.23,.31-.66,1.2-1.01,3.07-.33,1.8-.54,4.17-.59,7.13-.1,5.91,.4,13.79,1.45,23.36,2.09,19.11,6.27,44.55,11.7,73.66,8.98,48.09,21.32,105.95,33.15,161.39,2.49,11.65,4.95,23.2,7.36,34.53,10.97,51.65,28.97,80.9,47.89,97.26,18.88,16.32,39.09,20.17,55.28,20.17h245.14c10.72,0,18.15-.85,23.28-2.2,5.12-1.35,7.64-3.13,8.95-4.76,1.29-1.6,1.81-3.53,1.91-6.08,.05-1.29,0-2.64-.08-4.15,0-.21-.02-.42-.03-.63-.06-1.15-.13-2.39-.14-3.62-6.78-28.75-18.24-48.55-40.05-64.89-22.16-16.61-55.2-29.79-105.59-44.59-51.77-15.21-83.05-53.24-105.52-96.63-11.23-21.69-20.31-44.82-28.66-67.24-1.84-4.95-3.65-9.86-5.43-14.7-6.33-17.21-12.39-33.69-18.9-48.62-16.28-37.3-46.4-56.44-74.01-64.35-13.82-3.96-26.91-5.08-37.16-4.28-5.13,.4-9.45,1.27-12.76,2.44Zm51.95-5.21c29.23,8.38,61.38,28.75,78.71,68.47,6.61,15.14,12.77,31.9,19.11,49.15,1.77,4.81,3.56,9.67,5.37,14.54,8.33,22.38,17.29,45.16,28.3,66.44,22.02,42.52,52.02,78.55,101.07,92.96,50.44,14.82,84.61,28.3,107.92,45.76,23.56,17.65,35.81,39.21,42.89,69.49l.1,.41v.42c0,1.16,.06,2.34,.13,3.64,.01,.22,.02,.45,.03,.67,.08,1.51,.15,3.17,.08,4.83-.14,3.35-.86,7.07-3.53,10.37-2.64,3.27-6.79,5.66-12.79,7.24-5.99,1.58-14.13,2.44-25.15,2.44H202.19c-17.41,0-39.51-4.17-60.07-21.95-20.52-17.74-39.09-48.65-50.27-101.28-2.4-11.31-4.86-22.84-7.35-34.49-11.83-55.44-24.2-113.42-33.2-161.61-5.44-29.16-9.66-54.82-11.78-74.21-1.06-9.69-1.6-17.91-1.49-24.28,.06-3.18,.28-5.99,.71-8.33,.42-2.26,1.1-4.48,2.35-6.14,2.11-2.81,5.61-4.82,9.59-6.23,4.07-1.45,9.06-2.41,14.64-2.85,11.18-.87,25.15,.36,39.75,4.54Z"/>
  <path class="cls-2" d="M1301.74,839.89H618.8c-13.08,0-23.69,10.6-23.69,23.69s10.61,23.68,23.69,23.68h682.94c13.08,0,23.69-10.6,23.69-23.68s-10.61-23.69-23.69-23.69Z"/>
  <path class="cls-4" d="M591.45,863.57c0-15.11,12.25-27.35,27.35-27.35h682.94c15.11,0,27.35,12.25,27.35,27.35s-12.25,27.35-27.35,27.35H618.8c-15.11,0-27.35-12.25-27.35-27.35Zm27.35-20.03c-11.06,0-20.02,8.96-20.02,20.03s8.96,20.02,20.02,20.02h682.94c11.06,0,20.02-8.96,20.02-20.02s-8.96-20.03-20.02-20.03H618.8Z"/>
  <path class="cls-2" d="M668.85,995.81l25.18-106.29h62.78l-46.76,106.29h-41.2Z"/>
  <path class="cls-4" d="M691.14,885.86h71.3l-49.99,113.61h-48.23l26.92-113.61Zm5.8,7.33l-23.44,98.96h34.17l43.54-98.96h-54.27Z"/>
  <path class="cls-2" d="M1244.27,995.81l-23.99-106.29h-63.97l45.98,106.29h41.98Z"/>
  <path class="cls-4" d="M1224.19,884.64h-75.33l50.21,116.07h51.31l-26.2-116.07Zm-7.82,9.78l21.78,96.51h-32.65l-41.75-96.51h52.62Z"/>
  <path class="cls-5" d="M300.73,87.56l-13.3,17.16c-.81,1.04-2.13,1.55-3.42,1.3l-16.44-3.1c-3.54-.67-5.67,3.81-2.94,6.17l12.92,11.18c.94,.82,1.39,2.07,1.17,3.31l-3.24,18.43c-.61,3.46,3.63,5.61,6.02,3.05l13.27-14.16c.78-.83,1.91-1.23,3.03-1.08l15.36,2.11c3.46,.47,5.42-3.87,2.79-6.18l-11.42-10.04c-.92-.81-1.36-2.03-1.16-3.24l3.6-22.14c.59-3.62-4-5.65-6.25-2.75Zm670.71,.68l-8.97,1.94c-.55,.12-1.1-.08-1.44-.51l-4.29-5.46c-.92-1.18-2.85-.31-2.65,1.2l.93,7.12c.07,.52-.14,1.05-.55,1.39l-6.17,5.08c-1.16,.95-.43,2.8,1.04,2.62l8.12-.98c.48-.06,.94,.12,1.26,.47l4.23,4.85c.95,1.09,2.78,.22,2.6-1.24l-.78-6.34c-.06-.51,.14-1.02,.55-1.36l7.31-6.18c1.2-1.01,.32-2.91-1.19-2.58Z"/>
  <path class="cls-1" d="M1090.53,272.15l-7.89,37.5v23.68l17.76,15.79,53.29-5.92v-35.53l-1.97-41.45c21.71-27.63,29.61-80.93,5.92-108.56-23.69-27.63-84.87-31.58-96.72,33.56-9.48,52.11,15.79,75.66,29.61,80.93Z"/>
  <path class="cls-3" d="M962.23,1002.47l20.22-221.07h283.08l28.31,221.07h-331.6Z"/>
  <path class="cls-1" d="M772.74,368.86c0,6.32,6.58,17.11,9.87,21.71l-3.95,23.69-29.61,3.95c-7.89-9.87-31.58-13.82-37.5-29.61-4.73-12.64,8.56-26.32,15.79-29.61l-24.54-34.34c-2.87-4.02-2.2-9.57,1.56-12.78,3.98-3.41,9.96-2.97,13.4,.98l33.27,38.25c0,1.31,1.18,1.19,5.92-9.87,5.92-13.82,11.84-7.9,15.79-5.92,3.95,1.97,0,25.66,0,33.55Z"/>
  <path class="cls-2" d="M1114.21,329.39c-26.85,0-33.55-21.05-33.55-31.58-18.95,0-31.36,9.25-35.31,11.88l-31.8,90.76-5.92,382.92c66.32,20.53,150.01,8.55,183.56,0l21.71-471.75c-13.05-8.31-32.11-11.93-45.81-13.22-6.7-.63-12.47,4.11-15.89,9.91-5.95,10.07-17.59,21.07-36.99,21.07Z"/>
  <path class="cls-4" d="M1048.41,312.05l-31.2,89.05-5.87,379.56c63.28,18.64,141.94,8.11,176.32-.19l21.49-466.84c-12.23-7.06-29.47-10.35-42.39-11.57-4.65-.44-9.3,2.88-12.4,8.12-6.42,10.86-19.1,22.88-40.15,22.88-14.52,0-24-5.77-29.75-13.28-4.52-5.9-6.59-12.69-7.24-18.19-14.52,.92-24.43,7.49-28.81,10.47Zm-4.29-5.95c4.72-3.22,17.57-11.96,36.54-11.96h3.66v3.67c0,4.63,1.51,11.69,5.96,17.51,4.32,5.64,11.62,10.4,23.93,10.4,17.77,0,28.35-9.98,33.84-19.27,3.75-6.35,10.64-12.52,19.39-11.69,13.83,1.3,33.62,4.99,47.43,13.78l1.79,1.14-21.93,476.58-2.63,.67c-33.82,8.62-118.29,20.77-185.56-.05l-2.62-.81,5.98-386.27,32.4-92.47,1.02-.68c.23-.16,.5-.34,.8-.54Z"/>
  <path class="cls-5" d="M1045.13,503.09c2.77-48.33,17.8-135.38,27.69-187.28,2.42-22.02,10.7-23.6-16.04-15.91-93.62,26.91-116.28,150.02-145.87,151.87-21.06,1.31-71.93-33.85-105.04-59.31-9.96-7.66-24.1-6.96-32.98,1.93l-21.16,21.17c-6.48,6.48-8.9,16.05-5.3,24.48,24.46,57.33,93.21,147.83,136.86,169.64,37.9,18.95,68.42-7.9,78.95-23.69-.66,50.66-1.58,158.7,0,185.54,1.97,33.55,0,61.19,23.69,65.14,23.69,3.95,69.08-3.95,69.08-11.84s-13.82-252.65-9.87-321.73Zm94.75-1.97c1.45-36.3,19.7-134.32,30.81-189.77,2.78-13.89,1.67-14.72,16.27-10.67,102.3,28.43,183.52,203.5,175.96,273.47-6.31,58.42-52.63,150.67-75.01,189.49,1.32,23.69,1.58,71.85-7.89,75.01-11.84,3.95-114.48,0-120.41-11.84-5.92-11.84-21.71-276.34-19.74-325.68Z"/>
  <path class="cls-2" d="M1162.32,768.09c-12.4-5.36-18.11-19.75-12.75-32.15l38.88-90c5.36-12.4,19.75-18.1,32.15-12.75l132.16,57.09c12.4,5.35,18.11,19.75,12.75,32.14l-38.88,90.01c-5.36,12.4-19.75,18.1-32.15,12.75l-132.16-57.09Z"/>
  <path class="cls-4" d="M1160.87,771.45c-14.25-6.16-20.82-22.71-14.66-36.96l38.88-90.01c6.16-14.25,22.71-20.82,36.96-14.66l132.16,57.1c14.25,6.16,20.82,22.7,14.66,36.96l-38.88,90c-6.16,14.26-22.71,20.82-36.96,14.66l-132.16-57.09Zm-7.93-34.05c-4.55,10.54,.3,22.77,10.84,27.32l132.16,57.1c10.54,4.55,22.77-.3,27.32-10.84l38.88-90c4.55-10.54-.3-22.78-10.84-27.32l-132.16-57.1c-10.54-4.55-22.77,.3-27.32,10.84l-38.88,90.01Z"/>
  <path class="cls-3" d="M1353.05,503.09c-12.5,19.74-31.58,74.21-7.9,134.22,11.84-22.37,30-80.53,7.9-134.22Zm-507.28,76.98c19.08-4.61,67.11-7.5,106.59,17.76-15.79,17.77-59.22,39.08-106.59-17.76Z"/>
  <path class="cls-3" d="M972.09,475.46c-3.95,35.53-7.89,80.93-9.87,114.48-9.48,11.06-32.9,21.71-43.43,25.66,26.85-30,41.45-96.72,53.29-140.14Z"/>
  <path class="cls-1" d="M1199.34,778.03c1.58-4.74,17.76-20.4,25.66-27.63,16.45-1.97,48.16,0,43.42,23.69-5.92,29.61-11.84,53.29-43.42,43.42-25.27-7.89-22.37-24.34-17.77-31.58-3.29-.66-9.47-3.16-7.89-7.9Z"/>
  <path class="cls-2" d="M1123.57,1002.39l-18.51-107.24v107.24h18.51Z"/>
  <path class="cls-3" d="M1149.74,226.75l1.97,35.53,.48,38.84c.73-.03,2.95-3.37,3.67-3.39,35.34-.84,64.82,16.99,75.13,25.38,13.82-57.24-33.88-96.36-33.88-118.08s-9.87-88.82-76.98-90.8c-50.34-1.48-64.12,39.72-65.1,69.28-.1,3.01,2.65,5.22,5.47,4.17,13.52-4.99,30.8-18.87,41.07-29.78,2.86-3.03,8.76-2.06,10.62,1.67,4.75,9.52,11.7,18.33,16.68,24.36,.73,.88,1.13,1.98,1.15,3.12,.11,5.6,.69,13.19,1.59,20.69,.63,5.26,7.94,5.24,9.6,.21,1.86-5.66,4.1-11.07,6.56-14.76,7.89-11.84,19.74-1.97,19.74,11.84,0,11.05-11.84,19.08-17.76,21.71Zm-106.59,78.95c7.9-7.89,16.45-46.71,19.74-65.14,3.16,15.79,19.74,27.63,27.63,31.58l-6.13,28.97-1.84-5.5c-15.79,0-32.17,6.79-39.41,10.08Z"/>
  <path class="cls-5" d="M1260.44,768.54l-28.6-11.26c-10.97-4.33-17.29-15.86-15.07-27.44,6.17-32.13,14.04-74.32,19.82-108.11l98.69,43.21c-11.05,30-32.24,71.72-41.45,88.82l-4.66,6.41c-6.55,9.01-18.37,12.46-28.73,8.37Z"/>
  <path class="cls-3" d="M1244.49,566.25c0-17.37-30.92-68.43-45.4-98.69,31.8,94.54,33.65,116.74,18.84,257.36,9.25-46.25,26.56-150.38,26.56-158.67Zm-122.77-294.65c-13.32,5.92-26.52,2.47-31.46,0l-3.7,18.5c17.76,0,30.84-12.34,35.16-18.5Z"/>
</svg>