<?xml version="1.0" encoding="UTF-8"?>
<svg id="Websitedevelopment" xmlns="http://www.w3.org/2000/svg" viewBox="0 0 1400 1000">
  <defs>
    <style>
      .cls-1 {
        fill: #a487fd;
      }

      .cls-2 {
        fill: #070707;
        opacity: .09;
      }

      .cls-2, .cls-3 {
        isolation: isolate;
      }

      .cls-4 {
        fill: #f3ffff;
      }

      .cls-5 {
        fill: #2d0e8c;
      }

      .cls-6 {
        stroke-width: 2.35px;
      }

      .cls-6, .cls-7, .cls-8 {
        fill: none;
        stroke-miterlimit: 10;
      }

      .cls-6, .cls-8 {
        stroke: #ccfeff;
      }

      .cls-9 {
        fill: #7f55ff;
      }

      .cls-10 {
        fill: #3e00fc;
      }

      .cls-11 {
        fill: #3714a3;
      }

      .cls-7 {
        stroke: #fff;
        stroke-linecap: round;
        stroke-width: .88px;
      }

      .cls-12 {
        fill: #f7f7f7;
      }

      .cls-13 {
        opacity: .55;
      }

      .cls-14 {
        fill: #cafeff;
      }

      .cls-8 {
        stroke-width: 1.17px;
      }

      .cls-15 {
        fill: #491ad8;
      }

      .cls-16 {
        fill: #87fbfd;
      }

      .cls-17 {
        fill: #c2feff;
      }

      .cls-3 {
        fill: #fff;
        opacity: .2;
      }
    </style>
  </defs>
  <path class="cls-12" d="M903.34,755.43c-128.3,105.09-163.82,30.4-304.4-66.49-58.81-40.53-191.41-54.32-289.8-110.53-204.25-116.68-127.53-332.94,54.45-481.99,181.98-149.05,450.33-122.35,599.38,59.62s122.35,450.33-59.62,599.38Zm383.21,235.57H132.3c-6.26,0-11.38-5.12-11.38-11.38v-31.8c0-6.26,5.12-11.38,11.38-11.38H1286.55c6.26,0,11.38,5.12,11.38,11.38v31.8c0,6.26-5.12,11.38-11.38,11.38Z"/>
  <path class="cls-15" d="M1116.29,848.26c7.67-19.49,15.4-41.15,8.21-60.82-1.74-4.78-4.37-9.84-2.8-14.68,2.13-6.53,10.72-8.86,13.63-15.09,3.2-6.84-1.81-14.91-.51-22.35,1.32-7.56,8.72-12.47,15.9-15.2,7.18-2.73,15.07-4.38,20.86-9.42,11.13-9.71,9.79-27.09,7.34-41.66-2.45-14.57-4.28-31.76,6.37-42-19.59,3.74-39.65,7.67-56.68,18.04-17.03,10.37-30.66,28.72-29.66,48.64,.5,9.99,4.46,20.64-.12,29.54-4.94,9.61-18.23,13.34-21.58,23.61-3.85,11.8,7.65,22.48,12.19,34.03,4.27,10.85,2.25,23.02,3.2,34.64s7.05,24.76,18.58,26.5l5.07,6.22h0Z"/>
  <path class="cls-7" d="M1108.35,822.65c-.19-56.68,10.74-175.31,76.23-195.11"/>
  <path class="cls-1" d="M1070.63,843.51c-11.66-21.76-23.69-46.06-17.99-70.08,1.38-5.84,3.77-12.12,1.26-17.57-3.39-7.36-13.77-8.9-18.04-15.79-4.69-7.57,.07-17.7-2.48-26.24-2.59-8.68-11.93-13.4-20.71-15.61-8.78-2.21-18.25-3.05-25.72-8.17-14.37-9.84-15.19-30.38-14.33-47.77,.86-17.39,.64-37.77-13.23-48.3,23.45,1.69,47.48,3.52,68.85,13.32s39.86,29.41,41.43,52.87c.79,11.77-2.38,24.79,4.2,34.57,7.1,10.57,23.18,13.11,28.52,24.67,6.14,13.28-5.86,27.38-9.59,41.53-3.5,13.29,.54,27.26,1.02,41,.48,13.73-4.85,29.96-18.11,33.58l-5.09,7.98h0Z"/>
  <path class="cls-7" d="M1076.4,812.42c-7.58-66.39-36.7-203.79-116.11-217.96"/>
  <path class="cls-16" d="M1144.26,971.19h-102.37c-7.11,0-12.93-5.82-12.93-12.93l-8.62-147.63c0-7.11,5.82-12.93,12.93-12.93h119.61c7.11,0,12.93,5.82,12.93,12.93l-8.62,147.63c0,7.11-5.82,12.93-12.93,12.93h0Z"/>
  <path class="cls-15" d="M242.6,887.4c-5.22-13.28-10.49-28.05-5.6-41.45,1.19-3.26,2.98-6.71,1.91-10-1.45-4.45-7.31-6.04-9.29-10.28-2.18-4.66,1.24-10.16,.35-15.23-.9-5.16-5.95-8.5-10.84-10.36-4.89-1.86-10.27-2.98-14.22-6.42-7.59-6.62-6.67-18.47-5-28.4,1.67-9.93,2.92-21.65-4.34-28.62,13.35,2.55,27.03,5.23,38.63,12.3,11.61,7.07,20.9,19.58,20.22,33.15-.34,6.81-3.04,14.07,.08,20.14,3.37,6.55,12.43,9.09,14.71,16.09,2.63,8.04-5.21,15.32-8.31,23.2-2.91,7.39-1.53,15.69-2.18,23.61-.65,7.92-4.8,16.88-12.66,18.06l-3.46,4.24h0Z"/>
  <path class="cls-7" d="M248.01,869.94c.13-38.64-7.32-119.49-51.96-132.99"/>
  <path class="cls-1" d="M273.72,884.16c7.95-14.83,16.15-31.39,12.26-47.77-.94-3.98-2.57-8.26-.86-11.97,2.31-5.01,9.39-6.07,12.29-10.76,3.19-5.16-.05-12.07,1.69-17.88,1.77-5.91,8.13-9.13,14.12-10.64,5.99-1.51,12.44-2.08,17.53-5.57,9.79-6.71,10.36-20.7,9.77-32.56-.59-11.86-.44-25.75,9.02-32.92-15.98,1.15-32.36,2.4-46.93,9.08-14.57,6.68-27.17,20.04-28.23,36.03-.54,8.02,1.62,16.89-2.87,23.56-4.84,7.2-15.8,8.94-19.44,16.81-4.18,9.05,4,18.66,6.54,28.31,2.39,9.06-.37,18.58-.69,27.94s3.3,20.42,12.34,22.89l3.46,5.44h0Z"/>
  <path class="cls-7" d="M269.79,862.97c5.17-45.25,25.02-138.9,79.14-148.56"/>
  <path class="cls-16" d="M223.53,971.19h69.77c4.85,0,8.81-3.97,8.81-8.81l5.88-100.62c0-4.85-3.97-8.81-8.81-8.81h-81.53c-4.85,0-8.81,3.97-8.81,8.81l5.88,100.62c0,4.85,3.97,8.81,8.81,8.81Z"/>
  <path class="cls-6" d="M1142.32,46.34v495.2c0,10.92-8.93,19.86-19.85,19.86H335.49c-10.92,0-19.86-8.94-19.86-19.86V46.34c0-10.92,8.94-19.85,19.86-19.85h786.97c10.92,0,19.85,8.93,19.85,19.85h0Z"/>
  <path class="cls-4" d="M1168.13,20.52v495.2c0,5.96-2.66,11.33-6.85,14.97-.62,.56-1.29,1.07-1.98,1.54-3.26,2.19-7.09,3.36-11.02,3.36H361.31c-4.06,0-7.86-1.23-11.02-3.36-5.33-3.58-8.85-9.66-8.85-16.51V20.52c0-10.92,8.94-19.85,19.86-19.85h786.97c10.92,0,19.85,8.93,19.85,19.85h0Z"/>
  <circle class="cls-16" cx="740.27" cy="274.94" r="154.54"/>
  <circle class="cls-8" cx="753.85" cy="288.52" r="154.54"/>
  <path class="cls-14" d="M646.14,362.35l2.7-7.04s12.06-8.65,13.17-12.19c-.95-.69-7.24,2-8.88,2.26,1.48-3.69,5.12-11.71,7.66-15.12,.74-.99,.1-2.41-1.13-2.45-3.35-.11-9.08,1.41-13.11,2.66-6.46,6.91-7.21,17.96-5.05,20.97-1.8,4.79-4.73,10.09-4.73,10.09l9.37,.81h0Z"/>
  <path class="cls-9" d="M639.11,354.47l9.39,7.04-21.71,52.21-10.01-17.65,22.33-41.6Z"/>
  <path class="cls-10" d="M714.83,354.17l-14.6,12.31c1.09-.92,2.07-1.96,2.92-3.11l14.6-12.31c-.85,1.15-1.83,2.19-2.92,3.11Z"/>
  <path class="cls-17" d="M745.07,306.33l14.6-12.31-41.92,57.05-14.6,12.31,41.92-57.05Z"/>
  <g class="cls-13">
    <path d="M685.26,163.73c-.85-.09-1.7-.15-2.56-.17l-1.78-.04c-7.15-.17-13.04,1.95-17.09,5.37l-14.6,12.31c4.05-3.42,9.94-5.54,17.09-5.37l1.78,.04c.86,.02,1.71,.08,2.56,.17,7.63,.8,14.84,4.3,19.53,9.58l49.25,55.42,14.6-12.31-49.25-55.42c-4.69-5.29-11.9-8.78-19.53-9.58h0Zm169.26,168.26l-65.67-70.27,48.43-63.04c9.6-12.49-2.55-29.85-21.27-31.81-.89-.09-1.79-.15-2.73-.18-6.72-.16-12.87,1.84-17.16,5.45l-14.6,12.31c4.29-3.61,10.43-5.62,17.16-5.45,.91,.02,1.82,.08,2.73,.18,18.72,1.97,30.87,19.32,21.27,31.81l-48.43,63.04,65.67,70.27c8.23,8.81,6.93,19.36-.47,25.6l14.6-12.31c7.4-6.24,8.7-16.79,.47-25.6h0Z"/>
  </g>
  <path class="cls-9" d="M801.41,179.18c18.72,1.97,30.87,19.32,21.27,31.81l-48.43,63.04,65.67,70.27c12.74,13.64,2.63,31.45-17.56,30.97l-1.85-.05c-.86-.02-1.72-.08-2.57-.17-7.56-.79-14.71-4.24-19.41-9.44l-53.46-59.29-41.92,57.05c-4.07,5.54-11.61,8.76-20.07,8.55-.9-.02-1.81-.08-2.71-.17-18.73-1.97-30.87-19.33-21.26-31.83l51.47-66.86-61.84-66.29c-12.72-13.63-2.62-31.43,17.57-30.95l1.78,.04c.86,.02,1.71,.08,2.56,.17,7.63,.8,14.84,4.3,19.53,9.58l49.25,55.42,39.14-53.46c4.07-5.56,11.63-8.79,20.1-8.59,.91,.02,1.82,.08,2.73,.18h0Zm-243.25,441.64c-9.39,22.29-80.96,219.41-58.67,303.89h26.99s73.92-233.49,73.92-238.18c0,25.81,9.39,215.89,16.43,238.18,14.08,2.35,34.03,0,34.03,0,0,0,10.56-261.65,3.52-305.06-37.55-4.69-96.21,1.17-96.21,1.17Z"/>
  <path class="cls-9" d="M652.53,623.02l-96.19,5.2c-3.33,.18-4.93-4.02-2.32-6.1,1.4-1.12,2.23-2.78,2.35-4.57,.16-2.26,.91-4.02,3.4-4.16l91.96-4.97c3.07-.17,2.91,1.95,2.98,4.86,.02,.63,.28,1.24,.74,1.68,1.67,1.59,2.12,4.22,.8,6.11-.79,1.13-2.03,1.85-3.73,1.94h0Z"/>
  <path class="cls-2" d="M652.53,623.02l-96.19,5.2c-3.33,.18-4.93-4.02-2.32-6.1,1.4-1.12,2.23-2.78,2.35-4.57,.16-2.26,.91-4.02,3.4-4.16l91.96-4.97c3.07-.17,2.91,1.95,2.98,4.86,.02,.63,.28,1.24,.74,1.68,1.67,1.59,2.12,4.22,.8,6.11-.79,1.13-2.03,1.85-3.73,1.94h0Z"/>
  <path class="cls-9" d="M636.55,452.86l61.22-91.35,11.73,7.04-69.81,128.48s8.17,37.48,9.97,51.04c1.29,9.69,6.85,18.31,11.58,26.06,5.66,9.26,5.44,20.98-.6,30-3.83,5.73-7.47,10.82-7.47,10.82-12.91,1.17-84.48,10.56-98.56,0s-3.52-22.29-3.52-22.29c0,0,16.77-27.7,15.43-48.46-1.35-20.76-4.87-77.08-4.87-77.08l74.88-14.25Z"/>
  <path class="cls-14" d="M699.81,362.73l3.84-5.91s-4.69-14.08-3.52-17.6c1.17,0,4.69,5.87,5.87,7.04,.97-3.86,2.73-12.49,2.66-16.73-.02-1.23,1.33-2.01,2.35-1.32,2.78,1.87,6.53,6.47,9.06,9.84,1.17,9.39-4.69,18.77-8.21,19.95-3.52,4.69-3.99,9.57-3.99,9.57l-8.06-4.84h0Zm-196.84,561.98l.05,10.56h16.43v-10.56h-16.47Zm120.85,0l.05,10.56h16.43v-10.56h-16.47Z"/>
  <path class="cls-5" d="M647.33,959.91c0,.95-2.12,1.81-5.29,2.45-8.62,1.74-24.99,1.83-27.56-2.45-1.61-2.68,.2-8.73,2.64-14.5,2.9-6.88,6.7-13.38,6.7-13.38h16.47c3.52,7.93,7.04,24.36,7.04,27.88Zm-118.51,0c0,1.09-3.17,2.04-7.64,2.66-9.93,1.37-26.31,1.1-28.73-2.95-1.51-2.52,0-8.01,2.22-13.46,2.93-7.24,7.12-14.42,7.12-14.42h16.47c3.52,7.93,10.56,24.64,10.56,28.16h0Z"/>
  <path class="cls-11" d="M521.18,962.57c-9.93,1.37-26.31,1.1-28.73-2.95-1.51-2.52,0-8.01,2.22-13.46,2.5-1.35,5.34-2.1,8.34-2.1,9.95,0,18.05,8.26,18.17,18.5h0Zm120.85-.21c-8.62,1.74-24.99,1.83-27.56-2.45-1.61-2.68,.2-8.73,2.64-14.5,2.09-.87,4.36-1.34,6.75-1.34,9.89,0,17.93,8.14,18.17,18.29Z"/>
  <path class="cls-14" d="M630.31,414.31c0,13.35-1.59,22.74-12.32,22.74s-24.64-9.87-24.64-23.22,8.7-24.17,19.43-24.17,17.53,11.29,17.53,24.64Z"/>
  <path class="cls-5" d="M614.47,399.06c12.91-2.35,31.68-23.47,14.08-31.68s-50.45-10.56-64.53,11.73,3.52,39.89,5.87,51.63-7.63,20.53-21.71,32.27-34.61,58.08,.59,74.51c35.2,16.43,91.52,3.52,95.04-49.28s-43.41-59.84-43.41-64.53,14.08-24.64,14.08-24.64Z"/>
  <ellipse class="cls-14" cx="605.18" cy="408.76" rx="6.21" ry="8.28" transform="translate(-89.07 182.17) rotate(-15.96)"/>
  <path class="cls-9" d="M1168.13,20.52v24.78H341.44V20.52c0-10.92,8.94-19.85,19.86-19.85h786.97c10.92,0,19.85,8.93,19.85,19.85h0ZM632.12,104.63h-251.18c-4.82,0-8.76-3.94-8.76-8.76v-5.44c0-4.82,3.94-8.76,8.76-8.76h251.18c4.82,0,8.76,3.94,8.76,8.76v5.44c0,4.82-3.94,8.76-8.76,8.76Zm-70.32,36.89h-182.12c-4.12,0-7.5-3.37-7.5-7.5v-7.95c0-4.12,3.37-7.5,7.5-7.5h182.12c4.12,0,7.5,3.37,7.5,7.5v7.95c0,4.12-3.37,7.5-7.5,7.5Zm19.58,36.37h-201.33c-4.33,0-7.87-3.54-7.87-7.87v-7.21c0-4.33,3.54-7.87,7.87-7.87h201.33c4.33,0,7.87,3.54,7.87,7.87v7.21c0,4.33-3.54,7.87-7.87,7.87Zm555.81,336.74h-129.07c-7.74,0-14.08-6.34-14.08-14.08v-111.47c0-7.74,6.34-14.08,14.08-14.08h129.07c7.74,0,14.08,6.34,14.08,14.08v111.47c0,7.74-6.34,14.08-14.08,14.08Z"/>
  <path class="cls-3" d="M632.12,104.63h-251.18c-4.82,0-8.76-3.94-8.76-8.76v-5.44c0-4.82,3.94-8.76,8.76-8.76h251.18c4.82,0,8.76,3.94,8.76,8.76v5.44c0,4.82-3.94,8.76-8.76,8.76Zm-70.32,36.89h-182.12c-4.12,0-7.5-3.37-7.5-7.5v-7.95c0-4.12,3.37-7.5,7.5-7.5h182.12c4.12,0,7.5,3.37,7.5,7.5v7.95c0,4.12-3.37,7.5-7.5,7.5Zm19.58,36.37h-201.33c-4.33,0-7.87-3.54-7.87-7.87v-7.21c0-4.33,3.54-7.87,7.87-7.87h201.33c4.33,0,7.87,3.54,7.87,7.87v7.21c0,4.33-3.54,7.87-7.87,7.87Zm555.81,336.74h-129.07c-7.74,0-14.08-6.34-14.08-14.08v-111.47c0-7.74,6.34-14.08,14.08-14.08h129.07c7.74,0,14.08,6.34,14.08,14.08v111.47c0,7.74-6.34,14.08-14.08,14.08Z"/>
</svg>