<?xml version="1.0" encoding="UTF-8"?>
<svg id="Teamdiscussingonwebsitedevelopment" xmlns="http://www.w3.org/2000/svg" viewBox="0 0 1400 1000">
  <defs>
    <style>
      .cls-1 {
        fill: #1f104f;
      }

      .cls-2 {
        fill: #a487fd;
      }

      .cls-3 {
        fill: #a6d0d1;
      }

      .cls-4 {
        fill: #7d5edd;
      }

      .cls-5 {
        fill: #6a3cf7;
      }

      .cls-6 {
        fill: #08070a;
      }

      .cls-7 {
        fill: #7f55ff;
      }

      .cls-8 {
        fill: #1e1d22;
      }

      .cls-9 {
        fill: #3a247c;
      }

      .cls-10 {
        fill: #221549;
      }

      .cls-11 {
        fill: #997af9;
      }

      .cls-12 {
        fill: #4d3792;
      }

      .cls-13 {
        stroke: #605093;
        stroke-linecap: round;
        stroke-linejoin: round;
        stroke-width: 5.07px;
      }

      .cls-13, .cls-14 {
        fill: none;
      }

      .cls-14 {
        stroke: #6ceaec;
        stroke-miterlimit: 10;
        stroke-width: 2.23px;
      }

      .cls-15 {
        fill: #582ae6;
      }

      .cls-16 {
        fill: #605093;
      }

      .cls-17 {
        fill: #6f4fd0;
      }

      .cls-18 {
        fill: #4f369d;
      }

      .cls-19 {
        fill: #e1e5e5;
      }

      .cls-20 {
        fill: #4623b0;
      }

      .cls-21 {
        fill: #87fbfd;
      }
    </style>
  </defs>
  <path class="cls-21" d="M886.23,961.61c36.25-11.33,68.78-22.91,107.91-44.89,40.36-22.67,219.64-130.53,242.95-317.22,6.11-51.17,1.04-103.05-14.86-152.06-7.21-21.13-22.15-63.56-59.88-105.52-46.18-51.4-98.88-71.32-129.77-82.59-46.59-16.76-96.05-24.1-145.5-21.62-28.02,.91-77.48,2.97-133.7,27.53-36.68,16.02-59.48,34.29-93.08,61.6-53.23,43.3-60.24,61.33-153.36,150.75-25.57,24.54-46.58,43.88-78.66,62.94-22.24,13.21-40.22,20.59-73.4,34.07-81.54,33.13-104.76,39.84-131.44,58.49-51.89,36.3-48.53,75.88-50.76,84.4-5.8,21.79-7.14,44.54-3.95,66.86,6.8,44.78,30.92,74.05,45.89,91.76,20.55,24.09,45.45,44.1,73.4,58.99,19.4,10.24,39.5,19.1,60.15,26.53H886.23Z"/>
  <path class="cls-14" d="M750,250.39c58.55-25.57,110.07-27.72,139.27-28.67,51.51-2.58,103.03,5.08,151.56,22.53,32.18,11.74,87.07,32.49,135.17,86.02,39.28,43.71,54.85,87.91,62.35,109.91,16.55,51.05,21.83,105.09,15.47,158.39-24.27,194.47-211.02,306.81-253.05,330.43"/>
  <rect class="cls-3" x="442.02" y="528.37" width="92.96" height="41.07"/>
  <rect class="cls-3" x="388.07" y="474.49" width="92.96" height="41.07"/>
  <rect class="cls-3" x="331.98" y="528.37" width="92.96" height="41.07"/>
  <rect class="cls-3" x="407.29" y="582.24" width="92.96" height="41.07"/>
  <rect class="cls-3" x="301.4" y="582.24" width="92.96" height="41.07"/>
  <rect class="cls-3" x="1137.02" y="723.24" width="92.96" height="41.07"/>
  <rect class="cls-3" x="1083.07" y="669.37" width="92.96" height="41.07"/>
  <rect class="cls-3" x="1026.99" y="723.24" width="92.96" height="41.07"/>
  <rect class="cls-3" x="1102.29" y="777.11" width="92.96" height="41.07"/>
  <rect class="cls-3" x="996.4" y="777.11" width="92.96" height="41.07"/>
  <rect class="cls-3" x="940.04" y="332.53" width="92.96" height="41.07"/>
  <rect class="cls-3" x="886.09" y="278.66" width="92.96" height="41.07"/>
  <rect class="cls-3" x="830.01" y="332.53" width="92.96" height="41.07"/>
  <rect class="cls-3" x="905.32" y="386.41" width="92.96" height="41.07"/>
  <rect class="cls-3" x="799.42" y="386.41" width="92.96" height="41.07"/>
  <rect class="cls-19" x="330.74" y="168.38" width="351.87" height="267.04" rx="16" ry="16"/>
  <rect class="cls-2" x="330.75" y="200.12" width="351.87" height="1.46"/>
  <path class="cls-7" d="M350.64,192.73c8.42,0,8.44-13.09,0-13.09s-8.44,13.09,0,13.09Z"/>
  <path class="cls-5" d="M372.46,192.73c8.42,0,8.44-13.09,0-13.09s-8.44,13.09,0,13.09Z"/>
  <path class="cls-17" d="M392.82,192.73c8.42,0,8.44-13.09,0-13.09s-8.44,13.09,0,13.09Z"/>
  <rect class="cls-2" x="350.64" y="222.84" width="308.93" height="72.26"/>
  <rect class="cls-2" x="350.64" y="319.91" width="135.09" height="1.46"/>
  <rect class="cls-2" x="350.64" y="341.9" width="135.09" height="1.46"/>
  <rect class="cls-2" x="350.64" y="363.9" width="135.09" height="1.46"/>
  <rect class="cls-2" x="350.64" y="386.47" width="135.09" height="1.46"/>
  <rect class="cls-2" x="350.64" y="408.46" width="135.09" height="1.46"/>
  <rect class="cls-2" x="526.35" y="313.95" width="133.23" height="90.05"/>
  <rect class="cls-19" x="814.03" y="33.02" width="431.42" height="327.42" rx="19.62" ry="19.62"/>
  <rect class="cls-2" x="814.03" y="71.93" width="431.42" height="1.78"/>
  <path class="cls-7" d="M838.43,62.87c10.33,0,10.34-16.05,0-16.05s-10.34,16.05,0,16.05Z"/>
  <path class="cls-5" d="M865.17,62.87c10.33,0,10.34-16.05,0-16.05s-10.34,16.05,0,16.05Z"/>
  <path class="cls-17" d="M890.14,62.87c10.33,0,10.34-16.05,0-16.05s-10.34,16.05,0,16.05Z"/>
  <rect class="cls-2" x="838.43" y="218.81" width="165.63" height="1.78"/>
  <rect class="cls-2" x="838.43" y="245.77" width="165.63" height="1.78"/>
  <rect class="cls-2" x="838.43" y="272.73" width="165.63" height="1.78"/>
  <rect class="cls-2" x="838.43" y="300.41" width="165.63" height="1.78"/>
  <rect class="cls-2" x="838.43" y="327.37" width="165.63" height="1.78"/>
  <rect class="cls-2" x="1053.86" y="211.49" width="163.35" height="110.41"/>
  <rect class="cls-2" x="835.51" y="104.84" width="80.7" height="80.7"/>
  <rect class="cls-2" x="937.89" y="104.84" width="80.7" height="80.7"/>
  <rect class="cls-2" x="1042.7" y="104.84" width="80.7" height="80.7"/>
  <rect class="cls-2" x="1143.45" y="104.84" width="80.7" height="80.7"/>
  <path class="cls-11" d="M630.31,377.72s9.08-6.15,14.91-29.62,7.91-42.57,.13-27.4l-5.73,11.66s-3.61-19.11-4.77-30.68c-.53-6.31-5.12-11.54-11.31-12.87-5.68-1.1-9.55,1.45-10.81,15.01-1.88,20.27-2.29,31.03-1.29,36.18,.35,1.78,5.66,20.74,5.66,20.74l13.2,16.99Z"/>
  <path class="cls-11" d="M590.83,897.08l-9.17,47.71s29.7,11.39,47.34-17.76l4.21-26.47-42.38-3.47Z"/>
  <path class="cls-16" d="M586.59,919.53s-21.64,27.03-9.65,42.97c1.28,1.67,3.26,2.64,5.37,2.62l107.3-.58c1.93-.02,3.49-1.6,3.47-3.53,0-.13,0-.26-.02-.38-.62-5.56-3.21-15.61-13.71-20.23-14.92-6.56-25.51,5.26-50.4-16.14,0,0-32.26,9.27-42.36-4.73Z"/>
  <path class="cls-11" d="M721.74,895.41l6.54,53.03s27.78,4.96,40.29-26.72l-6.76-27.36-40.07,1.05Z"/>
  <path class="cls-16" d="M724.39,919.53s-21.64,27.03-9.65,42.97c1.28,1.67,3.26,2.64,5.37,2.62l107.3-.58c1.93-.02,3.49-1.6,3.47-3.53,0-.13,0-.26-.02-.38-.62-5.56-3.21-15.61-13.71-20.23-14.92-6.56-23.69,2.72-48.58-18.68,0,0-34.08,11.81-44.18-2.19Z"/>
  <path class="cls-5" d="M629.38,359.38l-14.88-3.38-19.76,70.82c-6.54,23.44,23.8,38.94,38.99,19.92,6.04-7.56,10.29-13.91,11.2-17.71l3.38,39.9-8.79,61.54h127.82v-126.47l30.33,39.86c14.31,16.95,40.68,16.95,53.53-12.81l20.29-44.64-28.4-17.58-20.29,32.46-41.06-62.08c-9.83-14.86-26.47-23.81-44.29-23.81h-61.91c-11.47,0-22.14,5.89-28.26,15.59l-17.89,28.37Z"/>
  <path class="cls-12" d="M644.26,530.48l-58.52,372.39c-.42,2.77,1.48,5.36,4.24,5.78,.09,.01,.19,.03,.29,.04l39.47,3.78c2.59,.25,4.95-1.5,5.46-4.05l64.53-316.4,18.77,313.09c.16,2.68,2.38,4.77,5.06,4.77h42.8c2.8,0,5.07-2.27,5.07-5.07,0-.03,0-.07,0-.1l-7.46-374.23h-119.7Z"/>
  <path class="cls-11" d="M846.67,371.07l14.91-38.06,23.51-31.34c1.2-1.61,3.48-1.93,5.09-.73,0,0,.01,0,.02,.01h0c1.53,1.16,1.89,3.32,.82,4.91l-13.2,19.7s18.34-12.93,19.65,9.61c.18,3.15-1.99,5.95-5.09,6.56-2.19,.4-4.3,1.18-6.22,2.32,0,0,2.25,21.42-11.72,22.09l-5.86,18.48-21.9-13.56Z"/>
  <polygon class="cls-4" points="726.57 301.31 715.92 301.31 726.91 316.52 726.57 301.31"/>
  <path class="cls-8" d="M684.02,301.31s33.43,5.4,44.25-33.48c0,0-14.88-8.12,0-17.25,0,0,8.12-1.69,8.45,3.38l12.51-27.05s12.85,3.04,12.17-12.17c0,0,13.19-7.78-3.04-14.54,0,0,.68-18.94-17.25-5.07,0,0-12.17-28.07-43.28,11.84,0,0-50.72,4.4-26.71,46.66l12.9,47.68Z"/>
  <path class="cls-11" d="M362.49,894.72l-4.24,22.51s20.94,36.22,38.63,7l.19-31.74-34.57,2.23Z"/>
  <path class="cls-16" d="M358.25,917.23s-7.05,45.72-4.95,45.7l108.23-.58c1.94-.02,3.49-1.6,3.48-3.54,0-.13,0-.26-.02-.38-.62-5.57-42.98-14.94-67.93-36.4,0,0-28.68,9.23-38.8-4.8Z"/>
  <ellipse class="cls-6" cx="392.2" cy="256.54" rx="2.37" ry="2.95" transform="translate(-16.14 26.56) rotate(-3.8)"/>
  <ellipse class="cls-6" cx="370.83" cy="257.96" rx="2.37" ry="2.95" transform="translate(-16.29 25.16) rotate(-3.8)"/>
  <path class="cls-4" d="M338.71,268.75c-.18-1.8-.47-3.6-.86-5.37-.45-1.75-.99-3.48-1.63-5.18,.9,.47,1.66,1.15,2.24,1.98,.59,.83,1.02,1.77,1.24,2.76,.52,1.98,.16,4.1-.99,5.8Z"/>
  <path class="cls-8" d="M353.94,278.77s-5.05-16.68-4.66-21.58c.55-6.83,.83-10.24-.16-12.94-1.59-4.32,.52-5.03,2.96-9.95,2.3-4.61,10.56-1.55,12.51-2.43,5.48-2.45,5.12-4.8,8.9-5.29,3.88-.5,6.67-1.72,9.36,.63,2.74,2.4,7.9,8.91,8.99,7.64,2.23-3.43,3.48-7.4,3.6-11.49-.24-4-1.45-7.89-3.52-11.32-1.06-1.99-5-9.4-12.29-10.97-4.2-.9-4.86,1.14-13.73,2.26-9.21,1.16-9.63-.89-14.38,.81-5.26,1.88-4.88,4.44-13.71,10.05-2.93,1.81-5.95,3.45-9.06,4.93-11.17,5.63-12.73,4.95-15.2,7.68-5.33,5.89-3.77,15.3-3.4,17.57,1.06,6.4,3.71,8.17,9.86,18.13,9.75,15.77,8.47,22.75,11.8,24.83,1.63,1.02,9.46-5.37,9.23-8.24-.3-3.77-3.1-4.78-6.66-10.02-2.49-3.66-6.07-8.92-4.55-14.01,.92-3.07,2.22-2.34,5.35-2.25,4.24,.11,6.71,5.85,8.69,10.05,1.43,3.04,2.18,6.35,2.19,9.71,.05,7.49,9.53,9.07,7.88,6.2Z"/>
  <path class="cls-4" d="M373.35,284.89c2.9,1.21,6,1.88,9.14,1.98,1.47,0,2.93-.3,4.28-.88,1.48-.64,2.91-1.4,4.26-2.28-.7,1.63-1.85,3.02-3.31,4.01-.75,.52-1.57,.94-2.44,1.24-.89,.25-1.81,.39-2.73,.43-1.81,.02-3.6-.4-5.21-1.21-1.58-.76-2.94-1.89-3.98-3.3Z"/>
  <path class="cls-8" d="M381.45,274.2c5.03-.51,5.81-3.09,15.27,7.81,0,0-9.98-2.4-29.07,3.57,0,0,6.6-10.66,13.8-11.39Z"/>
  <path class="cls-5" d="M441.25,408.96l-14.61-54.27c-2.87-11.04-9.93-20.53-19.68-26.45-2.12-1.31-4.41-2.33-6.8-3.04l-25.59-6.84s25.59,63.81-43.44,.98c0,0-21.2-.84-41.53,17.37-3.87,3.45-6.71,7.89-8.23,12.85l-16.7,54.79,41.3,7.03s-19.52,130.4-19.68,131.12l138.36-3.13-10.96-128.53,27.56-1.88Z"/>
  <path class="cls-18" d="M419.27,539.49l-11.75,360.25c-.16,4.85-4.08,8.73-8.93,8.84l-38.2,.86c-5.05,.11-9.23-3.89-9.35-8.93,0-.1,0-.21,0-.31l3.65-322.22-50.75,324.59c-.73,4.67-4.84,8.06-9.56,7.88l-32.81-1.22c-5.15-.19-9.17-4.52-8.98-9.67,0-.23,.03-.46,.05-.69l39.97-356.5,126.65-2.87Z"/>
  <polygon class="cls-9" points="384.52 540.27 385.33 586.34 385.91 632.41 386.71 724.55 387 816.7 386.96 862.77 386.68 908.85 385.87 862.78 385.28 816.71 384.49 724.57 384.2 632.42 384.25 586.35 384.52 540.27"/>
  <polygon class="cls-9" points="325.83 541.6 320.07 587.9 314.09 634.16 301.75 726.63 288.91 819.04 282.31 865.22 275.48 911.36 281.23 865.07 287.21 818.81 299.55 726.33 312.39 633.93 319 587.75 325.83 541.6"/>
  <path class="cls-20" d="M338.92,431.04c-8.74-.01-15.88-6.99-16.09-15.73l-.66-28.96,32.18-.73,.66,28.96c.19,8.88-6.84,16.24-15.72,16.45-.12,0-.25,0-.37,0Zm-15.1-43.12l.62,27.35c.21,7.98,6.82,14.3,14.81,14.15,8-.18,14.33-6.81,14.15-14.81,0,0,0,0,0,0l-.62-27.35-28.96,.65Z"/>
  <polygon class="cls-10" points="414.09 428.53 420.54 393.78 338.49 395.64 326.12 489.28 404.96 487.49 414.09 428.53"/>
  <path class="cls-11" d="M434.69,409.41l4.93,30.47c2.68,15.73-2.24,31.81-13.27,43.34l-1.08,1.13c-1.68,1.76-3.99,2.77-6.42,2.83l-13.9,.31s-39.16-23.26-.62-27.35l11.08-8.3-1.74-41.49,21.01-.95Z"/>
  <polygon class="cls-10" points="414.09 428.53 420.54 393.78 338.49 395.64 326.12 489.28 379.38 459.9 414.09 428.53"/>
  <path class="cls-11" d="M268.17,404.95l-6.06,53.46c-3.26,16.1,4.96,32.67,21,29.09l84.13-14.18,23.97,2.87,12.14-6.65,2.68-22.37s-3.84-8.56-20.2-7.28l-21.92,7.1-67.19,6.01,9.24-41.61-37.79-6.43Z"/>
  <path class="cls-4" d="M375.84,306.99v-.03s-11.59,3.98-21.63,0c0,0,10.02,18.23,22.92,19.1l-.22-3.31c-2.01-3.32-3.46-6.95-4.32-10.74-.14-2.21,1.18-4.25,3.25-5.03Z"/>
  <path class="cls-16" d="M296.86,917.23s6.39,45.72,4.29,45.7l-107.57-.58c-1.94-.02-3.49-1.6-3.48-3.54,0-.13,0-.26,.02-.38,.62-5.57,39.32-15,64.27-36.46,0,0,32.34,9.29,42.47-4.74Z"/>
  <path class="cls-4" d="M391.2,476.19c-1.9-1.53-3.14-3.73-3.48-6.14l-.09-.97,.12-.98c.09-.66,.28-1.31,.57-1.91,.58-1.17,1.43-2.2,2.47-2.99,.48-.4,1.01-.74,1.57-1.01,.52-.32,1.07-.59,1.64-.81,1.11-.42,2.25-.74,3.42-.95,2.28-.43,4.61-.52,6.92-.29-2.17,.85-4.34,1.41-6.39,2.19-2,.66-3.88,1.61-5.59,2.84-1.59,1.08-2.58,2.85-2.67,4.78,.02,2.17,.53,4.3,1.51,6.23Z"/>
  <path class="cls-11" d="M1056.12,201.94c-7.11-1.57-14.49-1.43-21.54,.41-3.31,.93-15.4,4.33-21.9,15.14-2.47,4.1-3.3,9.18-4.97,19.34-1.04,6.34-3.81,10.75-4.32,18.54-.29,6.32,.33,12.65,1.84,18.79,2.24,9.6,.04,14.83,1.35,16.68,5.28,7.47,21.34,3.81,20.99,13.08-.22,5.73-11.49,24.1-11.57,30.81-.1,8.7,20.08,12.24,38.25,4.31,10.48-4.58,21.68-20.94,21.24-31.12-.24-5.44-5.93-37.27-5.27-40.51,2.38-11.71,8.43-12.75,14.07-26.72,3.07-7.12,2.22-15.33-2.25-21.66-6.37-8.56-15.54-14.61-25.91-17.09Z"/>
  <ellipse class="cls-6" cx="1009.49" cy="247.02" rx="2.99" ry="2.4" transform="translate(696.06 1237.9) rotate(-86.2)"/>
  <ellipse class="cls-6" cx="1031.12" cy="248.45" rx="2.99" ry="2.4" transform="translate(714.83 1260.83) rotate(-86.2)"/>
  <path class="cls-4" d="M1063.64,259.38c-1.67-3.72-.63-8.1,2.53-10.67-.44,.87-.92,1.67-1.26,2.53-.38,.83-.66,1.71-.84,2.6-.42,1.81-.57,3.68-.43,5.54Z"/>
  <path class="cls-8" d="M1056.21,263.25c.02-3.4,.78-6.75,2.22-9.83,2-4.25,4.5-10.06,8.79-10.17,3.17-.08,4.48-.83,5.42,2.28,1.54,5.15-2.08,10.47-4.6,14.18-3.61,5.31-6.44,6.33-6.75,10.15-.23,2.91,7.7,9.38,9.35,8.35,3.37-2.11,2.07-9.18,11.94-25.14,6.23-10.08,8.91-11.87,9.99-18.35,.38-2.3,1.96-11.83-3.44-17.79-2.5-2.76-4.08-2.08-15.39-7.78-3.15-1.5-6.21-3.16-9.18-4.99-8.93-5.68-8.56-8.27-13.88-10.17-4.81-1.72-5.24,.35-14.56-.82-8.99-1.13-9.65-3.2-13.9-2.28-7.38,1.58-11.37,9.09-12.44,11.1-2.1,3.47-3.33,7.41-3.57,11.46,.12,4.14,1.39,8.16,3.65,11.63,1.1,1.28,6.33-5.31,9.1-7.74,2.72-2.38,5.54-1.14,9.47-.63,3.83,.49,3.46,2.88,9.01,5.36,1.98,.88,10.34-2.22,12.67,2.46,2.48,4.98,4.61,5.7,3,10.07-1,2.73-.72,6.19-.17,13.1,.4,4.96-4.71,21.85-4.71,21.85-1.67,2.91,7.93,1.31,7.98-6.28Z"/>
  <path class="cls-4" d="M1028.57,275.72c-1.07,1.4-2.46,2.53-4.05,3.28-1.63,.81-3.43,1.23-5.26,1.21-.93-.04-1.85-.18-2.75-.43-.87-.3-1.7-.71-2.46-1.24-1.48-1-2.65-2.39-3.38-4.01,1.35,.91,2.79,1.7,4.28,2.36,1.38,.6,2.86,.91,4.36,.91,3.19-.1,6.33-.8,9.25-2.08Z"/>
  <path class="cls-8" d="M1004.68,276.47c.33-2.46,1.11-4.84,2.3-7.01,.33-.61,.73-1.18,1.19-1.69,.52-.65,1.13-1.22,1.81-1.69,1-.65,2.16-1.01,3.35-1.02,.66,0,1.31,.08,1.95,.26,.53,.16,1.04,.36,1.53,.6,.78,.39,1.43,.78,1.72,.87,.07,.02,.13,.04,.19,.08,.05,.01,0-.06-.02-.07-.16-.12-.34-.2-.53-.23-.32-.09-.65-.1-.97-.02-.17-.03-.35,0-.5,.1,.73-.47,1.49-.89,2.28-1.25,1.87-.76,3.91-.99,5.9-.67,1.82,.38,3.53,1.12,5.05,2.2,2.21,1.71,4.07,3.84,5.45,6.27l.84,1.5c.25,.46,.53,.96,.55,1.06,.19,.38,.42,.74,.7,1.06,.16,.16,.34,.3,.53,.41,.26,.11,.69,.21,1,.32,.63,.2,1.3,.27,1.96,.19,1.36-.05,2.88-1.53,4.19-3.58l.57,.07c-.1,2.36-1.2,4.57-3.02,6.06-.99,.66-2.14,1.05-3.33,1.15-1.18,.14-2.37,.02-3.5-.37-1.12-.42-2.12-1.11-2.91-2.02-.76-.92-1.34-1.84-1.99-2.74-1.2-1.8-2.68-3.4-4.39-4.74-.83-.61-1.78-1.06-2.78-1.3-1.01-.18-2.04-.09-3,.24-.49,.19-.96,.41-1.42,.65l-.9,.38c-.34,.06-.68,.07-1.02,.03-1.12-.38-2.15-.98-3.03-1.76-.8-.56-1.85-.63-2.72-.17-.93,.52-1.76,1.19-2.46,1.98-1.5,1.62-2.86,3.35-4.07,5.19l-.48-.31Z"/>
  <path class="cls-4" d="M1043.78,297.7c-6.96,1.93-14.31,1.93-21.27,0h0c3.03,1.11,5.18,2.77,5.05,6.23-.35,2.35-1.06,4.63-2.1,6.77,9.45-1.2,18.31-13,18.31-13Z"/>
  <path class="cls-11" d="M1113.93,896.68l4.02,23.03s25.09,34.38,42.99,4.8l-5.91-27.83h-41.1Z"/>
  <path class="cls-16" d="M1117.95,919.71s-21.97,27.44-9.79,43.61c1.29,1.7,3.31,2.68,5.45,2.66l108.9-.59c1.96-.02,3.54-1.62,3.52-3.58,0-.13,0-.26-.02-.39-.62-5.64-39.81-15.19-65.06-36.91,0,0-32.74,9.41-42.99-4.8Z"/>
  <path class="cls-11" d="M1051.25,896.92l9.31,48.42s-30.74,13.23-48.65-16.35l2.25-30.97,37.09-1.1Z"/>
  <path class="cls-16" d="M1055.54,919.71s21.97,27.44,9.79,43.61c-1.29,1.7-3.31,2.68-5.45,2.66l-108.9-.59c-1.96-.02-3.54-1.62-3.52-3.58,0-.13,0-.26,.02-.39,.63-5.64,39.81-15.19,65.06-36.91,0,0,32.74,9.41,42.99-4.8Z"/>
  <path class="cls-7" d="M984.24,533.38l20.42,369.34c.15,2.69,2.37,4.79,5.06,4.79h47.14c2.8,0,5.07-2.27,5.07-5.07,0-.06,0-.11,0-.17l-11.26-331.31,59.7,332.38c.43,2.42,2.54,4.18,4.99,4.18h42.24c2.8,0,5.07-2.27,5.07-5.07,0-.23-.02-.45-.05-.68l-49.77-368.38h-128.61Z"/>
  <polygon class="cls-15" points="1019.53 533.38 1020.78 580.14 1021.83 626.91 1023.62 720.43 1024.97 813.97 1025.49 860.74 1025.8 907.51 1024.55 860.76 1023.5 813.99 1021.72 720.47 1020.37 626.93 1019.85 580.16 1019.53 533.38"/>
  <polygon class="cls-15" points="1079.13 533.38 1087.04 580.08 1094.75 626.8 1109.87 720.3 1124.55 813.87 1131.74 860.67 1138.73 907.51 1130.82 860.82 1123.1 814.1 1107.99 720.6 1093.31 627.03 1086.12 580.22 1079.13 533.38"/>
  <path class="cls-12" d="M982.49,536.65l4.9-60.45s-37.58,11.44-31.04-40.84l3.65-60.88c.79-13.14,7.54-25.21,18.32-32.76l36.17-16.36,12.11-19.34h49.01l11.82,20.48,36.2,13.05c12.02,7.92,19.93,20.75,21.92,37.87l2.05,17.62c2.33,20.03,3.41,40.18,3.23,60.34l-.06,6.47c0,7.8-8.17,19.25-37.58,22.52l1.63,49.01s-50.65,16.34-132.33,3.27Z"/>
  <path class="cls-11" d="M1108.29,438.04l-.27-7.81-5.79-4.83c-2.39-1.99-5.48-2.95-8.59-2.65l-21.6,2.07,3.89,23.86,32.36-10.65Z"/>
  <path class="cls-1" d="M992.29,425.56c-.88-9.8-1.08-19.6-1.11-29.41,.03-9.8,.23-19.61,1.11-29.41,.88,9.8,1.08,19.61,1.11,29.41-.04,9.8-.24,19.61-1.11,29.41Z"/>
  <path class="cls-11" d="M1019.16,424.6l-6.73-10.16c-2.91-4.38-7.06-7.79-11.93-9.79l-9.73-3.99c-3.91-1.6-8.04-.48-12.21,.18-5.76,.91-12.09,3.67-6.74,10,1.44,1.66,3.18,3.05,5.12,4.09l19.16,10.63,23.05-.96Z"/>
  <path class="cls-13" d="M1260.58,965.98H162.95c-1.23,0-2.24-.99-2.24-2.22s.99-2.24,2.22-2.24H1260.58c1.23,0,2.24,.99,2.24,2.22s-.99,2.24-2.22,2.24h-.02Z"/>
</svg>