<?xml version="1.0" encoding="UTF-8"?>
<svg id="websitedesigning" xmlns="http://www.w3.org/2000/svg" xmlns:xlink="http://www.w3.org/1999/xlink" viewBox="0 0 1400 1000">
  <defs>
    <style>
      .cls-1 {
        fill: url(#linear-gradient-58);
      }

      .cls-1, .cls-2, .cls-3, .cls-4, .cls-5, .cls-6, .cls-7, .cls-8, .cls-9, .cls-10, .cls-11, .cls-12, .cls-13, .cls-14, .cls-15, .cls-16, .cls-17, .cls-18, .cls-19, .cls-20, .cls-21, .cls-22, .cls-23, .cls-24, .cls-25, .cls-26, .cls-27, .cls-28, .cls-29, .cls-30, .cls-31, .cls-32, .cls-33, .cls-34, .cls-35, .cls-36, .cls-37, .cls-38, .cls-39, .cls-40, .cls-41, .cls-42, .cls-43, .cls-44, .cls-45, .cls-46, .cls-47, .cls-48, .cls-49, .cls-50, .cls-51, .cls-52, .cls-53, .cls-54, .cls-55, .cls-56, .cls-57, .cls-58, .cls-59, .cls-60, .cls-61, .cls-62, .cls-63, .cls-64, .cls-65, .cls-66, .cls-67, .cls-68, .cls-69, .cls-70, .cls-71, .cls-72, .cls-73, .cls-74, .cls-75, .cls-76, .cls-77, .cls-78 {
        fill-rule: evenodd;
      }

      .cls-2 {
        fill: url(#linear-gradient-4);
      }

      .cls-79 {
        fill: url(#linear-gradient-2);
      }

      .cls-80, .cls-4 {
        fill: #4f1dea;
      }

      .cls-3 {
        fill: url(#linear-gradient-12);
      }

      .cls-81, .cls-6, .cls-76 {
        fill: #fff;
      }

      .cls-82, .cls-42 {
        fill: #4118be;
      }

      .cls-5, .cls-83 {
        fill: #7a5cd5;
      }

      .cls-7 {
        fill: url(#linear-gradient-38);
      }

      .cls-8 {
        fill: url(#linear-gradient-21);
      }

      .cls-9 {
        fill: url(#linear-gradient-48);
      }

      .cls-10 {
        fill: url(#linear-gradient-44);
      }

      .cls-11 {
        fill: url(#linear-gradient-35);
      }

      .cls-12 {
        fill: url(#linear-gradient-54);
      }

      .cls-13 {
        fill: url(#linear-gradient-36);
      }

      .cls-14 {
        fill: url(#linear-gradient-15);
      }

      .cls-15 {
        fill: url(#linear-gradient-24);
      }

      .cls-16 {
        fill: url(#linear-gradient-60);
      }

      .cls-17 {
        fill: url(#linear-gradient-9);
      }

      .cls-18 {
        fill: url(#linear-gradient-25);
      }

      .cls-19 {
        fill: url(#linear-gradient-34);
      }

      .cls-20 {
        fill: url(#linear-gradient-40);
      }

      .cls-21 {
        fill: url(#linear-gradient-6);
      }

      .cls-22 {
        fill: #544a72;
      }

      .cls-23 {
        fill: url(#linear-gradient-16);
      }

      .cls-24 {
        fill: #b5a4ea;
      }

      .cls-25, .cls-84 {
        fill: #7e7793;
      }

      .cls-26 {
        fill: url(#linear-gradient-29);
      }

      .cls-27 {
        fill: url(#linear-gradient-39);
      }

      .cls-28 {
        fill: url(#linear-gradient-26);
      }

      .cls-29 {
        fill: url(#linear-gradient-14);
      }

      .cls-30 {
        fill: url(#linear-gradient-37);
      }

      .cls-31 {
        fill: url(#linear-gradient-49);
      }

      .cls-32, .cls-85 {
        fill: #8865f2;
      }

      .cls-33 {
        fill: url(#linear-gradient-5);
      }

      .cls-34 {
        fill: url(#linear-gradient-23);
      }

      .cls-35 {
        fill: url(#linear-gradient-28);
      }

      .cls-36 {
        fill: url(#linear-gradient-59);
      }

      .cls-37, .cls-86 {
        fill: #aba8b5;
      }

      .cls-38 {
        fill: url(#linear-gradient-27);
      }

      .cls-39 {
        fill: #7e65c9;
      }

      .cls-40 {
        fill: url(#linear-gradient-10);
      }

      .cls-41 {
        fill: url(#linear-gradient-18);
      }

      .cls-43 {
        fill: url(#linear-gradient-41);
      }

      .cls-44 {
        fill: url(#linear-gradient-56);
      }

      .cls-45 {
        fill: url(#linear-gradient-32);
      }

      .cls-46 {
        fill: url(#linear-gradient-11);
      }

      .cls-47 {
        fill: #957ce0;
      }

      .cls-48 {
        fill: url(#linear-gradient-51);
      }

      .cls-49 {
        fill: url(#linear-gradient-61);
      }

      .cls-50 {
        fill: url(#linear-gradient-30);
      }

      .cls-51 {
        fill: #87fbfd;
      }

      .cls-52 {
        fill: url(#linear-gradient-45);
      }

      .cls-53 {
        fill: url(#linear-gradient-55);
      }

      .cls-54 {
        fill: url(#linear-gradient-19);
      }

      .cls-55 {
        fill: url(#linear-gradient-20);
      }

      .cls-56 {
        fill: url(#linear-gradient-47);
      }

      .cls-57 {
        fill: url(#linear-gradient-31);
      }

      .cls-87, .cls-61 {
        fill: #32255b;
      }

      .cls-58 {
        fill: url(#linear-gradient-62);
      }

      .cls-59 {
        fill: url(#linear-gradient-64);
      }

      .cls-60 {
        fill: #4121a2;
      }

      .cls-62 {
        fill: url(#linear-gradient-63);
      }

      .cls-63 {
        fill: url(#linear-gradient-53);
      }

      .cls-88 {
        fill: url(#linear-gradient);
      }

      .cls-64 {
        fill: url(#linear-gradient-52);
      }

      .cls-65 {
        fill: url(#linear-gradient-22);
      }

      .cls-66 {
        fill: url(#linear-gradient-50);
      }

      .cls-67 {
        fill: url(#linear-gradient-13);
      }

      .cls-68 {
        fill: url(#linear-gradient-7);
      }

      .cls-69 {
        fill: url(#linear-gradient-8);
      }

      .cls-70 {
        fill: url(#linear-gradient-46);
      }

      .cls-71 {
        fill: url(#linear-gradient-3);
      }

      .cls-72 {
        fill: url(#linear-gradient-57);
      }

      .cls-73 {
        fill: url(#linear-gradient-43);
      }

      .cls-74 {
        fill: url(#linear-gradient-33);
      }

      .cls-75 {
        fill: url(#linear-gradient-17);
      }

      .cls-76 {
        isolation: isolate;
        opacity: .5;
      }

      .cls-78 {
        fill: url(#linear-gradient-42);
      }
    </style>
    <linearGradient id="linear-gradient" x1="-1083.65" y1="2808.15" x2="-1082.6" y2="2807.1" gradientTransform="translate(34326.56 87076.11) scale(30.77 -30.76)" gradientUnits="userSpaceOnUse">
      <stop offset="0" stop-color="#4f1dea"/>
      <stop offset="1" stop-color="#5d34dc"/>
    </linearGradient>
    <linearGradient id="linear-gradient-2" x1="-1118.47" y1="2857.38" x2="-1118.47" y2="2858.86" gradientTransform="translate(107506.4 332558.02) scale(95.54 -116.14)" gradientUnits="userSpaceOnUse">
      <stop offset="0" stop-color="#aba8b5"/>
      <stop offset="1" stop-color="#7e7793"/>
    </linearGradient>
    <linearGradient id="linear-gradient-3" x1="-1128.55" y1="2867.51" x2="-1127.69" y2="2866.45" gradientTransform="translate(320051.02 653028.63) scale(283.02 -227.63)" gradientUnits="userSpaceOnUse">
      <stop offset="0" stop-color="#8865f2"/>
      <stop offset="1" stop-color="#7e60dc"/>
    </linearGradient>
    <linearGradient id="linear-gradient-4" x1="-1127.94" y1="2866.97" x2="-1127.46" y2="2866.4" gradientTransform="translate(288799.06 614795.97) scale(255.44 -214.34)" gradientUnits="userSpaceOnUse">
      <stop offset="0" stop-color="#4f1dea"/>
      <stop offset="1" stop-color="#714ae9"/>
    </linearGradient>
    <linearGradient id="linear-gradient-5" x1="-1121.1" y1="2855.65" x2="-1120.14" y2="2854.5" gradientTransform="translate(132740.69 279150.36) scale(117.7 -97.61)" gradientUnits="userSpaceOnUse">
      <stop offset="0" stop-color="#4d2eae"/>
      <stop offset="1" stop-color="#5d34dc"/>
    </linearGradient>
    <linearGradient id="linear-gradient-6" x1="-1124.49" y1="2864.89" x2="-1124.03" y2="2864.47" gradientTransform="translate(183198.67 510677.03) scale(162.23 -178.13)" gradientUnits="userSpaceOnUse">
      <stop offset="0" stop-color="#5d34dc"/>
      <stop offset="1" stop-color="#4f1dea"/>
    </linearGradient>
    <linearGradient id="linear-gradient-7" x1="-1106.31" y1="2836.01" x2="-1105.6" y2="2835.21" gradientTransform="translate(60894.83 138213.91) scale(54.3 -48.64)" gradientUnits="userSpaceOnUse">
      <stop offset="0" stop-color="#5d34dc"/>
      <stop offset="1" stop-color="#4f1dea"/>
    </linearGradient>
    <linearGradient id="linear-gradient-8" x1="-1114.56" y1="2845.65" x2="-1114.06" y2="2845.07" gradientTransform="translate(85315.23 186981.55) scale(75.93 -65.57)" gradientUnits="userSpaceOnUse">
      <stop offset="0" stop-color="#5d34dc"/>
      <stop offset="1" stop-color="#4f1dea"/>
    </linearGradient>
    <linearGradient id="linear-gradient-9" x1="-1130.18" y1="2789.74" x2="-1128.7" y2="2789.74" gradientTransform="translate(400465.25 66753.56) scale(353.99 -23.74)" gradientUnits="userSpaceOnUse">
      <stop offset="0" stop-color="#aba8b5"/>
      <stop offset=".32" stop-color="#a8a5b3"/>
      <stop offset=".58" stop-color="#9f9bac"/>
      <stop offset=".82" stop-color="#8f89a0"/>
      <stop offset="1" stop-color="#7e7793"/>
    </linearGradient>
    <linearGradient id="linear-gradient-10" x1="-1130.3" y1="2858.38" x2="-1129.46" y2="2855.2" gradientTransform="translate(463690.79 314580.02) scale(409.71 -109.85)" gradientUnits="userSpaceOnUse">
      <stop offset="0" stop-color="#714ae9"/>
      <stop offset="1" stop-color="#4f1dea"/>
    </linearGradient>
    <linearGradient id="linear-gradient-11" x1="-1130.5" y1="2863.9" x2="-1129.57" y2="2862.06" gradientTransform="translate(506079.82 464619.83) scale(447 -162)" gradientUnits="userSpaceOnUse">
      <stop offset="0" stop-color="#8865f2"/>
      <stop offset="1" stop-color="#7e60dc"/>
    </linearGradient>
    <linearGradient id="linear-gradient-12" x1="-1125.25" y1="2827.62" x2="-1125.25" y2="2829.1" gradientTransform="translate(203347.24 128102.57) scale(180 -45)" gradientUnits="userSpaceOnUse">
      <stop offset="0" stop-color="#6e57b3"/>
      <stop offset="1" stop-color="#7e60dc"/>
    </linearGradient>
    <linearGradient id="linear-gradient-13" x1="-1113.99" y1="2858.41" x2="-1112.24" y2="2857.27" gradientTransform="translate(83255.58 331591.28) scale(73.99 -115.79)" gradientUnits="userSpaceOnUse">
      <stop offset="0" stop-color="#4f1dea"/>
      <stop offset="1" stop-color="#4118be"/>
    </linearGradient>
    <linearGradient id="linear-gradient-14" x1="-1116.03" y1="2858.28" x2="-1114.73" y2="2857.37" gradientTransform="translate(92834.68 331481.28) scale(82.5 -115.74)" gradientUnits="userSpaceOnUse">
      <stop offset="0" stop-color="#5d34dc"/>
      <stop offset="1" stop-color="#4d2eae"/>
    </linearGradient>
    <linearGradient id="linear-gradient-15" x1="-1100.7" y1="2840.33" x2="-1099.21" y2="2840.33" gradientTransform="translate(50873.6 159160.92) scale(45.41 -55.91)" gradientUnits="userSpaceOnUse">
      <stop offset="0" stop-color="#32255b"/>
      <stop offset=".17" stop-color="#312457"/>
      <stop offset=".41" stop-color="#2d234c"/>
      <stop offset=".7" stop-color="#312064"/>
      <stop offset="1" stop-color="#381c8c"/>
    </linearGradient>
    <linearGradient id="linear-gradient-16" x1="-1037.49" y1="2772.75" x2="-1036.01" y2="2772.75" gradientTransform="translate(17419.01 54036.82) scale(15.88 -19.35)" gradientUnits="userSpaceOnUse">
      <stop offset="0" stop-color="#381c8c"/>
      <stop offset=".3" stop-color="#312064"/>
      <stop offset=".59" stop-color="#2d234c"/>
      <stop offset=".83" stop-color="#312457"/>
      <stop offset="1" stop-color="#32255b"/>
    </linearGradient>
    <linearGradient id="linear-gradient-17" x1="-1063.14" y1="2786.61" x2="-1061.64" y2="2786.37" gradientTransform="translate(24023.74 62431.62) scale(21.69 -22.27)" gradientUnits="userSpaceOnUse">
      <stop offset="0" stop-color="#32255b"/>
      <stop offset=".17" stop-color="#312457"/>
      <stop offset=".41" stop-color="#2d234c"/>
      <stop offset=".7" stop-color="#312064"/>
      <stop offset="1" stop-color="#381c8c"/>
    </linearGradient>
    <linearGradient id="linear-gradient-18" x1="-1047.91" y1="2751.18" x2="-1046.43" y2="2751.18" gradientTransform="translate(19767.43 44188.91) scale(17.93 -15.93)" gradientUnits="userSpaceOnUse">
      <stop offset="0" stop-color="#381c8c"/>
      <stop offset=".3" stop-color="#312064"/>
      <stop offset=".59" stop-color="#2d234c"/>
      <stop offset=".83" stop-color="#312457"/>
      <stop offset="1" stop-color="#32255b"/>
    </linearGradient>
    <linearGradient id="linear-gradient-19" x1="-997.57" y1="2702.34" x2="-997.57" y2="2703.82" gradientTransform="translate(12390.56 31269.02) scale(11.41 -11.45)" gradientUnits="userSpaceOnUse">
      <stop offset="0" stop-color="#32255b"/>
      <stop offset=".12" stop-color="#34275b"/>
      <stop offset=".28" stop-color="#392e5b"/>
      <stop offset=".48" stop-color="#443964"/>
      <stop offset=".7" stop-color="#5a4890"/>
      <stop offset=".94" stop-color="#755bc6"/>
      <stop offset="1" stop-color="#7a5cd5"/>
    </linearGradient>
    <linearGradient id="linear-gradient-20" x1="-1042.91" y1="2813.84" x2="-1042.91" y2="2815.33" gradientTransform="translate(18504.33 91879.05) scale(16.85 -32.51)" gradientUnits="userSpaceOnUse">
      <stop offset="0" stop-color="#5d34dc"/>
      <stop offset="1" stop-color="#4f1dea"/>
    </linearGradient>
    <linearGradient id="linear-gradient-21" x1="-1095.31" y1="2847.56" x2="-1093.83" y2="2847.56" gradientTransform="translate(44621.66 203870.9) scale(39.85 -71.43)" gradientUnits="userSpaceOnUse">
      <stop offset="0" stop-color="#b5a4ea"/>
      <stop offset=".31" stop-color="#af9de8"/>
      <stop offset=".78" stop-color="#9e88e3"/>
      <stop offset="1" stop-color="#957ce0"/>
    </linearGradient>
    <linearGradient id="linear-gradient-22" x1="-1079.36" y1="2825.95" x2="-1077.96" y2="2824.95" gradientTransform="translate(31350.67 115242.91) scale(28.16 -40.6)" gradientUnits="userSpaceOnUse">
      <stop offset="0" stop-color="#4121a2"/>
      <stop offset="1" stop-color="#1f0f50"/>
    </linearGradient>
    <linearGradient id="linear-gradient-23" x1="-1088.8" y1="2840.51" x2="-1087.32" y2="2840.51" gradientTransform="translate(37662.32 163724.4) scale(33.74 -57.46)" gradientUnits="userSpaceOnUse">
      <stop offset="0" stop-color="#7a5cd5"/>
      <stop offset="1" stop-color="#4121a2"/>
    </linearGradient>
    <linearGradient id="linear-gradient-24" x1="-1094.61" y1="2736.05" x2="-1093.13" y2="2736.05" gradientTransform="translate(42862.02 39917.13) scale(38.35 -14.43)" gradientUnits="userSpaceOnUse">
      <stop offset="0" stop-color="#7a5cd5"/>
      <stop offset="1" stop-color="#4121a2"/>
    </linearGradient>
    <linearGradient id="linear-gradient-25" x1="-1121.12" y1="2859.99" x2="-1120.09" y2="2859.04" gradientTransform="translate(132695.81 359345.79) scale(117.64 -125.47)" gradientUnits="userSpaceOnUse">
      <stop offset="0" stop-color="#4121a2"/>
      <stop offset="1" stop-color="#1f0f50"/>
    </linearGradient>
    <linearGradient id="linear-gradient-26" x1="-1101.84" y1="2764.13" x2="-1100.36" y2="2764.13" gradientTransform="translate(51404.99 51465.47) scale(45.95 -18.41)" gradientUnits="userSpaceOnUse">
      <stop offset="0" stop-color="#7a5cd5"/>
      <stop offset="1" stop-color="#4121a2"/>
    </linearGradient>
    <linearGradient id="linear-gradient-27" x1="-1078.77" y1="2807.96" x2="-1077.29" y2="2807.96" gradientTransform="translate(30560.21 84188.28) scale(27.49 -29.81)" gradientUnits="userSpaceOnUse">
      <stop offset="0" stop-color="#4d2eae"/>
      <stop offset="1" stop-color="#5d34dc"/>
    </linearGradient>
    <linearGradient id="linear-gradient-28" x1="-1107.72" y1="2835.49" x2="-1106.64" y2="2834.27" gradientTransform="translate(64442.92 143531.68) scale(57.4 -50.42)" gradientUnits="userSpaceOnUse">
      <stop offset="0" stop-color="#8865f2"/>
      <stop offset="1" stop-color="#4f1dea"/>
    </linearGradient>
    <linearGradient id="linear-gradient-29" x1="-1106.98" y1="2847.72" x2="-1105.49" y2="2847.72" gradientTransform="translate(59974.63 201564.2) scale(53.56 -70.65)" gradientUnits="userSpaceOnUse">
      <stop offset="0" stop-color="#cbbbfc"/>
      <stop offset=".46" stop-color="#c4b4f6"/>
      <stop offset="1" stop-color="#b5a4ea"/>
    </linearGradient>
    <linearGradient id="linear-gradient-30" x1="-1116.21" y1="2825.54" x2="-1114.73" y2="2825.54" gradientTransform="translate(92897.66 113502.15) scale(82.55 -40.01)" gradientUnits="userSpaceOnUse">
      <stop offset="0" stop-color="#7a5cd5"/>
      <stop offset="1" stop-color="#4121a2"/>
    </linearGradient>
    <linearGradient id="linear-gradient-31" x1="-1096.67" y1="2827.2" x2="-1095.89" y2="2826.42" gradientTransform="translate(44227.51 116153.83) scale(39.65 -40.94)" gradientUnits="userSpaceOnUse">
      <stop offset="0" stop-color="#4121a2"/>
      <stop offset="1" stop-color="#1f0f50"/>
    </linearGradient>
    <linearGradient id="linear-gradient-32" x1="-1090.51" y1="2775.9" x2="-1089.8" y2="2774.63" gradientTransform="translate(38337.4 55942.79) scale(34.41 -20)" gradientUnits="userSpaceOnUse">
      <stop offset="0" stop-color="#8865f2"/>
      <stop offset="1" stop-color="#4f1dea"/>
    </linearGradient>
    <linearGradient id="linear-gradient-33" x1="-1051.96" y1="2761.89" x2="-1050.48" y2="2761.89" gradientTransform="translate(20856.1 45951.12) scale(18.88 -16.61)" gradientUnits="userSpaceOnUse">
      <stop offset="0" stop-color="#695e89"/>
      <stop offset=".33" stop-color="#534776"/>
      <stop offset=".75" stop-color="#3b2e62"/>
      <stop offset="1" stop-color="#32255b"/>
    </linearGradient>
    <linearGradient id="linear-gradient-34" x1="-1111.56" y1="2843.86" x2="-1110.41" y2="2842.71" gradientTransform="translate(65868.61 164979.5) scale(59 -58)" gradientUnits="userSpaceOnUse">
      <stop offset="0" stop-color="#4d2eae"/>
      <stop offset="1" stop-color="#5d34dc"/>
    </linearGradient>
    <linearGradient id="linear-gradient-35" x1="-1100.31" y1="2842.59" x2="-1099.46" y2="2842.81" gradientTransform="translate(43162.61 162105) scale(39 -57)" gradientUnits="userSpaceOnUse">
      <stop offset="0" stop-color="#7a5cd5"/>
      <stop offset="1" stop-color="#4121a2"/>
    </linearGradient>
    <linearGradient id="linear-gradient-36" x1="-1082.41" y1="2838.48" x2="-1080.84" y2="2838.81" gradientTransform="translate(33557.68 150272.35) scale(30.07 -52.83)" gradientUnits="userSpaceOnUse">
      <stop offset="0" stop-color="#7a5cd5"/>
      <stop offset="1" stop-color="#4121a2"/>
    </linearGradient>
    <linearGradient id="linear-gradient-37" x1="-1080.32" y1="2837.98" x2="-1078.84" y2="2837.98" gradientTransform="translate(32552.63 147658.53) scale(29.16 -51.92)" gradientUnits="userSpaceOnUse">
      <stop offset="0" stop-color="#4d2eae"/>
      <stop offset="1" stop-color="#5d34dc"/>
    </linearGradient>
    <linearGradient id="linear-gradient-38" x1="-1107.08" y1="2798.31" x2="-1107.08" y2="2799.79" gradientTransform="translate(66626.48 71659.1) scale(59.24 -25.5)" gradientUnits="userSpaceOnUse">
      <stop offset="0" stop-color="#5d34dc"/>
      <stop offset="1" stop-color="#4f1dea"/>
    </linearGradient>
    <linearGradient id="linear-gradient-39" x1="-1043.82" y1="2678.53" x2="-1042.34" y2="2678.53" gradientTransform="translate(19109.93 27157.49) scale(17.32 -10.02)" gradientUnits="userSpaceOnUse">
      <stop offset="0" stop-color="#695e89"/>
      <stop offset="1" stop-color="#32255b"/>
    </linearGradient>
    <linearGradient id="linear-gradient-40" x1="-1097.8" y1="2721.71" x2="-1096.32" y2="2721.71" gradientTransform="translate(47687.72 39235.47) scale(42.55 -14.08)" gradientUnits="userSpaceOnUse">
      <stop offset="0" stop-color="#7e60dc"/>
      <stop offset="1" stop-color="#6e57b3"/>
    </linearGradient>
    <linearGradient id="linear-gradient-41" x1="-1127.65" y1="2814.55" x2="-1127.65" y2="2816.03" gradientTransform="translate(255260.33 102601.92) scale(226.1 -36.1)" gradientUnits="userSpaceOnUse">
      <stop offset="0" stop-color="#aba8b5"/>
      <stop offset=".04" stop-color="#a8a5b3"/>
      <stop offset=".4" stop-color="#918ca1"/>
      <stop offset=".73" stop-color="#837c97"/>
      <stop offset="1" stop-color="#7e7793"/>
    </linearGradient>
    <linearGradient id="linear-gradient-42" x1="-1099.41" y1="2815.29" x2="-1097.93" y2="2815.29" gradientTransform="translate(40427.43 102601.92) scale(36.65 -36.1)" gradientUnits="userSpaceOnUse">
      <stop offset="0" stop-color="#7e7793"/>
      <stop offset=".32" stop-color="#827c96"/>
      <stop offset=".72" stop-color="#918ca0"/>
      <stop offset="1" stop-color="#a487fd"/>
    </linearGradient>
    <linearGradient id="linear-gradient-43" x1="-1117.68" y1="2868.77" x2="-1117.68" y2="2870.26" gradientTransform="translate(96873.87 939382.93) scale(86.29 -327.1)" gradientUnits="userSpaceOnUse">
      <stop offset="0" stop-color="#695e89"/>
      <stop offset=".06" stop-color="#6c618d"/>
      <stop offset=".36" stop-color="#7d71a1"/>
      <stop offset=".67" stop-color="#867aac"/>
      <stop offset="1" stop-color="#897cb0"/>
    </linearGradient>
    <linearGradient id="linear-gradient-44" x1="-1120.64" y1="2868.77" x2="-1120.64" y2="2870.26" gradientTransform="translate(115917.04 939382.93) scale(103.16 -327.1)" gradientUnits="userSpaceOnUse">
      <stop offset="0" stop-color="#695e89"/>
      <stop offset=".06" stop-color="#6c618d"/>
      <stop offset=".36" stop-color="#7d71a1"/>
      <stop offset=".67" stop-color="#867aac"/>
      <stop offset="1" stop-color="#897cb0"/>
    </linearGradient>
    <linearGradient id="linear-gradient-45" x1="-1114.45" y1="2661.47" x2="-1112.96" y2="2661.47" gradientTransform="translate(76940.39 26193.37) scale(68.71 -9.62)" gradientUnits="userSpaceOnUse">
      <stop offset="0" stop-color="#897cb0"/>
      <stop offset=".33" stop-color="#867aac"/>
      <stop offset=".64" stop-color="#7d71a1"/>
      <stop offset=".94" stop-color="#6c618d"/>
      <stop offset="1" stop-color="#695e89"/>
    </linearGradient>
    <linearGradient id="linear-gradient-46" x1="-1114.98" y1="2670.57" x2="-1113.5" y2="2670.57" gradientTransform="translate(78732.25 27807.96) scale(70.3 -10.17)" gradientUnits="userSpaceOnUse">
      <stop offset="0" stop-color="#897cb0"/>
      <stop offset=".33" stop-color="#867aac"/>
      <stop offset=".64" stop-color="#7d71a1"/>
      <stop offset=".94" stop-color="#6c618d"/>
      <stop offset="1" stop-color="#695e89"/>
    </linearGradient>
    <linearGradient id="linear-gradient-47" x1="-1115.62" y1="2668.42" x2="-1114.13" y2="2668.42" gradientTransform="translate(80999.4 27939.33) scale(72.31 -10.19)" gradientUnits="userSpaceOnUse">
      <stop offset="0" stop-color="#897cb0"/>
      <stop offset=".33" stop-color="#867aac"/>
      <stop offset=".64" stop-color="#7d71a1"/>
      <stop offset=".94" stop-color="#6c618d"/>
      <stop offset="1" stop-color="#695e89"/>
    </linearGradient>
    <linearGradient id="linear-gradient-48" x1="-1116.13" y1="2666.04" x2="-1114.65" y2="2666.04" gradientTransform="translate(82821.66 28092.19) scale(73.94 -10.22)" gradientUnits="userSpaceOnUse">
      <stop offset="0" stop-color="#897cb0"/>
      <stop offset=".33" stop-color="#867aac"/>
      <stop offset=".64" stop-color="#7d71a1"/>
      <stop offset=".94" stop-color="#6c618d"/>
      <stop offset="1" stop-color="#695e89"/>
    </linearGradient>
    <linearGradient id="linear-gradient-49" x1="-1120.83" y1="2868.77" x2="-1120.83" y2="2870.26" gradientTransform="translate(117543.2 939382.93) scale(104.59 -327.1)" gradientUnits="userSpaceOnUse">
      <stop offset="0" stop-color="#32255b"/>
      <stop offset=".26" stop-color="#36295e"/>
      <stop offset=".52" stop-color="#413467"/>
      <stop offset=".77" stop-color="#524676"/>
      <stop offset="1" stop-color="#695e89"/>
    </linearGradient>
    <linearGradient id="linear-gradient-50" x1="-1114.99" y1="2649.94" x2="-1113.5" y2="2649.94" gradientTransform="translate(79122.48 24751.14) scale(70.63 -9.12)" gradientUnits="userSpaceOnUse">
      <stop offset="0" stop-color="#695e89"/>
      <stop offset="1" stop-color="#32255b"/>
    </linearGradient>
    <linearGradient id="linear-gradient-51" x1="-1115.46" y1="2668.65" x2="-1113.98" y2="2668.65" gradientTransform="translate(80770.17 27504.81) scale(72.1 -10.06)" gradientUnits="userSpaceOnUse">
      <stop offset="0" stop-color="#695e89"/>
      <stop offset="1" stop-color="#32255b"/>
    </linearGradient>
    <linearGradient id="linear-gradient-52" x1="-1116.1" y1="2678.31" x2="-1114.61" y2="2678.31" gradientTransform="translate(83166.53 29379.85) scale(74.23 -10.7)" gradientUnits="userSpaceOnUse">
      <stop offset="0" stop-color="#695e89"/>
      <stop offset="1" stop-color="#32255b"/>
    </linearGradient>
    <linearGradient id="linear-gradient-53" x1="-1116.59" y1="2686.79" x2="-1115.11" y2="2686.79" gradientTransform="translate(85014.45 31296.58) scale(75.87 -11.34)" gradientUnits="userSpaceOnUse">
      <stop offset="0" stop-color="#695e89"/>
      <stop offset="1" stop-color="#32255b"/>
    </linearGradient>
    <linearGradient id="linear-gradient-54" x1="-1117.92" y1="2868.77" x2="-1117.92" y2="2870.26" gradientTransform="translate(98227.55 939382.93) scale(87.48 -327.1)" gradientUnits="userSpaceOnUse">
      <stop offset="0" stop-color="#32255b"/>
      <stop offset=".26" stop-color="#36295e"/>
      <stop offset=".52" stop-color="#413467"/>
      <stop offset=".77" stop-color="#524676"/>
      <stop offset="1" stop-color="#695e89"/>
    </linearGradient>
    <linearGradient id="linear-gradient-55" x1="-1104.74" y1="2811.21" x2="-1103.26" y2="2811.21" gradientTransform="translate(50113.58 92593.53) scale(45.1 -32.67)" gradientUnits="userSpaceOnUse">
      <stop offset="0" stop-color="#b5a4ea"/>
      <stop offset=".31" stop-color="#af9de8"/>
      <stop offset=".78" stop-color="#9e88e3"/>
      <stop offset="1" stop-color="#957ce0"/>
    </linearGradient>
    <linearGradient id="linear-gradient-56" x1="-1120.11" y1="2857.57" x2="-1119.47" y2="2857.05" gradientTransform="translate(107264.8 331217.09) scale(95.57 -115.62)" gradientUnits="userSpaceOnUse">
      <stop offset="0" stop-color="#5d34dc"/>
      <stop offset="1" stop-color="#4d2eae"/>
    </linearGradient>
    <linearGradient id="linear-gradient-57" x1="-1110.58" y1="2847.5" x2="-1109.1" y2="2847.5" gradientTransform="translate(61643.49 215662.69) scale(55.31 -75.44)" gradientUnits="userSpaceOnUse">
      <stop offset="0" stop-color="#b5a4ea"/>
      <stop offset=".31" stop-color="#af9de8"/>
      <stop offset=".78" stop-color="#9e88e3"/>
      <stop offset="1" stop-color="#957ce0"/>
    </linearGradient>
    <linearGradient id="linear-gradient-58" x1="-1115.1" y1="2845.61" x2="-1113.62" y2="2845.61" gradientTransform="translate(76421.11 201075.4) scale(68.35 -70.38)" gradientUnits="userSpaceOnUse">
      <stop offset="0" stop-color="#32255b"/>
      <stop offset="1" stop-color="#1f0f50"/>
    </linearGradient>
    <linearGradient id="linear-gradient-59" x1="-1055.81" y1="2703.96" x2="-1054.33" y2="2703.96" gradientTransform="translate(18078.57 34473.75) scale(16.85 -12.45)" gradientUnits="userSpaceOnUse">
      <stop offset="0" stop-color="#4121a2"/>
      <stop offset="1" stop-color="#7a5cd5"/>
    </linearGradient>
    <linearGradient id="linear-gradient-60" x1="-1107.62" y1="2721.17" x2="-1106.14" y2="2721.17" gradientTransform="translate(54483.78 38997.49) scale(49 -14)" gradientUnits="userSpaceOnUse">
      <stop offset="0" stop-color="#7a5cd5"/>
      <stop offset="1" stop-color="#4121a2"/>
    </linearGradient>
    <linearGradient id="linear-gradient-61" x1="-1121.35" y1="2843.13" x2="-1120.26" y2="2841.46" gradientTransform="translate(115692.02 185706.61) scale(103 -65)" gradientUnits="userSpaceOnUse">
      <stop offset="0" stop-color="#4121a2"/>
      <stop offset="1" stop-color="#1f0f50"/>
    </linearGradient>
    <linearGradient id="linear-gradient-62" x1="-1090.7" y1="2828.89" x2="-1089.22" y2="2828.89" gradientTransform="translate(34123.69 130139.64) scale(30.96 -45.7)" gradientUnits="userSpaceOnUse">
      <stop offset="0" stop-color="#b5a4ea"/>
      <stop offset=".31" stop-color="#af9de8"/>
      <stop offset=".78" stop-color="#9e88e3"/>
      <stop offset="1" stop-color="#957ce0"/>
    </linearGradient>
    <linearGradient id="linear-gradient-63" x1="-1117.59" y1="2849.54" x2="-1116.47" y2="2848.41" gradientTransform="translate(91916.56 231107.66) scale(81.97 -80.79)" gradientUnits="userSpaceOnUse">
      <stop offset="0" stop-color="#5d34dc"/>
      <stop offset="1" stop-color="#4d2eae"/>
    </linearGradient>
    <linearGradient id="linear-gradient-64" x1="-1115.59" y1="2828.52" x2="-1114.1" y2="2828.52" gradientTransform="translate(80066.15 130966.23) scale(71.51 -45.97)" gradientUnits="userSpaceOnUse">
      <stop offset="0" stop-color="#4f1dea"/>
      <stop offset="1" stop-color="#582ce1"/>
    </linearGradient>
  </defs>
  <g>
    <circle class="cls-86" cx="489.88" cy="719.73" r="19.76"/>
    <circle class="cls-88" cx="1000.98" cy="702.47" r="22.81"/>
  </g>
  <path class="cls-51" d="M656.51,659.42h-2.78c-9.72,0-17.6-7.79-17.6-17.4v-55.86c0-9,6.91-16.4,15.77-17.3-.2,0-.4-.03-.6-.03h-2.96c-10.35,0-18.73,8.29-18.73,18.52v59.46c0,10.23,8.39,18.52,18.73,18.52h2.96c7.03,.01,13.48-3.91,16.7-10.15-3.2,2.74-7.28,4.24-11.49,4.24Z"/>
  <path class="cls-79" d="M722.13,704.65s-13.56-52.97-19.23-92.18c-4.93-34.13-10.85-80.03-10.85-80.03h-40.75v0h-40.76s-5.92,45.9-10.85,80.03c-5.66,39.21-19.23,92.19-19.23,92.19h70.83v-.02s.01,.02,.01,.02h70.83Zm-73.79-39.32c-10.35,0-18.73-8.29-18.73-18.52v-59.46c0-10.23,8.39-18.52,18.73-18.52h2.96c10.35,0,18.73,8.29,18.73,18.52v59.46c0,10.23-8.39,18.52-18.73,18.52h-2.96Z"/>
  <g>
    <path class="cls-6" d="M911.3,515.56V194.73c0-9.23-7.49-16.71-16.73-16.71h-373.89c-4.45,8.4-11.13,15.48-22.25,19.96-34.51,13.88-64.02,12.88-100.14,13.96v303.63H911.3Z"/>
    <path class="cls-71" d="M911.3,194.73c0-9.23-7.49-16.71-16.73-16.71h-45.44l-2.25,4.84c3.6,12.48,.96,23.04-17.14,28.56-26.17,7.98-73.36,.78-83.15,31.52-6.73,21.12,2.72,41.76,11.69,51.36,8.97,9.6,19.87,28.16-1.92,32.64-21.79,4.48-49.35-5.68-68.57-7.36-29.32-2.56-68.89-3.36-87.32,24.96-13.63,20.95-3.2,40.96,12.1,43.76,11.67,2.14,24.11-3.36,28.84-14.4,4.36-10.18-.87-19.09-8.41-20.64-7.77-1.6-15.12,3.67-16.66,8.56-1.44,4.56,1.25,6.97,4.16,6.72,4.65-.4,6.65-4.48,8.49-2.56,2.36,2.46-1.16,8.52-8.01,9.76-5.16,.94-11.66-.28-13.14-9.6-1.39-8.74,3.04-16.72,13.3-21.28,9.51-4.23,20.83-2.24,27.88,7.68s4.89,27.12-4.49,35.68c-13.99,12.78-31.27,14.38-58,20.64-34.14,7.99-86.19,20.72-93.88,60.48-4.54,23.48,6.75,37.95,17.68,46.24h400.96V194.73Z"/>
    <path class="cls-2" d="M712.79,484.04c21.48-4.8,60.88-13.92,72.09-49.2,10.34-32.52-16.58-37.17-14.42-63.76,1.92-23.6,46.62-32.75,89.72-41.92,43.61-9.28,36.53-30.08,33.96-40.32,0,0-5.9-27.59,17.16-37.43v-51.71l-4.34-1.98c-.96,6.72-24.23,30.86-48.75,31.71-24.62,.85-59.39-6.51-76.93,16.53-13.93,18.29-1.2,38.56,6.73,48.72,5.35,6.86,13.59,31.76-10.09,38.16-29.32,7.92-56.03-2.45-74.98-6-23.47-4.4-41.09,2.96-44.22,12.24-5.29,15.7,16.46,19.54,15.14,40.56-1.12,17.84-31.31,33.32-74.26,39.6-48.14,7.04-66.38,24.97-67.05,46.4-.64,20.48,14.18,30.4,32.2,32.08,17.26,1.61,39.57-2.27,40.8,17.84h66.07c-6.37-28.92,23.11-27.48,41.16-31.52h0Z"/>
    <path class="cls-33" d="M811.79,391.57c-7.93,18.8,18.5,23.36,13.14,59.2-4.77,31.86-59.28,27.52-76.9,38.08-10.5,6.29-11.79,18.16-11.11,26.72h174.37v-144.74c-19.83,12.26-89.32-3.39-99.5,20.74h0Z"/>
    <path class="cls-21" d="M894.14,288.85c2.57,10.24,9.65,31.04-33.96,40.32-43.1,9.17-87.79,18.32-89.72,41.92-2.17,26.59,24.76,31.24,14.42,63.76-11.21,35.28-50.62,44.4-72.1,49.2-18.05,4.03-47.53,2.6-41.16,31.52h65.3c-.68-8.56,.6-20.42,11.11-26.72,17.62-10.56,72.12-6.21,76.9-38.08,5.37-35.84-21.07-40.4-13.14-59.2,10.18-24.14,79.68-8.48,99.51-20.74v-119.39c-23.06,9.83-17.16,37.42-17.16,37.42h0Z"/>
    <path class="cls-68" d="M868.99,251.25c-6.25,6.72-16.98,9.28-27.55,10.72-10.57,1.44-29.48,3.36-38.53,19.52-9,16.07-.57,40.22,18.26,41.76,25.4,2.08,31.96-20.96,38.69-28.08,6.12-6.48,19.71-9.84,19.95-20.16,.24-10.32-10.82-23.76-10.82-23.76h0Z"/>
    <path class="cls-69" d="M664.4,450.12c14.8,2.91,38.45-.22,46.14-10.24,7.37-9.6,3.21-21.12,9.61-27.2,6.41-6.08,32.23-23.73,37.17-33.6,4.49-8.96,.96-20.48-9.29-24-9.93-3.41-18.58,.96-23.07,9.92-4.49,8.96-8.65,22.4-25.95,32.32-14.44,8.28-46.97,17.16-51.59,32-3.68,11.84,6.41,18.72,16.98,20.8h0Z"/>
    <path class="cls-25" d="M894.97,187.62c2.62,0,4.76,1.64,4.76,3.65v324.45h17.51V191.27c0-9.44-9.97-17.09-22.28-17.09H403.52c-2.79,4.91-6.37,9.46-11.22,13.44h502.67Z"/>
    <path class="cls-25" d="M405.8,515.72V174.66c-4.39,.12-8.87,.26-13.46,.45v340.61h13.46Z"/>
    <path class="cls-17" d="M392.34,513.16v18.11c0,9.44,7.66,17.09,17.12,17.09h490.67c9.45,0,17.12-7.65,17.12-17.09v-18.11H392.34Z"/>
    <path class="cls-51" d="M590.71,339.52c0,2.12-1.72,3.84-3.84,3.84h-148.52c-2.12,0-3.84-1.72-3.84-3.84v-58.56c0-2.12,1.72-3.84,3.84-3.84h148.51c2.12,0,3.84,1.72,3.84,3.84h0v58.56h0Z"/>
    <path class="cls-86" d="M586.86,344.8h-148.51c-2.92,0-5.28-2.36-5.29-5.28v-58.56c0-2.91,2.37-5.28,5.29-5.28h148.51c2.92,0,5.28,2.36,5.29,5.28v58.56c0,2.91-2.37,5.28-5.29,5.28h0Zm-148.51-66.23c-1.32,0-2.4,1.08-2.4,2.4v58.56c0,1.32,1.08,2.4,2.4,2.4h148.51c1.33,0,2.4-1.08,2.4-2.4v-58.56c0-1.33-1.08-2.4-2.4-2.4h-148.51Z"/>
    <path class="cls-77" d="M450.48,296.68h124c1.13,.06,2.09-.8,2.15-1.93s-.8-2.09-1.93-2.15c-.07,0-.15,0-.22,0h-124c-1.13-.06-2.09,.8-2.15,1.93s.8,2.09,1.93,2.15c.07,0,.15,0,.22,0Zm0,15.6h59.92c1.13,.04,2.08-.84,2.12-1.96s-.84-2.08-1.96-2.12c-.05,0-.1,0-.16,0h-59.92c-1.13-.04-2.08,.84-2.12,1.96s.84,2.08,1.96,2.12c.05,0,.1,0,.16,0Zm124-4.08h-23.87c-1.13-.04-2.08,.84-2.12,1.96s.84,2.08,1.96,2.12c.05,0,.1,0,.16,0h23.87c1.13,.04,2.08-.84,2.12-1.96s-.84-2.08-1.96-2.12c-.05,0-.1,0-.16,0Zm-34.81,2.04c0-1.13-.91-2.04-2.04-2.04h-14.1c-1.13-.04-2.08,.84-2.12,1.96s.84,2.08,1.96,2.12c.05,0,.1,0,.16,0h14.1c1.13,0,2.04-.91,2.04-2.04h0Zm12.22,13.56h-14.1c-1.13-.04-2.08,.84-2.12,1.96s.84,2.08,1.96,2.12c.05,0,.1,0,.16,0h14.1c1.13,0,2.04-.91,2.04-2.04s-.91-2.04-2.04-2.04h0Zm-28.96,0h-72.45c-1.13-.04-2.08,.84-2.12,1.96s.84,2.08,1.96,2.12c.05,0,.1,0,.16,0h72.45c1.13,.04,2.08-.84,2.12-1.96s-.84-2.08-1.96-2.12c-.05,0-.1,0-.16,0Z"/>
    <path class="cls-37" d="M576.51,240.1l1.37,2.03-55.21,35.84-1.37-2.03,55.21-35.84Zm-97.82,213.04l-2.19-1.87,55.43-64.78-52.66-41.95,1.8-2.25,55,43.81-57.36,67.05Z"/>
    <path class="cls-25" d="M507.08,464.2h203.78v2.88h-203.78v-2.88Z"/>
    <path class="cls-42" d="M523.42,466.6c0,6.89-5.6,12.48-12.5,12.48h-63.92c-6.9,0-12.5-5.59-12.5-12.48v-1.92c0-6.89,5.59-12.48,12.5-12.48h63.92c6.9,0,12.49,5.59,12.49,12.48v1.92h0Z"/>
    <path class="cls-86" d="M510.92,480.52h-63.92c-7.69,0-13.94-6.24-13.94-13.92v-1.92c0-7.68,6.25-13.92,13.94-13.92h63.92c7.68,0,13.94,6.24,13.94,13.92v1.92c0,7.68-6.25,13.92-13.94,13.92Zm-63.92-26.88c-6.09,0-11.05,4.95-11.05,11.04v1.92c0,6.09,4.96,11.04,11.05,11.04h63.92c6.09,0,11.05-4.95,11.05-11.04v-1.92c0-6.09-4.96-11.04-11.05-11.04h-63.92Z"/>
    <path class="cls-5" d="M649.34,466.6c0,6.89-5.59,12.48-12.5,12.48h-63.92c-6.9,0-12.5-5.59-12.5-12.48v-1.92c0-6.89,5.59-12.48,12.5-12.48h63.92c6.9,0,12.5,5.59,12.5,12.48v1.92Z"/>
    <path class="cls-84" d="M636.85,480.52h-63.92c-7.69,0-13.94-6.24-13.94-13.92v-1.92c0-7.68,6.25-13.92,13.94-13.92h63.92c7.69,0,13.94,6.24,13.94,13.92v1.92c0,7.68-6.25,13.92-13.94,13.92Zm-63.92-26.88c-6.1,0-11.05,4.95-11.05,11.04v1.92c0,6.09,4.96,11.04,11.05,11.04h63.92c6.09,0,11.05-4.95,11.05-11.04v-1.92c0-6.09-4.96-11.04-11.05-11.04h-63.92Z"/>
    <ellipse class="cls-86" cx="533.99" cy="386.29" rx="13.78" ry="13.76"/>
    <ellipse class="cls-81" cx="533.99" cy="386.29" rx="6.05" ry="6.04"/>
    <path class="cls-5" d="M626.11,228.56c0,7.94-6.44,14.37-14.39,14.37h-73.6c-7.95,0-14.39-6.44-14.39-14.37v-2.21c0-7.94,6.44-14.37,14.39-14.37h73.6c7.95,0,14.39,6.43,14.39,14.37v2.21Z"/>
    <path class="cls-86" d="M611.72,244.37h-73.6c-8.73,0-15.83-7.09-15.83-15.81v-2.21c0-8.72,7.1-15.81,15.83-15.81h73.6c8.73,0,15.83,7.09,15.83,15.81v2.21c0,8.72-7.1,15.81-15.83,15.81Zm-73.6-30.95c-7.14,0-12.95,5.8-12.95,12.93v2.21c0,7.13,5.81,12.93,12.95,12.93h73.6c7.14,0,12.95-5.8,12.95-12.93v-2.21c0-7.13-5.81-12.93-12.95-12.93h-73.6Z"/>
  </g>
  <path class="cls-40" d="M801.41,714.48c-137.22-47.81-288.77-11.05-351.11,13.28,38.14,21.47,128.47,19.2,162.6,42.46,15.36,10.47,24.39,27.09,30.88,45.69,33.33,10.12,65.64,21.08,91.51,30.82,67.13,25.28,275.91-21.74,322.54-32.77v-57.8c-47.48,10.71-105.68,10.84-256.43-41.68h0Z"/>
  <path class="cls-46" d="M941.18,895.89c7.09,11.44,.19,23.69-23.58,33.9-20.03,8.61-30.2,23.6-16.87,34.76,.34,.29,.7,.57,1.08,.85l.24,.18c.32,.23,.65,.47,.99,.7l.27,.18c.39,.25,.78,.51,1.2,.76,.04,.03,.08,.05,.13,.08,.93,.56,1.94,1.11,3.02,1.64l.36,.17c.42,.2,.86,.4,1.3,.61l.43,.19c.47,.21,.96,.41,1.45,.61l.32,.13c.65,.26,1.3,.51,1.96,.75,.63,.23,1.27,.45,1.93,.67l.55,.18c.51,.16,1.03,.33,1.56,.49,.77,.23,1.55,.45,2.32,.66l.58,.16c.77,.2,1.55,.4,2.36,.6l.1,.02c.76,.18,1.55,.36,2.34,.53,.25,.06,.51,.11,.77,.16,1.53,.33,3.08,.62,4.62,.89l.84,.15c2.47,.42,4.94,.78,7.42,1.09,.43,.05,.87,.11,1.31,.16,1.24,.15,2.49,.29,3.75,.42,.35,.04,.7,.08,1.05,.11,1.57,.16,3.15,.3,4.75,.43,.37,.03,.74,.06,1.11,.08,1.29,.1,2.59,.19,3.89,.27,.46,.03,.92,.06,1.38,.09,1.61,.09,3.23,.18,4.86,.26h.09c1.66,.08,3.33,.14,5.01,.19,.48,.02,.97,.03,1.46,.04,1.32,.04,2.65,.07,3.98,.09,.4,0,.81,.02,1.21,.03,1.67,.03,3.35,.05,5.03,.06,.43,0,.86,0,1.3,0,1.32,0,2.63,.01,3.95,.01h1.6c3.39-.01,6.79-.04,10.18-.1l1.84-.03c.89-.01,1.78-.03,2.68-.05,68.06-2.97,192.44-37.96,217.01-126.81h.02s.08-.36,.08-.36c.25-1.19,.51-2.38,.79-3.57,.2-.87,.41-1.74,.63-2.61,.5-1.94,1.03-3.88,1.6-5.81,.54-1.78,1.15-3.53,1.81-5.27,.42-1.11,.86-2.21,1.33-3.31,.12-.28,.23-.56,.35-.84,.51-1.17,1.04-2.33,1.58-3.48h.01c9.57-20,26.31-39.54,41.85-61.97-46.14-1.89-112.22-22.18-165.68-25.1-.03,0-.07,0-.1,0h-.14c-10.33-.69-20.69-.98-31.05-.87-85.48,.82-160.61,39.48-188.18,40.1-39.94,.9-100.07-20.22-167.73-22.95-52.63-2.12-87.06,3.6-109.95,11.16,61.08,29.28,38.39,115.74,98.43,130.73,55.51,13.85,155.59-13.65,179.41-16.9,28.46-3.88,51.07,.63,59.8,14.71h0Z"/>
  <path class="cls-3" d="M724.98,806.24c38.63-3.75,73.93,12.97,99.07,11.78,22.73-1.07,52.71-23.58,74.67-25.35,19.96-1.61,37.17,3.93,36.97,21.78-.18,15.71-21.81,17.49-35.86,17.14-14.05-.36-51.22-4.44-62.47-1.79-16.63,3.93-15.79,17.25-31.42,23.92-17.56,7.5-55.82,7.14-86.87-.71-31.05-7.86-50.99-15.68-50.27-19.28,.73-3.6,13.86-23.39,56.18-27.49Z"/>
  <path class="cls-4" d="M1005.34,408.67c4.21,4.05,8.34,8.18,12.39,12.4,4.07,4.19,7.99,8.5,12.06,12.69,4.07,4.18,8.21,8.31,11.85,12.87,.91,1.14,1.81,2.29,2.69,3.46,.86,1.19,1.76,2.33,2.51,3.62,.75,1.28,1.38,2.67,1.88,4.17,.48,1.52,.85,3.14,.88,5.05-1.9-.27-3.47-.83-4.92-1.5-1.38-.66-2.7-1.45-3.91-2.38-1.19-.89-2.22-1.93-3.29-2.93-1.06-1.01-2.09-2.04-3.11-3.09-4.08-4.18-7.67-8.78-11.33-13.33-3.66-4.55-7.46-8.97-11.12-13.51-3.69-4.52-7.29-9.13-10.8-13.8-.93-1.24-.67-3,.57-3.93h.01c1.11-.83,2.65-.73,3.64,.22h0Z"/>
  <path class="cls-42" d="M1039.1,458.6h-.02c-.53,0-.97-.43-.97-.97,0-1.01,.89-2.88,2.37-4.27,1.49-1.42,3.51-2.14,5.57-1.99,.54,0,.98,.45,.98,.99,0,.54-.45,.98-.99,.98-.04,0-.07,0-.11,0-1.47-.12-2.92,.38-4,1.38-1.23,1.11-1.82,2.55-1.83,2.91-.02,.53-.45,.96-.99,.96h0Zm-29.16-45.43c-1.52-1.51-3.04-3.02-4.59-4.5-1-.95-2.54-1.05-3.65-.23-1.25,.92-1.51,2.68-.59,3.93,0,0,0,0,0,.01,1.31,1.76,2.66,3.49,4,5.23,.79-1.73,2.19-3.61,4.82-4.43h0Zm39.27,46.54l-2.49,2.51c.94,.32,1.9,.55,2.89,.69-.02-1.08-.15-2.15-.39-3.21h0Z"/>
  <path class="cls-24" d="M938.75,755.42c3.25,6.91,20.48,50.11,19.51,53.4-.97,3.29-44,18.42-52.91,15.08-1.16-.44-.95-3.24,.88-4.27,4.67-2.61,27.64-16.98,29.67-21.37,1.87-4.02-16.23-32.69-15.92-32.86,.99-.55,18.77-9.99,18.77-9.99h0Z"/>
  <path class="cls-6" d="M956.41,801.06c-1.73-5.33-4.43-12.68-7.23-19.97-6.06,5.43-12.79,6.52-16.76,6.68,2.45,4.94,4.11,9.13,3.48,10.49-.82,1.76-5,5.13-10.02,8.7,6.77,.55,19.69,1.61,19.95,1.61,.2,0,5.67-3.94,10.58-7.51h0Z"/>
  <path class="cls-61" d="M905.35,823.9c8.91,3.34,51.93-11.79,52.91-15.08,.28-.94-.92-5.09-2.84-10.72-3.07,1.77-6.27,5.76-8.52,6.83-3.09,1.46-5.86,1.3-10.97,.32-2.53-.48-4.41-.95-6.11-1.19-7.72,5.93-20.27,13.72-23.59,15.57-1.83,1.02-2.04,3.83-.88,4.27Z"/>
  <path class="cls-67" d="M852.27,607.49c.32,7.78,11.09,74.6,15.53,100.54,4.44,25.95,13.39,69.89,15.76,70.62,2.38,.73,15.21,1.46,38.26-3.41,23.05-4.87,39.92-14.35,40.16-15.32,.24-.97-24.15-57.57-36.34-90.18-12.19-32.61-19.74-61.12-19.74-61.12l-53.63-1.13Z"/>
  <path class="cls-61" d="M877.84,756.78c-.28,0-.53,0-.77-.01l.07-1.94c9.24,.36,52.14-7.3,74.46-20.29l.94,1.69c-22.46,13.06-63.72,20.56-74.7,20.56Z"/>
  <path class="cls-80" d="M879.62,764.47c-.29,0-.56,0-.81-.02l.07-1.94c1.94,.07,5.2-.18,9.33-.72l.24,1.93c-3.73,.49-6.78,.75-8.84,.75h0Zm18.29-2.24l-.33-1.92c3.01-.54,6.14-1.16,9.31-1.84l.39,1.9c-3.19,.68-6.35,1.31-9.38,1.85h0Zm18.69-4.01l-.45-1.89c3.11-.77,6.2-1.6,9.18-2.45l.51,1.88c-3.07,.87-6.15,1.69-9.24,2.46h0Zm18.39-5.27l-.58-1.85c3-.99,5.98-2.06,8.93-3.21l.68,1.82c-2.8,1.1-5.83,2.19-9.02,3.25h0Zm17.84-7.12l-.83-1.75c1.09-.54,2.14-1.09,3.12-1.63l.9,1.71c-1.01,.56-2.08,1.12-3.19,1.67h0Z"/>
  <path class="cls-61" d="M905.56,751.67c-.46-1.66-2.09-7.09-4.36-14.61-9.55-31.74-31.9-106.07-35.77-129.1l1.87-.33c3.85,22.91,26.18,97.16,35.71,128.86,2.35,7.81,3.9,12.97,4.36,14.65l-1.83,.53Z"/>
  <path class="cls-24" d="M813.93,780.91c-.73,7.9-9.23,55.5-11.9,57.89-2.67,2.39-59.76-.48-59.76-4.3s3.89-3.83,9.47-5.03c5.59-1.2,31.97-8.26,35.06-11.72,3.09-3.46,3.7-38.15,3.33-38.25-.36-.1,23.8,1.41,23.8,1.41h0Z"/>
  <path class="cls-6" d="M789.33,803.95h0c-.54,6.7-1.35,12.49-2.53,13.8-1.39,1.56-7.53,3.85-14.35,6.01l2.86,3.8,12.63,6.46,16.41-1.88c1.56-6.09,3.48-15.46,5.2-24.61-13.69,.32-17.07-2.06-20.21-3.58h0Z"/>
  <path class="cls-61" d="M742.27,834.5c0,3.83,57.08,6.7,59.75,4.3,.77-.69,2.01-5.09,3.42-11.21-4.52,.33-8.76,3.47-14.59,3.47s-10.96-5.18-14.68-8.52c-9.02,3.06-20.89,6.17-24.43,6.93-5.59,1.2-9.47,1.2-9.47,5.03h0Z"/>
  <path class="cls-29" d="M793.77,617.04c-3.88,7.35-31.82,80.86-38.87,105.26-7.05,24.4-12.63,47.13-11.17,49.04,1.46,1.91,15.06,8.85,37.16,12.2,22.1,3.35,50.11,6.16,53.47,4.75,3.37-1.4,7.82-61.53,14.3-98.21,6.48-36.68,17.17-72.73,17.17-72.73l-72.06-.32Z"/>
  <path class="cls-61" d="M838.11,762.5c-44.44,0-81.48-14.24-89.32-19.2l1.05-1.61c7.78,4.93,44.89,19.13,89.41,18.89v1.91c-.37,0-.76,0-1.14,0Z"/>
  <g>
    <path class="cls-77" d="M750.74,755.57c-1.97-.81-3.48-1.55-4.5-2.19l1.05-1.61c.91,.57,2.36,1.28,4.2,2.03l-.75,1.77h0Z"/>
    <path d="M823.88,770.67c-3.05-.22-6.19-.5-9.32-.84l.21-1.9c3.11,.33,6.23,.61,9.26,.83l-.14,1.91h0Zm-18.62-1.98c-3.09-.43-6.17-.9-9.25-1.42l.33-1.89c3.05,.52,6.15,.99,9.19,1.41l-.27,1.9h0Zm-18.45-3.12c-3.06-.61-6.11-1.27-9.15-1.97l.44-1.86c2.96,.69,6.02,1.34,9.09,1.96l-.39,1.87h0Zm-18.23-4.24c-3.02-.8-6.02-1.67-8.99-2.61l.59-1.82c2.76,.87,5.76,1.75,8.91,2.59l-.51,1.84Z"/>
    <path class="cls-77" d="M838.11,771.32c-1.63-.03-3.25-.07-4.88-.13l.07-1.91c1.61,.06,3.22,.1,4.84,.13l-.03,1.91h0Z"/>
  </g>
  <path class="cls-61" d="M785.47,755.08l-1.93-.21c1.39-12.37,20.21-116.83,37.65-138.3l1.52,1.2c-16.87,20.77-35.91,125.5-37.24,137.32Z"/>
  <path class="cls-47" d="M900.12,405.56c-.81,4.64-4.03,19.7-9.2,26.26-5.16,6.57,31.3,2.4,31.3,2.4,0,0-.78-18.71,.16-31.39,0-3.87-4.04-6.09-9.92-5.32-6.48,.84-12.34,8.05-12.34,8.05Z"/>
  <path class="cls-24" d="M899.19,357.12c-2.97,2.34-5.87,7.15-8.59,12.13-2.03,3.72-2.96,5.11-7.62,8.29-3.65,2.49-6.01,3.34-6.17,5.16-.16,1.8,4.36,3.84,4.48,5.4,.12,1.56-3.39,16.02,2.78,21.74,4.2,3.89,18.64,4.29,31.41-5.49,11.46-8.76,20.01-30.3,15.9-41.23-4.11-10.93-32.19-6.01-32.19-6.01h0Z"/>
  <path class="cls-14" d="M908.02,326.25c3.55,1.16,4.76,6.76,3.99,9.37-.79,2.67-2.53,6.69,6.05,8.53,7.63,1.64,32.91,7.09,34.97,30.39,2.41,27.26-30.01,38.79-35.45,31.71-8.05-10.48-8.09-23.74-5.08-28.58,2.06-3.32,9.41-3.89,8.71-8.41-1.01-6.52-15.01-5.56-24.2-9.98-9.2-4.43-12.22-13.2-10.89-21.12,1.55-9.21,12.21-15.06,21.9-11.89Z"/>
  <path class="cls-23" d="M969.69,376.51c1.92,7.3-1.47,15.02-7.66,16.24-6.56,1.28-12.44-3.48-14.63-11.4-2.01-7.28,.16-15.19,7.33-16.84,6.9-1.59,13.05,4.7,14.97,12h0Z"/>
  <path class="cls-75" d="M992.59,360.2c3.83,8.14,.86,16.29-6.86,19.36-9.83,3.9-18.2-1.03-22.03-9.16-3.84-8.14-.52-18.73,7.22-21.75,7.75-3.02,17.84,3.42,21.67,11.55Z"/>
  <path class="cls-41" d="M1004.63,342.69c4.68,5.29,3.37,13.19-1.99,17.11-5.36,3.92-13.5,2.81-18.18-2.48s-4.93-12.11,.43-16.03c5.36-3.92,15.06-3.89,19.74,1.4h0Z"/>
  <path class="cls-54" d="M997.36,319.88c1.49-4.53,6.29-7.22,10.72-6.01,4.43,1.21,6.8,5.86,5.31,10.39-1.49,4.53-6.29,7.22-10.72,6.01-4.42-1.21-6.8-5.86-5.31-10.38h0Z"/>
  <g>
    <path class="cls-55" d="M936.28,360.3c-.15,4.19-1.2,8.29-2.97,12.07-1.76,3.79-4.21,7.28-7.09,10.4-2.17,2.35-4.55,4.49-7.11,6.39-.42,.31-.85,.62-1.28,.91-.42,.28-.88,.59-1.22,.78l5.15,7.35c.62-.45,1.08-.83,1.59-1.24,.49-.4,.96-.82,1.43-1.23,2.76-2.47,5.28-5.19,7.53-8.14,2.98-3.91,5.45-8.23,7.1-12.88,1.66-4.64,2.42-9.61,2.13-14.49-.15-2.47-.54-4.93-1.19-7.32-1.73-1.09-3.53-2.06-5.39-2.91,.96,3.39,1.44,6.87,1.31,10.3h0Z"/>
    <ellipse class="cls-82" cx="919.2" cy="394.53" rx="12.39" ry="12.08"/>
    <ellipse class="cls-80" cx="919.2" cy="394.53" rx="5.49" ry="5.36"/>
  </g>
  <path class="cls-8" d="M975.56,502.36c3.45-2.99,7.25-18.49,9.67-35.74,1.56-11.13,2.61-18.67,4.75-22.79,2.1-4.04,7.69-7.57,9.94-9.26,3.03-2.27,7.6-7.5,9.15-6.52,1.55,.98-.24,6.02-2.02,8.36-1.78,2.34-4.28,5.78-4.28,5.78,0,0,8.44-1.11,13.31-1.11s17.84-1.58,18.54,1.84c.52,2.54-5.23,3.44-7.37,4.3-2.14,.86-4.04,1.19-4.4,5.37-.36,4.18-1.71,9.09-4.68,9.46-2.97,.37-17.31-.56-17.31-.56,0,0,.04,30.37-2.97,48.57-3.01,18.2-6.81,23.77-6.81,23.77l-15.53-31.48h0Z"/>
  <path class="cls-65" d="M969.14,502.81c.75-1.04,6.06-3.2,7.25-2.34,1.19,.86,15.01,15.58,17.82,32.46,3.04,18.24,.12,26.89-2.26,27.42-2.87,.65-26.82-.98-35.99-14.38-9.16-13.4,13.17-43.16,13.17-43.16h0Z"/>
  <path class="cls-34" d="M936.58,462.35c5.23,3.2,25.12,21.66,32.32,37.14,7.72,16.6,7.43,40.28-2.38,46.48-10.69,6.76-20.91-9.59-26.14-20.66-5.23-11.07-12.67-23.28-15.53-28.45-2.85-5.16,6.02-29.84,6.02-29.84,0,0,5.7-4.67,5.7-4.67Z"/>
  <path class="cls-15" d="M880.5,437.61c8.72-5.41,54.88-8.14,56.72-1.91,1.45,4.93-7.92,6.84-9.86,15.75-1.94,8.91-46.86-13.84-46.86-13.84Z"/>
  <path class="cls-18" d="M859,442.86c5.81-4.46,18.18-8.51,28.11-5.41,9.94,3.1,20.68,9.78,26.68,10.5,6,.72,14.32,1.1,14.32,1.1,0,0,15.24,7.49,16.21,10.83,.97,3.34-2.44,21.76-13.09,41.75-11.44,21.47-10.2,30.91-9.21,45.09,.94,13.46,13.33,53.92,11.63,60.12-1.7,6.2-24.72,14.79-75.38,15.51-50.66,.71-88.23-4.77-88.23-9.54s16.28-54.13,19.22-56.98c2.35-2.27,3.8-.28,4.77-1.59,.97-1.31,13.33-28.03,23.27-44.74,9.94-16.7,34.75-61.31,41.69-66.64h0Z"/>
  <path class="cls-28" d="M839,578.57c7.56-2.66,9.49-15.62,7.57-15.49-10.27,.74-44.53-3.72-52.96-8.48-.96,.47-2.32-.73-4.35,1.22-1.41,1.36-5.86,13.35-10.13,26.02,13.23,.28,51.61-.37,59.87-3.28Z"/>
  <path class="cls-42" d="M886.47,495.35c1.87,2.32,8.28-2.19,10.7-3.14,2.42-.95,10.71-3.58,10.67-6.44-.06-3.46-7.73-4.23-13.33-1.79-6.3,2.74-10,8.95-8.04,11.37h0Z"/>
  <path class="cls-38" d="M944.32,459.88c-.81-2.8-11.64-8.51-15.13-10.28,1.23,1.86,3.17,5.04-1.67,7.11-4.85,2.07-24.89,4.93-23.75,12.72,1.13,7.8,13.9,.16,16.97,4.3,3.07,4.14-11.63,14.79-5.82,18.93,5.82,4.14,10.02-9.54,15.03-8.91,3.81,.48,4.81,5.56,5.15,10.06,7.62-16.78,10.07-31.03,9.23-33.92h0Z"/>
  <path class="cls-35" d="M921.22,600.48c-7.11-1.43-12.28,3.98-15.03,2.39s10.34-12.57,4.2-16.7c-6.14-4.14-13.9,10.97-15.51,10.81-1.62-.16,6.63-19.88,7.76-26.56,1.13-6.68,2.43-21.63-4.2-22.75-6.63-1.11-12.93,10.98-15.84,16.54-2.91,5.57-5.98,23.86-7.59,24.5-1.62,.63-2.26-24.66-2.59-28.31-.33-3.66-.97-7.86-5.5-7.96-3.96-.08-5.82,4.61-6.3,9.07-.48,4.45,3.55,38.17-.65,38.81-4.2,.64-8.56-14-12.12-11.93-3.56,2.07-1.29,10.18,.65,16.22,1.49,4.64,5.92,12.61,8.27,17.75h1.5c42.43-.62,65.47-6.74,72.83-12.36-2-3.66-5.48-8.64-9.89-9.53h0Z"/>
  <path class="cls-4" d="M912.57,578.93c2.42,1.31,5.94-2.98,8.24-6.56,2.3-3.58,4.73-9.66,1.94-11.21-2.79-1.55-7.15,.72-9.33,5.72-2.18,5.01-3.27,10.74-.85,12.05h0Z"/>
  <path class="cls-26" d="M765.37,409.15c-5.15-4.12-44.82-46.59-43.74-51.94,1.11-5.51,1.55-10.24,2.11-13.32,1.02-5.6,5.55-13.68,4.8-14.77-1.12-1.6-3.92-.06-6.63,2.51-2.14,2.02-8.81,10.69-8.81,10.69,0,0-4.33-.85-10.64-5.69-6.32-4.84-12.16-12.47-15.3-11.65-2.72,.71-.13,4.87,1.15,6.81,1.29,1.94,2.29,5.05,2.58,6.04,.75,2.58,.87,10.25-.47,13.09-.76,1.62-2.34,1.82-2.46,4-.12,2.3,7.49,9.93,12.28,11.38,3.73,1.13,4.44,.12,5.26,1.09,1.42,1.68,28.75,52.17,40,60.66,11.25,8.49,19.88-18.89,19.88-18.89Z"/>
  <path class="cls-47" d="M689.38,333.72c1.41,1.97,2.97,3.85,4.54,5.7,.78,.92,1.59,1.83,2.41,2.72,.81,.87,1.67,1.8,2.51,2.46l.04,.03c.27,.21,.32,.6,.12,.88-.19,.27-.56,.33-.83,.15-.02-.01-.04-.03-.05-.04-1.02-.89-1.75-1.82-2.55-2.77-.78-.95-1.53-1.91-2.28-2.88-1.48-1.95-2.93-3.92-4.25-6-.06-.1-.04-.23,.06-.3,.09-.06,.22-.03,.28,.06h0Z"/>
  <path class="cls-50" d="M873.28,438.29c3.51,9.61-7.17,28.01-31.42,32.37-26.8,4.82-72.27-4.84-85.21-15.34-12.95-10.49,2.03-19.86,7.8-26.64,5.77-6.78,12.82-19.24,22-15.35,9.18,3.89,16.36,14.06,20.72,15.03,4.37,.97,50.22,1.39,56.76,2.42,4.25,.63,7.82,3.5,9.36,7.51Z"/>
  <path class="cls-57" d="M788.48,414.33c-5.45,2.82-18.32,23.16-21.71,35.15-3.39,11.99-3.12,17.9-5.54,17.32-4.99-1.21-31.99-18.36-31.54-27.85,.35-7.39,13.45-12.84,22.57-20.58,5.88-5,11.93-12.35,17.42-12.23,7.96,.17,18.79,8.2,18.79,8.2h0Z"/>
  <path class="cls-45" d="M795.19,445.96c3.57,3.78,8.58-7.01,12.06-6.81,5.26,.31,4.98,11.57,10.51,16.62,1.76,1.6,5.54,3.27,8.84,1.58,2.55-1.3,4.41-4.21,3.71-7.76-.66-3.34-3.51-6.3-2.14-8.36,1.69-2.54,4.91,2.18,11.46,.24,4.91-1.45,7.12-7.87,4.62-11.66-15.11-.45-33.6-.83-36.9-1.42-5.34,3.46-16.35,13.12-12.16,17.56Z"/>
  <path class="cls-4" d="M845.05,447.25c2.22-1.98,6.86-.48,9.2,3.55,2.34,4.04,2.96,9.2,.62,10.82-2.24,1.54-6.55-.27-9.12-4.36-1.9-3.02-3.98-7.1-.7-10.01h0Z"/>
  <path class="cls-5" d="M995.32,.48l41.62,35.78-33.89,47.56-39.01-37.87L995.32,.48Z"/>
  <path class="cls-42" d="M1050.58,83.82h-47.53l33.89-47.56h47.32l-33.67,47.56Z"/>
  <path class="cls-4" d="M1036.94,36.26h47.31l-39.96-33.61-48.98-2.16,41.62,35.78Z"/>
  <path class="cls-32" d="M1050.58,84.3c-.13,0-.25-.05-.34-.13l-39.19-37.74h-47.02c-.26,.01-.49-.19-.51-.45-.01-.26,.19-.49,.45-.51,.02,0,.04,0,.05,0h47.22c.13,0,.25,.05,.34,.13l39.33,37.87c.19,.18,.2,.48,.02,.67-.09,.1-.22,.15-.36,.15h0Z"/>
  <path class="cls-32" d="M1011.25,46.42c-.27,0-.48-.22-.48-.48,0-.1,.03-.21,.1-.29l33.04-43.3c.16-.21,.46-.25,.68-.09,.21,.16,.26,.46,.09,.67l-33.04,43.3c-.09,.12-.23,.19-.39,.19h0Z"/>
  <path class="cls-60" d="M1047.89,14.93l-20.33,28.41c1.97,2.2,2.15,5.48,.43,7.89-2.06,2.86-6.04,3.53-8.93,1.5-2.86-2-3.55-5.95-1.55-8.81,.01-.02,.02-.03,.04-.05,1.75-2.45,4.93-3.29,7.62-2.21l20.33-28.41-44.27,14.84s3.45,10.48,3.22,17.53c-.24,7.38-7.3,16.97-7.3,16.97l7.12,5.02,1.55,1.09,2.39,1.69,2.8,1.97,5.87,4.14s6.79-9.77,13.74-12.43c6.63-2.54,17.73-2.75,17.73-2.75l-.46-46.39h0Z"/>
  <path class="cls-74" d="M997.15,62.58s1.33,4.47,8.2,9.32c6.87,4.84,11.53,4.6,11.53,4.6,0,0,3.61-5.19,8.26-9.04,0,0-6.13-.79-12.73-5.44-6.6-4.65-9.39-10.15-9.39-10.15-2.13,5.62-5.88,10.72-5.88,10.72Z"/>
  <path class="cls-85" d="M1003.05,84.3c-.13,0-.25-.05-.34-.14l-39.01-37.87c-.17-.16-.19-.42-.06-.61L994.92,.21c.08-.11,.2-.19,.34-.2,.14-.02,.27,.02,.38,.11l41.62,35.78c.19,.16,.22,.44,.08,.64l-33.89,47.56c-.08,.12-.21,.19-.35,.2h-.04s0,0,0,0Zm-38.39-38.42l38.32,37.2,33.31-46.74L995.41,1.2l-30.75,44.69Z"/>
  <path class="cls-85" d="M1050.58,84.3h-47.53c-.27,0-.48-.21-.48-.48,0-.1,.03-.2,.09-.28l33.89-47.56c.09-.13,.24-.2,.39-.2h47.32c.27,0,.48,.21,.48,.48,0,.1-.03,.2-.09,.28l-33.67,47.56c-.09,.13-.24,.2-.4,.2h0Zm-46.6-.96h46.35l32.99-46.6h-46.14l-33.2,46.6Z"/>
  <path class="cls-85" d="M1084.25,36.74h-47.31c-.12,0-.23-.04-.32-.12L995,.84c-.16-.13-.21-.35-.13-.54,.08-.19,.23-.32,.47-.3l48.98,2.16c.11,0,.21,.04,.29,.11l39.96,33.61c.2,.17,.23,.47,.07,.67-.09,.11-.23,.18-.38,.17h0Zm-47.14-.96h45.82l-38.83-32.66-47.42-2.09,40.43,34.75h0Z"/>
  <path class="cls-19" d="M276.74,44.94l68-19.16,19.48,66.85-68,19.15-19.49-66.85Z"/>
  <path class="cls-5" d="M277.87,45.06l67.08-19.16-41.45-14.94-63.83,18.24,38.2,15.87Z"/>
  <path class="cls-11" d="M276.66,44.95l-38.47-16.21,18.57,65.54,39.26,18.98-19.36-68.31Z"/>
  <path class="cls-4" d="M256.46,93.99c-.26,0-.47-.22-.47-.48,0-.21,.14-.39,.34-.45l65.32-19.35-19.8-63.63c-.06-.25,.09-.51,.35-.57,.23-.06,.47,.07,.56,.29l19.94,64.09c.04,.12,.03,.25-.03,.36-.06,.11-.16,.2-.28,.23l-65.78,19.48s-.09,.02-.13,.02h0Zm107.31-1.48c-.07,0-.13-.01-.19-.04l-40.59-18.36c-.23-.1-.33-.38-.23-.61h0c.11-.23,.38-.33,.62-.23l40.59,18.36c.23,.1,.34,.38,.23,.61-.07,.17-.24,.27-.42,.27h0Z"/>
  <path class="cls-87" d="M350.11,81.15l-14.41,3.76-9.65-13.32-26.23,6.86-1.5,16.23-14.05,3.67,8.31-71.89,14.01-3.66,43.52,58.34h0Zm-31.37-19.64l-15.29-21.62-2.46,26.51,17.75-4.89Z"/>
  <path class="cls-25" d="M306.58,22.8l-7.34-2.59-14.01,3.66,7.35,2.59,14.01-3.66Z"/>
  <path class="cls-22" d="M284.27,98.35l-7.35-2.59,8.31-71.89,7.35,2.59-8.31,71.89Zm44.08-16.03l7.34,2.59-9.65-13.32-4.6,1.2,6.9,9.52Zm-16.81-23.19l-8.74-12.37,.64-6.88,15.29,21.62-7.19-2.37Z"/>
  <path class="cls-25" d="M301.42,61.78l10.13-2.65,7.19,2.37-17.75,4.89,.43-4.62Z"/>
  <path class="cls-80" d="M296.49,113.27c-.21,0-.4-.14-.45-.35l-19.28-68.41c-.07-.25,.07-.52,.32-.59l67.27-19.6c.12-.04,.25-.02,.36,.04,.11,.06,.19,.17,.22,.29l19.28,68.41c.07,.25-.07,.52-.32,.59l-67.27,19.6s-.09,.02-.13,.02Zm-18.69-68.56l19.02,67.49,66.37-19.34-19.02-67.49-66.37,19.34h0Z"/>
  <path class="cls-80" d="M277.05,45.06c-.06,0-.12-.01-.18-.04l-38.39-16.11c-.19-.08-.3-.27-.29-.47,.01-.2,.15-.37,.34-.43l64.16-18.53c.1-.03,.2-.02,.29,.01l41.66,15.18c.25,.09,.37,.36,.28,.61-.05,.14-.17,.25-.31,.29l-67.43,19.46s-.09,.02-.13,.02Zm-36.97-16.5l37,15.53,65.87-19.01-40.15-14.63-62.72,18.11h0Z"/>
  <path class="cls-80" d="M295.56,113.27c-.07,0-.14-.01-.2-.04l-38.63-18.77c-.12-.06-.21-.17-.25-.3l-18.27-64.81c-.05-.17,0-.36,.14-.48,.13-.12,.32-.15,.49-.08l37.85,16.03c.13,.06,.23,.17,.27,.31l19.05,67.55c.05,.18,0,.37-.15,.49-.08,.07-.19,.11-.3,.11Zm-38.24-19.58l37.51,18.23-18.7-66.32-36.76-15.56s17.95,63.66,17.95,63.66Z"/>
  <path class="cls-13" d="M1005.03,312.01l44.59,31.57v-56.01l-44.59-22.33v46.77Z"/>
  <path class="cls-30" d="M1091.52,314.63l-43.24,28.94v-56.15l43.24-20.84v48.05Z"/>
  <path class="cls-7" d="M1048.57,288.2l42.95-21.05-43.46-16.76-44.37,15.21,44.89,22.61Z"/>
  <path class="cls-32" d="M1091.13,315.21c-.06,0-.12-.01-.17-.04l-42.92-22.09-43.82,19.36c-.19,.08-.42,0-.5-.2h0c-.08-.2,0-.43,.2-.52l43.98-19.43c.1-.05,.22-.04,.33,.01l43.09,22.18c.19,.1,.27,.33,.17,.53-.07,.13-.2,.21-.35,.22h0Z"/>
  <path class="cls-32" d="M1048.95,293.6c-.3,0-.54-.17-.54-.38v-42.46c0-.21,.24-.38,.54-.38s.54,.17,.54,.38v42.46c0,.21-.24,.38-.54,.38Z"/>
  <path class="cls-76" d="M1023.95,283c0,14.18,11.12,20.85,11.12,23.5l.77,10.06h23.51l.77-10.06c0-2.65,11.12-8.73,11.12-23.5,0-11.16-10.66-19.12-23.63-19.12s-23.66,8.23-23.66,19.12Z"/>
  <path class="cls-81" d="M1060.53,315.21h-24.51l-.03-.35q-.78-9.92-.78-9.94c0-.65-1.04-1.81-2.36-3.29-3.33-3.73-8.89-9.96-8.89-19.87,0-10.78,10.69-19.22,24.34-19.22s24.31,8.26,24.31,19.22c0,10.37-5.61,16.43-8.96,20.05-1.29,1.39-2.3,2.48-2.3,3.11t-.79,9.94l-.03,.35h0Zm-23.79-.77h23.07c.14-1.75,.75-9.44,.75-9.56,0-.9,.99-1.98,2.5-3.6,3.27-3.54,8.76-9.46,8.76-19.53s-10.12-18.46-23.53-18.46-23.56,8.11-23.56,18.46c0,9.61,5.45,15.72,8.7,19.36,1.54,1.72,2.55,2.86,2.55,3.8l.75,9.53h0Z"/>
  <g>
    <path d="M1038.3,291.34c-1.82,0-3.3-1.43-3.3-3.19s1.48-3.19,3.3-3.19,3.3,1.43,3.3,3.19-1.48,3.19-3.3,3.19Zm0-5.24c-1.17,0-2.12,.92-2.12,2.05s.95,2.05,2.12,2.05,2.12-.92,2.12-2.05-.95-2.05-2.12-2.05Zm22.28,5.24c-1.82,0-3.3-1.43-3.3-3.19s1.48-3.19,3.3-3.19,3.3,1.43,3.3,3.19-1.48,3.19-3.3,3.19Zm0-5.24c-1.17,0-2.12,.92-2.12,2.05s.95,2.05,2.12,2.05,2.12-.92,2.12-2.05-.95-2.05-2.12-2.05Z"/>
    <path class="cls-77" d="M1054.32,315.16h-10.11l-5.87-24.33,1.15-.26,5.66,23.44h8.24l5.97-23.46,1.15,.27-6.19,24.33Zm4.6-29.08c-1.53-2.42-4.52-5.31-10.04-5.31s-7.98,2.81-9.17,5.16l-1.06-.5c1.1-2.17,3.89-5.8,10.23-5.8s9.66,3.67,11.05,5.86l-1.01,.6Z"/>
  </g>
  <path class="cls-25" d="M1038.26,319.66l-2.15,2.94c0,4.13,8.23,7.47,12.37,7.47h.34c4.15,0,11.61-3.34,11.61-7.47l-2.17-2.94c0-4.13-20-4.13-20,0h0Z"/>
  <path class="cls-27" d="M1061.79,311.16s-2.87,1.98-12.28,1.98-13.39-1.98-13.39-1.98l.8,12.79s5.33,2.06,12.59,2.06,11.51-2.06,11.51-2.06c0,0,.78-12.79,.78-12.79Z"/>
  <path class="cls-85" d="M1049.24,344.93c-.08,0-.16-.02-.23-.07l-45.16-31.8c-.1-.07-.17-.19-.17-.32v-47.12c0-.22,.18-.39,.39-.39,.06,0,.12,.01,.17,.04l45.16,22.49c.13,.07,.22,.2,.22,.35v56.42c0,.21-.17,.39-.39,.39,0,0,0,0,0,0h0Zm-44.77-32.39l44.38,31.25v-55.43l-44.38-22.1v46.29Z"/>
  <path class="cls-85" d="M1050.01,344.93c-.21,0-.38-.17-.39-.38h0v-55.6c0-.15,.08-.28,.22-.34l42.47-20.63c.19-.09,.42-.01,.51,.18,.02,.05,.04,.11,.04,.16v47.57c0,.13-.06,.25-.17,.32l-42.47,28.66c-.06,.04-.14,.07-.22,.07h0Zm.39-55.74v54.63l41.7-28.14v-46.75l-41.7,20.26h0Zm-1.83-.99c-.06,0-.12-.01-.17-.04l-44.5-22.16c-.14-.07-.22-.21-.21-.37,.01-.15,.11-.29,.26-.34l43.98-14.9c.09-.03,.18-.03,.26,0l43.08,16.43c.14,.05,.24,.19,.25,.34,0,.15-.08,.3-.22,.36l-42.57,20.63c-.05,.03-.11,.04-.17,.04h0Zm-43.5-22.47l43.51,21.66,41.6-20.16-42.13-16.06-42.98,14.56h0Z"/>
  <path class="cls-20" d="M1015.52,924.19l-43.5-7.92,26.36-12.96,36.74,2.58-19.6,18.3Z"/>
  <path class="cls-43" d="M419.84,946.09H188.23l-54.27,53.53H469.23l-49.39-53.53Z"/>
  <path class="cls-37" d="M469.23,999.62l-49.39-53.53v53.53h49.39Z"/>
  <path class="cls-78" d="M188.23,946.09l-54.27,53.53h54.35v-53.53h-.08Z"/>
  <path class="cls-73" d="M498,521.26l-5.4-8.13h-6.22l-116.32,485.04h23.85l104.09-476.91Z"/>
  <path class="cls-10" d="M391.72,521.25l-4.57-8.12h-6.7l-141.69,485.04h27.76l125.2-476.92Z"/>
  <path class="cls-52" d="M377.72,574.88c-1.31,0-12.57,2.32-10.31,6.3,2.1,3.7,5.96,6.81,6.73,6.81l91.44,1.16,3.42-14.27h-91.27Z"/>
  <path class="cls-70" d="M358.17,648.7c-1.31,0-13.29,2.91-10.78,6.75,2.39,3.66,6.67,6.37,7.44,6.37l92.85,1.96,3.62-15.07h-93.12Z"/>
  <path class="cls-56" d="M336.38,732.57c-1.31,0-14.84,4.83-12.06,8.47,2.55,3.35,7.71,4.64,8.48,4.64l94.75,2,3.63-15.11h-94.79Z"/>
  <path class="cls-9" d="M311.58,827.03c-1.31,0-15.08,6.34-12.34,10.01,2.14,2.86,7.99,3.11,8.75,3.11l96.89,2.05,3.63-15.16h-96.94Z"/>
  <path class="cls-31" d="M387.16,513.13h-13.4l-141.69,485.04h23.94l131.16-485.04Z"/>
  <path class="cls-66" d="M372.21,568.98c-1.31,0-5.55,1.45-6.41,5.96-.79,4.12,2.05,7.16,2.82,7.16l98.54,.42,3.24-13.53h-98.2Z"/>
  <path class="cls-48" d="M352.15,642.76c-1.31,0-5.55,1.46-6.41,5.96-.79,4.13,2.06,8.12,2.82,8.12l100.37,.85,3.58-14.92s-100.37,0-100.37,0Z"/>
  <path class="cls-64" d="M328.89,727.4c-1.31,0-5.55,1.45-6.41,5.96-.79,4.12,2.06,8.6,2.82,8.6l103.31,1.31,3.8-15.86h-103.52Z"/>
  <path class="cls-63" d="M303.6,822.7c-1.31,0-5.55,1.46-6.41,5.96-.79,4.13,2.05,9.08,2.82,9.08l105.51,1.78,4.03-16.81h-105.96Z"/>
  <path class="cls-12" d="M492.59,513.13h-13.4l-116.32,485.04h19.79l109.94-485.04Z"/>
  <path class="cls-53" d="M293.05,753.35c5.48-3.73,12.63-14.51,18.47-19.99,4.67-4.37,14.42-12.17,18.23-13.5,4.41-1.55,9.53-.06,9.53-.06,0,0,4.41-.89,7.03-.12,2.42,.71,3.1,1.9,3.1,1.9,0,0,4.41-.71,6.91-.24,2.83,.53,3.81,3.33,3.57,6.06-.24,2.74-12.75,21.77-22.52,26.41s-21.8,7.61-26.45,12.85c-4.65,5.23-17.87-13.33-17.87-13.33Z"/>
  <path class="cls-44" d="M171.61,923.48c3.5-11.42,41.14-80.9,64.97-112.78,23.83-31.88,50.04-57.58,51.71-58.3,1.67-.71,10.96-.71,16.44,3.09,5.48,3.81,8.82,9.04,8.58,11.66-.24,2.62-19.05,34.48-27.64,57.58-8.6,23.1-36.46,88.04-36.46,88.04l-77.6,10.71Z"/>
  <path class="cls-39" d="M359.77,726.88c-.04-.46-.37-.76-.79-.89-.42-.12-.89-.12-1.34-.05-.91,.14-1.79,.5-2.6,.97-.81,.46-1.5,1.09-2.2,1.74l-2.08,1.99c-1.39,1.33-2.79,2.68-4.3,3.92-.76,.62-1.54,1.22-2.4,1.75-.87,.51-1.78,1.04-3.02,1.13-.41,.06-.8-.23-.85-.64-.06-.41,.23-.8,.64-.85,.03,0,.07,0,.1,0,.02,0,.04,0,.06,0h.02c.71,0,1.58-.36,2.37-.79,.81-.46,1.6-.97,2.34-1.53,1.52-1.12,2.98-2.37,4.43-3.63l2.2-1.89c.74-.61,1.52-1.25,2.41-1.7,.88-.45,1.83-.79,2.83-.89,.5-.04,1.02-.03,1.51,.15,.25,.09,.49,.24,.67,.44,.18,.2,.28,.51,.29,.74v.02c0,.08-.05,.15-.13,.15-.08,0-.15-.05-.15-.13,0,0,0,0,0,0h0Zm-8.99-5.31c-1.65,.53-3.21,1.3-4.64,2.28-.71,.48-1.39,1.01-2.06,1.56-.67,.55-1.3,1.13-2.08,1.7-.34,.24-.82,.17-1.06-.17-.24-.34-.17-.82,.17-1.06,.02-.02,.04-.03,.07-.04h.01c.7-.39,1.43-.92,2.17-1.41,.74-.48,1.51-.95,2.31-1.37,1.58-.84,3.27-1.45,5.02-1.81h0c.09-.02,.18,.04,.2,.13,0,0,0,0,0,0,.02,.09-.04,.17-.12,.2h0Zm-10.05-1.84c-1.48,.47-2.8,1.33-4.02,2.29-.61,.48-1.19,1-1.74,1.54-.53,.53-1.11,1.14-1.47,1.67l-.03,.04c-.2,.31-.62,.39-.93,.19,0,0,0,0,0,0-.31-.2-.4-.61-.2-.92,.02-.02,.03-.05,.05-.07,.61-.73,1.2-1.2,1.84-1.73,.63-.51,1.29-.98,1.97-1.42,1.36-.86,2.83-1.63,4.42-1.96,.1-.02,.2,.04,.23,.14,0,0,0,0,0,0,.02,.1-.04,.19-.13,.22h0Z"/>
  <path class="cls-83" d="M300.82,828.47c-6.47,0-11.73-6.5-11.73-14.48s5.26-14.49,11.73-14.49,11.73,6.5,11.73,14.49-5.26,14.48-11.73,14.48Zm-.12-25.83c-4.32,0-7.72,5.58-7.72,11.35s3.46,11.16,7.78,11.16,7.9-5.39,7.9-11.16-3.64-11.35-7.96-11.35Z"/>
  <path class="cls-72" d="M296.02,788.21c3.53,10.16,8.27,48.91-1.94,69.73-9.45,19.27-19.69,17.06-19.69,17.06l-.24,25.08-55.91-2.26s11.67-20.82,13.86-35.11c2.19-14.3,11.42-53.93,17.74-62.2,6.32-8.28,46.18-12.29,46.18-12.29Z"/>
  <path class="cls-1" d="M307.61,764.21c3.43,4.89,3.09,17.4-4.7,24.42-8.91,8.03-22.28,5.94-23.74,16.97-1.07,8.12,7.35,16.25,9.8,21.49,2.43,5.18,2.92,11.37,.16,13.04-2.96,1.8-5.64-2.12-6.4-4.76-.81-2.83-1.8-7.79-7.05-7.27-6,.59-13.21,12.54-6.81,18.9,2.61,2.59,7.29-.17,8.43,2.17,1.53,3.14-5.27,13.55-13.45,13.71-6.85,.14-7.05-4.6-15.48-4.85-6.35-.19-15.31,6.52-16.29,4.68-.97-1.84-1.26-6.34-3.56-10.87-2.51-4.94-24.47-22.58-19.44-51,3.6-20.36,18.31-31.39,35.89-34.69,17.54-3.29,29.25-3.26,33.79-4.6,4.53-1.33,22.03-7.02,28.84,2.68h0Z"/>
  <path class="cls-39" d="M274.4,875.01l.25-8.74c0-.27,.23-.49,.5-.49,.28,.01,.49,.25,.47,.52,0,0,0,.02,0,.03l-.81,8.71c0,.11-.11,.2-.22,.19,0,0,0,0,0,0-.11-.01-.19-.11-.19-.22h0Z"/>
  <path class="cls-36" d="M312.04,809.73c-.58-.93-1.71-.61-2.61-.01l-22.08,14.56c.66,1.01,1.23,1.95,1.63,2.81,.08,.17,.15,.34,.23,.51l22.2-15.06c.9-.6,1.22-1.87,.64-2.81Z"/>
  <path class="cls-16" d="M210.7,906.41c-.49-2.69,.32-13.47,7.63-16.15,9.13-3.35,55.34-2.23,64.92,16.95-22.72,5.7-72.54-.79-72.54-.79h0Z"/>
  <path class="cls-49" d="M193.68,1000h125.14c1.51-12.3,6.58-34.18,3.47-52.67-3.54-21.07-23.51-41.67-28.67-42.61-3.67-.67-35.92-1.1-47.19-1.1-16.45,0-41.42-.17-48.64,2.2-12.44,4.09-25.56,18.94-26.74,22.01-.69,1.82-1.79,17.31,5.26,38.85,4.78,14.61,11.69,25.81,17.36,33.32Z"/>
  <path class="cls-42" d="M185.38,982.21l7.99-11.86,8.32,11.86h-16.31Zm10.4-60.8l2.95,13.35-14.83-2.48,11.88-10.87Zm78.59,57.83l2.95,13.35-14.83-2.48,11.88-10.87Zm-43.02-12.18l14.83-2.65-2.75,13.35-12.08-10.69Zm14.83-38.24l11.86,7.99-11.86,8.32v-16.31Z"/>
  <path class="cls-4" d="M220.97,928.82v-4.85c2.23,0,4.04-1.81,4.04-4.04,0-2.23-1.81-4.04-4.04-4.04v-4.85c4.91,0,8.9,3.99,8.9,8.9s-3.99,8.9-8.9,8.9Zm38.65-17.79l4.83,.71c-.32,2.25,1.22,4.35,3.44,4.68s4.29-1.24,4.61-3.49l4.83,.71c-.71,4.95-5.26,8.39-10.14,7.67-4.88-.72-8.27-5.33-7.56-10.28Zm-60.75,1.71c2.74-1.66,4.27-4.6,4.31-7.64-2.03,.28-3.7,.61-4.89,1.02-.03,.01-.06,.02-.09,.03-.28,.98-.91,1.82-1.78,2.36-1.12,.68-2.51,.76-3.7,.2-1.51,.87-2.96,1.83-4.37,2.86,2.79,2.66,7.08,3.26,10.52,1.17Zm-21.36,53.16l-1.09-4.38c2.04-.49,3.29-2.54,2.79-4.55-.5-2.02-2.57-3.25-4.61-2.76l-1.09-4.38c4.49-1.09,9.04,1.64,10.14,6.06,1.1,4.43-1.65,8.92-6.14,10.01h0Zm28.63-16.31h4.85c0,2.23,1.81,4.04,4.04,4.04,2.23,0,4.04-1.81,4.05-4.04h4.85c0,4.91-3.99,8.9-8.9,8.9s-8.9-3.99-8.9-8.9Zm5.51,31.14l3.35,3.35c-1.54,1.54-1.54,4.04,0,5.58,1.54,1.54,4.04,1.54,5.59,0l3.35,3.35c-3.4,3.39-8.89,3.39-12.29,0-3.39-3.4-3.39-8.89,0-12.29Zm86.01-2.97l3.35,3.35c-1.54,1.54-1.54,4.04,0,5.58,1.54,1.54,4.04,1.54,5.58,0l3.35,3.35c-3.4,3.39-8.89,3.39-12.29,0-3.39-3.4-3.39-8.89,0-12.29Zm-26.27-31.14v4.85c-2.23,0-4.04,1.81-4.04,4.05,0,2.23,1.81,4.04,4.04,4.05v4.85c-4.91,0-8.9-3.99-8.9-8.9s3.99-8.9,8.9-8.9Zm-19.28,53.38h-4.85c0-2.23-1.81-4.04-4.05-4.04-2.23,0-4.04,1.81-4.05,4.04h-4.85c0-4.91,3.99-8.9,8.9-8.9s8.9,3.99,8.9,8.9Z"/>
  <path class="cls-58" d="M366.24,888.34c-.73-6.17-.97-13.3-4.01-22.86-3.04-9.55-5.14-13.34-4.77-18.17,3.2,.05,8.42,.03,8.42,.03-.15,1.54,1.13-9.73,5.71-15.36,4.53-5.56,12.06-12.17,16.27-11.25,1.36,.3,.65,4.39,.65,4.39,0,0,6.67-2.16,9.44-1.49,1.82,.44,1.82,2.78,1.82,2.78,0,0,2.55-.24,3.4,1.21,.85,1.45-1.94,4.45-3.04,6.9-1.52,3.37-2.62,5.44-2.92,11.13-.56,10.87-1.58,19.35-3.64,23.71-2.06,4.35-2.19,11.85-2.19,15.84s-25.14,3.14-25.14,3.14h0Z"/>
  <path class="cls-39" d="M390.07,824.88c-1.71,.81-3.21,2.03-4.61,3.31-1.39,1.29-2.69,2.7-3.78,4.23-.21,.24-.57,.27-.82,.07-.21-.18-.27-.49-.12-.73l.03-.03c1.25-1.51,2.66-2.89,4.18-4.12,1.52-1.21,3.13-2.36,4.96-3.1,.11-.04,.23,0,.27,.12,.04,.1-.01,.22-.11,.26h0Zm10.04,1.73c-1.48,.57-2.69,1.65-3.76,2.8-1.07,1.16-2.01,2.46-2.8,3.81-.18,.31-.58,.42-.89,.24-.31-.18-.42-.57-.24-.89,0,0,0,0,0,0,.01-.01,.03-.03,.03-.05,.96-1.35,2.07-2.6,3.29-3.73,1.22-1.1,2.61-2.12,4.23-2.59,.11-.03,.23,.03,.27,.14,.03,.11-.03,.22-.13,.26h0Zm-33.85,19.96c-.32,1.38-.27,2.81-.13,4.23,.07,.71,.18,1.41,.31,2.12,.12,.71,.27,1.39,.42,2.13,.07,.34-.15,.66-.49,.73-.34,.07-.66-.15-.73-.49,0-.02,0-.03,0-.05h0c-.07-.71-.17-1.45-.23-2.18-.06-.73-.11-1.47-.12-2.2-.01-1.47,.07-2.98,.53-4.4,.04-.12,.17-.19,.29-.15h0c.11,.04,.18,.16,.16,.27h0Z"/>
  <path class="cls-62" d="M363.81,886.49c1.94-2.77,9.07-6.45,16.03-6.61,6.96-.16,14.74,3.22,15.22,5.64,.48,2.42,14.9,98.53-3.72,112.4-12.63,9.41-104.87-21.6-109.79-32.74-3.54-7.99-2.32-22.86-.33-30.88,2.43-9.76,7.38-22.01,16.68-23.95,6.4-1.33,28.45,12.94,42.44,21.47,10.04,6.13,21.69,14.81,21.69,14.81l1.78-60.15h0Z"/>
  <path class="cls-4" d="M397.03,899.85c-.27-2.22-.55-4.45-.85-6.67-15.62-5.96-26.73-.85-32.67,3.57l-.24,8.05c2.35-2.79,13.65-14.3,33.76-4.95h0Z"/>
  <path class="cls-59" d="M387.61,978.41c2.49-.56,3.36-7.25,3.36-7.25,0,0-20.97-18.95-28.95-24.51,0,0-11.65-8.68-21.69-14.81-13.98-8.54-36.04-22.81-42.44-21.48-5.94,1.24-10.1,6.68-12.97,12.99,17.75,4.3,43.07,20.73,51.84,25.55,26.44,14.55,47.53,30.26,50.85,29.51h0Z"/>
  <path class="cls-4" d="M391,973.05c-.53,0-.97-.43-.97-.96,0-.08,0-.16,.03-.24,3.06-12.42,2.59-61.42-2.75-76.41-.18-.5,.09-1.06,.59-1.24,.5-.18,1.06,.08,1.24,.59,5.57,15.59,6,64.59,2.81,77.52-.11,.43-.5,.74-.94,.74h0Z"/>
  <path class="cls-4" d="M387.38,979.4c-2.34,0-7.57-3.23-19.17-10.53-8.79-5.53-19.74-12.42-31.91-19.12-1.68-.92-3.96-2.27-6.6-3.83-11.37-6.7-30.41-17.91-44.66-21.36-.52-.13-.84-.65-.71-1.17,.13-.52,.65-.84,1.17-.71,14.52,3.52,33.72,14.82,45.18,21.58,2.63,1.55,4.9,2.89,6.55,3.8,12.22,6.73,23.19,13.63,32.01,19.18,8.57,5.39,16.68,10.5,18.16,10.23,1.21-.27,2.44-3.93,2.86-6.47,.08-.53,.58-.88,1.11-.8,0,0,0,0,.01,0,.53,.09,.89,.58,.8,1.12-.2,1.22-1.37,7.36-4.35,8.04-.15,.03-.3,.05-.45,.05h0Z"/>
</svg>