<?xml version="1.0" encoding="UTF-8" standalone="no"?>
<svg
   data-name="Layer 1"
   viewBox="0 0 1400 999.99999"
   id="InvestmentGrowth"
   version="1.1"
   sodipodi:docname="Achievements.svg"
   width="1400"
   height="1000"
   xmlns:inkscape="http://www.inkscape.org/namespaces/inkscape"
   xmlns:sodipodi="http://sodipodi.sourceforge.net/DTD/sodipodi-0.dtd"
   xmlns="http://www.w3.org/2000/svg"
   xmlns:svg="http://www.w3.org/2000/svg">
  <defs
     id="defs84" />
  <sodipodi:namedview
     id="namedview84"
     pagecolor="#505050"
     bordercolor="#ffffff"
     borderopacity="1"
     inkscape:showpageshadow="0"
     inkscape:pageopacity="0"
     inkscape:pagecheckerboard="1"
     inkscape:deskcolor="#505050" />
  <path
     fill="#8526fe"
     d="m 1145.8865,128.57541 a 228.22211,239.61172 0 0 0 -62.0293,8.97101 C 1033.1485,68.995798 953.89478,24.869423 864.81659,24.869423 c -132.12558,0 -242.64034,97.053437 -270.43428,226.953267 a 54.635464,57.362091 0 0 0 -64.75436,67.58221 c -60.01038,16.19451 -104.37072,73.38942 -104.37072,141.45742 a 138.45891,145.36881 0 0 0 19.63092,74.8436 h 863.14725 c 40.5867,-43.1896 65.6436,-102.5168 65.6436,-167.96986 0,-132.08579 -101.9852,-239.16065 -227.7925,-239.16065 z"
     class="colorfccdb7 svgShape"
     id="path1-0"
     style="opacity:0.225389;fill:#26f6fe;fill-opacity:1;stroke-width:0.307848" />
  <path
     fill="#8526fe"
     d="m 551.67415,203.21632 a 166.43568,174.74179 0 0 0 -45.23614,6.54229 c -36.98037,-49.99194 -94.77776,-82.17202 -159.73987,-82.17202 -96.35525,0 -176.95044,70.77822 -197.21979,165.51035 a 39.844038,41.832487 0 0 0 -47.22341,49.28572 C 58.491131,354.19284 26.140439,395.90341 26.140439,445.5434 a 100.97401,106.0132 0 0 0 14.316253,54.58124 H 669.92458 c 29.59869,-31.49691 47.87195,-74.76249 47.87195,-122.49548 0,-96.32628 -74.37481,-174.41283 -166.12238,-174.41284 z"
     class="colorfccdb7 svgShape"
     id="path1-0-2"
     style="opacity:0.378238;fill:#26f6fe;fill-opacity:1;stroke-width:0.224505" />
  <path
     fill="#8526fe"
     d="m 1050.5939,386.18362 a 319.11455,335.04022 0 0 0 -86.73337,12.54383 C 892.95645,302.87565 782.1389,241.17536 657.58416,241.17536 c -184.74632,0 -339.27503,135.70624 -378.13826,317.34037 a 76.394751,80.207293 0 0 0 -90.54364,94.49772 C 104.99197,675.65763 42.964556,755.63115 42.964556,850.80813 a 193.60198,203.26384 0 0 0 27.449178,104.651 H 1277.3206 c 56.7509,-60.39034 91.7871,-143.34546 91.7871,-234.86601 0,-184.69068 -142.6021,-334.4095 -318.5138,-334.4095 z"
     class="colorfccdb7 svgShape"
     id="path1"
     style="stroke-width:0.430453" />
  <circle
     cx="595.80035"
     cy="454.74899"
     r="143.39191"
     fill="#fdebcf"
     class="colorfddecf svgShape"
     id="circle1"
     style="stroke-width:0.420098" />
  <path
     fill="#fdebcf"
     d="M 98.156981,361.76878 A 80.032796,80.032796 0 0 0 21.220304,419.77166 H 175.08945 A 80.032796,80.032796 0 0 0 98.156981,361.76878 Z m 209.889169,0 a 80.032796,80.032796 0 0 0 -76.93668,58.00288 h 153.86915 a 80.032796,80.032796 0 0 0 -76.93247,-58.00288 z"
     class="colorfddecf svgShape"
     id="path2"
     style="stroke-width:0.420098" />
  <path
     fill="#fdebcf"
     d="m 208.05031,336.92421 c -52.22653,0 -96.24436,35.01934 -109.893329,82.84745 H 317.94365 C 304.29047,371.94355 260.26004,336.92421 208.05031,336.92421 Z"
     class="colorfddecf svgShape"
     id="path3"
     style="stroke-width:0.420098" />
  <path
     fill="#f9f9f9"
     d="M 118.0528,406.07648 A 40.501611,40.501611 0 0 0 79.118157,435.4287 H 156.98325 A 40.501611,40.501611 0 0 0 118.0528,406.07648 Z m 106.21328,0 a 40.501611,40.501611 0 0 0 -38.93465,29.35222 h 77.86509 a 40.501611,40.501611 0 0 0 -38.93044,-29.35222 z"
     class="colorf9f9f9 svgShape"
     id="path4"
     style="stroke-width:0.420098" />
  <path
     fill="#f9f9f9"
     d="M 173.66112,393.50296 A 57.851642,57.851642 0 0 0 118.0486,435.4287 h 111.22504 a 57.851642,57.851642 0 0 0 -55.61252,-41.92574 z"
     class="colorf9f9f9 svgShape"
     id="path5"
     style="stroke-width:0.420098" />
  <path
     fill="#fbe1b9"
     d="m 335.75158,232.39552 a 47.790304,47.790304 0 0 0 -45.94187,34.63285 h 91.87955 a 47.790304,47.790304 0 0 0 -45.93768,-34.63285 z m 125.33192,0 a 47.790304,47.790304 0 0 0 -45.94187,34.63285 h 91.88375 A 47.790304,47.790304 0 0 0 461.0835,232.39552 Z"
     class="colorfbe3b9 svgShape"
     id="path6"
     style="stroke-width:0.420098" />
  <path
     fill="#fbe1b9"
     d="m 401.37083,217.55767 a 68.261661,68.261661 0 0 0 -65.61925,49.4707 h 131.2427 a 68.261661,68.261661 0 0 0 -65.62345,-49.4707 z"
     class="colorfbe3b9 svgShape"
     id="path7"
     style="stroke-width:0.420098" />
  <path
     fill="#e6fefb"
     d="m 1167.8389,502.5939 a 47.790304,47.790304 0 0 0 -45.9419,34.63285 h 91.8796 a 47.790304,47.790304 0 0 0 -45.9377,-34.63285 z m 125.3403,0 a 47.790304,47.790304 0 0 0 -45.9418,34.64125 h 91.8795 a 47.790304,47.790304 0 0 0 -45.9377,-34.64125 z"
     class="colorfeeee6 svgShape"
     id="path8"
     style="stroke-width:0.420098" />
  <path
     fill="#e6fefb"
     d="m 1233.4666,487.76446 a 68.261661,68.261661 0 0 0 -65.6277,49.47069 h 131.2427 a 68.261661,68.261661 0 0 0 -65.615,-49.47069 z"
     class="colorfeeee6 svgShape"
     id="path9"
     style="stroke-width:0.420098" />
  <path
     fill="#fdebcf"
     d="m 1101.5559,489.99097 a 27.541599,27.541599 0 0 0 -26.4661,19.95884 h 52.9533 a 27.541599,27.541599 0 0 0 -26.4872,-19.95884 z m 72.2316,0 a 27.541599,27.541599 0 0 0 -26.4661,19.95884 h 52.9533 a 27.541599,27.541599 0 0 0 -26.4872,-19.95884 z"
     class="colorfddecf svgShape"
     id="path10"
     style="stroke-width:0.420098" />
  <path
     fill="#fdebcf"
     d="m 1139.3731,481.45879 a 39.342141,39.342141 0 0 0 -37.8088,28.51203 h 75.6386 a 39.342141,39.342141 0 0 0 -37.8298,-28.51203 z"
     class="colorfddecf svgShape"
     id="path11"
     style="stroke-width:0.420098" />
  <path
     fill="#f9f9f9"
     d="m 360.83141,262.02501 a 24.164015,24.164015 0 0 0 -23.2314,17.49706 h 46.4544 a 24.164015,24.164015 0 0 0 -23.223,-17.49706 z m 63.36332,0 a 24.164015,24.164015 0 0 0 -23.22719,17.49706 h 46.45439 a 24.164015,24.164015 0 0 0 -23.2272,-17.49706 z"
     class="colorf9f9f9 svgShape"
     id="path12"
     style="stroke-width:0.420098" />
  <path
     fill="#f9f9f9"
     d="m 394.01912,254.52206 a 34.51522,34.51522 0 0 0 -33.18771,25.00001 h 66.37542 a 34.51522,34.51522 0 0 0 -33.18771,-25.00001 z"
     class="colorf9f9f9 svgShape"
     id="path13"
     style="stroke-width:0.420098" />
  <path
     fill="#ffffff"
     d="m 587.35224,379.42969 a 8.1456927,8.1456927 0 0 0 8.1457,-8.1457 8.1456927,8.1456927 0 0 0 8.14989,8.1457 8.1456927,8.1456927 0 0 0 -8.14569,8.14569 8.1456927,8.1456927 0 0 0 -8.1499,-8.14569 z m -89.04389,33.65401 a 12.573522,12.573522 0 0 0 12.57353,-12.57352 12.573522,12.573522 0 0 0 12.57352,12.57352 12.573522,12.573522 0 0 0 -12.57352,12.57353 12.573522,12.573522 0 0 0 -12.57353,-12.57353 z"
     class="colorffffff svgShape"
     id="path14"
     style="stroke-width:0.420098" />
  <path
     fill="#5fe4d4"
     d="m 914.58728,446.80074 c 0.0336,-0.23526 3.41119,-24.03379 13.57755,-56.7888 a 440.39253,440.39253 0 0 1 21.13511,-55.07059 c 10.08235,-21.65183 21.66864,-41.45103 34.44801,-58.84727 l 2.94068,2.1551 c -28.64645,38.97245 -45.74863,82.87685 -55.03279,112.84241 -10.08234,32.47355 -13.41371,55.97801 -13.44312,56.20907 z"
     class="color84b5cb svgShape"
     id="path15"
     style="stroke-width:0.420098" />
  <path
     fill="#5fe4d4"
     d="m 993.15813,256.8116 a 74.122023,74.122023 0 0 0 -11.25441,24.979 74.122023,74.122023 0 0 0 19.88318,-18.84978 74.126224,74.126224 0 0 0 11.2545,-24.979 74.126224,74.126224 0 0 0 -19.88327,18.84978 z m -28.67586,11.27962 a 74.122023,74.122023 0 0 0 9.72106,25.62595 74.122023,74.122023 0 0 0 0.71417,-27.38616 74.122023,74.122023 0 0 0 -9.72106,-25.62596 74.122023,74.122023 0 0 0 -0.71417,27.38617 z m 37.03163,29.3018 a 74.122023,74.122023 0 0 0 26.8862,-5.28902 70.929281,70.929281 0 0 0 -53.77247,0 74.122023,74.122023 0 0 0 26.88627,5.28902 z m -13.63219,25.73518 a 74.126224,74.126224 0 0 0 27.26429,2.70123 70.929281,70.929281 0 0 0 -51.46611,-15.54361 74.122023,74.122023 0 0 0 24.20182,12.84238 z m -13.14065,25.57555 a 74.126224,74.126224 0 0 0 27.39454,0.28566 70.929281,70.929281 0 0 0 -52.63821,-10.92254 74.122023,74.122023 0 0 0 25.24367,10.63688 z m -10.7335,25.28147 a 74.126224,74.126224 0 0 0 27.38616,-0.70576 70.929281,70.929281 0 0 0 -52.99951,-9.0237 74.122023,74.122023 0 0 0 25.61335,9.72946 z m -9.25475,31.08722 a 74.126224,74.126224 0 0 0 27.26434,2.70123 70.929281,70.929281 0 0 0 -51.46616,-15.54361 74.126224,74.126224 0 0 0 24.20182,12.84238 z M 944.66207,292.23843 a 74.122023,74.122023 0 0 0 18.68174,20.03865 70.929281,70.929281 0 0 0 -28.3734,-45.66461 74.126224,74.126224 0 0 0 9.69166,25.62596 z"
     class="color84b5cb svgShape"
     id="path16"
     style="stroke-width:0.420098" />
  <path
     fill="#5fe4d4"
     d="m 913.96553,353.72391 a 74.122023,74.122023 0 0 0 25.13864,10.88893 70.929281,70.929281 0 0 0 -44.27408,-30.47808 74.122023,74.122023 0 0 0 19.13544,19.58915 z m -11.14519,34.69166 a 74.122023,74.122023 0 0 0 27.06269,4.25979 70.929281,70.929281 0 0 0 -50.49573,-18.45489 74.122023,74.122023 0 0 0 23.43304,14.1951 z m 25.46212,-66.00573 a 74.122023,74.122023 0 0 0 21.5258,16.95934 70.929281,70.929281 0 0 0 -35.00253,-40.80408 74.126224,74.126224 0 0 0 13.47673,23.84474 z"
     class="color84b5cb svgShape"
     id="path17"
     style="stroke-width:0.420098" />
  <path
     fill="#a0d7d0"
     d="m 969.88893,474.6238 c 0.084,-0.14703 8.71282,-15.04369 24.25223,-34.06151 a 315.36308,315.36308 0 0 1 28.81034,-30.88978 c 12.5021,-11.67031 25.5125,-21.70644 38.6489,-29.82693 l 1.3696,2.21812 c -29.4783,18.19022 -52.6131,42.74913 -66.82917,60.14957 -15.40498,18.85398 -23.94557,33.5658 -24.01278,33.71284 z"
     class="colora0c6d7 svgShape"
     id="path18"
     style="stroke-width:0.420098" />
  <path
     fill="#a0d7d0"
     d="m 1073.0355,369.56999 a 53.079333,53.079333 0 0 0 -14.1741,13.56496 50.789801,50.789801 0 0 0 32.4315,-20.74022 53.079333,53.079333 0 0 0 -18.2574,7.17526 z m -22.0677,-0.20584 a 53.079333,53.079333 0 0 0 -0.4201,19.61435 50.789801,50.789801 0 0 0 8.2423,-37.61974 53.079333,53.079333 0 0 0 -7.8222,18.00539 z m 16.7241,29.39003 a 53.079333,53.079333 0 0 0 19.2656,3.70106 50.789801,50.789801 0 0 0 -35.7083,-14.43036 53.079333,53.079333 0 0 0 16.4427,10.7293 z m -15.9512,13.43052 a 53.079333,53.079333 0 0 0 17.3753,9.10771 50.794002,50.794002 0 0 0 -30.0034,-24.14301 53.079333,53.079333 0 0 0 12.6281,15.0353 z m -15.5898,13.45152 a 53.079333,53.079333 0 0 0 18.1104,7.54075 50.794002,50.794002 0 0 0 -32.0156,-21.38296 53.079333,53.079333 0 0 0 13.9052,13.84221 z m -13.9094,13.90523 a 53.079333,53.079333 0 0 0 18.3709,6.8812 50.789801,50.789801 0 0 0 -32.7676,-20.21089 53.079333,53.079333 0 0 0 14.3967,13.32969 z m -14.4892,18.15662 a 53.079333,53.079333 0 0 0 17.3753,9.10772 50.794002,50.794002 0 0 0 -30.00341,-24.12621 53.079333,53.079333 0 0 0 12.62811,15.01849 z m 23.5759,-77.62143 a 53.079333,53.079333 0 0 0 7.024,18.31625 50.789801,50.789801 0 0 0 -6.5829,-37.93061 53.079333,53.079333 0 0 0 -0.4411,19.61436 z"
     class="colora0c6d7 svgShape"
     id="path19"
     style="stroke-width:0.420098" />
  <path
     fill="#a0d7d0"
     d="m 994.45204,412.66361 a 53.079333,53.079333 0 0 0 13.74976,13.97664 50.794002,50.794002 0 0 0 -21.2107,-32.12906 53.079333,53.079333 0 0 0 7.46094,18.15242 z m -16.70729,20.04285 a 53.079333,53.079333 0 0 0 16.82491,10.08235 50.789801,50.789801 0 0 0 -28.56664,-25.8024 53.079333,53.079333 0 0 0 11.74173,15.72005 z m 34.61605,-36.98959 a 53.079333,53.079333 0 0 0 9.7379,17.03076 50.789801,50.789801 0 0 0 -12.2921,-36.48548 53.079333,53.079333 0 0 0 2.5542,19.45472 z"
     class="colora0c6d7 svgShape"
     id="path20"
     style="stroke-width:0.420098" />
  <path
     fill="#0a786b"
     d="m 855.64758,371.56546 -2.94068,-0.75198 c 0.0336,-0.12603 3.36078,-12.97261 10.59906,-29.94035 6.69636,-15.66964 18.22804,-38.19108 35.12856,-56.49053 l 2.22652,2.05848 c -16.60646,17.98438 -27.9659,40.17393 -34.56563,55.62512 -7.15846,16.7535 -10.41422,29.37323 -10.44783,29.49926 z"
     class="color0a7850 svgShape"
     id="path21"
     style="stroke-width:0.420098" />
  <circle
     cx="-57.985855"
     cy="943.44556"
     r="5.6209059"
     fill="#0a786b"
     transform="rotate(-76.03)"
     class="color0a7850 svgShape"
     id="circle21"
     style="stroke-width:0.420098" />
  <circle
     cx="-55.282898"
     cy="921.80182"
     r="5.6209059"
     fill="#0a786b"
     transform="rotate(-76.03)"
     class="color0a7850 svgShape"
     id="circle22"
     style="stroke-width:0.420098" />
  <circle
     cx="-95.287384"
     cy="951.67035"
     r="5.6209059"
     fill="#0a786b"
     transform="rotate(-76.03)"
     class="color0a7850 svgShape"
     id="circle23"
     style="stroke-width:0.420098" />
  <path
     fill="#0a786b"
     d="m 883.74791,308.26095 -2.99109,-0.49152 c 0.0252,-0.15123 2.44076,-15.28315 -0.33188,-28.31037 l 2.96589,-0.63015 c 2.89447,13.59436 0.46211,28.79349 0.35708,29.43204 z m -10.19997,17.11057 -1.07125,-2.83565 c 0.4201,-0.15964 10.59907,-3.91952 25.44111,-2.52059 l -0.28566,3.0163 c -14.15309,-1.33591 -23.98758,2.28113 -24.0842,2.33994 z"
     class="color0a7850 svgShape"
     id="path23"
     style="stroke-width:0.420098" />
  <path
     fill="none"
     stroke="#4c3b54"
     stroke-linecap="round"
     stroke-linejoin="round"
     stroke-width="4.62107"
     d="M 830.92484,347.84255 V 246.01509 m 0,40.22854 16.86272,-16.86271 m -16.86272,34.73367 -17.48026,-17.48026"
     class="colorStroke3b3e54 svgStroke"
     id="path24" />
  <path
     fill="#0a786b"
     d="m 830.92064,205.83695 v 66.16538 c 0,0 13.80441,-14.81265 13.80441,-33.08269 0,-18.27005 -13.80441,-33.08269 -13.80441,-33.08269 z"
     class="color0a7850 svgShape"
     id="path25"
     style="stroke-width:0.420098" />
  <path
     fill="#0c9484"
     d="m 817.12463,238.91964 c 0,18.27004 13.80441,33.08269 13.80441,33.08269 v -66.16538 c 0,0 -13.80441,14.81264 -13.80441,33.08269 z"
     class="color0c9463 svgShape"
     id="path26"
     style="stroke-width:0.420098" />
  <path
     fill="#0a786b"
     d="m 883.2438,234.06751 -41.47204,41.47204 c 0,0 17.93397,-0.63015 29.40683,-12.08621 11.47287,-11.45606 12.06521,-29.38583 12.06521,-29.38583 z"
     class="color0a7850 svgShape"
     id="path27"
     style="stroke-width:0.420098" />
  <path
     fill="#0c9484"
     d="m 853.85377,246.15372 c -11.45186,11.45186 -12.08621,29.40683 -12.08621,29.40683 l 41.47203,-41.47203 c 0,0 -17.93396,0.61334 -29.38582,12.0652 z"
     class="color0c9463 svgShape"
     id="path28"
     style="stroke-width:0.420098" />
  <path
     fill="#0a786b"
     d="m 817.12883,290.31438 -50.3697,-50.3697 c 0,0 0.76878,21.78206 14.67821,35.70829 13.90943,13.92624 35.69149,14.66141 35.69149,14.66141 z"
     class="color0a7850 svgShape"
     id="path29"
     style="stroke-width:0.420098" />
  <path
     fill="#0c9484"
     d="m 802.45062,254.62289 c -13.90943,-13.90943 -35.70829,-14.67821 -35.70829,-14.67821 l 50.3697,50.3697 c 0,0 -0.75198,-21.78206 -14.66141,-35.69149 z"
     class="color0c9463 svgShape"
     id="path30"
     style="stroke-width:0.420098" />
  <path
     fill="none"
     stroke="#4c3b54"
     stroke-linecap="round"
     stroke-linejoin="round"
     stroke-width="4.62107"
     d="m 830.92484,318.8012 8.36414,-8.35994"
     class="colorStroke3b3e54 svgStroke"
     id="path31" />
  <path
     fill="#0c9484"
     d="m 815.79712,334.63048 a 17.144184,17.144184 0 0 0 -16.48043,12.42228 h 32.95666 a 17.144184,17.144184 0 0 0 -16.47623,-12.42228 z m 44.95045,0 a 17.144184,17.144184 0 0 0 -16.48043,12.42228 h 32.95666 a 17.144184,17.144184 0 0 0 -16.47623,-12.42228 z"
     class="color0c9463 svgShape"
     id="path32"
     style="stroke-width:0.420098" />
  <path
     fill="#0c9484"
     d="m 839.3478,329.30784 a 24.48749,24.48749 0 0 0 -23.52547,17.74492 h 47.07614 A 24.48749,24.48749 0 0 0 839.3478,329.30784 Z"
     class="color0c9463 svgShape"
     id="path33"
     style="stroke-width:0.420098" />
  <path
     fill="#d8a353"
     d="m 224.98445,817.96538 a 79.772335,79.772335 0 0 0 -76.68462,57.81383 h 153.37343 a 79.772335,79.772335 0 0 0 -76.68881,-57.81383 z m 209.20861,0 a 79.772335,79.772335 0 0 0 -76.68462,57.81383 h 153.37344 a 79.772335,79.772335 0 0 0 -76.68882,-57.81383 z"
     class="colorfaad8a svgShape"
     id="path34"
     style="stroke-width:0.420098" />
  <path
     fill="#d8a353"
     d="m 334.5207,793.19643 c -52.0417,0 -95.92929,34.90171 -109.53625,82.57858 h 219.0725 C 430.45419,828.10234 386.56659,793.19643 334.5207,793.19643 Z M 206.55896,681.26982 c 0,0 -10.64947,-7.7256 -13.19526,-23.52547 -2.54579,-15.79987 -16.24938,-15.45119 -19.05983,-8.14149 -2.81045,7.3097 3.04151,23.13058 32.25509,31.66696 z m 14.55639,1.84843 c 0,0 -3.27256,-12.74156 4.85212,-26.54597 8.12469,-13.80441 -2.65921,-22.26517 -9.4858,-18.42968 -6.82659,3.83549 -12.43069,19.78239 4.63368,44.97565 z m -0.48732,1.83583 c 0,0 -11.46446,6.44849 -15.81247,21.87028 -4.34801,15.42178 -17.91716,13.48093 -19.87062,5.88136 -1.95345,-7.59956 5.68812,-22.65166 35.68309,-27.75164 z m 26.02085,9.68745 c 0,0 -11.46446,6.44849 -15.81247,21.87028 -4.34801,15.42178 -17.91717,13.48093 -19.87062,5.88136 -1.95346,-7.59956 5.68392,-22.65166 35.68309,-27.75164 z m 21.06369,14.71181 c 0,0 -11.46446,6.4485 -15.81247,21.87029 -4.34801,15.42178 -17.91716,13.48093 -19.87062,5.88136 -1.95345,-7.59956 5.68812,-22.64746 35.68309,-27.75165 z m 25.28568,19.3371 c 0,0 -11.46446,6.4485 -15.81248,21.87028 -4.34801,15.42178 -17.91716,13.48093 -19.87061,5.88137 -1.95346,-7.59957 5.68812,-22.65167 35.68309,-27.75165 z m -46.59303,-34.11193 c 0,0 -3.27256,-12.74156 4.85213,-26.54597 8.12469,-13.8044 -2.65922,-22.26517 -9.4858,-18.42968 -6.82659,3.83549 -12.43069,19.8034 4.63367,44.97565 z m 24.24384,15.51001 c 0,0 -3.27256,-12.74157 4.85212,-26.54597 8.12469,-13.80441 -2.65921,-22.26518 -9.4858,-18.42969 -6.82659,3.8355 -12.43069,19.80341 4.63368,44.97566 z m 22.8449,17.6483 c 0,0 -3.27256,-12.74156 4.85213,-26.54597 8.12469,-13.80441 -2.65922,-22.26518 -9.4858,-18.42968 -6.82659,3.83549 -12.43069,19.7992 4.63367,44.97565 z"
     class="colorfaad8a svgShape"
     id="path35"
     style="stroke-width:0.420098" />
  <path
     fill="#d8a353"
     d="m 372.89241,822.7839 a 1.3611163,1.3611163 0 0 1 -1.68039,-0.58814 c -0.16804,-0.28986 -17.01815,-29.46144 -46.33676,-61.51069 -27.00808,-29.52446 -70.42097,-67.61471 -123.88679,-81.38971 a 1.3611163,1.3611163 0 0 1 0.68056,-2.63401 c 54.12958,13.94724 97.99197,52.41978 125.2563,82.23411 29.50766,32.26769 46.4796,61.65352 46.63084,61.94759 a 1.3611163,1.3611163 0 0 1 -0.50412,1.85683 1.3863221,1.3863221 0 0 1 -0.15964,0.084 z M 349.67782,606.45043 c 0,0 -4.41103,-13.09864 3.04151,-28.18855 7.45253,-15.0899 -4.49925,-23.10536 -11.34264,-18.57671 -6.84339,4.52865 -11.51908,21.68124 8.30113,46.76526 z m 11.33843,10.44783 c 0,0 4.95716,-12.9012 20.32433,-19.76979 15.36717,-6.8686 11.28382,-20.68141 3.10452,-21.55101 -8.1793,-0.8696 -22.69788,9.35557 -23.42885,41.3208 z m -1.53755,1.2729 c 0,0 -13.7414,-1.46194 -26.85684,9.09091 -13.11545,10.55285 -23.55068,0.62595 -20.58479,-7.05344 2.96589,-7.67938 18.65654,-15.95111 47.44163,-2.03747 z m 16.3754,24.13881 c 0,0 -13.74139,-1.46194 -26.85684,9.09091 -13.11545,10.55285 -23.55067,0.62594 -20.58478,-7.05344 2.96589,-7.67938 18.65653,-15.9385 47.44162,-2.03747 z m 9.06991,25.42851 c 0,0 -13.74139,-1.46194 -26.85684,9.09091 -13.11545,10.55285 -23.55067,0.62594 -20.58478,-7.05344 2.96588,-7.67939 18.65653,-15.94691 47.44162,-2.03747 z m 9.87229,31.94842 c 0,0 -13.74139,-1.46194 -26.85684,9.09091 -13.11545,10.55285 -23.55067,0.62595 -20.58478,-7.05344 2.96589,-7.67938 18.65653,-15.9385 47.44162,-2.03747 z m -19.12704,-57.56178 c 0,0 4.95715,-12.90119 20.32432,-19.76979 15.36717,-6.8686 11.28382,-20.68141 3.10452,-21.55101 -8.1793,-0.8696 -22.69367,9.36398 -23.42884,41.3208 z m 11.32163,28.02472 c 0,0 4.95715,-12.9012 20.32432,-19.7698 15.36717,-6.86859 11.28382,-20.6814 3.10452,-21.55101 -8.1793,-0.8696 -22.70207,9.36398 -23.42884,41.32081 z m 8.80945,29.02454 c 0,0 4.95715,-12.9012 20.32432,-19.76979 15.36717,-6.8686 11.28382,-20.68141 3.10452,-21.55101 -8.1793,-0.8696 -22.68947,9.36397 -23.42884,41.3208 z"
     class="colorfaad8a svgShape"
     id="path36"
     style="stroke-width:0.420098" />
  <path
     fill="#d8a353"
     d="m 408.30244,780.91277 -2.87347,-0.26886 c -0.4453,-10.3134 -1.3023,-21.84508 -2.81465,-34.15394 a 374.23135,374.23135 0 0 0 -8.78004,-46.87029 c -0.0378,-0.15543 -0.0756,-0.30247 -0.11763,-0.4579 a 308.80115,308.80115 0 0 0 -9.87649,-31.50732 l -0.21005,-0.55873 a 260.43111,260.43111 0 0 0 -10.85532,-24.84878 q -0.44531,-0.89481 -0.90742,-1.78121 a 219.21954,219.21954 0 0 0 -13.13645,-22.34499 l -0.31087,-0.45791 q -4.25559,-6.30146 -9.0405,-12.31726 -1.60057,-2.00387 -3.25996,-3.97833 a 1.4283319,1.4283319 0 0 1 2.18451,-1.84002 l 0.21005,0.24785 a 196.00914,196.00914 0 0 1 12.51471,16.66528 l 0.11342,0.16383 a 224.24811,224.24811 0 0 1 14.54378,25.10504 l 0.0882,0.17644 a 264.85054,264.85054 0 0 1 11.28803,26.2687 c 0.12602,0.33608 0.24785,0.67636 0.36968,1.01244 3.32297,9.10771 6.12082,18.20703 8.47757,27.1089 q 0.22685,0.84019 0.4453,1.68039 a 376.48308,376.48308 0 0 1 9.08672,48.24821 c 1.53335,12.5021 2.39455,24.24383 2.86086,34.70846 z"
     class="colorfaad8a svgShape"
     id="path37"
     style="stroke-width:0.420098" />
  <path
     fill="#ffd18c"
     d="m 273.71157,859.25678 a 34.414396,34.414396 0 0 0 -33.08269,24.94119 h 66.16537 a 34.414396,34.414396 0 0 0 -33.08268,-24.94119 z"
     class="colorff908c svgShape"
     id="path38"
     style="stroke-width:0.420098" />
  <path
     fill="#ffd18c"
     d="m 230.71038,848.55689 a 49.151421,49.151421 0 0 0 -47.25678,35.62428 h 94.52196 a 49.151421,49.151421 0 0 0 -47.26518,-35.62428 z"
     class="colorff908c svgShape"
     id="path39"
     style="stroke-width:0.420098" />
  <path
     fill="#49b2a5"
     d="M 1301.4006,842.77635 H 335.76839 v 33.05328 h 995.54731 v -33.05328 z"
     class="color4991b2 svgShape"
     id="path40"
     style="stroke-width:0.420098" />
  <path
     fill="#5ebbb0"
     d="M 1271.4854,809.72307 H 365.68354 v 33.05328 h 935.71706 v -33.05328 z"
     class="color5e9ebb svgShape"
     id="path41"
     style="stroke-width:0.420098" />
  <path
     fill="#6ac0b6"
     d="M 1241.5703,776.66979 H 395.60289 v 33.05328 h 875.88251 v -33.05328 z"
     class="color6aa6c0 svgShape"
     id="path42"
     style="stroke-width:0.420098" />
  <path
     fill="#73c3b9"
     d="M 1211.6509,743.61651 H 425.51804 v 33.05328 h 816.05226 v -33.05328 z"
     class="color73aac3 svgShape"
     id="path43"
     style="stroke-width:0.420098" />
  <path
     fill="#5fe4d4"
     d="M 1181.7358,710.56323 H 455.43319 v 33.05328 h 756.21771 v -33.05328 z"
     class="color84b5cb svgShape"
     id="path44"
     style="stroke-width:0.420098" />
  <path
     fill="#96d2cb"
     d="M 1151.8206,677.50995 H 485.34834 v 33.05328 h 696.38746 v -33.05328 z"
     class="color96c0d2 svgShape"
     id="path45"
     style="stroke-width:0.420098" />
  <path
     fill="#a0d7d0"
     d="M 1121.9054,644.45667 H 515.26769 v 33.05328 h 636.55291 v -33.05328 z"
     class="colora0c6d7 svgShape"
     id="path46"
     style="stroke-width:0.420098" />
  <path
     fill="#aadbd5"
     d="M 1091.9903,611.40339 H 545.18285 v 33.05328 h 576.72255 v -33.05328 z"
     class="coloraaccdb svgShape"
     id="path47"
     style="stroke-width:0.420098" />
  <path
     fill="#bae2dd"
     d="M 1062.0709,578.35011 H 575.098 v 33.05328 h 516.8923 v -33.05328 z"
     class="colorbad5e2 svgShape"
     id="path48"
     style="stroke-width:0.420098" />
  <path
     fill="#c6e7e3"
     d="M 1032.1558,545.29683 H 605.01315 v 33.05328 h 457.05775 v -33.05328 z"
     class="colorc6dde7 svgShape"
     id="path49"
     style="stroke-width:0.420098" />
  <path
     fill="#cdeae6"
     d="M 1002.2406,512.24355 H 634.9325 v 33.05328 h 397.2233 v -33.05328 z"
     class="colorcde1ea svgShape"
     id="path50"
     style="stroke-width:0.420098" />
  <path
     fill="#d9efec"
     d="M 972.32549,479.19026 H 664.84765 v 33.05329 h 337.39295 v -33.05329 z"
     class="colord9e8ef svgShape"
     id="path51"
     style="stroke-width:0.420098" />
  <path
     fill="#ddf1ef"
     d="M 942.40614,446.13698 H 694.7628 v 33.05328 H 972.32549 V 446.13698 Z M 912.49099,413.0837 H 724.67795 v 33.05328 H 942.40614 V 413.0837 Z M 882.57584,380.03042 H 754.5931 v 33.05328 h 157.89789 v -33.05328 z"
     class="colorddebf1 svgShape"
     id="path52"
     style="stroke-width:0.420098" />
  <path
     fill="#ddf1ef"
     d="m 833.54205,346.97714 h -49.0296 v 33.05328 h 98.06339 v -33.05328 z"
     class="colorddebf1 svgShape"
     id="path53"
     style="stroke-width:0.420098" />
  <path
     fill="#fdebcf"
     d="m 418.22935,864.71804 a 33.746441,33.746441 0 0 0 -32.43994,24.45389 h 64.87567 a 33.74224,33.74224 0 0 0 -32.43573,-24.45389 z m 88.49356,0 a 33.746441,33.746441 0 0 0 -32.43994,24.45389 h 64.87988 a 33.746441,33.746441 0 0 0 -32.43994,-24.45389 z"
     class="colorfddecf svgShape"
     id="path54"
     style="stroke-width:0.420098" />
  <path
     fill="#fdebcf"
     d="m 464.56191,854.24501 a 48.202,48.202 0 0 0 -46.33256,34.93112 h 92.66933 a 48.202,48.202 0 0 0 -46.33677,-34.93112 z"
     class="colorfddecf svgShape"
     id="path55"
     style="stroke-width:0.420098" />
  <path
     fill="#ffd18c"
     d="m 953.55973,848.33424 a 47.521442,47.521442 0 0 0 -45.68141,34.448 h 91.36283 a 47.521442,47.521442 0 0 0 -45.68142,-34.448 z"
     class="colorff908c svgShape"
     id="path56"
     style="stroke-width:0.420098" />
  <path
     fill="#ffd18c"
     d="m 1018.8135,833.59301 a 67.879372,67.879372 0 0 0 -65.25377,49.18923 h 130.50337 a 67.879372,67.879372 0 0 0 -65.2496,-49.18923 z"
     class="colorff908c svgShape"
     id="path57"
     style="stroke-width:0.420098" />
  <path
     fill="#49b2a5"
     d="m 753.76131,659.88265 a 24.164015,24.164015 0 0 0 -23.2272,17.50967 h 46.4544 a 24.164015,24.164015 0 0 0 -23.2272,-17.50967 z m 63.36752,0 a 24.164015,24.164015 0 0 0 -23.22719,17.50967 h 46.45439 a 24.164015,24.164015 0 0 0 -23.2272,-17.50967 z"
     class="color4991b2 svgShape"
     id="path58"
     style="stroke-width:0.420098" />
  <path
     fill="#49b2a5"
     d="m 786.93642,652.37971 a 34.51522,34.51522 0 0 0 -33.18771,25.01261 h 66.37542 a 34.51522,34.51522 0 0 0 -33.18771,-25.01261 z"
     class="color4991b2 svgShape"
     id="path59"
     style="stroke-width:0.420098" />
  <path
     fill="#aadbd5"
     d="m 888.20095,500.74967 a 16.211567,16.211567 0 0 0 -15.58562,11.76274 h 31.16704 a 16.211567,16.211567 0 0 0 -15.58142,-11.76274 z m 42.51388,0 a 16.211567,16.211567 0 0 0 -15.58563,11.76274 h 31.16705 a 16.211567,16.211567 0 0 0 -15.58142,-11.76274 z"
     class="coloraaccdb svgShape"
     id="path60"
     style="stroke-width:0.420098" />
  <path
     fill="#aadbd5"
     d="m 910.46192,495.71691 a 23.15578,23.15578 0 0 0 -22.26517,16.78289 h 44.53034 a 23.15578,23.15578 0 0 0 -22.26517,-16.78289 z"
     class="coloraaccdb svgShape"
     id="path61"
     style="stroke-width:0.420098" />
  <path
     fill="#ffd18c"
     d="m 1012.26,759.87848 a 6.0914154,6.0914154 0 0 0 -7.839,8.21711 c -6.09987,5.85196 -11.00241,12.876 -14.04811,17.75333 a 175.46637,175.46637 0 0 0 -0.48732,-21.25274 6.1040183,6.1040183 0 1 0 -3.24735,0.64695 c 1.23929,14.73282 0.32768,29.49926 -1.57537,42.99279 a 71.13933,71.13933 0 0 0 -15.77466,-13.92624 6.1082193,6.1082193 0 1 0 -1.52076,2.94069 c 9.78828,6.4863 15.21174,13.52714 16.61487,15.4974 -4.7345,29.60008 -13.77921,52.01648 -13.91784,52.36096 l 3.04571,1.2603 c 0.0546,-0.13443 5.46127,-13.46833 10.13275,-32.93565 a 252.08797,252.08797 0 0 0 6.34768,-40.37139 c 0.97462,-1.82742 7.48194,-13.66157 16.5855,-22.45841 a 6.0998173,6.0998173 0 1 0 5.6965,-10.7251 z m -60.91838,70.63942 a 252.08797,252.08797 0 0 0 -17.11058,-37.11563 c -0.20164,-2.06268 -1.35271,-15.5058 1.34431,-27.88187 a 6.1166212,6.1166212 0 1 0 -3.17593,-0.87381 c -1.82743,8.25072 -2.01227,16.80391 -1.84003,22.56344 a 175.44116,175.44116 0 0 0 -12.18283,-17.41304 6.1040183,6.1040183 0 1 0 -2.34415,2.33574 c 9.20014,11.56949 16.63167,24.36566 22.53404,36.64932 a 71.130928,71.130928 0 0 0 -20.84944,-2.83566 6.1082193,6.1082193 0 1 0 0.36548,3.28936 c 11.76273,-0.0336 20.16469,2.82306 22.42061,3.68006 12.4769,27.25593 17.38364,50.92423 17.45926,51.28551 l 3.22215,-0.65115 c -0.0336,-0.14703 -2.92388,-14.24971 -9.84289,-33.03227 z"
     class="colorff908c svgShape"
     id="path62"
     style="stroke-width:0.420098" />
  <path
     fill="#ffffff"
     d="m 617.58247,543.71726 a 1.9954637,1.9954637 0 0 1 -1.58797,-2.65502 l 4.87733,-13.48933 a 1.9954637,1.9954637 0 1 1 3.75147,1.35691 l -4.88573,13.49354 a 1.9954637,1.9954637 0 0 1 -2.1551,1.2939 z"
     class="colorffffff svgShape"
     id="path63"
     style="stroke-width:0.420098" />
  <path
     fill="#281a2e"
     d="m 615.04928,541.08745 c 0,0 -1.23509,5.12939 0,5.27222 1.23509,0.14284 19.01782,0.68056 19.12284,-0.14283 0.35709,-2.81466 -14.18249,-5.41506 -15.60662,-5.12939 -1.42413,0.28566 -3.35658,-0.74358 -3.51622,0 z"
     class="color1a1c2e svgShape"
     id="path64"
     style="stroke-width:0.420098" />
  <path
     fill="#ad59d4"
     d="m 578.06389,506.4546 c 0,0 45.03866,-7.08285 45.79063,-5.04117 0.75198,2.04167 -6.78877,34.29257 -6.78877,34.29257 h 6.83919 c 0,0 7.3181,-24.41608 9.5026,-30.19242 2.18451,-5.77634 3.67586,-14.80844 -3.21794,-14.70342 -6.4359,0.0798 -50.65117,2.86087 -50.65117,2.86087 z"
     class="color3b3e54 svgShape"
     id="path65"
     style="stroke-width:0.420098" />
  <path
     fill="#ffffff"
     d="m 642.95636,425.40517 c 0,0 4.20098,-9.96052 2.87767,-12.35087 -1.32331,-2.39036 -6.35607,6.64174 -5.42766,13.10704 z"
     class="colorffffff svgShape"
     id="path66"
     style="stroke-width:0.420098" />
  <path
     fill="#ffd18c"
     d="m 585.66765,440.49087 7.59117,-4.09595 c 0.0336,0.0294 0.0588,0.0756 0.0924,0.10503 22.68527,26.36112 37.11562,12.69114 46.21073,-13.38431 1.74341,0.73097 3.44901,1.49974 5.09999,2.1509 -8.96488,31.92741 -28.36499,40.56042 -55.03279,19.05562 -2.12569,-1.67199 -3.4532,-2.71383 -3.96152,-3.83129 z"
     class="colorff908c svgShape"
     id="path67"
     style="stroke-width:0.420098" />
  <path
     fill="#281a2e"
     d="m 593.44786,411.38651 c 0,0 4.52445,1.89044 3.36078,4.75551 -1.16367,2.86506 -5.21341,-2.23492 -5.21341,-2.23492 0,0 -0.15544,-3.73467 1.85263,-2.52059 z"
     class="color1a1c2e svgShape"
     id="path68"
     style="stroke-width:0.420098" />
  <path
     fill="#ffffff"
     d="m 554.75267,608.21064 a 1.9996646,1.9996646 0 0 1 -1.58797,-2.65501 l 4.88574,-13.49354 a 1.9954637,1.9954637 0 0 1 3.75147,1.35692 l -4.88574,13.49353 a 1.9954637,1.9954637 0 0 1 -2.1635,1.2981 z"
     class="colorffffff svgShape"
     id="path69"
     style="stroke-width:0.420098" />
  <path
     fill="#ad59d4"
     d="m 555.01733,597.72501 a 62.636554,62.636554 0 0 0 5.71333,3.00369 c 12.69115,-37.80878 18.99261,-78.44482 31.47791,-114.26655 q -8.11208,-2.62981 -16.32079,-4.99916 c -10.59486,38.40113 -5.35624,72.62648 -20.87045,116.26202 z"
     class="color3b3e54 svgShape"
     id="path70"
     style="stroke-width:0.420098" />
  <path
     fill="#281a2e"
     d="m 552.21528,605.58083 c 0,0 -1.23509,5.12939 0,5.27223 1.23509,0.14283 19.01782,0.68056 19.12284,-0.14284 0.35709,-2.81465 -14.18249,-5.41505 -15.60662,-5.12939 -1.42413,0.28567 -3.33558,-0.74357 -3.51622,0 z"
     class="color1a1c2e svgShape"
     id="path71"
     style="stroke-width:0.420098" />
  <path
     fill="#ffd18c"
     d="m 597.46399,444.97331 c 1.2603,-7.7634 -3.49101,-11.93917 -3.91111,-12.18283 -3.07091,-1.90304 -5.95278,-3.12972 -9.39338,-1.71399 -2.80625,1.15526 -3.99933,2.613 -5.28483,5.94438 -0.95362,2.47437 -0.84019,3.4616 -1.44933,7.36011 -2.79785,17.76172 -4.09175,35.68729 -6.09142,53.75149 q 3.58764,0.16383 7.17947,0.0882 a 31.129233,31.129233 0 0 0 3.98253,-0.28567 c 5.28482,-0.80239 9.98572,-3.8775 15.22853,-4.94035 0.52092,-0.10502 1.05025,-0.18904 1.57537,-0.26046 -3.04571,-17.06016 -4.70089,-30.16721 -1.83583,-47.7609 z"
     class="colorff908c svgShape"
     id="path72"
     style="stroke-width:0.420098" />
  <path
     fill="#ffffff"
     d="m 585.10892,422.60312 c 2.78105,5.36044 8.76324,7.7676 12.04,6.07041 3.27676,-1.6972 2.6004,-6.8602 -0.18064,-12.22064 -2.78105,-5.36045 -6.84759,-6.70056 -10.12435,-5.02017 -3.27677,1.68039 -4.51185,5.80995 -1.73501,11.1704 z"
     class="colorffffff svgShape"
     id="path73"
     style="stroke-width:0.420098" />
  <path
     fill="#ffffff"
     d="m 585.91971,421.84274 h 6.33927 c 0,0.8696 -0.15123,9.12032 -0.77298,12.18283 -0.32347,0.92842 -1.93245,1.20988 -3.59183,0.63015 -1.49135,-0.52092 -2.52059,-1.55856 -2.46597,-2.44077 0.36968,-1.83583 0.49151,-7.33911 0.49151,-10.37221 z"
     class="colorffffff svgShape"
     id="path74"
     style="stroke-width:0.420098" />
  <path
     fill="#281a2e"
     d="m 588.0076,424.63219 c 1.02503,-0.91161 1.80642,0.0798 3.9111,1.55016 2.10469,1.47034 6.12083,1.54176 6.91061,-3.64645 0.33608,-2.19291 1.03764,-0.4537 1.47034,0.96202 a 6.8475911,6.8475911 0 0 1 0.26466,3.20955 4.6210737,4.6210737 0 0 1 -2.62561,3.48681 c -2.1803,1.13006 -5.23441,0.92422 -8.10368,-0.52512 a 3.9825254,3.9825254 0 0 1 -2.26012,-4.07495 1.587969,1.587969 0 0 1 0.4327,-0.96202 z"
     class="color1a1c2e svgShape"
     id="path75"
     style="stroke-width:0.420098" />
  <path
     fill="#281a2e"
     d="m 599.02676,422.35526 -0.22266,0.0924 c -1.15526,0.48731 -6.40648,2.78945 -7.11225,4.79752 -0.79398,2.26012 2.76424,-0.63015 3.89011,-2.01647 1.12586,-1.38633 2.29373,-1.07125 3.39018,-1.2603 1.09646,-0.18904 1.7056,-1.51235 0.0546,-1.61317 z m -16.46363,-2.76004 c 0,0 -0.64695,-4.02034 1.39472,-6.65435 2.04168,-2.63401 7.32651,-5.10418 10.92254,-0.93262 0,0 2.27273,3.19695 -1.81482,5.61251 -4.08755,2.41556 -4.3018,-0.19325 -5.49488,2.84826 -1.19307,3.04151 -3.78087,2.27273 -3.96152,2.94068 z"
     class="color1a1c2e svgShape"
     id="path76"
     style="stroke-width:0.420098" />
  <path
     fill="#ffffff"
     d="m 583.32771,425.29594 c 0.64695,1.2603 2.71383,2.20131 3.61704,1.7308 0.90321,-0.4705 0.60494,-1.59637 -0.042,-2.84406 -0.64695,-1.24769 -1.98286,-2.03327 -2.88607,-1.56696 -0.90321,0.46631 -1.33591,1.44934 -0.68896,2.68022 z m -33.28854,60.41424 c 0,0 4.04134,10.01933 6.65015,10.79651 2.6088,0.77718 -0.15964,-9.19174 -5.36885,-13.13225 z"
     class="colorffffff svgShape"
     id="path77"
     style="stroke-width:0.420098" />
  <path
     fill="#ffd18c"
     d="m 548.93852,486.99148 c 1.63838,-0.69736 3.39019,-1.34431 5.14199,-2.06268 -11.90136,-24.90339 -11.27122,-44.77821 23.39524,-42.00976 5.30163,0.42009 5.92758,-0.70157 4.87733,-4.83533 0.8402,-0.38229 0.8402,-0.36968 0,0 -1.05024,-4.13376 -2.52058,-3.9069 -7.72559,-3.36078 -34.08672,3.49942 -41.79972,23.27341 -25.68897,52.26855 z"
     class="colorff908c svgShape"
     id="path78"
     style="stroke-width:0.420098" />
  <path
     fill="#49b2a5"
     d="m 653.33698,386.83601 h 32.20048 v 45.88306 h -32.20048 z"
     class="color4991b2 svgShape"
     id="path79"
     style="stroke-width:0.420098" />
  <path
     fill="none"
     stroke="#49b2a5"
     stroke-miterlimit="10"
     stroke-width="2.10049"
     d="m 669.43932,407.12252 c 0,9.77987 -6.30147,17.70711 -14.03546,17.70711 -7.734,0 -14.03547,-7.92724 -14.03547,-17.70711 0,-9.77987 6.30147,-14.35474 14.03547,-14.35474 7.73399,0 14.03546,4.57487 14.03546,14.35474 z"
     class="colorStroke4991b2 svgStroke"
     id="path80" />
  <path
     fill="#49b2a5"
     d="m 681.67537,411.4055 15.02702,-15.58814 2.67968,2.58322 -15.02702,15.58815 z"
     class="color4991b2 svgShape"
     id="path81"
     style="stroke-width:0.420098" />
  <path
     fill="#49b2a5"
     d="m 693.29666,401.65285 17.48446,-5.87297 -12.26265,-11.81734 z"
     class="color4991b2 svgShape"
     id="path82"
     style="stroke-width:0.420098" />
  <path
     fill="#ddf1ef"
     d="m 663.40672,413.45339 c 0,-3.29777 5.96958,-11.37204 5.96958,-11.37204 0,0 5.96959,8.07848 5.96959,11.37204 a 5.9695871,5.9695871 0 0 1 -11.93497,0 z"
     class="colorddebf1 svgShape"
     id="path83"
     style="stroke-width:0.420098" />
  <path
     fill="#ffffff"
     d="m 640.76345,610.67242 a 12.573522,12.573522 0 0 0 12.57353,-12.57353 12.573522,12.573522 0 0 0 12.57352,12.57353 12.573522,12.573522 0 0 0 -12.57352,12.57352 12.573522,12.573522 0 0 0 -12.57353,-12.57352 z M 435.91126,575.52705 a 8.1456927,8.1456927 0 0 0 8.14569,-8.14569 8.1456927,8.1456927 0 0 0 8.14569,8.14569 8.1456927,8.1456927 0 0 0 -8.14149,8.14569 8.1456927,8.1456927 0 0 0 -8.14989,-8.14569 z m 463.82137,153.16339 a 8.1456927,8.1456927 0 0 0 8.14569,-8.1457 8.1456927,8.1456927 0 0 0 8.14569,8.1457 8.1456927,8.1456927 0 0 0 -8.14569,8.14569 8.1456927,8.1456927 0 0 0 -8.14569,-8.14569 z M 1143.6749,567.37716 a 8.1456927,8.1456927 0 0 0 8.1457,-8.1457 8.1456927,8.1456927 0 0 0 8.1457,8.1457 8.1456927,8.1456927 0 0 0 -8.1457,8.14569 8.1456927,8.1456927 0 0 0 -8.1457,-8.14569 z m -574.79855,95.62261 a 8.1456927,8.1456927 0 0 0 8.14569,-8.14569 8.1456927,8.1456927 0 0 0 8.1457,8.14569 8.1456927,8.1456927 0 0 0 -8.1457,8.1457 8.1456927,8.1456927 0 0 0 -8.14569,-8.1457 z"
     class="colorffffff svgShape"
     id="path84"
     style="stroke-width:0.420098" />
</svg>
