<?xml version="1.0" encoding="UTF-8"?>
<svg id="ArrangingFiles" xmlns="http://www.w3.org/2000/svg" xmlns:xlink="http://www.w3.org/1999/xlink" viewBox="0 0 1400 1000">
  <defs>
    <style>
      .cls-1 {
        fill: url(#linear-gradient-2);
      }

      .cls-2 {
        fill: #3b2272;
      }

      .cls-3, .cls-4 {
        fill: #fff;
      }

      .cls-5 {
        fill: #281d41;
      }

      .cls-5, .cls-4, .cls-6 {
        isolation: isolate;
      }

      .cls-5, .cls-6 {
        opacity: .18;
      }

      .cls-7 {
        fill: url(#linear-gradient-6);
      }

      .cls-4 {
        opacity: .38;
      }

      .cls-8 {
        fill: #87ddfd;
      }

      .cls-9 {
        fill: url(#linear-gradient-5);
      }

      .cls-10 {
        fill: #87fdf4;
      }

      .cls-11 {
        fill: url(#linear-gradient-7);
      }

      .cls-12 {
        fill: url(#linear-gradient-9);
      }

      .cls-13 {
        fill: url(#linear-gradient-3);
      }

      .cls-14 {
        fill: url(#linear-gradient);
      }

      .cls-15 {
        fill: #453d56;
      }

      .cls-6 {
        fill: #4600ff;
      }

      .cls-16 {
        fill: url(#linear-gradient-4);
      }

      .cls-17 {
        fill: url(#linear-gradient-8);
      }
    </style>
    <linearGradient id="linear-gradient" x1="152.88" y1="-102.49" x2="870.87" y2="890.39" gradientTransform="translate(0 1001) scale(1 -1)" gradientUnits="userSpaceOnUse">
      <stop offset="0" stop-color="#000" stop-opacity="0"/>
      <stop offset=".85" stop-color="#000" stop-opacity=".51"/>
      <stop offset=".99" stop-color="#000"/>
    </linearGradient>
    <linearGradient id="linear-gradient-2" x1="674.27" y1="934.25" x2="676.67" y2="778.27" gradientTransform="translate(0 1001) scale(1 -1)" gradientUnits="userSpaceOnUse">
      <stop offset="0" stop-color="#183266"/>
      <stop offset="1" stop-color="#1a53c1"/>
    </linearGradient>
    <linearGradient id="linear-gradient-3" x1="490.36" y1="-68.58" x2="778.33" y2="551.19" gradientTransform="translate(0 1001) scale(1 -1)" gradientUnits="userSpaceOnUse">
      <stop offset="0" stop-color="#000" stop-opacity="0"/>
      <stop offset=".85" stop-color="#000" stop-opacity=".51"/>
      <stop offset=".99" stop-color="#000"/>
    </linearGradient>
    <linearGradient id="linear-gradient-4" x1="1116.07" y1="335.47" x2="1245.34" y2="533.61" gradientTransform="translate(-148.74 1001) scale(1 -1)" gradientUnits="userSpaceOnUse">
      <stop offset="0" stop-color="#000" stop-opacity="0"/>
      <stop offset=".85" stop-color="#000" stop-opacity=".51"/>
      <stop offset=".99" stop-color="#000"/>
    </linearGradient>
    <linearGradient id="linear-gradient-5" x1="946.98" y1="299.32" x2="1036.03" y2="299.32" gradientTransform="translate(0 1001) scale(1 -1)" gradientUnits="userSpaceOnUse">
      <stop offset="0" stop-color="#68d5fd"/>
      <stop offset="1" stop-color="#87affd"/>
    </linearGradient>
    <linearGradient id="linear-gradient-6" x1="982.24" y1="504.67" x2="1024.43" y2="505.44" gradientTransform="translate(0 1001) scale(1 -1)" gradientUnits="userSpaceOnUse">
      <stop offset="0" stop-color="#ac87fd"/>
      <stop offset=".42" stop-color="#dad1ef"/>
      <stop offset="1" stop-color="#c9f2ef"/>
    </linearGradient>
    <linearGradient id="linear-gradient-7" x1="1133.43" y1="511.53" x2="1124.73" y2="506.92" gradientTransform="translate(-148.74 1001) scale(1 -1)" gradientUnits="userSpaceOnUse">
      <stop offset="0" stop-color="#ac87fd"/>
      <stop offset=".42" stop-color="#dad1ef"/>
      <stop offset="1" stop-color="#c9f2ef"/>
    </linearGradient>
    <linearGradient id="linear-gradient-8" x1="1057.07" y1="483.84" x2="1146.06" y2="387.18" gradientTransform="translate(-148.74 1001) scale(1 -1)" gradientUnits="userSpaceOnUse">
      <stop offset=".02" stop-color="#68d5fd"/>
      <stop offset="1" stop-color="#fff"/>
    </linearGradient>
    <linearGradient id="linear-gradient-9" x1="971.5" y1="443.82" x2="1018.64" y2="443.82" gradientTransform="translate(-148.74 1001) scale(1 -1)" gradientUnits="userSpaceOnUse">
      <stop offset="0" stop-color="#ac87fd"/>
      <stop offset=".42" stop-color="#dad1ef"/>
      <stop offset="1" stop-color="#c9f2ef"/>
    </linearGradient>
  </defs>
  <path class="cls-5" d="M1127.03,954.11c-28.96,3.35-57.94,6.27-86.97,8.76,.3,.65,.65,1.28,1.04,1.88,3.07,4.56,9.26,5.44,14.34,7.57s9.87,8.29,6.52,12.66c-1.68,2.18-4.61,2.78-7.3,3.23l-29.97,5.03c-36.48,6.1-75.01,12.03-109.6-1.12-14.3-5.46-15.31-13.68-10.32-20.62-185.42,8.04-371.7,1.91-557.38-4.24-15.08,0-31.93-4.04-35.96-19.25,95.68-43,188.47-43.28,292.06-46.03l364.28-9.68c6.25-.17,12.91-.22,18.24,3.07,5.33,3.28,8.38,9.56,12.85,14.2,13.4,13.97,35.81,11,55.09,9.58,28.14-2.04,56.4,1.55,83.13,10.57,3.69,1.24,7.64,2.83,9.51,6.23,5.09,9.3-9.05,16.92-19.56,18.16h0Z"/>
  <path class="cls-6" d="M622.96,3.44c-67.54,10.23-126.86,39.4-178.4,72.66-51.54,33.27-97.12,71.14-149.52,103.67-81.19,50.45-185.29,95.61-205.8,171.64-16.51,61,28.05,121.96,30.06,184.1,1.29,47-21.6,92.63-26.62,139.53-4.83,46.2,9.64,95.14,51.52,130.17,59.73,49.98,161.87,61.69,252.28,52.28,90.41-9.41,175.46-36.18,264.6-50.37,107.39-17.1,218.93-15.71,328.35-7.27,66.92,5.18,136.85,12.68,199.76-4.64,55.87-15.38,100.03-49.93,121.31-90.45,21.27-40.52,20.49-86.2,2.31-127.45-25.14-57.13-80.93-104.32-116.47-158.47-30.25-46.05-45.39-96.38-62.04-145.93-11.03-32.81-23.7-66.8-54.25-92.31-35.03-29.28-87.87-42.95-134.86-61.54C831.81,74.16,771.27-19.01,622.96,3.44h0Z"/>
  <path class="cls-8" d="M451.11,61.12h290.4V956.84H451.11c-29.21,0-52.9-23.68-52.9-52.9h0V114.02c0-29.21,23.68-52.9,52.9-52.9h0Z"/>
  <path class="cls-14" d="M451.11,61.12h290.4V956.84H451.11c-29.21,0-52.9-23.68-52.9-52.9h0V114.02c0-29.21,23.68-52.9,52.9-52.9h0Z"/>
  <rect class="cls-8" x="420.81" y="61.12" width="507.65" height="895.71" rx="62.46" ry="62.46"/>
  <path class="cls-3" d="M906.16,114.89V859.94c0,17.47-14.18,31.63-31.66,31.62H474.73c-17.47,0-31.62-14.16-31.62-31.62h0V114.89c0-17.47,14.17-31.64,31.64-31.64h79.04v9.95c0,17.58,14.25,31.83,31.83,31.83h177.38c17.58,0,31.83-14.25,31.83-31.83v-9.95h79.66c17.48,0,31.67,14.16,31.67,31.64h0Z"/>
  <rect class="cls-1" x="624.63" y="86.01" width="100.03" height="9.23" rx="4.24" ry="4.24"/>
  <path class="cls-10" d="M871.56,83.25V756.74c0,31.52-25.55,57.07-57.07,57.07H443.1V114.89c0-17.47,14.14-31.63,31.61-31.64,.01,0,.02,0,.03,0h79.04v9.95c0,17.58,14.25,31.83,31.83,31.83h177.38c17.58,0,31.83-14.25,31.83-31.83v-9.95h76.73Z"/>
  <rect class="cls-8" x="503.84" y="380.26" width="531.31" height="177.1" rx="30.69" ry="30.69"/>
  <rect class="cls-13" x="503.84" y="380.26" width="531.31" height="177.1" rx="30.69" ry="30.69"/>
  <rect class="cls-3" x="513.05" y="369.19" width="531.31" height="177.1" rx="30.69" ry="30.69"/>
  <path class="cls-3" d="M490.41,172.24h79.46v79.46h-79.46v-79.46Z"/>
  <rect class="cls-10" x="545.16" y="401.67" width="112.18" height="112.18" rx="15.9" ry="15.9"/>
  <path class="cls-3" d="M490.41,270.72h79.46v79.46h-79.46v-79.46Zm0,313.14h79.46v79.46h-79.46v-79.46Zm0,98.47h79.46v79.46h-79.46v-79.46Z"/>
  <path class="cls-4" d="M657.32,483.03v14.91c0,8.78-7.12,15.9-15.9,15.9h-80.4c-8.78,0-15.9-7.12-15.9-15.9v-14.91c13.38-8.92,28.55-14.8,44.44-17.25-11.45-6.43-15.51-20.92-9.08-32.36,6.43-11.45,20.92-15.51,32.36-9.08,11.45,6.43,15.51,20.92,9.08,32.36-2.21,3.93-5.48,7.15-9.45,9.28,23.77,3.82,44.84,17.05,44.84,17.05h0Z"/>
  <path class="cls-10" d="M1004.65,421.29h-303.18c-2.78,0-5.03-2.25-5.03-5.03s2.25-5.03,5.03-5.03h303.18c2.78,0,5.03,2.25,5.03,5.03s-2.25,5.03-5.03,5.03Z"/>
  <path class="cls-3" d="M599.52,193h284.02c2.63,0,4.76,2.13,4.76,4.75h0c0,2.62-2.13,4.75-4.76,4.75h-284.02c-2.63,0-4.76-2.13-4.76-4.75h0c0-2.62,2.13-4.75,4.76-4.75Z"/>
  <path class="cls-3" d="M883.52,234.15h-284.02c-2.63,0-4.76-2.13-4.76-4.76,0-2.62,2.14-4.74,4.76-4.74h284.02c2.62,0,4.75,2.12,4.76,4.74,0,2.63-2.13,4.76-4.76,4.76Zm0,64h-284.02c-2.63,0-4.76-2.13-4.76-4.76,0-2.62,2.14-4.74,4.76-4.74h284.02c2.62,0,4.75,2.12,4.76,4.74,0,2.63-2.13,4.76-4.76,4.76Zm0,26.88h-284.02c-2.63,0-4.76-2.13-4.76-4.76,0-2.62,2.14-4.74,4.76-4.74h284.02c2.62,0,4.75,2.12,4.76,4.74,0,2.63-2.13,4.76-4.76,4.76Zm0,289.84h-284.02c-2.63,0-4.76-2.13-4.76-4.76s2.13-4.76,4.76-4.76h284.02c2.63,0,4.76,2.13,4.76,4.76s-2.13,4.76-4.76,4.76Zm0,26.93h-284.02c-2.63,0-4.76-2.13-4.76-4.76s2.13-4.76,4.76-4.76h284.02c2.63,0,4.76,2.13,4.76,4.76s-2.13,4.76-4.76,4.76Zm0,71.54h-284.02c-2.63,0-4.76-2.13-4.76-4.76s2.13-4.76,4.76-4.76h284.02c2.63,0,4.76,2.13,4.76,4.76s-2.13,4.76-4.76,4.76Zm0,27h-284.02c-2.63,0-4.76-2.13-4.76-4.76s2.13-4.76,4.76-4.76h284.02c2.63,0,4.76,2.13,4.76,4.76s-2.13,4.76-4.76,4.76Z"/>
  <path class="cls-10" d="M1004.65,453.6h-303.18c-2.78,0-5.03-2.25-5.03-5.03s2.25-5.03,5.03-5.03h303.18c2.78,0,5.03,2.25,5.03,5.03s-2.25,5.03-5.03,5.03Zm0,32.33h-303.18c-2.78,0-5.03-2.25-5.03-5.03s2.25-5.03,5.03-5.03h303.18c2.78,0,5.03,2.25,5.03,5.03s-2.25,5.03-5.03,5.03Z"/>
  <path class="cls-15" d="M946.98,704.93l-19.08,139.03c-.81,5.85-.2,11.81,1.78,17.37l34.09,100.5,19.93-6.15-15.08-99.95c-.32-2.06-.19-4.16,.39-6.16l25.9-89.4,11.26,201.65h18.43l15.86-199.11c5.38-33.23-4.46-57.79-4.46-57.79h-89.01Z"/>
  <path class="cls-8" d="M1044.84,582.42v95.48c0,11.73-1.91,21.19-13.62,21.19h-81.74c-11.73,0-12.09-9.4-12.18-21.04l-.65-64.99s-17.64,31.51-31.71,28.48c-14.07-3.03-55.81-60.6-55.81-60.6l20.77-17.47,35.04,35.18s5.61-12.8,13.8-41.44c8.19-28.64,34.79-28.78,34.79-28.78h71.09c25.66-.08,20.22,54,20.22,54h0Z"/>
  <path class="cls-8" d="M1044.37,485.92s25.95,53.25,27.32,71.46c1.37,18.21-26.38,42.95-26.38,42.95l-20.69-72.03h19.75v-42.38Z"/>
  <path class="cls-16" d="M1044.37,485.92s25.95,53.25,27.32,71.46c1.37,18.21-26.38,42.95-26.38,42.95l-20.69-72.03h19.75v-42.38Z"/>
  <path class="cls-8" d="M1045.31,600.33s16.92-46.5,15.08-57.2-16.01-44.4-16.01-44.4v29.61l-24.96,.52,25.9,71.47Z"/>
  <path class="cls-9" d="M946.98,698.43h89.04v6.5h-89.04v-6.5Z"/>
  <path class="cls-7" d="M977.32,463.51h25.69v65.34h-25.69v-65.34Z"/>
  <path class="cls-11" d="M1003.08,456.34v72.51h-13.55v-4.42c0-5.4-4.38-9.78-9.78-9.78h-.79c-13.45,.06-24.4-10.8-24.45-24.25,0-.03,0-.07,0-.1v-33.95h48.58Z"/>
  <path class="cls-15" d="M961.02,434.2c5.41-3.08,11.93-3.35,18.17-3.53l13.3-.39c2.95-.18,5.9-.07,8.83,.34,11.86,2,19.85,13.24,17.85,25.09-.26,1.55-.69,3.08-1.28,4.54-.52,1.05-.86,2.18-.99,3.35,0,1.86,1.21,3.47,1.84,5.21,1.84,4.94-1.16,10.33-4.51,14.42s-7.32,8.24-7.81,13.5c-.15,1.68,0,3.69-1.12,5.03-1.46,1.35-3.66,1.51-5.29,.37-1.55-1.15-2.81-2.64-3.69-4.36,.13,2.48-3.35,3.85-5.53,2.7-2.08-1.43-3.45-3.69-3.75-6.2-.3-2.48-1.06-4.87-2.24-7.07-1.14-1.68-2.95-2.86-3.55-4.77-1.06-3.35,2.26-7.1,1.01-10.44-1.04-2.71-4.77-3.52-7.45-2.36-2.57,1.4-4.71,3.47-6.21,5.98,2.46-3.35,.44-9.1-2.11-11.81-4.17-4.46-10.45-.69-13.94-3.89-6.65-6.15,2.58-22.36,8.48-25.71h0Z"/>
  <path class="cls-17" d="M997.27,528.72s-9.97,13.05-23.79,13.05-54.15,39.46-56.78,51.41-11.73,5.38-11.73,5.38c0,0,5.61-12.8,13.8-41.44,8.19-28.64,34.79-28.78,34.79-28.78h36.11l7.59,.39Z"/>
  <path class="cls-2" d="M983.7,954.02l7.04,17.25-28.37,13.4-26.28,1.91s-4.49-17.27,7.79-18.81c7.16-.81,13.99-3.45,19.83-7.67l20-6.08Zm22.51,7.81c-7.25,2.99-12.27,9.72-13.07,17.52l-.74,7.29h32.21v-24.81h-18.41Z"/>
  <path class="cls-12" d="M869.9,563.43l-13.55-16.75s-4.62-17.87-7.22-6.8c-1.46,6.21-5.59,17.45-5.59,17.45h-20.77s14.57,15.39,20.77,18.21c2.83,1.25,5.82,2.11,8.88,2.56l17.49-14.67Z"/>
</svg>