<?xml version="1.0" encoding="UTF-8" standalone="no"?>
<svg
   data-name="Layer 1"
   viewBox="0 0 1400 1000"
   id="Indianmaleachievedhisdream"
   version="1.1"
   sodipodi:docname="Rewards.svg"
   width="1400"
   height="1000"
   xmlns:inkscape="http://www.inkscape.org/namespaces/inkscape"
   xmlns:sodipodi="http://sodipodi.sourceforge.net/DTD/sodipodi-0.dtd"
   xmlns="http://www.w3.org/2000/svg"
   xmlns:svg="http://www.w3.org/2000/svg">
  <defs
     id="defs46" />
  <sodipodi:namedview
     id="namedview46"
     pagecolor="#505050"
     bordercolor="#ffffff"
     borderopacity="1"
     inkscape:showpageshadow="0"
     inkscape:pageopacity="0"
     inkscape:pagecheckerboard="1"
     inkscape:deskcolor="#505050"
     inkscape:zoom="1.08"
     inkscape:cx="350"
     inkscape:cy="275.46296"
     inkscape:window-width="1920"
     inkscape:window-height="1057"
     inkscape:window-x="-8"
     inkscape:window-y="-8"
     inkscape:window-maximized="1"
     inkscape:current-layer="Indianmaleachievedhisdream" />
  <path
     fill="#8526fe"
     d="M 520.22465,987.55733 C 482.03108,975.61745 447.76262,963.41901 406.53708,940.26782 364.01881,916.38803 175.14279,802.74748 150.58139,606.0682 a 375.15602,375.15602 0 0 1 15.65352,-160.20156 c 7.59175,-22.25804 23.33928,-66.96216 63.08415,-111.17266 48.65271,-54.15261 104.16857,-75.14146 136.72124,-87.01085 a 394.49553,394.49553 0 0 1 153.29135,-22.77522 c 29.5207,0.96365 81.62848,3.126 140.8579,29.00361 38.64013,16.87561 62.66097,36.12524 98.0575,64.89381 56.07992,45.62077 63.46018,64.61177 161.5647,158.81475 26.93527,25.8541 49.07579,46.23184 82.87415,66.30405 23.4333,13.91421 42.3772,21.69394 77.3274,35.8902 85.9061,34.90304 110.3654,41.97005 138.4759,61.61918 54.6697,38.24056 51.1286,79.94381 53.479,88.92224 a 176.57633,176.57633 0 0 1 4.1602,70.4407 c -7.1686,47.17199 -32.5763,78.0089 -48.3472,96.67085 a 265.8234,265.8234 0 0 1 -77.3272,62.14389 494.15676,494.15676 0 0 1 -63.3662,27.94593 z"
     class="colorffe3cb svgShape"
     id="path1"
     style="stroke-width:2.54074" />
  <path
     fill="#8526fe"
     d="M 398.96736,954.21559 C 342.54992,922.52079 156.54461,803.68888 131.77482,605.223 a 393.44574,393.44574 0 0 1 16.35854,-167.39139 c 7.04411,-20.65843 23.5391,-69.03681 65.92784,-116.20432 51.91157,-57.76473 111.08811,-79.34865 142.88215,-90.94329 a 411.58455,411.58455 0 0 1 160.11157,-23.80458 c 27.26833,0.8858 84.00335,2.72931 147.1622,30.30534 l -0.94287,2.15365 C 600.53227,211.94355 546.17919,210.17692 516.98047,209.22663 a 409.31957,409.31957 0 0 0 -159.2332,23.66564 c -31.59805,11.52517 -90.41727,32.97759 -141.9393,90.30822 -42.06619,46.80775 -58.45202,94.86853 -65.45147,115.39044 a 390.97626,390.97626 0 0 0 -16.24935,166.33938 c 24.6358,197.37417 209.83722,315.67758 266.01148,347.23591 z"
     class="colorffe3cb svgShape"
     id="path2"
     style="stroke-width:2.54074" />
  <path
     fill="#9d7436"
     d="m 1156.3746,986.30682 1.9899,-1.19596 c -0.5607,-0.93045 -56.0006,-93.32271 -64.6302,-116.33829 l -2.1735,0.81383 c 8.7065,23.21655 62.5286,112.91176 64.8138,116.72042 z"
     class="color8b9d36 svgShape"
     id="path3"
     style="stroke-width:2.54074" />
  <path
     fill="#9d7436"
     d="m 1111.4369,820.32478 a 99.658008,99.658008 0 0 0 -5.3589,17.96154 167.91867,167.91867 0 0 0 -2.7389,18.21087 164.57487,164.57487 0 0 0 -0.7544,18.39946 98.310754,98.310754 0 0 0 1.8916,18.65106 98.400797,98.400797 0 0 0 5.3713,-17.96051 164.84432,164.84432 0 0 0 2.7265,-18.21206 167.91465,167.91465 0 0 0 0.7419,-18.40061 99.568321,99.568321 0 0 0 -1.8791,-18.64975 z m 20.4612,27.97668 a 95.057634,95.057634 0 0 0 -6.9536,16.93515 159.64549,159.64549 0 0 0 -4.3689,17.43156 157.21111,157.21111 0 0 0 -2.4115,17.8075 94.018648,94.018648 0 0 0 0.1993,18.30861 93.933177,93.933177 0 0 0 6.9663,-16.93275 157.21042,157.21042 0 0 0 4.3564,-17.43412 159.9092,159.9092 0 0 0 2.3991,-17.80974 95.149076,95.149076 0 0 0 -0.1871,-18.30621 z m 11.2739,32.56982 a 80.655654,80.655654 0 0 0 -5.9195,15.74113 133.98725,133.98725 0 0 0 -3.3121,16.11323 131.74522,131.74522 0 0 0 -1.34,16.39471 79.636535,79.636535 0 0 0 1.2913,16.77033 79.642887,79.642887 0 0 0 5.932,-15.73942 131.52987,131.52987 0 0 0 3.2996,-16.11493 134.00024,134.00024 0 0 0 1.3276,-16.39654 80.578415,80.578415 0 0 0 -1.2789,-16.76851 z m 14.1974,32.50964 a 61.747967,61.747967 0 0 0 -6.0023,13.39585 100.62796,100.62796 0 0 0 -3.407,13.84386 98.762853,98.762853 0 0 0 -1.4443,14.18282 61.030131,61.030131 0 0 0 1.1747,14.63504 60.984702,60.984702 0 0 0 6.0146,-13.39374 98.921091,98.921091 0 0 0 3.3959,-13.84599 100.78529,100.78529 0 0 0 1.4318,-14.18498 61.745833,61.745833 0 0 0 -1.1634,-14.63286 z m 12.5266,20.31969 a 55.59187,55.59187 0 0 0 -6.3363,11.76207 95.855226,95.855226 0 0 0 -3.9838,12.20157 109.52278,109.52278 0 0 0 -2.4059,12.51275 c -0.2605,2.12383 -0.4995,4.23578 -0.658,6.38848 a 47.543884,47.543884 0 0 1 -0.7,6.54143 12.841964,12.841964 0 0 0 1.5405,-0.97245 l 1.2504,-1.25307 a 23.122731,23.122731 0 0 0 2.1874,-2.73578 43.821566,43.821566 0 0 0 3.3629,-5.85298 65.177286,65.177286 0 0 0 4.4131,-12.34174 73.054026,73.054026 0 0 0 2.0774,-12.8506 48.377349,48.377349 0 0 0 -0.7477,-13.39968 z m -70.6255,-50.15768 a 79.914289,79.914289 0 0 0 -14.1136,-12.23851 130.78532,130.78532 0 0 0 -15.5996,-9.30226 128.49109,128.49109 0 0 0 -16.7257,-7.07986 78.999724,78.999724 0 0 0 -18.2253,-4.11557 78.979041,78.979041 0 0 0 14.1056,12.25253 128.50498,128.50498 0 0 0 15.6077,9.28823 130.73228,130.73228 0 0 0 16.7323,7.06581 79.908115,79.908115 0 0 0 18.2186,4.12963 z m 13.8631,25.89402 a 98.444142,98.444142 0 0 0 -17.4074,-11.39549 163.90492,163.90492 0 0 0 -18.5653,-8.31451 160.97077,160.97077 0 0 0 -19.4407,-5.98297 97.321057,97.321057 0 0 0 -20.6085,-2.8727 97.343771,97.343771 0 0 0 17.4007,11.41021 160.99828,160.99828 0 0 0 18.5708,8.2998 163.87088,163.87088 0 0 0 19.4463,5.9682 98.444422,98.444422 0 0 0 20.6041,2.88746 z m 16.319,28.78229 a 83.953591,83.953591 0 0 0 -15.6914,-11.00204 137.96024,137.96024 0 0 0 -16.8888,-7.93604 135.51741,135.51741 0 0 0 -17.7936,-5.6157 82.980562,82.980562 0 0 0 -19.0013,-2.52042 83.008942,83.008942 0 0 0 15.6858,11.01667 135.53782,135.53782 0 0 0 16.8944,7.92146 137.98178,137.98178 0 0 0 17.7994,5.60112 83.948331,83.948331 0 0 0 18.9955,2.53495 z m 12.8971,22.15359 a 62.936146,62.936146 0 0 0 -13.7818,-9.0777 100.51345,100.51345 0 0 0 -14.7647,-5.93665 98.707922,98.707922 0 0 0 -15.5103,-3.55984 62.268565,62.268565 0 0 0 -16.5025,-0.38893 62.264577,62.264577 0 0 0 13.7772,9.09253 98.70284,98.70284 0 0 0 14.7705,5.92181 100.46017,100.46017 0 0 0 15.5136,3.54467 62.967702,62.967702 0 0 0 16.498,0.40411 z"
     class="color8b9d36 svgShape"
     id="path4"
     style="stroke-width:2.54074" />
  <path
     fill="#9d7436"
     d="m 1152.5304,980.25106 a 82.778192,82.778192 0 0 0 -15.1488,-11.51034 135.85325,135.85325 0 0 0 -16.456,-8.48995 133.49176,133.49176 0 0 0 -17.4461,-6.20449 81.849194,81.849194 0 0 0 -18.7655,-3.15518 81.815885,81.815885 0 0 0 15.1421,11.52482 133.43466,133.43466 0 0 0 16.4628,8.47592 135.82776,135.82776 0 0 0 17.4516,6.18969 82.776159,82.776159 0 0 0 18.7599,3.16953 z m -57.7647,-107.73098 a 58.263311,58.263311 0 0 0 -0.4519,-18.60434 87.66384,87.66384 0 0 0 -4.7404,-16.92497 86.224813,86.224813 0 0 0 -7.989,-15.65291 57.682521,57.682521 0 0 0 -12.3205,-13.95756 57.64657,57.64657 0 0 0 0.4304,18.61228 86.30167,86.30167 0 0 0 4.7608,16.91703 87.6723,87.6723 0 0 0 8.0106,15.64486 58.272939,58.272939 0 0 0 12.3,13.96561 z"
     class="color8b9d36 svgShape"
     id="path5"
     style="stroke-width:2.54074" />
  <path
     fill="#66481a"
     d="m 1162.3543,987.55733 2.3174,-0.0396 c -0.1017,-6.33697 -2.8532,-155.78435 -32.7493,-203.11814 l -1.9601,1.24062 c 29.5485,46.78542 32.3671,200.37144 32.392,201.9172 z"
     class="color50661a svgShape"
     id="path6"
     style="stroke-width:2.54074" />
  <path
     fill="#66481a"
     d="m 1140.5474,805.74823 a 106.30874,106.30874 0 0 1 -0.6955,-20.92004 188.07686,188.07686 0 0 1 2.2609,-20.2935 c 1.0829,-6.6922 2.5565,-13.31785 4.2896,-19.88842 1.7308,-6.61389 3.9168,-12.97731 6.2526,-19.7553 a 28.985982,28.985982 0 0 1 1.4963,5.20111 46.3523,46.3523 0 0 1 0.8178,5.28509 89.565333,89.565333 0 0 1 0.4712,10.49146 134.70997,134.70997 0 0 1 -1.8883,20.56166 149.43838,149.43838 0 0 1 -4.7574,20.02038 94.13288,94.13288 0 0 1 -8.2472,19.29756 z m -36.7462,-94.63683 a 75.163759,75.163759 0 0 1 13.0862,16.81395 118.16359,118.16359 0 0 1 8.7707,18.42907 116.11735,116.11735 0 0 1 5.5049,19.65153 74.354276,74.354276 0 0 1 1.1486,21.28192 74.353514,74.353514 0 0 1 -13.1066,-16.8063 116.01181,116.01181 0 0 1 -8.7502,-18.43685 118.16288,118.16288 0 0 1 -5.4846,-19.65919 75.126409,75.126409 0 0 1 -1.169,-21.27413 z m -24.6365,38.08824 a 173.15313,173.15313 0 0 1 17.2331,15.8789 c 5.326,5.52103 10.4084,11.1657 15.3811,16.84086 l 14.7739,16.95482 c 2.4784,2.77643 4.9829,5.5122 7.6288,8.10355 a 34.833911,34.833911 0 0 0 9.0152,6.81029 15.648445,15.648445 0 0 1 -6.1699,-0.15651 28.88486,28.88486 0 0 1 -5.9443,-1.86969 57.408121,57.408121 0 0 1 -10.5876,-6.07059 103.9118,103.9118 0 0 1 -17.4403,-16.1345 137.67469,137.67469 0 0 1 -13.8587,-18.93268 98.53533,98.53533 0 0 1 -10.0313,-21.4245 z m 0,38.08823 a 142.62561,142.62561 0 0 1 21.423,13.17596 242.70561,242.70561 0 0 1 19.221,15.6218 238.60542,238.60542 0 0 1 17.5547,17.4727 141.01709,141.01709 0 0 1 15.3312,19.94179 140.9633,140.9633 0 0 1 -21.4343,-13.16436 238.41609,238.41609 0 0 1 -19.2107,-15.63337 242.68474,242.68474 0 0 1 -17.5434,-17.48439 142.60398,142.60398 0 0 1 -15.3415,-19.93013 z m 2.5057,29.88431 a 141.02973,141.02973 0 0 1 21.6437,12.51672 239.85074,239.85074 0 0 1 19.5076,15.01905 235.72519,235.72519 0 0 1 17.8889,16.91262 139.44368,139.44368 0 0 1 15.7299,19.4386 139.37592,139.37592 0 0 1 -21.6552,-12.5047 235.56825,235.56825 0 0 1 -19.4962,-15.03105 239.84505,239.84505 0 0 1 -17.8787,-16.92453 140.95987,140.95987 0 0 1 -15.74,-19.42671 z m 1.6696,31.94356 a 131.11738,131.11738 0 0 1 21.6802,10.51736 222.03685,222.03685 0 0 1 19.7114,13.1543 218.33967,218.33967 0 0 1 18.2208,15.15031 129.56448,129.56448 0 0 1 16.2328,17.81257 129.68191,129.68191 0 0 1 -21.6892,-10.50476 218.32767,218.32767 0 0 1 -19.7022,-13.16705 222.18157,222.18157 0 0 1 -18.2107,-15.16288 131.11209,131.11209 0 0 1 -16.2431,-17.79985 z m -1.6696,23.17469 a 145.87715,145.87715 0 0 1 22.6836,11.51739 248.48771,248.48771 0 0 1 20.6936,14.13863 244.11412,244.11412 0 0 1 19.1881,16.12258 144.16411,144.16411 0 0 1 17.1776,18.76861 144.17579,144.17579 0 0 1 -22.6928,-11.5048 244.12354,244.12354 0 0 1 -20.6845,-14.15123 248.44523,248.44523 0 0 1 -19.1778,-16.13505 145.86391,145.86391 0 0 1 -17.1878,-18.75613 z m -5.8459,21.7132 a 190.16769,190.16769 0 0 1 23.711,13.15956 c 7.528,4.8191 14.8114,9.91363 21.9123,15.23085 7.1213,5.28622 14.0456,10.79743 20.8475,16.49212 6.8722,5.64586 13.3638,11.52619 20.4738,17.34973 a 57.330094,57.330094 0 0 1 -13.2766,-3.87443 129.83249,129.83249 0 0 1 -12.3283,-5.93518 202.3456,202.3456 0 0 1 -22.6566,-14.74338 233.60936,233.60936 0 0 1 -20.5824,-17.36897 147.96897,147.96897 0 0 1 -18.1007,-20.3103 z m -7.0988,22.54845 a 195.57213,195.57213 0 0 1 25.7476,12.23569 c 8.2224,4.58052 16.2023,9.49878 23.9988,14.67582 q 11.6963,7.76324 22.8285,16.32619 5.5644,4.29353 11.0224,8.74141 a 98.223961,98.223961 0 0 0 11.1889,8.56754 21.613148,21.613148 0 0 1 -7.2335,-1.24243 c -2.331,-0.69036 -4.5943,-1.53028 -6.8325,-2.40387 -4.464,-1.77215 -8.7774,-3.79912 -13.008,-5.94702 a 246.87009,246.87009 0 0 1 -24.3884,-14.38739 278.79213,278.79213 0 0 1 -22.7006,-16.82347 172.54724,172.54724 0 0 1 -20.6232,-19.74247 z m 79.019,-84.27607 a 115.40917,115.40917 0 0 1 3.3279,-22.32996 193.92155,193.92155 0 0 1 6.4179,-21.19952 190.87775,190.87775 0 0 1 8.7581,-20.34404 114.16665,114.16665 0 0 1 11.8776,-19.20295 114.17852,114.17852 0 0 1 -3.312,22.33536 190.88242,190.88242 0 0 1 -6.4338,21.19413 194.18656,194.18656 0 0 1 -8.7728,20.33865 115.41144,115.41144 0 0 1 -11.8629,19.20833 z m 4.95,26.07402 a 117.92987,117.92987 0 0 1 6.4089,-21.91243 198.58556,198.58556 0 0 1 9.32,-20.37817 195.27963,195.27963 0 0 1 11.5241,-19.21715 116.6702,116.6702 0 0 1 14.4637,-17.66833 116.67417,116.67417 0 0 1 -6.3942,21.91976 195.51537,195.51537 0 0 1 -9.3348,20.37082 198.82522,198.82522 0 0 1 -11.5377,19.20979 118.07896,118.07896 0 0 1 -14.45,17.67571 z m 3.7458,25.21454 a 129.17694,129.17694 0 0 1 9.3811,-21.9985 218.90409,218.90409 0 0 1 12.1076,-20.15588 215.06103,215.06103 0 0 1 14.1724,-18.76108 127.72808,127.72808 0 0 1 16.925,-16.90088 127.71599,127.71599 0 0 1 -9.3686,22.00742 214.79657,214.79657 0 0 1 -12.1211,20.14696 218.65969,218.65969 0 0 1 -14.1851,18.75245 129.1789,129.1789 0 0 1 -16.9113,16.90951 z m 2.7445,27.81839 a 166.56823,166.56823 0 0 1 13.4306,-23.61035 q 7.4878,-11.17456 15.9792,-21.5273 8.463,-10.376 17.907,-19.95087 a 163.98293,163.98293 0 0 1 20.4794,-17.84812 163.96806,163.96806 0 0 1 -13.4181,23.62026 q -7.4878,11.17394 -15.9905,21.51742 -8.4836,10.3609 -17.9194,19.94093 a 166.3654,166.3654 0 0 1 -20.4682,17.85803 z m 2.2282,28.84647 a 168.21016,168.21016 0 0 1 15.9043,-22.19321 q 8.655,-10.38979 18.2242,-19.85754 9.542,-9.49417 19.9776,-18.08997 a 165.67377,165.67377 0 0 1 22.3189,-15.73194 165.67498,165.67498 0 0 1 -15.893,22.20426 q -8.6551,10.38872 -18.2345,19.84649 -9.5606,9.47697 -19.9888,18.07877 a 168.15094,168.15094 0 0 1 -22.3087,15.74314 z m 1.3558,18.49644 a 146.59786,146.59786 0 0 1 17.2796,-18.76165 249.75963,249.75963 0 0 1 19.2639,-16.13627 245.35545,245.35545 0 0 1 20.7659,-14.14952 144.9152,144.9152 0 0 1 22.7709,-11.49913 144.9571,144.9571 0 0 1 -17.2704,18.77409 245.53374,245.53374 0 0 1 -19.2731,16.12387 249.94129,249.94129 0 0 1 -20.7761,14.13693 146.62578,146.62578 0 0 1 -22.7607,11.51168 z m 0.743,15.44998 a 155.18636,155.18636 0 0 1 20.1872,-16.78478 q 10.5886,-7.52727 21.8217,-13.92781 11.2155,-6.43202 23.0585,-11.76589 a 153.36442,153.36442 0 0 1 24.709,-8.88185 153.38904,153.38904 0 0 1 -20.1804,16.79824 q -10.5886,7.52642 -21.8285,13.9142 -11.2275,6.41145 -23.0664,11.75245 a 155.20958,155.20958 0 0 1 -24.7011,8.89544 z m -0.5765,10.02129 a 167.59909,167.59909 0 0 1 23.6181,-13.60386 c 8.1034,-3.91211 16.3654,-7.39773 24.7621,-10.51807 q 12.5934,-4.68476 25.6275,-8.1827 a 165.15499,165.15499 0 0 1 26.7841,-5.06718 165.15916,165.15916 0 0 1 -23.6124,13.61859 q -12.1569,5.86688 -24.7679,10.50343 c -8.4012,3.10816 -16.9386,5.85134 -25.6332,8.16797 a 167.57617,167.57617 0 0 1 -26.7783,5.08182 z"
     class="color50661a svgShape"
     id="path7"
     style="stroke-width:2.54074" />
  <path
     fill="#7c5924"
     d="m 1166.994,983.39876 c 2.2852,-3.80858 56.1073,-93.5014 64.8138,-116.72042 l -2.1735,-0.81383 c -8.6296,23.01805 -64.0694,115.40784 -64.6302,116.33829 z"
     class="color5e7c24 svgShape"
     id="path8"
     style="stroke-width:2.54074" />
  <path
     fill="#7c5924"
     d="m 1212.049,817.78404 a 99.658008,99.658008 0 0 1 5.3589,17.96154 167.91867,167.91867 0 0 1 2.7389,18.21086 164.57487,164.57487 0 0 1 0.7544,18.39946 98.310754,98.310754 0 0 1 -1.8916,18.65107 98.400797,98.400797 0 0 1 -5.3713,-17.96052 164.83822,164.83822 0 0 1 -2.7264,-18.21205 167.91465,167.91465 0 0 1 -0.7419,-18.40061 99.568321,99.568321 0 0 1 1.879,-18.64975 z m -20.4613,27.97667 a 95.057634,95.057634 0 0 1 6.9536,16.93516 159.63967,159.63967 0 0 1 4.3689,17.43156 157.21111,157.21111 0 0 1 2.4115,17.80749 94.018648,94.018648 0 0 1 -0.1993,18.30861 93.931322,93.931322 0 0 1 -6.9662,-16.93274 157.20491,157.20491 0 0 1 -4.3565,-17.43414 159.9092,159.9092 0 0 1 -2.3991,-17.80972 95.149076,95.149076 0 0 1 0.1871,-18.30622 z m -11.2739,32.56983 a 80.655654,80.655654 0 0 1 5.9195,15.74113 133.98725,133.98725 0 0 1 3.3121,16.11323 131.74522,131.74522 0 0 1 1.34,16.39471 79.636535,79.636535 0 0 1 -1.2913,16.77033 79.642887,79.642887 0 0 1 -5.932,-15.73943 131.52987,131.52987 0 0 1 -3.2996,-16.11492 133.99518,133.99518 0 0 1 -1.3276,-16.39654 80.580092,80.580092 0 0 1 1.2789,-16.76851 z m -14.1974,32.50964 a 61.746747,61.746747 0 0 1 6.0023,13.39584 100.62428,100.62428 0 0 1 3.407,13.84387 98.762853,98.762853 0 0 1 1.4443,14.1828 61.031375,61.031375 0 0 1 -1.1747,14.63505 60.984829,60.984829 0 0 1 -6.0146,-13.39373 98.921091,98.921091 0 0 1 -3.3959,-13.84599 100.78529,100.78529 0 0 1 -1.4318,-14.18498 61.745833,61.745833 0 0 1 1.1634,-14.63286 z m -12.5266,20.31968 a 55.590726,55.590726 0 0 1 6.3363,11.76207 95.851186,95.851186 0 0 1 3.9838,12.20157 109.52278,109.52278 0 0 1 2.4059,12.51276 c 0.2605,2.12383 0.4995,4.23577 0.658,6.38848 a 47.543884,47.543884 0 0 0 0.7,6.54142 12.841786,12.841786 0 0 1 -1.5404,-0.97244 l -1.2505,-1.25307 a 23.11991,23.11991 0 0 1 -2.1873,-2.73578 43.818975,43.818975 0 0 1 -3.363,-5.85298 65.177286,65.177286 0 0 1 -4.4131,-12.34175 73.054026,73.054026 0 0 1 -2.0774,-12.85059 48.377349,48.377349 0 0 1 0.7477,-13.39969 z m 70.6256,-50.15768 a 79.914289,79.914289 0 0 1 14.1135,-12.23851 130.78532,130.78532 0 0 1 15.5998,-9.30225 128.49109,128.49109 0 0 1 16.7255,-7.07986 78.999724,78.999724 0 0 1 18.2253,-4.11557 78.979041,78.979041 0 0 1 -14.1056,12.25253 128.50498,128.50498 0 0 1 -15.6076,9.28823 130.73228,130.73228 0 0 1 -16.7324,7.06581 79.908115,79.908115 0 0 1 -18.2185,4.12962 z m -13.8632,25.89403 a 98.444142,98.444142 0 0 1 17.4074,-11.3955 163.90492,163.90492 0 0 1 18.5653,-8.31451 160.97077,160.97077 0 0 1 19.4407,-5.98297 97.321057,97.321057 0 0 1 20.6085,-2.87269 97.342857,97.342857 0 0 1 -17.4006,11.4102 160.99793,160.99793 0 0 1 -18.5709,8.2998 163.8727,163.8727 0 0 1 -19.4463,5.96821 98.444422,98.444422 0 0 1 -20.6041,2.88746 z m -16.319,28.78228 a 83.9526,83.9526 0 0 1 15.6914,-11.00203 137.96199,137.96199 0 0 1 16.8888,-7.93604 135.51741,135.51741 0 0 1 17.7936,-5.6157 82.980562,82.980562 0 0 1 19.0013,-2.52042 83.008942,83.008942 0 0 1 -15.6858,11.01667 135.53782,135.53782 0 0 1 -16.8944,7.92145 137.98054,137.98054 0 0 1 -17.7993,5.60112 83.948306,83.948306 0 0 1 -18.9956,2.53495 z m -12.8971,22.1536 a 62.936146,62.936146 0 0 1 13.7818,-9.0777 100.51345,100.51345 0 0 1 14.7647,-5.93666 98.707922,98.707922 0 0 1 15.5103,-3.55983 62.268565,62.268565 0 0 1 16.5025,-0.38894 62.263484,62.263484 0 0 1 -13.7772,9.09253 98.70284,98.70284 0 0 1 -14.7705,5.92182 100.46017,100.46017 0 0 1 -15.5136,3.54467 62.967702,62.967702 0 0 1 -16.498,0.40411 z"
     class="color5e7c24 svgShape"
     id="path9"
     style="stroke-width:2.54074" />
  <path
     fill="#7c5924"
     d="m 1170.9554,977.71032 a 82.778192,82.778192 0 0 1 15.1488,-11.51034 135.85325,135.85325 0 0 1 16.456,-8.48995 133.49176,133.49176 0 0 1 17.4461,-6.20449 81.849422,81.849422 0 0 1 18.7655,-3.15518 81.815885,81.815885 0 0 1 -15.1421,11.52482 133.43466,133.43466 0 0 1 -16.4627,8.47592 135.82776,135.82776 0 0 1 -17.4517,6.18969 82.775676,82.775676 0 0 1 -18.7599,3.16953 z m 57.7648,-107.73098 a 58.264022,58.264022 0 0 1 0.4519,-18.60434 87.66384,87.66384 0 0 1 4.7405,-16.92497 86.224813,86.224813 0 0 1 7.9889,-15.65291 57.681988,57.681988 0 0 1 12.3205,-13.95756 57.647282,57.647282 0 0 1 -0.4304,18.61227 86.30167,86.30167 0 0 1 -4.7608,16.91704 87.670624,87.670624 0 0 1 -8.0106,15.64486 58.272939,58.272939 0 0 1 -12.3,13.96561 z"
     class="color5e7c24 svgShape"
     id="path10"
     style="stroke-width:2.54074" />
  <path
     fill="#9d7436"
     d="m 245.81428,986.30682 -1.9899,-1.19596 c 0.56074,-0.93045 56.00054,-93.32271 64.63018,-116.33829 l 2.17353,0.81383 c -8.70652,23.21655 -62.52861,112.91176 -64.81381,116.72042 z"
     class="color8b9d36 svgShape"
     id="path11"
     style="stroke-width:2.54074" />
  <path
     fill="#9d7436"
     d="m 290.75202,820.32478 a 99.658008,99.658008 0 0 1 5.35884,17.96154 167.91867,167.91867 0 0 1 2.73892,18.21087 164.57487,164.57487 0 0 1 0.7544,18.39946 98.310754,98.310754 0 0 1 -1.89164,18.65106 98.400797,98.400797 0 0 1 -5.37131,-17.96051 164.83822,164.83822 0 0 1 -2.72642,-18.21206 167.91465,167.91465 0 0 1 -0.7419,-18.40061 99.568321,99.568321 0 0 1 1.87911,-18.64975 z m -20.4613,27.97668 a 95.057634,95.057634 0 0 1 6.95372,16.93515 159.63967,159.63967 0 0 1 4.36886,17.43156 157.21111,157.21111 0 0 1 2.41154,17.8075 94.018648,94.018648 0 0 1 -0.19944,18.30861 93.931322,93.931322 0 0 1 -6.96617,-16.93275 157.20491,157.20491 0 0 1 -4.35641,-17.43412 159.9092,159.9092 0 0 1 -2.39909,-17.80974 95.149076,95.149076 0 0 1 0.18699,-18.30621 z m -11.27387,32.56982 a 80.655654,80.655654 0 0 1 5.91956,15.74113 133.98725,133.98725 0 0 1 3.31203,16.11323 131.74522,131.74522 0 0 1 1.34002,16.39471 79.636535,79.636535 0 0 1 -1.29131,16.77033 79.642887,79.642887 0 0 1 -5.932,-15.73942 131.52987,131.52987 0 0 1 -3.29959,-16.11493 133.99518,133.99518 0 0 1 -1.32751,-16.39654 80.580092,80.580092 0 0 1 1.2788,-16.76851 z m -14.19737,32.50964 a 61.746747,61.746747 0 0 1 6.00223,13.39585 100.62428,100.62428 0 0 1 3.40714,13.84386 98.762853,98.762853 0 0 1 1.44421,14.18282 61.031375,61.031375 0 0 1 -1.17462,14.63504 60.984829,60.984829 0 0 1 -6.0147,-13.39374 98.921091,98.921091 0 0 1 -3.39586,-13.84599 100.78529,100.78529 0 0 1 -1.43176,-14.18498 61.745833,61.745833 0 0 1 1.16336,-14.63286 z m -12.52666,20.31969 a 55.59187,55.59187 0 0 1 6.33639,11.76207 95.851186,95.851186 0 0 1 3.98374,12.20157 109.52278,109.52278 0 0 1 2.40587,12.51275 c 0.26054,2.12383 0.49954,4.23578 0.65806,6.38848 a 47.543884,47.543884 0 0 0 0.70002,6.54143 12.843971,12.843971 0 0 1 -1.5405,-0.97245 l -1.2505,-1.25307 a 23.11991,23.11991 0 0 1 -2.18725,-2.73578 43.818975,43.818975 0 0 1 -3.36304,-5.85298 65.177286,65.177286 0 0 1 -4.41304,-12.34174 73.054026,73.054026 0 0 1 -2.07739,-12.8506 48.377349,48.377349 0 0 1 0.74764,-13.39968 z m 70.62564,-50.15768 a 79.914289,79.914289 0 0 1 14.11357,-12.23851 130.78532,130.78532 0 0 1 15.59969,-9.30226 128.49109,128.49109 0 0 1 16.72572,-7.07986 78.999724,78.999724 0 0 1 18.22533,-4.11557 78.979041,78.979041 0 0 1 -14.10566,12.25253 128.50498,128.50498 0 0 1 -15.60762,9.28823 130.73228,130.73228 0 0 1 -16.7324,7.06581 79.908115,79.908115 0 0 1 -18.21863,4.12963 z m -13.86325,25.89402 a 98.444142,98.444142 0 0 1 17.40751,-11.39549 163.90492,163.90492 0 0 1 18.56522,-8.31451 160.97077,160.97077 0 0 1 19.4407,-5.98297 97.321057,97.321057 0 0 1 20.60854,-2.8727 97.342857,97.342857 0 0 1 -17.40069,11.41021 160.99793,160.99793 0 0 1 -18.57078,8.2998 163.8727,163.8727 0 0 1 -19.44638,5.9682 98.444422,98.444422 0 0 1 -20.60412,2.88746 z m -16.31894,28.78229 a 83.9526,83.9526 0 0 1 15.69143,-11.00204 137.96199,137.96199 0 0 1 16.88871,-7.93604 135.51741,135.51741 0 0 1 17.79375,-5.6157 82.980562,82.980562 0 0 1 19.00121,-2.52042 83.008942,83.008942 0 0 1 -15.68577,11.01667 135.53782,135.53782 0 0 1 -16.89438,7.92146 137.98054,137.98054 0 0 1 -17.79941,5.60112 83.948306,83.948306 0 0 1 -18.99554,2.53495 z m -12.89706,22.15359 a 62.936146,62.936146 0 0 1 13.78169,-9.0777 100.51345,100.51345 0 0 1 14.76488,-5.93665 98.707922,98.707922 0 0 1 15.5102,-3.55984 62.268565,62.268565 0 0 1 16.50246,-0.38893 62.263484,62.263484 0 0 1 -13.77715,9.09253 98.70284,98.70284 0 0 1 -14.77055,5.92181 100.46017,100.46017 0 0 1 -15.5136,3.54467 62.967702,62.967702 0 0 1 -16.49793,0.40411 z"
     class="color8b9d36 svgShape"
     id="path12"
     style="stroke-width:2.54074" />
  <path
     fill="#9d7436"
     d="m 249.65841,980.25106 a 82.778192,82.778192 0 0 1 15.14888,-11.51034 135.85325,135.85325 0 0 1 16.45602,-8.48995 133.49176,133.49176 0 0 1 17.446,-6.20449 81.849422,81.849422 0 0 1 18.7656,-3.15518 81.815885,81.815885 0 0 1 -15.14207,11.52482 133.43466,133.43466 0 0 1 -16.4628,8.47592 135.82776,135.82776 0 0 1 -17.45167,6.18969 82.775676,82.775676 0 0 1 -18.75996,3.16953 z m 57.76484,-107.73098 a 58.263311,58.263311 0 0 1 0.45195,-18.60434 87.66384,87.66384 0 0 1 4.74038,-16.92497 86.224813,86.224813 0 0 1 7.98903,-15.65291 57.681988,57.681988 0 0 1 12.32049,-13.95756 57.647282,57.647282 0 0 1 -0.43045,18.61228 86.30167,86.30167 0 0 1 -4.76077,16.91703 87.670624,87.670624 0 0 1 -8.01053,15.64486 58.272939,58.272939 0 0 1 -12.3001,13.96561 z"
     class="color8b9d36 svgShape"
     id="path13"
     style="stroke-width:2.54074" />
  <path
     fill="#66481a"
     d="m 239.83462,987.55733 -2.31744,-0.0396 c 0.10164,-6.33697 2.85325,-155.78435 32.7493,-203.11814 l 1.96014,1.24062 c -29.54855,46.78542 -32.3672,200.37144 -32.392,201.9172 z"
     class="color50661a svgShape"
     id="path14"
     style="stroke-width:2.54074" />
  <path
     fill="#66481a"
     d="m 261.64144,805.74823 a 106.31064,106.31064 0 0 0 0.69549,-20.92004 188.07045,188.07045 0 0 0 -2.26091,-20.2935 c -1.08287,-6.6922 -2.55652,-13.31785 -4.28956,-19.88842 -1.73079,-6.61389 -3.91692,-12.97731 -6.25258,-19.7553 a 28.985982,28.985982 0 0 0 -1.49629,5.20111 46.346533,46.346533 0 0 0 -0.81782,5.28509 89.554281,89.554281 0 0 0 -0.4712,10.49146 134.70674,134.70674 0 0 0 1.8882,20.56166 149.43838,149.43838 0 0 0 4.75739,20.02038 94.131609,94.131609 0 0 0 8.24728,19.29756 z M 298.3877,711.1114 a 75.165232,75.165232 0 0 0 -13.08621,16.81395 118.16359,118.16359 0 0 0 -8.77065,18.42907 116.11735,116.11735 0 0 0 -5.50498,19.65153 74.354276,74.354276 0 0 0 -1.14857,21.28192 74.352803,74.352803 0 0 0 13.10658,-16.8063 116.01181,116.01181 0 0 0 8.75033,-18.43685 118.16288,118.16288 0 0 0 5.48457,-19.65919 75.126409,75.126409 0 0 0 1.16893,-21.27413 z m 24.63645,38.08824 a 173.15001,173.15001 0 0 0 -17.23305,15.8789 c -5.32601,5.52103 -10.40849,11.1657 -15.38108,16.84086 l -14.77395,16.95482 c -2.47837,2.77643 -4.98278,5.5122 -7.62882,8.10355 a 34.833785,34.833785 0 0 1 -9.01522,6.81029 15.648445,15.648445 0 0 0 6.16987,-0.15651 28.88486,28.88486 0 0 0 5.94445,-1.86969 57.408121,57.408121 0 0 0 10.58747,-6.07059 103.9118,103.9118 0 0 0 17.44032,-16.1345 137.67469,137.67469 0 0 0 13.85872,-18.93268 98.534135,98.534135 0 0 0 10.03129,-21.4245 z m 0,38.08823 a 142.62561,142.62561 0 0 0 -21.42297,13.17596 242.71023,242.71023 0 0 0 -19.22096,15.6218 238.60542,238.60542 0 0 0 -17.55474,17.4727 141.01894,141.01894 0 0 0 -15.33124,19.94179 140.96081,140.96081 0 0 0 21.43429,-13.16436 238.41165,238.41165 0 0 0 19.21076,-15.63337 242.68474,242.68474 0 0 0 17.54341,-17.48439 142.60398,142.60398 0 0 0 15.34145,-19.93013 z m -2.50555,29.88431 a 141.02877,141.02877 0 0 0 -21.64384,12.51672 239.85034,239.85034 0 0 0 -19.50753,15.01905 235.72062,235.72062 0 0 0 -17.8889,16.91262 139.44538,139.44538 0 0 0 -15.72996,19.4386 139.37592,139.37592 0 0 0 21.65515,-12.5047 235.56825,235.56825 0 0 0 19.49623,-15.03105 239.84505,239.84505 0 0 0 17.87869,-16.92453 140.9619,140.9619 0 0 0 15.74016,-19.42671 z m -1.66963,31.94356 a 131.11835,131.11835 0 0 0 -21.68017,10.51736 222.03685,222.03685 0 0 0 -19.71143,13.1543 218.33967,218.33967 0 0 0 -18.2208,15.15031 129.56448,129.56448 0 0 0 -16.23281,17.81257 129.68191,129.68191 0 0 0 21.68914,-10.50476 218.32767,218.32767 0 0 0 19.70236,-13.16705 222.18619,222.18619 0 0 0 18.21061,-15.16288 131.11357,131.11357 0 0 0 16.2431,-17.79985 z m 1.66963,23.17469 a 145.87743,145.87743 0 0 0 -22.68377,11.51739 248.48771,248.48771 0 0 0 -20.6935,14.13863 244.11877,244.11877 0 0 0 -19.18811,16.12258 144.16215,144.16215 0 0 0 -17.17754,18.76861 144.17662,144.17662 0 0 0 22.69272,-11.5048 244.12354,244.12354 0 0 0 20.68442,-14.15123 248.44523,248.44523 0 0 0 19.17792,-16.13505 145.86414,145.86414 0 0 0 17.18786,-18.75613 z m 5.84589,21.7132 a 190.16769,190.16769 0 0 0 -23.71101,13.15956 c -7.52799,4.8191 -14.81132,9.91363 -21.91229,15.23085 -7.12136,5.28622 -14.0456,10.79743 -20.84752,16.49212 -6.87216,5.64586 -13.36373,11.52619 -20.47376,17.34973 a 57.330094,57.330094 0 0 0 13.27652,-3.87443 129.83249,129.83249 0 0 0 12.3284,-5.93518 202.3456,202.3456 0 0 0 22.65648,-14.74338 233.60936,233.60936 0 0 0 20.58257,-17.36897 147.96897,147.96897 0 0 0 18.10061,-20.3103 z m 7.09872,22.54845 a 195.57213,195.57213 0 0 0 -25.74765,12.23569 c -8.22234,4.58052 -16.20233,9.49878 -23.99873,14.67582 q -11.69637,7.76324 -22.82859,16.32619 -5.56446,4.29353 -11.02241,8.74141 a 98.223961,98.223961 0 0 1 -11.18893,8.56754 21.613021,21.613021 0 0 0 7.2335,-1.24243 c 2.3311,-0.69036 4.59428,-1.53028 6.83251,-2.40387 4.46409,-1.77215 8.77737,-3.79912 13.00803,-5.94702 a 246.86714,246.86714 0 0 0 24.38841,-14.38739 278.79213,278.79213 0 0 0 22.70064,-16.82347 172.54533,172.54533 0 0 0 20.62322,-19.74247 z M 254.4442,832.27601 a 115.41115,115.41115 0 0 0 -3.32792,-22.32996 193.91597,193.91597 0 0 0 -6.41792,-21.19952 190.87775,190.87775 0 0 0 -8.75809,-20.34404 114.16814,114.16814 0 0 0 -11.8776,-19.20295 114.17852,114.17852 0 0 0 3.31204,22.33536 190.88242,190.88242 0 0 0 6.4338,21.19413 194.19195,194.19195 0 0 0 8.77282,20.33865 115.40991,115.40991 0 0 0 11.86287,19.20833 z m -4.94996,26.07402 a 117.92987,117.92987 0 0 0 -6.40887,-21.91243 198.59081,198.59081 0 0 0 -9.31994,-20.37817 195.28482,195.28482 0 0 0 -11.5242,-19.21715 116.67155,116.67155 0 0 0 -14.46357,-17.66833 116.67411,116.67411 0 0 0 6.39414,21.91976 195.51537,195.51537 0 0 0 9.33469,20.37082 198.83035,198.83035 0 0 0 11.53778,19.20979 118.07896,118.07896 0 0 0 14.44997,17.67571 z m -3.74587,25.21454 a 129.17287,129.17287 0 0 0 -9.3811,-21.9985 218.90409,218.90409 0 0 0 -12.10754,-20.15588 215.06103,215.06103 0 0 0 -14.17248,-18.76108 127.72808,127.72808 0 0 0 -16.92497,-16.90088 127.71606,127.71606 0 0 0 9.36867,22.00742 214.79634,214.79634 0 0 0 12.12113,20.14696 218.65969,218.65969 0 0 0 14.18498,18.75245 129.1789,129.1789 0 0 0 16.91131,16.90951 z m -2.74455,27.81839 a 166.56575,166.56575 0 0 0 -13.43056,-23.61035 q -7.48778,-11.17456 -15.97915,-21.5273 -8.46304,-10.376 -17.90702,-19.95087 a 163.98448,163.98448 0 0 0 -20.47938,-17.84812 163.96555,163.96555 0 0 0 13.41808,23.62026 q 7.48777,11.17394 15.99047,21.51742 8.48355,10.3609 17.91947,19.94093 a 166.3654,166.3654 0 0 0 20.46809,17.85803 z m -2.22803,28.84647 a 168.21032,168.21032 0 0 0 -15.9044,-22.19321 q -8.65506,-10.38979 -18.22418,-19.85754 -9.54197,-9.49417 -19.97763,-18.08997 a 165.67213,165.67213 0 0 0 -22.31891,-15.73194 165.67498,165.67498 0 0 0 15.89304,22.20426 q 8.65505,10.38872 18.23439,19.84649 9.56065,9.47697 19.98893,18.07877 a 168.14954,168.14954 0 0 0 22.30876,15.74314 z m -1.35588,18.49644 a 146.59786,146.59786 0 0 0 -17.27959,-18.76165 249.75963,249.75963 0 0 0 -19.26394,-16.13627 245.35545,245.35545 0 0 0 -20.76598,-14.14952 144.91492,144.91492 0 0 0 -22.77087,-11.49913 144.95506,144.95506 0 0 0 17.27043,18.77409 245.53374,245.53374 0 0 0 19.27308,16.12387 249.94553,249.94553 0 0 0 20.77618,14.13693 146.62578,146.62578 0 0 0 22.76069,11.51168 z m -0.74306,15.44998 a 155.18636,155.18636 0 0 0 -20.18716,-16.78478 q -10.58858,-7.52727 -21.82166,-13.92781 -11.21556,-6.43202 -23.05858,-11.76589 a 153.36566,153.36566 0 0 0 -24.70897,-8.88185 153.38904,153.38904 0 0 0 20.18038,16.79824 q 10.58858,7.52642 21.82847,13.9142 11.22754,6.41145 23.0665,11.75245 a 155.20958,155.20958 0 0 0 24.70102,8.89544 z m 0.57657,10.02129 a 167.59934,167.59934 0 0 0 -23.61815,-13.60386 c -8.10342,-3.91211 -16.36542,-7.39773 -24.7621,-10.51807 q -12.59345,-4.68476 -25.62757,-8.1827 a 165.15499,165.15499 0 0 0 -26.78407,-5.06718 165.15916,165.15916 0 0 0 23.61248,13.61859 q 12.15681,5.86688 24.76787,10.50343 c 8.4013,3.10816 16.93853,5.85134 25.63321,8.16797 a 167.57595,167.57595 0 0 0 26.77833,5.08182 z"
     class="color50661a svgShape"
     id="path15"
     style="stroke-width:2.54074" />
  <path
     fill="#7c5924"
     d="m 235.19476,983.39876 c -2.28517,-3.80858 -56.10727,-93.5014 -64.81379,-116.72042 l 2.17353,-0.81383 c 8.6296,23.01805 64.06942,115.40784 64.6302,116.33829 z"
     class="color5e7c24 svgShape"
     id="path16"
     style="stroke-width:2.54074" />
  <path
     fill="#7c5924"
     d="m 190.13995,817.78404 a 99.658008,99.658008 0 0 0 -5.35885,17.96154 167.91867,167.91867 0 0 0 -2.73892,18.21086 164.57487,164.57487 0 0 0 -0.75439,18.39946 98.310754,98.310754 0 0 0 1.89162,18.65107 98.400797,98.400797 0 0 0 5.37132,-17.96052 164.84432,164.84432 0 0 0 2.72645,-18.21205 167.91465,167.91465 0 0 0 0.7419,-18.40061 99.568321,99.568321 0 0 0 -1.87913,-18.64975 z m 20.46129,27.97667 a 95.057634,95.057634 0 0 0 -6.95371,16.93516 159.64549,159.64549 0 0 0 -4.36886,17.43156 157.21111,157.21111 0 0 0 -2.41154,17.80749 94.018648,94.018648 0 0 0 0.19944,18.30861 93.933177,93.933177 0 0 0 6.96618,-16.93274 157.21042,157.21042 0 0 0 4.35639,-17.43414 159.9092,159.9092 0 0 0 2.3991,-17.80972 95.149076,95.149076 0 0 0 -0.187,-18.30622 z m 11.27395,32.56983 a 80.655654,80.655654 0 0 0 -5.91956,15.74113 133.98725,133.98725 0 0 0 -3.31204,16.11323 131.74522,131.74522 0 0 0 -1.34001,16.39471 79.636535,79.636535 0 0 0 1.29131,16.77033 79.642887,79.642887 0 0 0 5.932,-15.73943 131.52987,131.52987 0 0 0 3.29959,-16.11492 134.00024,134.00024 0 0 0 1.32753,-16.39654 80.578415,80.578415 0 0 0 -1.27882,-16.76851 z m 14.1973,32.50964 a 61.747967,61.747967 0 0 0 -6.00224,13.39584 100.62796,100.62796 0 0 0 -3.40714,13.84387 98.762853,98.762853 0 0 0 -1.4442,14.1828 61.030131,61.030131 0 0 0 1.17464,14.63505 60.984702,60.984702 0 0 0 6.01467,-13.39373 98.921091,98.921091 0 0 0 3.39586,-13.84599 100.78529,100.78529 0 0 0 1.43176,-14.18498 61.745833,61.745833 0 0 0 -1.16335,-14.63286 z m 12.52666,20.31968 a 55.59187,55.59187 0 0 0 -6.33639,11.76207 95.855226,95.855226 0 0 0 -3.98374,12.20157 109.52278,109.52278 0 0 0 -2.40589,12.51276 c -0.26052,2.12383 -0.49953,4.23577 -0.65804,6.38848 a 47.543884,47.543884 0 0 1 -0.70004,6.54142 12.841964,12.841964 0 0 0 1.54051,-0.97244 l 1.2505,-1.25307 a 23.122731,23.122731 0 0 0 2.18728,-2.73578 43.821566,43.821566 0 0 0 3.36301,-5.85298 65.177286,65.177286 0 0 0 4.41305,-12.34175 73.054026,73.054026 0 0 0 2.07739,-12.85059 48.377349,48.377349 0 0 0 -0.74764,-13.39969 z m -70.62564,-50.15768 a 79.914289,79.914289 0 0 0 -14.11358,-12.23851 130.78532,130.78532 0 0 0 -15.59969,-9.30225 128.49109,128.49109 0 0 0 -16.72572,-7.07986 78.999724,78.999724 0 0 0 -18.22532,-4.11557 78.979041,78.979041 0 0 0 14.10566,12.25253 128.50498,128.50498 0 0 0 15.6076,9.28823 130.73228,130.73228 0 0 0 16.73241,7.06581 79.908115,79.908115 0 0 0 18.21864,4.12962 z m 13.86324,25.89403 a 98.444142,98.444142 0 0 0 -17.4075,-11.3955 163.90492,163.90492 0 0 0 -18.56522,-8.31451 160.97077,160.97077 0 0 0 -19.44071,-5.98297 97.321057,97.321057 0 0 0 -20.60854,-2.87269 97.343771,97.343771 0 0 0 17.40069,11.4102 160.99828,160.99828 0 0 0 18.57081,8.2998 163.87088,163.87088 0 0 0 19.44636,5.96821 98.444422,98.444422 0 0 0 20.60411,2.88746 z m 16.31897,28.78228 a 83.953591,83.953591 0 0 0 -15.69146,-11.00203 137.96024,137.96024 0 0 0 -16.88871,-7.93604 135.51741,135.51741 0 0 0 -17.79374,-5.6157 82.980562,82.980562 0 0 0 -19.00121,-2.52042 83.008942,83.008942 0 0 0 15.68577,11.01667 135.53782,135.53782 0 0 0 16.89437,7.92145 137.98178,137.98178 0 0 0 17.79941,5.60112 83.948331,83.948331 0 0 0 18.99557,2.53495 z m 12.89702,22.1536 a 62.936146,62.936146 0 0 0 -13.78167,-9.0777 100.51345,100.51345 0 0 0 -14.76488,-5.93666 98.707922,98.707922 0 0 0 -15.5102,-3.55983 62.268565,62.268565 0 0 0 -16.50247,-0.38894 62.264577,62.264577 0 0 0 13.77716,9.09253 98.70284,98.70284 0 0 0 14.77054,5.92182 100.46017,100.46017 0 0 0 15.51361,3.54467 62.967702,62.967702 0 0 0 16.49791,0.40411 z"
     class="color5e7c24 svgShape"
     id="path17"
     style="stroke-width:2.54074" />
  <path
     fill="#7c5924"
     d="m 231.23356,977.71032 a 82.778192,82.778192 0 0 0 -15.14888,-11.51034 135.85325,135.85325 0 0 0 -16.45602,-8.48995 133.49176,133.49176 0 0 0 -17.446,-6.20449 81.849194,81.849194 0 0 0 -18.76561,-3.15518 81.815885,81.815885 0 0 0 15.14208,11.52482 133.43466,133.43466 0 0 0 16.4628,8.47592 135.82776,135.82776 0 0 0 17.45167,6.18969 82.776159,82.776159 0 0 0 18.75996,3.16953 z M 173.46872,869.97934 a 58.263311,58.263311 0 0 0 -0.45195,-18.60434 87.66384,87.66384 0 0 0 -4.74039,-16.92497 86.224813,86.224813 0 0 0 -7.98902,-15.65291 57.682521,57.682521 0 0 0 -12.32047,-13.95756 57.64657,57.64657 0 0 0 0.43042,18.61227 86.30167,86.30167 0 0 0 4.76078,16.91704 87.670624,87.670624 0 0 0 8.01053,15.64486 58.272939,58.272939 0 0 0 12.3001,13.96561 z"
     class="color5e7c24 svgShape"
     id="path18"
     style="stroke-width:2.54074" />
  <path
     fill="#f9c67a"
     d="m 524.85518,143.81991 5.21868,-2.76179 a 12.970322,12.970322 0 0 0 4.28193,-3.64526 l 7.27704,-9.63195 a 15.102185,15.102185 0 0 0 1.97762,-14.70248 178.72135,178.72135 0 0 1 -6.38335,-17.458216 c -0.3088,-2.764678 -6.11003,0.7823 -3.54375,9.561886 2.56628,8.77959 -7.61878,13.09464 -7.61878,13.09464 0,0 -27.15548,-5.55496 -30.15068,-16.11442 0,0 -6.17622,18.933 7.79876,39.62823 z"
     class="colorf9977a svgShape"
     id="path19"
     style="stroke-width:2.54074" />
  <path
     fill="#f9c67a"
     d="m 506.33525,119.73469 c 0,0 -0.36906,8.12531 -5.78526,6.86349 a 6.4788984,6.4788984 0 0 1 -4.74919,-5.6543 c -0.99145,-8.28965 -2.51788,-28.876439 7.60417,-23.827726 0,0 5.04591,-11.587852 10.66952,-3.735295 0,0 4.84983,-6.996047 9.5551,-0.639714 0,0 4.07142,-5.643298 8.94922,1.852739 4.8778,7.496026 -0.14101,31.959636 -6.57799,23.937816 l -1.10218,-2.60449 a 5.5462165,5.5462165 0 0 1 -9.24553,2.20814 c 0,0 -3.39497,7.81124 -9.31786,1.59934 z"
     class="colorf9977a svgShape"
     id="path20"
     style="stroke-width:2.54074" />
  <path
     fill="#d8a353"
     d="m 533.73602,97.240114 a 35.794872,35.794872 0 0 1 0.55081,13.596946 20.617811,20.617811 0 0 1 -2.24455,6.63597 6.7998452,6.7998452 0 0 1 -2.67411,2.77396 3.1451367,3.1451367 0 0 1 -2.33697,0.21088 4.0793685,4.0793685 0 0 1 -1.83021,-1.28401 l -0.0591,-0.0683 -0.0856,-0.17491 c -0.41531,-0.84733 -0.79553,-1.70953 -1.18417,-2.56927 l 2.06095,-0.0185 a 9.1934298,9.1934298 0 0 1 -1.75855,2.76654 5.7966577,5.7966577 0 0 1 -6.47282,1.60534 10.218163,10.218163 0 0 1 -2.82298,-1.57432 l 1.93844,-0.49872 a 10.364027,10.364027 0 0 1 -1.92169,2.79383 6.1565541,6.1565541 0 0 1 -3.15421,1.82117 5.3146785,5.3146785 0 0 1 -3.63931,-0.66618 10.184218,10.184218 0 0 1 -2.55998,-2.0991 l 1.88882,-0.70714 a 12.575364,12.575364 0 0 1 -1.36439,4.749 6.135161,6.135161 0 0 1 -1.67048,2.02716 4.1599355,4.1599355 0 0 1 -2.57268,0.86095 5.9072308,5.9072308 0 0 1 -4.3852,-2.15615 6.7973045,6.7973045 0 0 1 -1.63728,-4.32099 7.1933811,7.1933811 0 0 0 2.19957,3.7652 5.2953434,5.2953434 0 0 0 3.76793,1.31504 3.2807108,3.2807108 0 0 0 2.66511,-2.29139 12.288895,12.288895 0 0 0 0.80671,-4.04807 l 0.14051,-2.50228 1.74831,1.79514 a 4.8978185,4.8978185 0 0 0 4.12405,1.88323 3.7417544,3.7417544 0 0 0 1.84967,-1.15625 8.0204189,8.0204189 0 0 0 1.38607,-2.0755 l 0.68347,-1.49244 1.25579,0.99372 a 5.2322059,5.2322059 0 0 0 4.19756,1.41801 4.1205539,4.1205539 0 0 0 1.85283,-1.08553 7.0580103,7.0580103 0 0 0 1.38545,-1.95023 l 1.12832,-2.38441 0.93294,2.36457 c 0.34612,0.87709 0.7006,1.75057 1.01975,2.63874 l -0.14431,-0.24191 c 0.57285,0.70715 1.07155,0.96023 1.79048,0.66248 a 5.1718632,5.1718632 0 0 0 2.02653,-1.96388 19.20935,19.20935 0 0 0 2.39218,-6.01317 39.444803,39.444803 0 0 0 0.72634,-13.335146 z"
     class="colordd765e svgShape"
     id="path21"
     style="stroke-width:2.54074" />
  <path
     fill="#d8a353"
     d="m 503.40492,97.115954 a 51.184796,51.184796 0 0 1 2.5975,11.162886 50.588509,50.588509 0 0 1 0.33283,11.45568 50.599866,50.599866 0 0 1 -2.59749,-11.16288 51.189522,51.189522 0 0 1 -0.33284,-11.455686 z m 10.66947,-3.73535 a 60.384933,60.384933 0 0 1 1.92883,12.304266 59.69103,59.69103 0 0 1 -0.35017,12.45064 59.679776,59.679776 0 0 1 -1.92883,-12.30427 60.375711,60.375711 0 0 1 0.35017,-12.450636 z m 9.55508,-0.638897 a 53.004858,53.004858 0 0 1 1.77469,11.530113 52.428465,52.428465 0 0 1 -0.50561,11.65542 52.428821,52.428821 0 0 1 -1.77466,-11.53013 53.0059,53.0059 0 0 1 0.50558,-11.655403 z M 1245.5094,982.45561 c -89.3276,1.41738 -199.1271,-71.96026 -223.6776,-99.50465 C 997.28099,855.4072 906.77257,794.44608 861.03078,815.15289 815.289,835.8597 804.32957,878.59529 742.1322,940.14253 c -0.40754,0.4032 -0.80763,0.76477 -1.21395,1.16113 -39.69013,-21.08771 -71.43206,-45.05604 -83.28349,-58.35278 -24.55081,-27.54375 -115.05893,-88.50487 -160.80072,-67.79806 -45.74178,20.70681 -56.70121,63.44239 -118.89858,124.98964 -26.36581,26.08976 -50.08107,37.63605 -68.6792,42.31308 z"
     class="colordd765e svgShape"
     id="path22"
     style="stroke-width:2.54074" />
  <path
     fill="#937850"
     d="m 473.12102,947.09927 a 52.815598,52.815598 0 0 1 5.9301,-1.58673 60.652956,60.652956 0 0 1 6.06715,-0.7642 54.810515,54.810515 0 0 1 12.27603,0.49502 45.732739,45.732739 0 0 1 11.84181,3.60277 38.871256,38.871256 0 0 1 5.37954,3.02831 c 1.72876,1.13267 3.1902,2.49248 4.95744,3.47615 a 22.189566,22.189566 0 0 1 -6.01596,-1.21577 c -1.90588,-0.56944 -3.79159,-1.07685 -5.66615,-1.55818 -3.75248,-0.95787 -7.51521,-1.66616 -11.30989,-2.31869 -3.80958,-0.57812 -7.6451,-1.11158 -11.54812,-1.56068 -1.94834,-0.24188 -3.91656,-0.41683 -5.89686,-0.70465 -1.98407,-0.25331 -3.97896,-0.4492 -6.01509,-0.89335 z m -26.48383,-47.97515 a 8.696638,8.696638 0 0 1 -3.62818,-0.0671 c -1.13358,-0.23071 -2.23477,-0.45157 -3.29131,-0.73937 -2.11413,-0.56571 -4.1349,-1.18726 -6.14901,-1.85474 -2.01427,-0.66 -4.00202,-1.41428 -6.02511,-2.22439 a 37.79553,37.79553 0 0 1 -6.1105,-3.09158 22.608459,22.608459 0 0 1 13.75305,0.50121 25.429423,25.429423 0 0 1 6.1937,3.05062 29.204867,29.204867 0 0 1 2.70528,2.12267 c 0.86426,0.77416 1.58535,1.56815 2.55208,2.30257 z m 122.54984,-3.90665 a 52.831631,52.831631 0 0 1 5.93037,-1.58671 60.644089,60.644089 0 0 1 6.06713,-0.76421 54.810438,54.810438 0 0 1 12.27603,0.49498 45.728039,45.728039 0 0 1 11.8415,3.60278 38.876414,38.876414 0 0 1 5.37987,3.02831 c 1.72878,1.13267 3.18988,2.49248 4.95743,3.47615 a 22.190532,22.190532 0 0 1 -6.01598,-1.21577 c -1.90586,-0.56946 -3.79158,-1.07685 -5.66611,-1.55944 -3.75251,-0.95651 -7.51553,-1.6649 -11.30992,-2.31744 -3.80957,-0.57812 -7.6451,-1.11157 -11.54843,-1.56067 -1.94803,-0.24188 -3.91625,-0.41683 -5.89655,-0.70465 -1.98402,-0.25307 -3.97921,-0.44918 -6.01534,-0.89333 z m 136.61122,63.16512 a 52.80724,52.80724 0 0 1 5.9301,-1.58672 61.025683,61.025683 0 0 1 6.06715,-0.76545 54.956608,54.956608 0 0 1 12.27604,0.49501 45.783605,45.783605 0 0 1 11.8418,3.60392 38.743254,38.743254 0 0 1 5.37954,3.02832 c 1.72878,1.13142 3.19022,2.49112 4.95743,3.47614 a 22.144443,22.144443 0 0 1 -6.01595,-1.21702 c -1.90589,-0.56821 -3.79158,-1.0756 -5.66614,-1.55819 -3.75247,-0.95651 -7.51522,-1.66489 -11.3099,-2.31868 -3.80956,-0.57687 -7.6451,-1.1103 -11.54811,-1.55943 -1.94835,-0.24189 -3.91626,-0.41684 -5.89687,-0.70465 -1.98376,-0.25306 -3.97896,-0.44918 -6.01509,-0.89325 z m 97.37795,-70.23527 a 52.8297,52.8297 0 0 1 5.93036,-1.58673 61.003986,61.003986 0 0 1 6.06713,-0.7642 54.882622,54.882622 0 0 1 12.27605,0.49499 45.731799,45.731799 0 0 1 11.84179,3.60278 38.871103,38.871103 0 0 1 5.37956,3.02829 c 1.72876,1.13265 3.1902,2.49246 4.95741,3.47617 a 22.189592,22.189592 0 0 1 -6.01594,-1.21581 c -1.90589,-0.56943 -3.79158,-1.07684 -5.66614,-1.55818 -3.75248,-0.95774 -7.51523,-1.66612 -11.3099,-2.31869 -3.80957,-0.57675 -7.64509,-1.11157 -11.54842,-1.56067 -1.94803,-0.24189 -3.91625,-0.41684 -5.89655,-0.70466 -1.98403,-0.25305 -3.97892,-0.44917 -6.01535,-0.89329 z m 125.93495,-19.0345 a 53.106463,53.106463 0 0 1 5.93035,-1.58797 c 2.00718,-0.2965 4.02916,-0.66867 6.06715,-0.76419 a 54.953102,54.953102 0 0 1 12.27573,0.49497 45.826595,45.826595 0 0 1 11.8418,3.60278 38.881724,38.881724 0 0 1 5.37985,3.02954 c 1.72877,1.13144 3.1899,2.49113 4.95745,3.47616 a 22.188321,22.188321 0 0 1 -6.01598,-1.21701 c -1.90586,-0.56819 -3.79158,-1.0756 -5.66611,-1.55819 -3.75281,-0.95649 -7.51553,-1.66612 -11.30992,-2.31868 -3.80957,-0.57687 -7.6451,-1.1103 -11.54843,-1.55941 -1.94834,-0.24315 -3.91624,-0.41686 -5.89655,-0.70468 -1.98402,-0.25443 -3.97921,-0.45052 -6.01534,-0.89332 z m 106.16665,76.15038 a 52.831631,52.831631 0 0 1 5.9304,-1.58672 60.994483,60.994483 0 0 1 6.0671,-0.76545 54.8797,54.8797 0 0 1 12.2758,0.49623 45.730351,45.730351 0 0 1 11.8417,3.60278 38.875931,38.875931 0 0 1 5.3799,3.02829 c 1.7288,1.13266 3.1899,2.49247 4.9574,3.47617 a 22.19198,22.19198 0 0 1 -6.0163,-1.2158 c -1.9055,-0.56943 -3.7912,-1.07685 -5.6658,-1.55944 -3.7528,-0.95648 -7.5155,-1.66487 -11.31,-2.31744 -3.8094,-0.57811 -7.6454,-1.11156 -11.5484,-1.56067 -1.9483,-0.24188 -3.9162,-0.41683 -5.8965,-0.70465 -1.984,-0.25306 -3.9792,-0.44917 -6.0153,-0.8933 z M 906.20438,920.72294 a 52.831631,52.831631 0 0 1 5.93038,-1.58673 61.010617,61.010617 0 0 1 6.06715,-0.76422 54.883968,54.883968 0 0 1 12.27601,0.49501 45.822656,45.822656 0 0 1 11.84152,3.60278 38.75517,38.75517 0 0 1 5.37985,3.02953 c 1.72877,1.13142 3.18988,2.49112 4.95742,3.47492 a 22.142588,22.142588 0 0 1 -6.01597,-1.21579 c -1.90587,-0.56944 -3.79158,-1.07685 -5.66612,-1.55819 -3.7525,-0.95786 -7.51552,-1.66612 -11.30991,-2.31869 -3.80958,-0.57687 -7.64511,-1.11157 -11.54841,-1.56067 -1.94836,-0.24188 -3.91628,-0.41684 -5.89658,-0.70465 -1.98397,-0.25306 -3.97916,-0.44918 -6.01534,-0.8933 z M 542.5757,894.95776 a 3.8134033,3.8134033 0 0 0 0,-7.62224 3.8134033,3.8134033 0 0 0 0,7.62224 z m 91.46681,35.92612 a 3.8134033,3.8134033 0 0 0 0,-7.62223 3.8134033,3.8134033 0 0 0 0,7.62223 z m -212.20298,29.26938 a 3.8134033,3.8134033 0 0 0 0,-7.62223 3.8134033,3.8134033 0 0 0 0,7.62223 z m 406.11259,-19.20803 a 3.8134033,3.8134033 0 0 0 0,-7.62223 3.8134033,3.8134033 0 0 0 0,7.62223 z m 200.31228,-10.06135 a 3.8134033,3.8134033 0 0 0 0,-7.62223 3.8134033,3.8134033 0 0 0 0,7.62223 z M 864.53884,854.96644 a 3.8134033,3.8134033 0 0 0 0,-7.62223 3.8134033,3.8134033 0 0 0 0,7.62223 z"
     class="color935b50 svgShape"
     id="path23"
     style="stroke-width:2.54074" />
  <path
     fill="#5fe4d4"
     d="m 922.12064,151.83886 c 0,0 161.23386,-27.32063 209.14016,16.28109 0,0 -21.7075,20.39709 -19.462,45.0988 2.2457,24.7017 24.7017,37.21791 19.462,53.41587 a 33.812227,33.812227 0 0 1 -9.4046,13.4722 58.75004,58.75004 0 0 1 -50.0159,14.62255 c -43.596,-7.24926 -137.96475,-21.17129 -151.69003,-8.39174 z"
     class="colorefedef svgShape"
     id="path24"
     style="stroke-width:2.54074" />
  <path
     fill="#ad59d4"
     d="m 1076.6177,250.08423 c -2.8898,-5.89655 -6.1588,-11.54005 -9.5629,-17.05944 a 158.92974,158.92974 0 0 0 -11.256,-15.78041 111.12175,111.12175 0 0 0 -13.4837,-13.79421 90.951513,90.951513 0 0 0 -16.2146,-10.70139 59.057064,59.057064 0 0 1 17.7126,8.78336 82.492231,82.492231 0 0 1 14.3953,13.73465 105.27321,105.27321 0 0 1 10.9458,16.54587 90.757501,90.757501 0 0 1 7.4635,18.27157 z m -11.2309,31.47399 c -2.1664,-6.19802 -4.7391,-12.19136 -7.4613,-18.07676 a 158.9179,158.9179 0 0 0 -9.2942,-17.00983 111.04494,111.04494 0 0 0 -11.7435,-15.30402 90.921684,90.921684 0 0 0 -14.8233,-12.55732 59.065601,59.065601 0 0 1 16.5394,10.83165 82.543375,82.543375 0 0 1 12.6556,15.35371 105.29986,105.29986 0 0 1 8.8952,17.73185 90.728537,90.728537 0 0 1 5.2321,19.03072 z"
     class="colora2aee6 svgShape"
     id="path25"
     style="stroke-width:2.54074" />
  <path
     fill="#f9c67a"
     d="m 623.44929,904.17662 -4.54243,26.01676 c 0,0 -28.33525,38.83424 -48.55841,5.4216 l 6.67784,-31.43836 z m 70.79942,0.27844 -10.5113,54.68698 c 0,0 34.72092,14.94814 54.94418,-18.46453 l -2.54095,-34.98097 z"
     class="colorf9977a svgShape"
     id="path26"
     style="stroke-width:2.54074" />
  <path
     fill="#9d7436"
     d="m 742.32786,499.68563 4.54122,411.32035 a 5.7283879,5.7283879 0 0 1 -5.71967,5.4122 h -53.23876 a 5.7283879,5.7283879 0 0 1 -5.72508,-5.92293 L 669.37333,536.89237 627.47201,911.70245 a 5.7283879,5.7283879 0 0 1 -5.63816,4.71563 h -47.70416 a 5.7283625,5.7283625 0 0 1 -5.67681,-6.49538 l 35.19711,-410.23707 z"
     class="color8b9d36 svgShape"
     id="path27"
     style="stroke-width:2.54074" />
  <polygon
     fill="#7c5924"
     points="361.904,259.077 361.538,238.31 362.39,259.063 363.138,279.819 364.473,321.336 365.576,362.859 366.046,383.623 366.41,404.39 365.556,383.637 364.808,362.882 363.475,321.365 362.373,279.842 "
     class="color5e7c24 svgShape"
     id="polygon27"
     transform="matrix(2.5407444,0,0,2.5407444,-212.22117,-111.03454)" />
  <polygon
     fill="#7c5924"
     points="333.69,259.044 336.142,238.31 334.173,259.096 332.102,279.871 327.797,321.403 323.261,362.911 320.912,383.656 318.458,404.39 320.425,383.604 322.496,362.83 326.803,321.298 331.34,279.79 "
     class="color5e7c24 svgShape"
     id="polygon28"
     transform="matrix(2.5407444,0,0,2.5407444,-212.22117,-111.03454)" />
  <path
     fill="#7c5924"
     d="m 718.73334,499.6851 c 0.59708,4.43016 1.44281,8.77848 2.42413,13.06224 a 76.858257,76.858257 0 0 0 3.97118,12.45933 37.217917,37.217917 0 0 0 6.76125,10.90114 24.484951,24.484951 0 0 0 10.91572,6.85183 21.446958,21.446958 0 0 1 -6.57051,-1.63014 21.937271,21.937271 0 0 1 -5.73716,-3.8099 32.297664,32.297664 0 0 1 -7.70503,-11.31673 54.353562,54.353562 0 0 1 -3.57508,-13.08334 57.087276,57.087276 0 0 1 -0.4845,-13.43443 z m -93.04513,7.77482 a 56.051034,56.051034 0 0 1 -7.85238,19.16725 29.521901,29.521901 0 0 1 -7.16569,7.79343 13.500169,13.500169 0 0 1 -4.90254,2.28518 8.7448867,8.7448867 0 0 1 -5.253,-0.4739 11.310277,11.310277 0 0 0 8.92766,-3.36822 38.935105,38.935105 0 0 0 6.27563,-7.63712 c 1.85998,-2.78268 3.51834,-5.72536 5.15438,-8.69908 z"
     class="color5e7c24 svgShape"
     id="path28"
     style="stroke-width:2.54074" />
  <path
     fill="#937850"
     d="m 618.90686,930.19338 c 0,0 24.81105,30.99157 11.05922,49.25813 a 7.6434994,7.6434994 0 0 1 -6.15165,3.00397 l -123.0061,-0.66779 a 4.0101841,4.0101841 0 0 1 -3.94896,-4.48186 c 0.70595,-6.37219 44.9598,-17.15443 73.489,-41.69085 8e-5,0 36.98011,10.62725 48.55849,-5.4216 z m 70.4884,0 c 0,0 -24.81108,30.99157 -11.05922,49.25813 a 7.6434486,7.6434486 0 0 0 6.15162,3.00397 l 123.00611,-0.66779 a 4.0101841,4.0101841 0 0 0 3.94894,-4.48186 c -0.70594,-6.37219 -44.95978,-17.15443 -73.48896,-41.69085 0,0 -36.98011,10.62725 -48.55849,-5.4216 z"
     class="color935b50 svgShape"
     id="path29"
     style="stroke-width:2.54074" />
  <path
     fill="#f9c67a"
     d="m 730.40348,176.21855 -1.70521,24.68275 a 141.80149,141.80149 0 0 0 1.52122,29.9616 c 1.79536,12.48364 -1.57963,23.4035 -8.97679,28.71823 a 20.979486,20.979486 0 0 1 -11.71928,3.72923 v 24.82961 c 1.35727,19.9004 -5.60679,36.38618 -14.87566,38.97636 -10.72834,2.99742 -29.8122,-11.14934 -36.22552,-38.97636 v -58.07233 c 0,0 -20.88007,-3.84689 -8.79153,-24.45243 a 88.816651,88.816651 0 0 0 12.36305,-39.56215 l 22.52859,-17.034 z"
     class="colorf9977a svgShape"
     id="path30"
     style="stroke-width:2.54074" />
  <path
     fill="#d8a353"
     d="m 705.67698,197.88859 a 30.464796,30.464796 0 0 1 3.97736,5.83949 35.773225,35.773225 0 0 1 2.74048,6.55159 17.962098,17.962098 0 0 1 0.78438,7.27361 6.4053693,6.4053693 0 0 1 -1.56719,3.56424 4.3025221,4.3025221 0 0 1 -3.46222,1.25672 4.5711804,4.5711804 0 0 0 2.47502,-2.01969 5.9723756,5.9723756 0 0 0 0.57654,-2.94268 26.161054,26.161054 0 0 0 -1.24275,-6.41638 c -1.25798,-4.31977 -2.95791,-8.56632 -4.28162,-13.1069 z m 3.84647,65.42183 c 0,0 -16.48435,-0.84193 -24.45167,-8.38835 0,0 10.16529,20.20207 24.45167,22.94945 z"
     class="colordd765e svgShape"
     id="path32"
     style="stroke-width:2.54074" />
  <path
     fill="#22201d"
     d="m 742.49196,168.80052 c 0,0 -0.27472,-11.26427 -20.05584,-16.20955 -19.78112,-4.94528 -23.62745,-15.93479 -35.02906,-12.91267 a 37.463988,37.463988 0 0 0 -18.5449,12.91267 c 0,0 -35.80778,-5.4784 -18.45343,51.6589 0,0 12.95859,15.10239 14.33234,1.64025 1.37376,-13.46213 4.3958,-36.54015 11.81372,-42.58437 7.41794,-6.04423 18.9569,0 23.35273,3.29687 4.39581,3.29687 31.86957,22.80318 34.61696,21.15479 2.74738,-1.64838 13.73706,-4.94517 7.96748,-18.95689 z"
     class="color1e1d22 svgShape"
     id="path33"
     style="stroke-width:2.54074" />
  <path
     fill="#f9c67a"
     d="m 876.85012,332.4697 16.76891,-15.60816 a 34.521095,34.521095 0 0 1 8.97231,-14.55372 c 14.95874,-12.63657 11.90135,-22.26472 11.90135,-22.26472 0,0 3.25158,-4.3945 5.13629,1.36165 1.88473,5.75617 -0.91986,15.12443 -1.49649,16.31576 -0.57662,1.19132 2.14408,31.09129 2.01699,34.74919 -0.12703,3.65792 -25.92067,24.64413 -25.92067,24.64413 z"
     class="colorf9977a svgShape"
     id="path34"
     style="stroke-width:2.54074" />
  <path
     fill="#f7ac3c"
     d="m 640.41255,274.91791 -51.75092,-8.15094 -35.81611,-26.32496 a 34.557529,34.557529 0 0 1 -12.9295,-24.70957 l -4.55829,-68.19501 a 5.0814889,5.0814889 0 0 0 -4.5847,-4.71933 l -30.66473,-2.94315 a 5.0710973,5.0710973 0 0 0 -5.5484,4.62281 c -1.84616,22.06042 -8.59323,108.3747 -1.93216,117.2551 7.64447,10.19146 99.55785,81.125 101.68567,85.27518 1.03721,2.02295 3.78079,30.23613 2.58531,42.01668 l 6.75119,110.64091 a 175.4939,175.4939 0 0 0 138.67777,0 l 4.54153,-125.64124 c 0,0 40.89862,63.26759 55.27644,58.84364 15.85425,-4.87822 104.75784,-81.89836 104.75784,-81.89836 -7.78035,-19.2172 -12.39255,-20.68341 -24.34503,-29.08044 l -71.12235,44.85974 c 0,0 -31.8709,-53.27941 -62.04633,-73.49446 -21.70776,-14.54236 -39.86633,-17.65599 -39.86633,-17.65599 1.58768,18.86422 -12.89586,33.12536 -26.42291,32.58329 -13.77337,-0.55187 -28.39183,-16.42731 -24.67825,-35.38947 -7.39865,1.07608 -5.32723,0 -18.69568,2.02107"
     class="colorf73c4f svgShape"
     id="path35"
     style="stroke-width:2.54074" />
  <path
     fill="#b07823"
     d="m 804.58477,374.0448 a 10.471526,10.471526 0 0 1 6.85119,-7.27611 9.4614783,9.4614783 0 0 1 -2.49359,4.49966 9.6745959,9.6745959 0 0 1 -4.3576,2.77645 z M 597.30425,349.52563 a 22.145128,22.145128 0 0 1 2.05318,-7.62597 21.879265,21.879265 0 0 1 4.36721,-6.57888 21.883204,21.883204 0 0 1 -2.05318,7.62478 22.126124,22.126124 0 0 1 -4.36721,6.58007 z M 718.73334,480.1035 a 116.75498,116.75498 0 0 1 -46.43836,-8.513 98.56681,98.56681 0 0 1 -10.68652,-5.34826 74.09319,74.09319 0 0 1 -9.73836,-6.94484 67.498077,67.498077 0 0 1 -8.3057,-8.57248 57.172187,57.172187 0 0 1 -6.20796,-10.10591 67.579331,67.579331 0 0 0 15.74414,17.15996 91.389079,91.389079 0 0 0 20.17707,11.47058 141.95601,141.95601 0 0 0 22.25074,7.07506 q 5.70415,1.35286 11.5202,2.25167 c 3.86464,0.67617 7.76136,1.15505 11.68475,1.52722 z"
     class="colorb02336 svgShape"
     id="path36"
     style="stroke-width:2.54074" />
  <path
     fill="#f7ac3c"
     d="m 921.75627,986.26744 a 3.8121075,3.8121075 0 0 1 -3.81111,-3.81112 V 134.04864 a 3.8111167,3.8111167 0 1 1 7.62223,0 v 848.40768 a 3.8120822,3.8120822 0 0 1 -3.81112,3.81112 z"
     class="colorf73c4f svgShape"
     id="path37"
     style="stroke-width:2.54074" />
  <path
     fill="#f9c67a"
     d="m 916.39699,309.19804 c 0,0 -7.7987,-2.30989 -5.27294,-7.26458 a 6.4788984,6.4788984 0 0 1 6.62951,-3.25202 c 8.28512,1.02872 28.63589,4.49171 21.30369,13.10486 0,0 10.03663,7.68153 1.06317,11.25437 0,0 5.62633,6.38828 -1.67409,9.42903 0,0 4.50014,5.30762 -3.94806,8.24218 -8.44822,2.93457 -30.99015,-7.8135 -21.65706,-12.13515 l 2.79299,-0.4443 a 5.5462419,5.5462419 0 0 1 0.0773,-9.50528 c 0,0 -6.76713,-5.17169 0.68554,-9.42911 z"
     class="colorf9977a svgShape"
     id="path38"
     style="stroke-width:2.54074" />
  <path
     fill="#d8a353"
     d="m 920.14939,338.79941 a 25.588676,25.588676 0 0 1 -7.5013,-3.45259 6.9735814,6.9735814 0 0 1 -2.82607,-3.54813 3.1247346,3.1247346 0 0 1 0.64449,-2.66852 6.5109372,6.5109372 0 0 1 0.93044,-0.88206 l 1.01015,-0.60787 0.0762,-0.046 0.19563,-0.0373 2.77958,-0.52594 -0.47606,2.00605 a 9.2856588,9.2856588 0 0 1 -2.26007,-2.37326 5.8184826,5.8184826 0 0 1 9.3e-4,-6.65952 10.840417,10.840417 0 0 1 2.19803,-2.37079 l 0.0178,2.00233 a 10.330667,10.330667 0 0 1 -2.24426,-2.54074 6.1199165,6.1199165 0 0 1 -0.99712,-3.49477 5.2757543,5.2757543 0 0 1 1.50763,-3.3645 12.335314,12.335314 0 0 1 1.27193,-1.13267 l 1.37428,-0.85724 0.23223,2.00355 a 12.795773,12.795773 0 0 1 -4.29404,-2.45019 4.8236795,4.8236795 0 0 1 -1.76785,-4.82716 5.8900555,5.8900555 0 0 1 3.1443,-3.74041 6.8046472,6.8046472 0 0 1 4.58586,-0.55081 7.1935844,7.1935844 0 0 0 -4.18267,1.23067 5.1229285,5.1229285 0 0 0 -2.15554,3.34341 c -0.36566,2.52834 2.78465,4.1349 5.29303,4.89167 l 2.17996,0.65752 -1.94774,1.34606 -1.09823,0.75925 a 10.616805,10.616805 0 0 0 -0.88828,0.87214 3.0901805,3.0901805 0 0 0 -0.81166,1.9229 3.6797094,3.6797094 0 0 0 0.66682,2.06934 7.9519458,7.9519458 0 0 0 1.67295,1.84476 l 1.20277,0.95154 -1.18399,1.0508 -0.94261,0.8374 a 9.7454065,9.7454065 0 0 0 -0.74808,0.91926 3.5490389,3.5490389 0 0 0 -0.68092,1.97876 4.0368364,4.0368364 0 0 0 0.59984,2.05692 7.122469,7.122469 0 0 0 1.5557,1.81375 l 2.05816,1.67852 -2.53424,0.32752 -2.80529,0.36352 0.27107,-0.0831 c -1.14569,0.47019 -1.87082,1.12397 -1.73746,1.95383 a 5.7006684,5.7006684 0 0 0 1.94308,2.86828 31.34707,31.34707 0 0 0 6.66938,4.46371 z"
     class="colordd765e svgShape"
     id="path39"
     style="stroke-width:2.54074" />
  <path
     fill="#d8a353"
     d="m 939.05732,311.78662 a 51.156111,51.156111 0 0 1 -11.45971,-0.16006 50.510331,50.510331 0 0 1 -11.20073,-2.42908 50.647048,50.647048 0 0 1 11.45969,0.16007 51.161777,51.161777 0 0 1 11.20075,2.42907 z m 1.06321,11.25347 a 60.291485,60.291485 0 0 1 -12.40785,-1.08305 59.682367,59.682367 0 0 1 -12.00124,-3.32977 59.68318,59.68318 0 0 1 12.40753,1.08305 60.459352,60.459352 0 0 1 12.00156,3.32977 z m -1.6741,9.42979 a 53.016368,53.016368 0 0 1 -11.61944,-1.04706 52.404684,52.404684 0 0 1 -11.19266,-3.29009 52.333111,52.333111 0 0 1 11.61943,1.04707 53.013294,53.013294 0 0 1 11.19267,3.29008 z"
     class="colordd765e svgShape"
     id="path40"
     style="stroke-width:2.54074" />
  <path
     fill="#dd9222"
     d="m 697.29761,233.43914 c 0,0 3.30282,11.93918 20.33058,4.82624"
     class="colordd2f22 svgShape"
     id="path42"
     style="stroke-width:2.54074" />
  <polygon
     fill="#f7ac3c"
     points="335.314,151.872 342.673,151.077 353.161,164.993 347.477,170.32 "
     class="colorf73c4f svgShape"
     id="polygon42"
     transform="matrix(2.5407444,0,0,2.5407444,-212.22117,-111.03454)" />
  <polygon
     fill="#f7ac3c"
     points="369.296,154.84 362.785,152.181 353.161,164.993 358.727,170.32 "
     class="colorf73c4f svgShape"
     id="polygon43"
     transform="matrix(2.5407444,0,0,2.5407444,-212.22117,-111.03454)" />
  <polygon
     fill="#9d7436"
     points="353.161,164.993 347.477,170.32 353.161,175.808 358.727,170.32 "
     class="color8b9d36 svgShape"
     id="polygon44"
     transform="matrix(2.5407444,0,0,2.5407444,-212.22117,-111.03454)" />
  <path
     fill="#b07823"
     d="m 639.72648,274.83295 q 8.21305,11.39798 16.13832,22.98329 c 5.33923,7.68677 10.56276,15.45042 15.74104,23.24385 l -1.77624,-0.20961 c 4.80111,-4.52446 9.53368,-9.12336 14.39156,-13.58701 l 0.0153,-0.0127 a 1.2382826,1.2382826 0 0 1 1.6959,0.0229 l 14.05286,13.6255 -1.69469,0.17735 c 4.47764,-6.55409 9.15065,-12.97416 13.7356,-19.45382 4.59052,-6.47715 9.29765,-12.87367 14.04076,-19.24538 -4.2078,6.73767 -8.45189,13.45055 -12.81297,20.08278 -4.36627,6.62977 -8.64479,13.31907 -13.11837,19.87563 a 1.1159203,1.1159203 0 0 1 -1.5524,0.29278 1.2616321,1.2616321 0 0 1 -0.14304,-0.11536 l -14.22779,-13.44307 1.70993,0.0106 c -4.7701,4.55796 -9.66581,8.98193 -14.49267,13.4791 a 1.1655665,1.1655665 0 0 1 -1.64894,-0.0473 1.2514945,1.2514945 0 0 1 -0.1278,-0.16261 c -5.12275,-7.82941 -10.19989,-15.68983 -15.16167,-23.62594 q -7.53337,-11.84456 -14.76438,-23.88887 z"
     class="colorb02336 svgShape"
     id="path44"
     style="stroke-width:2.54074" />
  <polygon
     fill="#9d7436"
     points="344.953,219.7 350.396,228.82 355.354,219.94 355.193,173.804 351.086,173.804 "
     class="color8b9d36 svgShape"
     id="polygon45"
     transform="matrix(2.5407444,0,0,2.5407444,-212.22117,-111.03454)" />
  <path
     fill="#937850"
     d="M 1291.0363,987.55733 H 115.85007 a 2.54075,2.54075 0 1 1 0,-5.0815 H 1291.0363 a 2.54075,2.54075 0 0 1 0,5.0815 z"
     class="color935b50 svgShape"
     id="path45"
     style="stroke-width:2.54074" />
  <path
     fill="#ffce85"
     d="M 815.43196,81.073697 A 25.420529,25.420529 0 0 1 840.83941,55.656085 25.39657,25.39657 0 0 1 815.43196,30.258803 25.404904,25.404904 0 0 1 790.03468,55.666248 25.404726,25.404726 0 0 1 815.43196,81.073697 Z M 317.46985,312.83278 a 25.420504,25.420504 0 0 1 25.40746,-25.41761 25.396621,25.396621 0 0 1 -25.40746,-25.39728 25.404904,25.404904 0 0 1 -25.39728,25.40744 25.404726,25.404726 0 0 1 25.39728,25.40745 z m 103.9581,271.36726 a 25.420504,25.420504 0 0 1 25.40744,-25.41761 25.396544,25.396544 0 0 1 -25.40744,-25.39729 25.404904,25.404904 0 0 1 -25.39728,25.40746 25.404726,25.404726 0 0 1 25.39728,25.40744 z M 506.3302,404.39221 a 25.420504,25.420504 0 0 1 25.40745,-25.41761 25.396544,25.396544 0 0 1 -25.40745,-25.39727 25.404904,25.404904 0 0 1 -25.39728,25.40744 25.404726,25.404726 0 0 1 25.39728,25.40744 z m 487.15859,16.97355 a 25.420504,25.420504 0 0 1 25.40751,-25.41761 25.39657,25.39657 0 0 1 -25.40751,-25.39729 25.404904,25.404904 0 0 1 -25.39726,25.40746 25.4047,25.4047 0 0 1 25.39726,25.40744 z m -87.28931,212.52331 a 25.420529,25.420529 0 0 1 25.40744,-25.4176 25.39657,25.39657 0 0 1 -25.40744,-25.39728 25.404904,25.404904 0 0 1 -25.39728,25.40744 25.404726,25.404726 0 0 1 25.39728,25.40744 z M 472.61084,68.552243 a 25.420529,25.420529 0 0 1 25.40745,-25.417607 25.39657,25.39657 0 0 1 -25.40745,-25.397282 25.404904,25.404904 0 0 1 -25.39728,25.407444 25.404726,25.404726 0 0 1 25.39728,25.407445 z m 47.00924,472.455137 c 9.8091,0 9.82534,-15.24446 0,-15.24446 -9.80908,0 -9.82534,15.24446 0,15.24446 z M 445.21213,223.02465 c 9.80911,0 9.82534,-15.24446 0,-15.24446 -9.80907,0 -9.8253,15.24446 0,15.24446 z M 637.35647,111.95643 c 9.80908,0 9.82531,-15.244456 0,-15.244456 -9.8091,0 -9.82533,15.244456 0,15.244456 z m 451.78193,12.28407 c 9.8091,0 9.8254,-15.24446 0,-15.24446 -9.8091,0 -9.8253,15.24446 0,15.24446 z M 789.12731,255.9527 c 9.8091,0 9.82534,-15.24447 0,-15.24447 -9.80908,0 -9.82532,15.24447 0,15.24447 z M 924.49818,91.312456 c 9.8091,0 9.82534,-15.244463 0,-15.244463 -9.80908,0 -9.82532,15.244463 0,15.244463 z M 367.58264,440.98989 c 9.80907,0 9.82534,-15.24448 0,-15.24448 -9.80908,0 -9.82534,15.24448 0,15.24448 z m 514.97582,66.31798 c 9.80908,0 9.82532,-15.24448 0,-15.24448 -9.8091,0 -9.82534,15.24448 0,15.24448 z m 216.71204,-97.69094 c 9.809,0 9.8254,-15.24448 0,-15.24448 -9.8091,0 -9.8254,15.24448 0,15.24448 z"
     class="colorffca85 svgShape"
     id="path46"
     style="stroke-width:2.54074" />
</svg>
