<?xml version="1.0" encoding="UTF-8" standalone="no"?>
<svg
   viewBox="0 0 1400 1000"
   id="employeeworkingintheoffice"
   version="1.1"
   sodipodi:docname="Stories.svg"
   width="1400"
   height="1000"
   xmlns:inkscape="http://www.inkscape.org/namespaces/inkscape"
   xmlns:sodipodi="http://sodipodi.sourceforge.net/DTD/sodipodi-0.dtd"
   xmlns="http://www.w3.org/2000/svg"
   xmlns:svg="http://www.w3.org/2000/svg">
  <defs
     id="defs118" />
  <sodipodi:namedview
     id="namedview118"
     pagecolor="#505050"
     bordercolor="#ffffff"
     borderopacity="1"
     inkscape:showpageshadow="0"
     inkscape:pageopacity="0"
     inkscape:pagecheckerboard="1"
     inkscape:deskcolor="#505050" />
  <g
     data-name="Layer 2"
     fill="#8526fe"
     class="color000000 svgShape"
     id="g118"
     transform="matrix(2.5503876,0,0,2.5503876,108.44642,24.646914)">
    <g
       data-name="Layer 1"
       fill="#8526fe"
       class="color000000 svgShape"
       id="g117">
      <path
         fill="#f9e2c0"
         d="M 42.95666,268.44855 C 55.38883,328.13392 184.40894,423.59638 225.21259,343.2444 246.69071,300.94872 311.9195,239.02375 362.44706,201.90012 411.57797,165.80235 268.41634,108.72765 180.19147,127.10447 91.9666,145.48129 30.52449,208.76318 42.95666,268.44855 Z"
         class="colorf9e0c0 svgShape"
         id="path1" />
      <path
         fill="#f9e2c0"
         d="M -26.571815,148.56611 C -14.139645,208.25148 114.88047,303.71394 155.68412,223.36196 177.16224,181.06628 242.39103,119.14131 292.91859,82.017682 342.0495,45.919912 198.88787,-11.154788 110.663,7.2220323 22.438128,25.598852 -39.003985,88.880742 -26.571815,148.56611 Z"
         class="colorf9e0c0 svgShape"
         id="path1-9"
         style="opacity:0.207756;fill:#eac0f9;fill-opacity:1" />
      <path
         fill="#f9e2c0"
         d="m 165.84119,267.58522 c 12.43217,59.68537 141.45228,155.14783 182.25593,74.79585 21.47812,-42.29568 86.70692,-104.22065 137.23448,-141.34428 49.13091,-36.09777 -94.03072,-93.17247 -182.2556,-74.79565 -88.22487,18.37682 -149.66698,81.65871 -137.23481,141.34408 z"
         class="colorf9e0c0 svgShape"
         id="path1-9-1"
         style="opacity:0.207756;fill:#c0f7f9;fill-opacity:1" />
      <path
         fill="#f4d3a2"
         d="m 26.5516,270.4736 c -13.666,-65.61035 54.02246,-135.4043 150.88965,-155.58106 35.25781,-7.34179 83.03125,-4.07519 127.80078,8.74219 42.75586,12.24121 74.09082,30.55078 81.77637,47.78418 4.28418,9.60644 1.07128,18.708 -9.291,26.32226 l -0.53125,-0.72265 c 10.125,-7.43848 13.1543,-15.92871 9.00391,-25.23535 C 378.619,154.7861 347.50375,136.667 304.995,124.49606 260.36023,111.71676 212.743,108.45506 177.62488,115.7695 81.24105,135.84567 13.86312,205.164 27.42855,270.29 Z"
         class="colorf4c5a2 svgShape"
         id="path2" />
      <rect
         width="141.31799"
         height="107.251"
         x="104.126"
         y="54.366001"
         fill="#e1e5e4"
         rx="6.4260001"
         class="colore5e1e5 svgShape"
         id="rect2" />
      <rect
         width="141.31799"
         height="0.58399999"
         x="104.127"
         y="67.112"
         fill="#ad59d4"
         class="colora2aee6 svgShape"
         id="rect3" />
      <path
         fill="#ffbb55"
         d="m 112.11765,64.14505 c 3.38287,0 3.38847,-5.25739 0,-5.25739 -3.38288,0 -3.38848,5.25739 0,5.25739 z"
         class="colorffba55 svgShape"
         id="path3" />
      <path
         fill="#f7ac3c"
         d="m 120.88,64.14505 c 3.38288,0 3.38848,-5.25739 0,-5.25739 -3.38287,0 -3.38848,5.25739 0,5.25739 z"
         class="colorf73c4f svgShape"
         id="path4" />
      <path
         fill="#a74fd0"
         d="m 129.0581,64.14505 c 3.38288,0 3.38848,-5.25739 0,-5.25739 -3.38287,0 -3.38848,5.25739 0,5.25739 z"
         class="color4f66d0 svgShape"
         id="path5" />
      <rect
         width="124.074"
         height="29.021"
         x="112.118"
         y="76.237"
         fill="#ad59d4"
         class="colora2aee6 svgShape"
         id="rect5" />
      <rect
         width="54.256001"
         height="0.58399999"
         x="112.118"
         y="115.225"
         fill="#ad59d4"
         class="colora2aee6 svgShape"
         id="rect6" />
      <rect
         width="54.256001"
         height="0.58399999"
         x="112.118"
         y="124.057"
         fill="#ad59d4"
         class="colora2aee6 svgShape"
         id="rect7" />
      <rect
         width="54.256001"
         height="0.58399999"
         x="112.118"
         y="132.89"
         fill="#ad59d4"
         class="colora2aee6 svgShape"
         id="rect8" />
      <rect
         width="54.256001"
         height="0.58399999"
         x="112.118"
         y="141.955"
         fill="#ad59d4"
         class="colora2aee6 svgShape"
         id="rect9" />
      <rect
         width="54.256001"
         height="0.58399999"
         x="112.118"
         y="150.787"
         fill="#ad59d4"
         class="colora2aee6 svgShape"
         id="rect10" />
      <rect
         width="53.506001"
         height="36.167999"
         x="182.685"
         y="112.828"
         fill="#ad59d4"
         class="colora2aee6 svgShape"
         id="rect11" />
      <rect
         width="173.269"
         height="131.49899"
         x="298.22601"
         fill="#e1e5e4"
         rx="7.8779998"
         class="colore5e1e5 svgShape"
         id="rect12"
         y="0" />
      <rect
         width="173.27"
         height="0.71700001"
         x="298.22501"
         y="15.628"
         fill="#ad59d4"
         class="colora2aee6 svgShape"
         id="rect13" />
      <path
         fill="#ffbb55"
         d="m 308.02363,11.98962 c 4.14771,0 4.15458,-6.446 0,-6.446 -4.14771,0 -4.15458,6.446 0,6.446 z"
         class="colorffba55 svgShape"
         id="path13" />
      <path
         fill="#f7ac3c"
         d="m 318.767,11.98962 c 4.14771,0 4.15458,-6.446 0,-6.446 -4.14772,0 -4.15459,6.446 0,6.446 z"
         class="colorf73c4f svgShape"
         id="path14" />
      <path
         fill="#a74fd0"
         d="m 328.79418,11.98962 c 4.14771,0 4.15458,-6.446 0,-6.446 -4.14772,0 -4.15459,6.446 0,6.446 z"
         class="color4f66d0 svgShape"
         id="path15" />
      <rect
         width="66.523003"
         height="0.71700001"
         x="308.02301"
         y="74.616997"
         fill="#ad59d4"
         class="colora2aee6 svgShape"
         id="rect15" />
      <rect
         width="66.523003"
         height="0.71700001"
         x="308.02301"
         y="85.445999"
         fill="#ad59d4"
         class="colora2aee6 svgShape"
         id="rect16" />
      <rect
         width="66.523003"
         height="0.71700001"
         x="308.02301"
         y="96.276001"
         fill="#ad59d4"
         class="colora2aee6 svgShape"
         id="rect17" />
      <rect
         width="66.523003"
         height="0.71700001"
         x="308.02301"
         y="107.391"
         fill="#ad59d4"
         class="colora2aee6 svgShape"
         id="rect18" />
      <rect
         width="66.523003"
         height="0.71700001"
         x="308.02301"
         y="118.221"
         fill="#ad59d4"
         class="colora2aee6 svgShape"
         id="rect19" />
      <rect
         width="65.603996"
         height="44.345001"
         x="394.54599"
         y="71.68"
         fill="#ad59d4"
         class="colora2aee6 svgShape"
         id="rect20" />
      <rect
         width="32.410999"
         height="32.410999"
         x="306.854"
         y="28.846001"
         fill="#ad59d4"
         class="colora2aee6 svgShape"
         id="rect21" />
      <rect
         width="32.410999"
         height="32.410999"
         x="347.97"
         y="28.846001"
         fill="#ad59d4"
         class="colora2aee6 svgShape"
         id="rect22" />
      <rect
         width="32.410999"
         height="32.410999"
         x="390.06601"
         y="28.846001"
         fill="#ad59d4"
         class="colora2aee6 svgShape"
         id="rect23" />
      <rect
         width="32.410999"
         height="32.410999"
         x="430.53"
         y="28.846001"
         fill="#ad59d4"
         class="colora2aee6 svgShape"
         id="rect24" />
      <path
         fill="#937850"
         d="M 367.54928,161.51053 V 374.702 h 48.19823 V 161.51053 a 2.31278,2.31278 0 0 0 -2.31278,-2.31278 h -43.57268 a 2.31278,2.31278 0 0 0 -2.31277,2.31278 z"
         class="color935b50 svgShape"
         id="path24" />
      <rect
         width="42.879002"
         height="31.847"
         x="370.20901"
         y="197.983"
         fill="#d8a353"
         rx="2.313"
         class="colore19974 svgShape"
         id="rect25" />
      <rect
         width="42.879002"
         height="31.847"
         x="370.20901"
         y="162.66701"
         fill="#d8a353"
         rx="2.313"
         class="colore19974 svgShape"
         id="rect26" />
      <path
         fill="#d69f4b"
         d="m 410.3641,190.47189 a 1.42878,1.42878 0 1 1 -2.01892,2.01892 c 0.50866,-0.731 0.57116,-1.00989 0.79419,-1.22473 0.21692,-0.22046 0.49804,-0.2854 1.22473,-0.79419 z m -2.01892,-25.78205 a 1.42878,1.42878 0 1 1 2.01892,2.01893 c -0.73108,-0.50861 -1.00989,-0.57123 -1.22473,-0.79419 -0.22046,-0.21692 -0.28537,-0.49811 -0.79419,-1.22474 z m -35.41248,2.01893 a 1.42879,1.42879 0 1 1 2.01892,-2.01893 c -0.50866,0.731 -0.57116,1.01 -0.79419,1.22474 -0.21692,0.22042 -0.49817,0.28542 -1.22473,0.79419 z m 2.01892,25.78204 a 1.42878,1.42878 0 1 1 -2.01892,-2.01892 c 0.731,0.50866 1.00989,0.57129 1.22473,0.79419 0.22046,0.21692 0.2854,0.49817 0.79419,1.22473 z m 35.41248,33.29712 a 1.42878,1.42878 0 1 1 -2.01892,2.01892 c 0.50866,-0.731 0.57116,-1.00989 0.79419,-1.22473 0.21692,-0.22046 0.49804,-0.2854 1.22473,-0.79419 z m -2.01892,-25.78211 a 1.42882,1.42882 0 1 1 2.01892,2.019 c -0.73108,-0.50867 -1.00989,-0.57129 -1.22473,-0.79432 -0.22046,-0.21686 -0.28537,-0.49799 -0.79419,-1.22468 z m -35.41248,2.01905 a 1.42883,1.42883 0 1 1 2.01892,-2.019 c -0.50866,0.73108 -0.57116,1.01 -0.79419,1.22473 -0.21692,0.2204 -0.49817,0.28548 -1.22473,0.79427 z m 2.01892,25.78198 a 1.42878,1.42878 0 1 1 -2.01892,-2.01892 c 0.731,0.50866 1.00989,0.57129 1.22473,0.79419 0.22046,0.21688 0.2854,0.49817 0.79419,1.22473 z"
         class="colord6694b svgShape"
         id="path26" />
      <rect
         width="42.879002"
         height="31.847"
         x="370.20901"
         y="268.61499"
         fill="#d8a353"
         rx="2.313"
         class="colore19974 svgShape"
         id="rect27" />
      <rect
         width="42.879002"
         height="31.847"
         x="370.20901"
         y="303.931"
         fill="#d8a353"
         rx="2.313"
         class="colore19974 svgShape"
         id="rect28" />
      <rect
         width="13.183"
         height="4.8569999"
         x="385.05701"
         y="174.254"
         fill="#d69f4b"
         rx="0.89600003"
         class="colord6694b svgShape"
         id="rect29" />
      <rect
         width="13.183"
         height="4.8569999"
         x="385.05701"
         y="280.202"
         fill="#d69f4b"
         rx="0.89600003"
         class="colord6694b svgShape"
         id="rect30" />
      <rect
         width="13.183"
         height="4.8569999"
         x="385.05701"
         y="315.51801"
         fill="#d69f4b"
         rx="0.89600003"
         class="colord6694b svgShape"
         id="rect31" />
      <rect
         width="13.183"
         height="4.8569999"
         x="385.05701"
         y="209.57001"
         fill="#d69f4b"
         rx="0.89600003"
         class="colord6694b svgShape"
         id="rect32" />
      <path
         fill="#d69f4b"
         d="m 410.3641,296.42 a 1.42878,1.42878 0 1 1 -2.01892,2.01892 c 0.50866,-0.73108 0.57116,-1.01 0.79419,-1.22473 0.21692,-0.22045 0.49804,-0.28552 1.22473,-0.79419 z m -2.01892,-25.7821 a 1.42878,1.42878 0 1 1 2.01892,2.01892 c -0.73108,-0.50854 -1.00989,-0.57116 -1.22473,-0.79419 -0.22046,-0.21691 -0.28537,-0.49804 -0.79419,-1.22473 z m -35.41248,2.01892 a 1.42878,1.42878 0 1 1 2.01892,-2.01892 c -0.50866,0.73108 -0.57116,1.01 -0.79419,1.22473 -0.21692,0.22046 -0.49817,0.28553 -1.22473,0.79419 z m 2.01892,25.78211 A 1.42878,1.42878 0 1 1 372.9327,296.42 c 0.731,0.50854 1.00989,0.57116 1.22473,0.79419 0.22046,0.21693 0.2854,0.49805 0.79419,1.22474 z m 35.41248,33.29712 a 1.42878,1.42878 0 1 1 -2.01892,2.01892 c 0.50866,-0.73108 0.57116,-1.01 0.79419,-1.22473 0.21692,-0.22046 0.49804,-0.28553 1.22473,-0.79419 z m -2.01892,-25.78211 a 1.42878,1.42878 0 1 1 2.01892,2.01892 c -0.73108,-0.50866 -1.00989,-0.57116 -1.22473,-0.79419 -0.22046,-0.21691 -0.28537,-0.49804 -0.79419,-1.22473 z m -35.41248,2.01892 a 1.42878,1.42878 0 1 1 2.01892,-2.01892 c -0.50866,0.73108 -0.57116,1.00989 -0.79419,1.22473 -0.21692,0.22046 -0.49817,0.28541 -1.22473,0.79419 z m 2.01892,25.78214 a 1.42878,1.42878 0 1 1 -2.01892,-2.01892 c 0.731,0.50854 1.00989,0.57116 1.22473,0.79419 0.22046,0.21689 0.2854,0.49801 0.79419,1.22473 z"
         class="colord6694b svgShape"
         id="path32" />
      <path
         fill="#5fe4d4"
         d="m 381.53282,323.881 c 0,0 23.52674,0.47744 27.10093,-3.498 0,0 -7.70431,27.60312 -1.88809,41.14605 l -26.16717,-2.7633 c 0,0 3.06008,-21.37794 0.95433,-34.88475 z"
         class="color7ca1b1 svgShape"
         id="path33" />
      <path
         fill="#f6a52b"
         d="m 375.77206,327.26261 c 0,0 23.52674,0.47743 27.10092,-3.498 0,0 -7.7043,27.60312 -1.88808,41.14605 l -26.16717,-2.7633 c 0,0 3.06008,-21.37794 0.95433,-34.88475 z"
         class="colorf65b2b svgShape"
         id="path34" />
      <path
         fill="#ffffff"
         d="m 378.7149,329.86116 c 0,0 23.52674,0.47743 27.10093,-3.498 0,0 -7.70431,27.60312 -1.88809,41.14605 l -26.16717,-2.7633 c 0,0 3.06008,-21.37791 0.95433,-34.88475 z"
         class="colorffffff svgShape"
         id="path35" />
      <path
         fill="#ffbb55"
         d="m 381.59528,219.587 c 0,0 23.52674,0.47744 27.10093,-3.498 0,0 -7.70431,27.60312 -1.88809,41.14605 l -26.16717,-2.7633 c 0,0 3.06005,-21.37798 0.95433,-34.88475 z"
         class="colorffba55 svgShape"
         id="path36" />
      <path
         fill="#f6a52b"
         d="m 375.83452,222.96857 c 0,0 23.52674,0.47743 27.10092,-3.498 0,0 -7.7043,27.60312 -1.88808,41.14605 l -26.16717,-2.7633 c 0,0 3.06008,-21.37794 0.95433,-34.88475 z"
         class="colorf65b2b svgShape"
         id="path37" />
      <path
         fill="#ffffff"
         d="m 378.77736,225.56712 c 0,0 23.52674,0.47743 27.10093,-3.498 0,0 -7.70431,27.60312 -1.88809,41.14605 l -26.16717,-2.7633 c 0,0 3.06008,-21.37795 0.95433,-34.88475 z"
         class="colorffffff svgShape"
         id="path38" />
      <rect
         width="42.879002"
         height="31.847"
         x="370.20901"
         y="339.24701"
         fill="#d8a353"
         rx="2.313"
         class="colore19974 svgShape"
         id="rect38" />
      <rect
         width="13.183"
         height="4.8569999"
         x="385.05701"
         y="350.83401"
         fill="#d69f4b"
         rx="0.89600003"
         class="colord6694b svgShape"
         id="rect39" />
      <path
         fill="#d69f4b"
         d="m 410.3641,367.052 a 1.42882,1.42882 0 1 1 -2.01892,2.019 c 0.50866,-0.73108 0.57116,-1.01 0.79419,-1.22473 0.21692,-0.22045 0.49804,-0.28552 1.22473,-0.79427 z m -2.01892,-25.782 a 1.42878,1.42878 0 1 1 2.01892,2.01892 c -0.73108,-0.50866 -1.00989,-0.57116 -1.22473,-0.79419 -0.22046,-0.21693 -0.28537,-0.49818 -0.79419,-1.22473 z m -35.41248,2.0189 a 1.42878,1.42878 0 1 1 2.01892,-2.01892 c -0.50866,0.731 -0.57116,1.00989 -0.79419,1.22473 -0.21692,0.22046 -0.49817,0.28541 -1.22473,0.79419 z m 2.01892,25.7821 a 1.42882,1.42882 0 1 1 -2.01892,-2.019 c 0.731,0.50866 1.00989,0.57128 1.22473,0.79431 0.22046,0.21689 0.2854,0.49801 0.79419,1.22469 z"
         class="colord6694b svgShape"
         id="path39" />
      <rect
         width="42.879002"
         height="31.847"
         x="370.20901"
         y="233.299"
         fill="#d8a353"
         rx="2.313"
         class="colore19974 svgShape"
         id="rect40" />
      <rect
         width="13.183"
         height="4.8569999"
         x="385.05701"
         y="244.886"
         fill="#d69f4b"
         rx="0.89600003"
         class="colord6694b svgShape"
         id="rect41" />
      <path
         fill="#d69f4b"
         d="m 410.3641,261.104 a 1.42878,1.42878 0 1 1 -2.01892,2.01892 c 0.50866,-0.73108 0.57116,-1.00989 0.79419,-1.22473 0.21692,-0.22049 0.49804,-0.28543 1.22473,-0.79419 z m -2.01892,-25.78214 a 1.42878,1.42878 0 1 1 2.01892,2.01892 c -0.73108,-0.50854 -1.00989,-0.57116 -1.22473,-0.79419 -0.22046,-0.21691 -0.28537,-0.49804 -0.79419,-1.22473 z m -35.41248,2.01892 a 1.42878,1.42878 0 1 1 2.01892,-2.01892 c -0.50866,0.73108 -0.57116,1.01 -0.79419,1.22473 -0.21692,0.22046 -0.49817,0.28553 -1.22473,0.79419 z m 2.01892,25.78211 a 1.42878,1.42878 0 1 1 -2.01892,-2.01892 c 0.731,0.50866 1.00989,0.57116 1.22473,0.79419 0.22046,0.21692 0.2854,0.49804 0.79419,1.22473 z"
         class="colord6694b svgShape"
         id="path41" />
      <polygon
         fill="#f9c67a"
         points="244.291,366.838 244.922,355.307 228.798,350.7 228.798,365.468 "
         class="colorf9977a svgShape"
         id="polygon41" />
      <polygon
         fill="#f9c67a"
         points="300.871,365.468 299.03,355.121 283.556,350.7 283.556,365.468 "
         class="colorf9977a svgShape"
         id="polygon42" />
      <path
         fill="#f9c67a"
         d="m 231.5017,197.5095 c 0,0 2.87785,2.16658 4.40046,9.96424 1.52261,7.79766 1.88973,14.0965 -0.41,8.98971 l -1.68806,-3.92056 c 0,0 -1.501,6.20891 -2.07125,9.9861 a 4.7303,4.7303 0 0 1 -3.92327,4.036 c -1.88073,0.266 -3.109,-0.63471 -3.29587,-5.10161 -0.27953,-6.68086 -0.23686,-10.218 0.17689,-11.88782 0.14334,-0.57848 2.19932,-6.7102 2.19932,-6.7102 z"
         class="colorf9977a svgShape"
         id="path42" />
      <path
         fill="#ddaa5e"
         d="m 234.41,208.72225 a 3.45656,3.45656 0 0 1 0.24853,1.99463 3.23822,3.23822 0 0 1 -0.85449,1.82605 4.0778,4.0778 0 0 1 -0.1554,-1.97961 3.85673,3.85673 0 0 1 0.76136,-1.84107 z m -3.78784,7.38587 a 30.0178,30.0178 0 0 1 -0.0827,4.76086 c -0.13549,1.57 -0.30359,3.09461 -0.515,4.7074 a 7.87028,7.87028 0 0 1 -0.51306,-2.379 15.11675,15.11675 0 0 1 0.0101,-2.41162 17.81515,17.81515 0 0 1 0.363,-2.37366 11.60582,11.60582 0 0 1 0.73758,-2.30398 z m -2.34974,0.1676 c 0.002,1.77991 -0.19812,3.48206 -0.33972,5.18457 -0.0914,0.849 -0.14636,1.69483 -0.19568,2.53931 a 12.52862,12.52862 0 0 0 0.0725,2.56531 5.29871,5.29871 0 0 1 -0.86938,-2.53211 12.39765,12.39765 0 0 1 -0.0247,-2.66516 16.92082,16.92082 0 0 1 0.4552,-2.60242 12.16063,12.16063 0 0 1 0.90173,-2.4895 z m -2.1477,0.68028 a 33.413,33.413 0 0 1 -0.21167,4.34009 l -0.23316,2.12622 c -0.0806,0.71191 -0.15759,1.422 -0.28784,2.16833 a 9.38221,9.38221 0 0 1 -0.49548,-4.3949 11.28875,11.28875 0 0 1 1.22815,-4.23974 z"
         class="colordd765e svgShape"
         id="path43" />
      <path
         fill="#f9c67a"
         d="m 247.19154,136.32612 -10.04386,24.88032 c -1.08724,2.149 -0.81466,7.0688 -0.8654,9.47666 l -0.74054,35.14375 -8.78442,-1.2298 -6.3454,-28.78338 a 32.981,32.981 0 0 1 1.02886,-17.85351 l 8.48161,-24.59242 z m 12.97723,-32.50522 c -0.51837,-0.69115 5.95285,-2.61926 6.191,-8.81023 C 266.71609,85.74555 262.788,72.747 262.788,72.747 h 27.97843 a 31.42941,31.42941 0 0 1 0,7.02437 c -0.39391,2.36345 3.03176,10.70765 -3.63421,19.62109 -0.56907,0.761 -1.69082,0.85948 -2.63605,0.95651 -1.51012,0.155 -3.802,1.13842 -2.30185,5.97214 2e-5,-1e-5 -12.7391,9.88173 -22.02555,-2.50021 z"
         class="colorf9977a svgShape"
         id="path44" />
      <path
         fill="#753792"
         d="m 228.26145,134.41858 9.90176,-17.77331 a 19.60018,19.60018 0 0 1 10.81152,-9.01739 l 11.194,-3.807 a 27.05436,27.05436 0 0 0 22.02557,2.5002 c 0,0 12.501,4.167 15.53695,7.73871 3.03595,3.57171 5.45423,26.03713 5.45423,26.03713 l -15.696,2.06868 10.24177,48.32888 c 0,0 -40.89612,11.07231 -51.25409,-2.5002 0,0 2.143,-30.71675 -1.07152,-43.57492 4e-5,2e-5 -7.14339,0.3572 -17.14419,-10.00078 z"
         class="color376f92 svgShape"
         id="path45" />
      <path
         fill="#f7ac3c"
         d="m 246.4772,187.9943 c 0,0 -6.78626,23.93048 -4.8817,85.59906 0,0 -13.81027,30.00542 -14.52462,81.91433 h 18.3348 l 20.0016,-77.149 5.47663,-24.28765 5.95286,21.90651 c 0,0 -1.90492,52.147 6.07191,79.53017 h 17.97763 l 2.85737,-87.86417 -6.01239,-77.149 z"
         class="colorf73c4f svgShape"
         id="path46" />
      <path
         fill="#b07823"
         d="m 288.98055,275.50131 a 3.89719,3.89719 0 0 1 -2.59741,2.05969 9.50546,9.50546 0 0 1 -3.3374,0.36865 14.0071,14.0071 0 0 1 -6.209,-1.95215 c 1.10718,0.0282 2.155,0.17823 3.20044,0.2937 1.04261,0.12549 2.07154,0.21668 3.09107,0.29871 a 18.48781,18.48781 0 0 0 3.02026,-0.0419 5.42247,5.42247 0 0 0 2.83204,-1.02673 z m -35.24084,-1.77942 a 3.89772,3.89772 0 0 1 -2.59754,2.05969 9.508,9.508 0 0 1 -3.3374,0.36865 14.00653,14.00653 0 0 1 -6.20886,-1.95215 c 1.10706,0.0281 2.155,0.17823 3.20032,0.29358 1.04272,0.12561 2.07165,0.21668 3.09118,0.29883 a 18.473,18.473 0 0 0 3.02015,-0.042 5.42133,5.42133 0 0 0 2.83215,-1.0266 z m 4.04797,-67.27368 c 0.52307,4.12658 1.20215,8.217 1.92835,12.29126 0.75415,4.06958 1.60254,8.11608 2.6073,12.12194 1.00647,4.00611 2.21606,7.95142 3.56787,11.85254 a 97.02383,97.02383 0 0 0 4.99267,11.35706 58.95213,58.95213 0 0 1 -5.98425,-10.9729 93.50875,93.50875 0 0 1 -3.89673,-11.90357 115.50463,115.50463 0 0 1 -2.33325,-12.29028 93.40848,93.40848 0 0 1 -0.88196,-12.45605 z"
         class="colorb02336 svgShape"
         id="path47" />
      <path
         fill="#b07823"
         d="m 253.73971,220.02072 c 1.37817,1.758 2.49292,3.57824 3.705,5.32385 0.59667,0.87634 1.18969,1.74951 1.843,2.5708 a 15.74243,15.74243 0 0 0 2.18384,2.34424 6.44455,6.44455 0 0 1 -2.95447,-1.61145 12.8636,12.8636 0 0 1 -2.19909,-2.53784 17.4143,17.4143 0 0 1 -1.595,-2.91419 13.44667,13.44667 0 0 1 -0.98328,-3.17541 z m 11.66757,-19.68812 h 20.71594 c 0,0 -7.85777,44.28925 -20.71594,0 z m -23.10683,19.12068 c 7.25553,4.4506 11.43919,-19.11667 11.43919,-19.11667 h -9.5237 c -0.66708,4.81853 -1.36516,11.12866 -1.91549,19.11667 z"
         class="colorb02336 svgShape"
         id="path48" />
      <path
         fill="#d69f4b"
         d="m 228.79822,374.702 h 35.38057 a 2.72542,2.72542 0 0 0 2.71165,-2.99911 c 0,0 0.39521,-3.57257 -0.54619,-3.94864 l -21.619,-8.63628 c 0,0 -8.98613,10.95548 -15.927,1.82285 -3e-5,-4e-5 -5.81417,10.35903 -3e-5,13.76118 z m 54.75753,0 h 35.38057 a 2.72542,2.72542 0 0 0 2.71165,-2.99911 c 0,0 0.39521,-3.57257 -0.54619,-3.94864 l -21.619,-8.63628 c 0,0 -8.98613,10.95548 -15.927,1.82285 -3e-5,-4e-5 -5.81417,10.35903 -3e-5,13.76118 z"
         class="colord6694b svgShape"
         id="path49" />
      <path
         fill="#f9c67a"
         d="m 309.98012,204.03622 c 0,0 3.546,0.63406 8.42479,6.90456 4.87879,6.2705 8.04993,11.72522 3.69243,8.20664 l -3.27616,-2.73627 c 0,0 1.46361,6.21784 2.65995,9.84566 a 4.73031,4.73031 0 0 1 -1.67874,5.37242 c -1.55813,1.08634 -3.06068,0.83715 -5.244,-3.06429 -3.26544,-5.83515 -4.82419,-9.01065 -5.20881,-10.68737 -0.13324,-0.58089 -1.06679,-6.98039 -1.06679,-6.98039 z"
         class="colorf9977a svgShape"
         id="path50" />
      <path
         fill="#ddaa5e"
         d="m 317.63705,212.72848 a 3.45554,3.45554 0 0 1 1.12219,1.6676 3.23755,3.23755 0 0 1 0.0619,2.015 4.07761,4.07761 0 0 1 -1.03223,-1.69617 3.85682,3.85682 0 0 1 -0.15185,-1.98643 z m -0.0455,8.30029 a 30.01286,30.01286 0 0 1 2.07544,4.28552 c 0.58776,1.462 1.12609,2.89844 1.66564,4.43287 a 7.87169,7.87169 0 0 1 -1.532,-1.89112 15.12933,15.12933 0 0 1 -1.07959,-2.15649 17.81606,17.81606 0 0 1 -0.74756,-2.282 11.60133,11.60133 0 0 1 -0.38193,-2.38878 z m -2.02112,1.21045 c 0.8053,1.58728 1.39526,3.19641 2.03747,4.77942 0.30164,0.79895 0.6344,1.57849 0.97168,2.35425 a 12.53389,12.53389 0 0 0 1.22278,2.25635 5.29988,5.29988 0 0 1 -1.91882,-1.86707 12.39968,12.39968 0 0 1 -1.22522,-2.36694 16.9455,16.9455 0 0 1 -0.76868,-2.52759 12.16693,12.16693 0 0 1 -0.31921,-2.62842 z m -1.60926,1.57654 a 33.414,33.414 0 0 1 1.77039,3.96826 l 0.75183,2.00244 c 0.24951,0.67163 0.50134,1.34 0.722,2.0647 a 9.38251,9.38251 0 0 1 -2.42615,-3.69788 11.29013,11.29013 0 0 1 -0.81807,-4.33752 z"
         class="colordd765e svgShape"
         id="path51" />
      <path
         fill="#f9c67a"
         d="m 300.05291,140.4905 v 29.91538 a 16.08512,16.08512 0 0 0 1.58255,6.95749 l 15.20454,31.69312 -8.39352,2.86829 -18.656,-22.81888 a 32.98114,32.98114 0 0 1 -7.14172,-16.39519 l -4.02611,-29.36284 z"
         class="colorf9977a svgShape"
         id="path52" />
      <path
         fill="#22201d"
         d="m 262.79427,97.14913 c 0,0 12.10906,3.784 18.18031,-10.597 0,0 -4.25971,-3.24621 -0.3867,-5.90148 a 3.53734,3.53734 0 0 1 3.11268,-0.51086 1.44482,1.44482 0 0 1 1.14283,1.52009 l 5.95742,-8.57579 c 0,0 4.71818,0.65192 5.27293,-5.22648 0,0 5.30213,-2.31272 -0.35882,-5.73966 0,0 1.25324,-7.23774 -6.12664,-2.82947 0,0 -3.02846,-11.40087 -16.67711,2.3327 0,0 -19.042,-0.90454 -12.37654,16.55554 z"
         class="color1e1d22 svgShape"
         id="path53" />
      <path
         fill="#3b104f"
         d="m 247.19149,112.63113 a 10.22513,10.22513 0 0 0 -1.40234,3.718 36.2105,36.2105 0 0 0 -0.61536,3.93836 c -0.25354,2.65247 -0.3042,5.32581 -0.30933,7.999 0.0171,2.67652 0.10535,5.35651 0.2201,8.04279 0.1145,2.68695 0.26318,5.37689 0.32116,8.09015 -0.31091,-1.31977 -0.53466,-2.65338 -0.80517,-3.98328 -0.24548,-1.3327 -0.40112,-2.67834 -0.57605,-4.0224 a 75.56369,75.56369 0 0 1 -0.522,-8.12292 49.87909,49.87909 0 0 1 0.62194,-8.14881 c 0.144,-0.67126 0.26282,-1.34491 0.42762,-2.00964 0.1997,-0.65942 0.34436,-1.327 0.59961,-1.96961 a 15.06051,15.06051 0 0 1 0.82885,-1.88519 5.61779,5.61779 0 0 1 1.21097,-1.64645 z m 32.93799,0 a 10.223,10.223 0 0 0 -1.40247,3.718 36.26914,36.26914 0 0 0 -0.61535,3.93836 c -0.25354,2.65247 -0.3042,5.32581 -0.30933,7.999 0.0172,2.67652 0.10547,5.35651 0.22022,8.04279 0.1145,2.68695 0.26306,5.37689 0.321,8.09015 -0.31091,-1.31977 -0.53467,-2.65338 -0.80517,-3.98328 -0.24549,-1.3327 -0.40113,-2.67834 -0.57593,-4.0224 a 75.50453,75.50453 0 0 1 -0.522,-8.12292 49.86691,49.86691 0 0 1 0.62195,-8.14881 c 0.14392,-0.67126 0.2627,-1.34491 0.42749,-2.00964 0.19983,-0.65942 0.34449,-1.327 0.59961,-1.96961 a 15.062,15.062 0 0 1 0.82886,-1.88519 5.61817,5.61817 0 0 1 1.21112,-1.64645 z m -29.3949,46.48352 c 0.85791,2.48962 1.83252,4.91473 2.85779,7.303 a 59.74165,59.74165 0 0 0 3.51514,6.9151 32.99214,32.99214 0 0 0 2.13745,3.20361 25.12863,25.12863 0 0 0 2.4945,2.91187 17.64927,17.64927 0 0 0 6.41065,4.22473 14.10392,14.10392 0 0 1 -7.13294,-3.44434 25.2327,25.2327 0 0 1 -5.07775,-6.19543 39.38393,39.38393 0 0 1 -3.33342,-7.22919 38.59117,38.59117 0 0 1 -1.87142,-7.68935 z"
         class="color10394f svgShape"
         id="path54" />
      <path
         fill="#ddaa5e"
         d="m 274.78817,99.30938 c 0,0 3.56748,4.07567 7.02051,5.32277 -0.47209,-3.13015 1.11586,-4.0221 2.39873,-4.23852 v 0 c 0,0 -7.21148,0.26482 -9.41924,-1.08425 z"
         class="colordd765e svgShape"
         id="path55" />
      <rect
         width="158.30701"
         height="126.425"
         x="21.542999"
         y="242.23"
         fill="#d69f4b"
         class="colord6694b svgShape"
         id="rect55" />
      <rect
         width="180.843"
         height="3.848"
         x="10"
         y="238.382"
         fill="#d8a353"
         class="colore19974 svgShape"
         id="rect56" />
      <rect
         width="150.886"
         height="29.683001"
         x="25.254"
         y="246.078"
         fill="#937850"
         class="color935b50 svgShape"
         id="rect57" />
      <rect
         width="150.886"
         height="29.683001"
         x="25.254"
         y="275.76001"
         fill="#937850"
         class="color935b50 svgShape"
         id="rect58" />
      <rect
         width="150.886"
         height="29.683001"
         x="25.254"
         y="305.44299"
         fill="#937850"
         class="color935b50 svgShape"
         id="rect59" />
      <rect
         width="150.886"
         height="29.683001"
         x="25.254"
         y="335.125"
         fill="#937850"
         class="color935b50 svgShape"
         id="rect60" />
      <rect
         width="12.643"
         height="3.848"
         x="94.375"
         y="348.043"
         fill="#d69f4b"
         class="colord6694b svgShape"
         id="rect61" />
      <rect
         width="12.643"
         height="3.848"
         x="94.375"
         y="318.35999"
         fill="#d69f4b"
         class="colord6694b svgShape"
         id="rect62" />
      <rect
         width="12.643"
         height="3.848"
         x="94.375"
         y="288.67801"
         fill="#d69f4b"
         class="colord6694b svgShape"
         id="rect63" />
      <rect
         width="12.643"
         height="3.848"
         x="94.375"
         y="258.995"
         fill="#d69f4b"
         class="colord6694b svgShape"
         id="rect64" />
      <rect
         width="13.742"
         height="6.046"
         x="29.177999"
         y="368.65601"
         fill="#d8a353"
         class="colore19974 svgShape"
         id="rect65" />
      <rect
         width="13.742"
         height="6.046"
         x="158.474"
         y="368.65601"
         fill="#d8a353"
         class="colore19974 svgShape"
         id="rect66" />
      <line
         x1="25.254"
         x2="176.14"
         y1="275.76001"
         y2="275.76001"
         fill="none"
         stroke="#e1b674"
         stroke-miterlimit="10"
         stroke-width="0.763"
         class="colorStrokee19974 svgStroke"
         id="line66" />
      <line
         x1="25.254"
         x2="176.14"
         y1="305.44299"
         y2="305.44299"
         fill="none"
         stroke="#e1b674"
         stroke-miterlimit="10"
         stroke-width="0.763"
         class="colorStrokee19974 svgStroke"
         id="line67" />
      <line
         x1="25.254"
         x2="176.14"
         y1="335.125"
         y2="335.125"
         fill="none"
         stroke="#e1b674"
         stroke-miterlimit="10"
         stroke-width="0.763"
         class="colorStrokee19974 svgStroke"
         id="line68" />
      <path
         fill="#937850"
         d="M 441.73173,374.702 H 0.896 a 0.896,0.896 0 0 1 0,-1.792 h 440.83573 a 0.896,0.896 0 0 1 0,1.792 z"
         class="color935b50 svgShape"
         id="path68" />
      <path
         fill="#ffffff"
         d="m 128.7812,229.29053 h 51.30419 v 8.14531 H 128.7812 a 3.50483,3.50483 0 0 1 -3.50483,-3.50483 v -1.13566 a 3.50483,3.50483 0 0 1 3.50483,-3.50482 z"
         class="colorffffff svgShape"
         id="path69" />
      <path
         fill="#f6a52b"
         d="m 181.68982,237.64433 a 0.738,0.738 0 0 1 -0.738,0.738 h -53.24808 c -2.03307,0 -3.68681,-2.233 -3.68681,-4.9782 0,-2.74454 1.65374,-4.97753 3.68681,-4.97753 h 53.24809 a 0.738,0.738 0 0 1 0.738,0.738 v 0.5809 a 0.738,0.738 0 0 1 -0.738,0.738 h -53.24809 c -1.19307,0 -2.16349,1.31033 -2.16349,2.92063 0,1.611 0.97042,2.9213 2.16349,2.9213 h 53.24809 a 0.738,0.738 0 0 1 0.738,0.738 z"
         class="colorf65b2b svgShape"
         id="path70" />
      <path
         fill="#ffffff"
         d="m 120.77676,219.3348 h 51.30419 v 8.14531 h -51.30419 a 3.50483,3.50483 0 0 1 -3.50483,-3.50483 v -1.13566 a 3.50483,3.50483 0 0 1 3.50483,-3.50482 z"
         class="colorffffff svgShape"
         id="path71" />
      <path
         fill="#ffbb55"
         d="m 173.68539,227.6886 a 0.738,0.738 0 0 1 -0.738,0.738 h -53.24808 c -2.03307,0 -3.68681,-2.233 -3.68681,-4.9782 0,-2.74453 1.65374,-4.97753 3.68681,-4.97753 h 53.24808 a 0.738,0.738 0 0 1 0.738,0.738 v 0.5809 a 0.738,0.738 0 0 1 -0.738,0.738 h -53.24808 c -1.19307,0 -2.16349,1.31034 -2.16349,2.92063 0,1.611 0.97042,2.92131 2.16349,2.92131 h 53.24808 a 0.738,0.738 0 0 1 0.738,0.738 z"
         class="colorffba55 svgShape"
         id="path72" />
      <path
         fill="#ffffff"
         d="m 137.16151,209.37907 h 51.30419 v 8.14531 h -51.30419 a 3.50483,3.50483 0 0 1 -3.50483,-3.50483 v -1.13565 a 3.50483,3.50483 0 0 1 3.50483,-3.50483 z"
         class="colorffffff svgShape"
         id="path73" />
      <path
         fill="#f6a52b"
         d="m 190.07014,217.73288 a 0.738,0.738 0 0 1 -0.738,0.738 h -53.24808 c -2.03308,0 -3.68681,-2.233 -3.68681,-4.97819 0,-2.74454 1.65373,-4.97753 3.68681,-4.97753 h 53.24808 a 0.738,0.738 0 0 1 0.738,0.738 v 0.5809 a 0.738,0.738 0 0 1 -0.738,0.738 h -53.24808 c -1.19307,0 -2.16349,1.31034 -2.16349,2.92064 0,1.611 0.97042,2.9213 2.16349,2.9213 h 53.24808 a 0.738,0.738 0 0 1 0.738,0.738 z"
         class="colorf65b2b svgShape"
         id="path74" />
      <line
         x1="81.496002"
         x2="74.422997"
         y1="235.043"
         y2="235.043"
         fill="none"
         stroke="#ffffff"
         stroke-miterlimit="10"
         stroke-width="0.854"
         class="colorStrokeffffff svgStroke"
         id="line74" />
      <line
         x1="81.496002"
         x2="74.422997"
         y1="231.625"
         y2="231.625"
         fill="none"
         stroke="#ffffff"
         stroke-miterlimit="10"
         stroke-width="0.854"
         class="colorStrokeffffff svgStroke"
         id="line75" />
      <line
         x1="81.496002"
         x2="74.422997"
         y1="200.87"
         y2="200.87"
         fill="none"
         stroke="#ffffff"
         stroke-miterlimit="10"
         stroke-width="0.854"
         class="colorStrokeffffff svgStroke"
         id="line76" />
      <line
         x1="81.496002"
         x2="74.422997"
         y1="197.453"
         y2="197.453"
         fill="none"
         stroke="#ffffff"
         stroke-miterlimit="10"
         stroke-width="0.854"
         class="colorStrokeffffff svgStroke"
         id="line77" />
      <polygon
         fill="#d8a353"
         points="154.217,190.16 171.503,190.16 168.024,208.448 157.696,208.448 "
         class="colore19974 svgShape"
         id="polygon77" />
      <polygon
         fill="#d69f4b"
         points="154.217,190.16 154.614,192.248 171.106,192.248 171.503,190.16 "
         class="colord6694b svgShape"
         id="polygon78" />
      <rect
         width="3.085"
         height="3.085"
         x="156.979"
         y="199.77901"
         fill="#d69f4b"
         transform="rotate(45,158.522,201.321)"
         class="colord6694b svgShape"
         id="rect78" />
      <rect
         width="3.085"
         height="3.085"
         x="161.342"
         y="199.77901"
         fill="#d69f4b"
         transform="rotate(45,162.885,201.321)"
         class="colord6694b svgShape"
         id="rect79" />
      <rect
         width="3.085"
         height="3.085"
         x="165.655"
         y="199.77901"
         fill="#d69f4b"
         transform="rotate(45,167.198,201.321)"
         class="colord6694b svgShape"
         id="rect80" />
      <path
         fill="#806131"
         d="m 166.88285,174.76832 c 0,0 0.90687,12.81189 -4.40838,15.52708 0,0 -1.84013,-4.8574 4.40838,-15.52708 z"
         class="color558031 svgShape"
         id="path80" />
      <path
         fill="#9f7e4c"
         d="m 149.73154,180.27175 a 18.74359,18.74359 0 0 1 12.74293,10.02365 c 0,0 -9.56208,-3.24768 -12.74293,-10.02365 z"
         class="color849f4c svgShape"
         id="path81" />
      <path
         fill="#b89662"
         d="m 152.81473,197.05361 c 0,0 4.42226,-6.61587 9.65974,-6.75821 0,0 -0.78847,5.32699 -9.65974,6.75821 z"
         class="colora6b862 svgShape"
         id="path82" />
      <path
         fill="#9f7e4c"
         d="m 158.26966,176.59451 c 0,0 6.1359,5.60229 4.20481,13.70089 0,0 -3.39906,-3.60297 -4.20481,-13.70089 z"
         class="color849f4c svgShape"
         id="path83" />
      <path
         fill="#b89662"
         d="m 162.47447,190.2954 c 0,0 2.15577,-7.89137 13.05367,-9.91493 0,0 -2.45251,7.18522 -13.05367,9.91493 z"
         class="colora6b862 svgShape"
         id="path84" />
      <path
         fill="#9f7e4c"
         d="m 178.415,188.23254 c 0,0 -8.31479,-3.42784 -15.94055,2.06286 2e-5,0 10.13765,1.21711 15.94055,-2.06286 z"
         class="color849f4c svgShape"
         id="path85" />
      <path
         fill="#806131"
         d="m 178.33938,196.21292 c 0,0 -4.01482,-6.4308 -15.86491,-5.91752 z m -33.0866,-6.95845 c 0,0 10.91992,-4.04907 17.36459,0.84732 0,0 -6.11937,3.37063 -17.36459,-0.84732 z"
         class="color558031 svgShape"
         id="path86" />
      <path
         fill="#806131"
         d="m 154.20738,177.53 c 0,0 9.74388,6.89157 8.34611,12.771 0,0 -6.76,-5.42009 -8.34611,-12.771 z"
         class="color558031 svgShape"
         id="path87" />
      <path
         fill="#9f7e4c"
         d="m 171.29992,197.15484 c 0,0 -8.03272,-1.37136 -8.82545,-6.85944 0,0 5.86928,0.2907 8.82545,6.85944 z"
         class="color849f4c svgShape"
         id="path88" />
      <path
         fill="none"
         stroke="#9d7436"
         stroke-linecap="round"
         stroke-linejoin="round"
         stroke-width="1.688"
         d="m 16.1114,207.72419 c 0,0 13.25147,9.7674 17.58578,8.64822"
         class="colorStroke8b9d36 svgStroke"
         id="path89" />
      <line
         x1="30.854"
         x2="32.890999"
         y1="189.153"
         y2="217.08501"
         fill="none"
         stroke="#9d7436"
         stroke-linecap="round"
         stroke-linejoin="round"
         stroke-width="1.688"
         class="colorStroke8b9d36 svgStroke"
         id="line89" />
      <path
         fill="none"
         stroke="#9d7436"
         stroke-linecap="round"
         stroke-linejoin="round"
         stroke-width="1.688"
         d="m 41.45863,217.82672 c 0,0 2.19621,-12.3919 13.69785,-17.75882"
         class="colorStroke8b9d36 svgStroke"
         id="path90" />
      <path
         fill="#7c5924"
         d="m 40.45058,214.948 c -0.68617,-1.34384 -4.37361,-1.3457 -6.72827,0.30532 a 6.44807,6.44807 0 0 0 -2.26791,2.976 c -0.40092,1.03271 -1.0426,2.68518 -0.15114,3.81539 a 3.3454,3.3454 0 0 0 3.70425,0.68661 18.05556,18.05556 0 0 0 3.17516,-3.12857 c 1.366,-1.72947 2.821,-3.57154 2.26791,-4.65475 z m 2.87289,-0.15257 c -0.257,0.67481 0.25285,1.44836 1.20952,2.89963 a 13.93165,13.93165 0 0 0 3.3263,3.51027 3.96853,3.96853 0 0 0 4.68718,0.53406 3.79666,3.79666 0 0 0 1.73861,-3.20495 c -0.01558,-1.977 -1.70478,-3.2004 -2.34338,-3.66284 -3.0927,-2.23992 -7.99686,-1.70732 -8.61823,-0.0762 z m 9.07165,-12.66705 c 0.22538,-0.38419 0.80943,-0.189 2.11678,-0.3817 a 24.34865,24.34865 0 0 0 3.25083,-0.99194 12.51023,12.51023 0 0 1 2.79721,-0.68682 c 0.3962,0.002 2.63561,0.012 3.40177,1.5262 0.80266,1.58623 -0.68331,3.49558 -0.7559,3.58645 -1.43655,1.79488 -3.89087,1.70732 -4.68718,1.67875 a 7.23632,7.23632 0 0 1 -5.06512,-2.44175 c -0.17924,-0.20057 -1.44987,-1.62224 -1.05839,-2.28919 z m -20.63824,-7.40205 c -0.79794,-0.40178 -0.331,-2.95448 -0.07567,-4.34944 a 25.89029,25.89029 0 0 1 1.43634,-4.34966 c 1.32293,-3.48543 1.6248,-3.86093 2.11677,-4.04412 a 3.16375,3.16375 0 0 1 3.47765,1.60237 c 0.87464,1.69242 -0.46614,3.832 -1.89,6.10459 -1.3674,2.18238 -4.02721,5.55873 -5.06509,5.03626 z"
         class="color5e7c24 svgShape"
         id="path91" />
      <path
         fill="#cea86e"
         d="m 31.4544,201.44156 c 0.58692,-0.95509 -0.493,-2.82283 -1.58748,-3.81539 a 7.04336,7.04336 0 0 0 -3.47765,-1.44981 c -1.81818,-0.43822 -3.8195,-0.92053 -4.38469,-0.0764 -0.53893,0.80481 0.51536,2.38586 0.75611,2.74708 a 6.68308,6.68308 0 0 0 3.09949,2.36557 c 1.61537,0.66861 4.83688,1.4612 5.59422,0.22894 z"
         class="colorc4ce6e svgShape"
         id="path92" />
      <path
         fill="#7c5924"
         d="m 31.53007,208.8434 c 0.02153,-0.75989 -1.077,-0.91741 -3.3263,-2.74707 -1.78558,-1.45251 -1.83644,-1.95758 -2.87288,-2.28919 -1.58666,-0.50756 -3.65791,-0.0242 -4.00674,0.99193 -0.08531,0.24881 -0.07321,0.54586 1.2852,2.74707 1.05674,1.71229 1.59568,2.57506 2.11677,2.89964 a 4.96663,4.96663 0 0 0 3.77993,0.38149 c 0.94887,-0.22459 2.99495,-0.95405 3.02402,-1.98387 z m 0.8267,-8.78264 c -0.74093,-0.83895 0.0046,-2.86636 0.91363,-4.03415 a 7.071,7.071 0 0 1 3.17875,-2.032 c 1.71641,-0.74737 3.6057,-1.57 4.30631,-0.83654 0.66806,0.69924 -0.10109,2.43978 -0.2767,2.83741 a 6.71428,6.71428 0 0 1 -2.65017,2.86847 c -1.47735,0.93905 -4.51577,2.27921 -5.47182,1.19681 z m 0.54823,7.8856 c -0.1507,-0.74483 0.90466,-1.09075 2.80859,-3.28366 1.51144,-1.74088 1.47547,-2.24726 2.44,-2.75388 1.47651,-0.77548 3.59925,-0.659 4.11605,0.28148 0.12644,0.23029 0.16514,0.525 -0.79791,2.92927 -0.7492,1.87025 -1.13307,2.81373 -1.59109,3.22394 a 4.9739,4.9739 0 0 1 -3.65857,1.0321 c -0.97307,-0.0565 -3.11288,-0.41984 -3.31707,-1.42925 z m -12.10994,3.94923 c -0.106,-0.828 -1.46956,-1.285 -3.09949,-1.83131 -1.47264,-0.49349 -2.64176,-0.88554 -4.00674,-0.45788 -0.24137,0.0755 -2.38849,0.74809 -2.5704,2.36557 -0.16323,1.45085 1.38466,2.51006 1.512,2.59452 a 4.57317,4.57317 0 0 0 3.55311,0.3815 c 2.12582,-0.40899 4.76758,-1.83442 4.61152,-3.0524 z"
         class="color5e7c24 svgShape"
         id="path93" />
      <path
         fill="#cea86e"
         d="m 26.91857,215.711 c -1.13837,-0.81226 -3.28693,0.56552 -4.30922,1.22108 a 9.03731,9.03731 0 0 0 -2.64587,2.59431 c -0.78748,1.18175 -1.53682,2.30658 -1.13406,3.28134 0.57913,1.40117 3.07919,1.38026 3.402,1.37343 a 5.43712,5.43712 0 0 0 3.70425,-1.67876 5.78358,5.78358 0 0 0 1.43654,-2.89963 c 0.13759,-0.63488 0.66979,-3.09009 -0.45364,-3.89177 z"
         class="colorc4ce6e svgShape"
         id="path94" />
      <path
         fill="#9d7436"
         d="m 17.84671,207.92764 c -0.64045,-0.93128 -0.4161,-1.5914 -0.68044,-3.20495 -0.42019,-2.56512 -1.31411,-2.89363 -0.98271,-4.19689 0.26085,-1.02567 1.14472,-2.12049 2.11677,-2.13663 1.36149,-0.0228 2.23736,2.08157 2.41906,2.51813 0.66074,1.58726 0.41712,2.971 0,5.34159 -0.27234,1.54752 -0.48008,2.65537 -1.13386,2.82345 -0.63204,0.1625 -1.38445,-0.62948 -1.73882,-1.1447 z m 28.9542,-0.22894 c 0.202,-0.57152 1.27269,-0.65805 2.5704,-0.763 1.62131,-0.131 2.83658,-0.22936 4.00673,0.53405 0.18006,0.11737 2.07453,1.389 1.73862,2.89984 -0.26249,1.18051 -1.72939,1.79985 -2.797,1.83131 -1.15847,0.0342 -1.94616,-0.62078 -3.402,-1.83131 -1.14696,-0.95359 -2.36551,-1.96709 -2.11675,-2.67089 z"
         class="color8b9d36 svgShape"
         id="path95" />
      <path
         fill="#7c5924"
         d="m 48.69087,203.34926 c -0.291,-0.0662 -0.309,-0.47155 -0.68044,-1.60258 -0.82993,-2.52683 -1.4796,-2.75639 -1.36066,-3.81539 0.13166,-1.17161 1.09858,-2.41919 1.96543,-2.36558 0.945,0.0584 1.51016,1.64667 1.73882,2.2894 a 4.9504,4.9504 0 0 1 0.30248,2.36558 c -0.21204,1.64046 -1.33462,3.27243 -1.96563,3.12857 z"
         class="color5e7c24 svgShape"
         id="path96" />
      <path
         fill="#9d7436"
         d="m 29.94239,192.361 c -0.44112,0.62555 -2.94569,-0.11529 -4.6115,-1.60258 -0.42533,-0.37963 -2.3077,-2.06046 -1.81429,-3.66283 a 1.88772,1.88772 0 0 1 1.512,-1.37343 c 0.70627,-0.0174 1.16543,0.70007 2.34358,2.44175 2.42255,3.58186 2.76359,3.92278 2.57021,4.19709 z"
         class="color8b9d36 svgShape"
         id="path97" />
      <path
         fill="#cea86e"
         d="m 43.70142,209.2249 c -1.26859,0.34527 -2.92846,-2.3339 -3.3263,-2.976 a 9.84444,9.84444 0 0 1 -1.512,-5.49415 c 0.05434,-1.21342 0.15339,-3.42582 1.43634,-3.968 1.22921,-0.51936 2.892,0.77045 3.70425,1.75493 1.60286,1.94227 1.34795,4.455 1.13406,6.56247 -0.16653,1.64195 -0.38924,3.83571 -1.43635,4.12075 z"
         class="colorc4ce6e svgShape"
         id="path98" />
      <path
         fill="#937850"
         d="M 43.88532,238.38233 H 31.42 l -4.01024,-21.27555 a 0.84563,0.84563 0 0 1 0.82519,-1.00633 h 18.83542 a 0.84562,0.84562 0 0 1 0.82518,1.00633 z"
         class="color935b50 svgShape"
         id="path99" />
      <path
         fill="#d69f4b"
         d="m 47.60583,218.64405 0.28977,-1.53725 a 0.84562,0.84562 0 0 0 -0.82518,-1.00634 H 28.23491 a 0.84562,0.84562 0 0 0 -0.82518,1.00634 l 0.28977,1.53725 z"
         class="colord6694b svgShape"
         id="path100" />
      <polygon
         fill="#d69f4b"
         points="32.416,227.041 35.05,229.699 32.416,232.357 29.783,229.699 "
         class="colord6694b svgShape"
         id="polygon100" />
      <polygon
         fill="#d69f4b"
         points="37.683,227.041 40.316,229.699 37.683,232.357 35.05,229.699 "
         class="colord6694b svgShape"
         id="polygon101" />
      <polygon
         fill="#d69f4b"
         points="42.889,227.041 45.522,229.699 42.889,232.357 40.255,229.699 "
         class="colord6694b svgShape"
         id="polygon102" />
      <path
         fill="#5fe4d4"
         d="m 91.31625,212.15513 h 44.2465 v 6.95719 h -44.2465 a 0.72314,0.72314 0 0 1 -0.72314,-0.72314 v -5.51091 a 0.72314,0.72314 0 0 1 0.72314,-0.72314 z"
         transform="rotate(97.76,113.078,215.634)"
         class="color7ca1b1 svgShape"
         id="path102" />
      <line
         x1="119.098"
         x2="112.204"
         y1="197.22099"
         y2="196.282"
         fill="none"
         stroke="#ffffff"
         stroke-miterlimit="10"
         stroke-width="0.84"
         class="colorStrokeffffff svgStroke"
         id="line102" />
      <line
         x1="118.644"
         x2="111.75"
         y1="200.55099"
         y2="199.612"
         fill="none"
         stroke="#ffffff"
         stroke-miterlimit="10"
         stroke-width="0.84"
         class="colorStrokeffffff svgStroke"
         id="line103" />
      <line
         x1="114.56"
         x2="107.666"
         y1="230.52299"
         y2="229.584"
         fill="none"
         stroke="#ffffff"
         stroke-miterlimit="10"
         stroke-width="0.84"
         class="colorStrokeffffff svgStroke"
         id="line104" />
      <line
         x1="114.106"
         x2="107.212"
         y1="233.853"
         y2="232.914"
         fill="none"
         stroke="#ffffff"
         stroke-miterlimit="10"
         stroke-width="0.84"
         class="colorStrokeffffff svgStroke"
         id="line105" />
      <path
         fill="#f6a52b"
         d="m 97.231,194.13583 v 44.2465 h -6.9572 v -44.24649 a 0.72314,0.72314 0 0 1 0.72313,-0.72314 h 5.51092 a 0.72314,0.72314 0 0 1 0.72315,0.72313 z"
         class="colorf65b2b svgShape"
         id="path105" />
      <rect
         width="6.9569998"
         height="0.83999997"
         x="90.274002"
         y="234.534"
         fill="#ffffff"
         class="colorffffff svgShape"
         id="rect105" />
      <rect
         width="6.9569998"
         height="0.83999997"
         x="90.274002"
         y="231.173"
         fill="#ffffff"
         class="colorffffff svgShape"
         id="rect106" />
      <rect
         width="6.9569998"
         height="0.83999997"
         x="90.274002"
         y="200.925"
         fill="#ffffff"
         class="colorffffff svgShape"
         id="rect107" />
      <rect
         width="6.9569998"
         height="0.83999997"
         x="90.274002"
         y="197.563"
         fill="#ffffff"
         class="colorffffff svgShape"
         id="rect108" />
      <path
         fill="#ffbb55"
         d="m 97.2226,238.38233 v -42.22992 a 0.72314,0.72314 0 0 1 0.72314,-0.72314 h 7.9308 a 0.72314,0.72314 0 0 1 0.72314,0.72314 v 42.22992 z"
         class="colorffba55 svgShape"
         id="path108" />
      <rect
         width="9.3769999"
         height="0.83999997"
         x="97.222"
         y="233.09801"
         fill="#ffffff"
         class="colorffffff svgShape"
         id="rect109" />
      <rect
         width="20.065001"
         height="6.0500002"
         x="91.878998"
         y="204.85699"
         fill="#ffffff"
         transform="rotate(90,101.911,207.882)"
         class="colorffffff svgShape"
         id="rect110" />
      <path
         fill="#ffbb55"
         d="m 73.95236,194.13583 v 44.2465 h 6.95719 v -44.24649 a 0.72314,0.72314 0 0 0 -0.72314,-0.72314 h -5.51092 a 0.72314,0.72314 0 0 0 -0.72313,0.72313 z"
         class="colorffba55 svgShape"
         id="path110" />
      <rect
         width="6.9580002"
         height="0.83999997"
         x="73.952003"
         y="234.534"
         fill="#ffffff"
         class="colorffffff svgShape"
         id="rect111" />
      <rect
         width="6.9580002"
         height="0.83999997"
         x="73.952003"
         y="231.173"
         fill="#ffffff"
         class="colorffffff svgShape"
         id="rect112" />
      <rect
         width="6.9580002"
         height="0.83999997"
         x="73.952003"
         y="200.925"
         fill="#ffffff"
         class="colorffffff svgShape"
         id="rect113" />
      <rect
         width="6.9580002"
         height="0.83999997"
         x="73.952003"
         y="197.563"
         fill="#ffffff"
         class="colorffffff svgShape"
         id="rect114" />
      <path
         fill="#f6a52b"
         d="m 73.96077,238.38233 v -42.22992 a 0.72313,0.72313 0 0 0 -0.72313,-0.72314 h -7.9308 a 0.72314,0.72314 0 0 0 -0.72314,0.72314 v 42.22992 z"
         class="colorf65b2b svgShape"
         id="path114" />
      <rect
         width="9.3769999"
         height="0.83999997"
         x="64.584"
         y="233.09801"
         fill="#ffffff"
         class="colorffffff svgShape"
         id="rect115" />
      <rect
         width="20.065001"
         height="6.0500002"
         x="59.240002"
         y="204.85699"
         fill="#ffffff"
         transform="rotate(90,69.272,207.882)"
         class="colorffffff svgShape"
         id="rect116" />
      <path
         fill="#5fe4d4"
         d="m 64.8383,212.21726 h 42.22992 v 9.37708 H 64.8383 a 0.72314,0.72314 0 0 1 -0.72314,-0.72314 v -7.9308 a 0.72314,0.72314 0 0 1 0.72314,-0.72314 z"
         transform="rotate(90,85.592,216.906)"
         class="color7ca1b1 svgShape"
         id="path116" />
      <line
         x1="80.903"
         x2="90.279999"
         y1="233.517"
         y2="233.517"
         fill="none"
         stroke="#ffffff"
         stroke-miterlimit="10"
         stroke-width="0.84"
         class="colorStrokeffffff svgStroke"
         id="line116" />
      <rect
         width="20.065001"
         height="6.0500002"
         x="75.558998"
         y="204.85699"
         fill="#ffffff"
         transform="rotate(90,85.592,207.882)"
         class="colorffffff svgShape"
         id="rect117" />
    </g>
  </g>
</svg>
