<?xml version="1.0" encoding="UTF-8" standalone="no"?>
<svg
   enable-background="new 0 0 1080 1080"
   viewBox="0 0 1400 1000"
   id="Businessgoal"
   version="1.1"
   sodipodi:docname="Minigames.svg"
   width="1400"
   height="1000"
   inkscape:export-filename="Achievements.svg"
   inkscape:export-xdpi="96"
   inkscape:export-ydpi="96"
   xml:space="preserve"
   xmlns:inkscape="http://www.inkscape.org/namespaces/inkscape"
   xmlns:sodipodi="http://sodipodi.sourceforge.net/DTD/sodipodi-0.dtd"
   xmlns="http://www.w3.org/2000/svg"
   xmlns:svg="http://www.w3.org/2000/svg"><defs
     id="defs58" /><sodipodi:namedview
     id="namedview58"
     pagecolor="#505050"
     bordercolor="#ffffff"
     borderopacity="1"
     inkscape:showpageshadow="0"
     inkscape:pageopacity="0"
     inkscape:pagecheckerboard="1"
     inkscape:deskcolor="#505050" /><g
     id="g59"
     transform="matrix(2.6959075,0,0,2.4992418,-239.47462,-209.70091)"><path
       fill="#8526fe"
       d="m 427.84136,473.65586 c 16.25,-5.08 30.83,-10.27 48.37,-20.12 18.09,-10.16 98.45,-58.51 108.9,-142.19 a 159.61541,159.61541 0 0 0 -6.66,-68.16 c -3.23,-9.47 -9.93,-28.49 -26.84,-47.3 -20.7,-23.04 -44.32,-31.97 -58.17,-37.02 -29.14,-10.63 -53.58,-10.07 -65.22,-9.69 -12.56,0.41 -34.73,1.33 -59.93,12.34 -16.44,7.18 -26.66,15.37 -41.72,27.61 -23.86,19.41 -27,27.49 -68.74,67.57 -11.46,11 -20.88,19.67 -35.26,28.21 -9.97,5.92 -18.03,9.23 -32.9,15.27 -36.55,14.85 -46.95657,17.85677 -58.91657,26.21677 -23.26,16.27 -21.75343,34.01323 -22.75343,37.83323 a 75.12694,75.12694 0 0 0 -1.77,29.97 c 3.05,20.07 13.86,33.19 20.57,41.13 a 113.09822,113.09822 0 0 0 32.9,26.44 210.24676,210.24676 0 0 0 26.96,11.89 z"
       class="colord5efc8 svgShape"
       id="path1" /><path
       fill="#ecb96c"
       d="m 479.43227,459.47016 -0.49024,-0.8711 C 502.8434,445.1723 581.64027,394.8393 592.12074,310.86273 a 166.32881,166.32881 0 0 0 -6.91406,-70.77246 c -2.97656,-8.73144 -9.94824,-29.17773 -27.84766,-49.0957 C 535.43813,166.604 510.41371,157.476 496.96938,152.5727 A 174.05493,174.05493 0 0 0 429.2223,142.50434 c -12.4248,0.40429 -35.55078,1.15625 -62.24316,12.81054 l -0.40039,-0.916 c 26.86816,-11.73145 51.00879,-12.5166 62.61035,-12.89453 a 175.02522,175.02522 0 0 1 68.12207,10.1289 c 13.52637,4.9336 38.7041,14.11719 60.792,38.69336 18.03613,20.06933 25.05371,40.65239 28.05083,49.44139 a 167.3994,167.3994 0 0 1 6.959,71.21777 c -10.53913,84.44239 -89.67683,135.00099 -113.68073,148.48439 z"
       class="colorbbec6c svgShape"
       id="path2" /><path
       fill="#937850"
       d="M 532.20779,234.481 V 472.41586 H 586 V 234.481 a 2.58119,2.58119 0 0 0 -2.5812,-2.58119 H 534.789 a 2.58119,2.58119 0 0 0 -2.58121,2.58119 z"
       class="color935b50 svgShape"
       id="path3" /><rect
       width="47.855"
       height="35.542999"
       x="535.17603"
       y="275.186"
       fill="#d8a353"
       rx="2.5810001"
       class="colore19974 svgShape"
       id="rect3" /><rect
       width="47.855"
       height="35.542999"
       x="535.17603"
       y="235.772"
       fill="#d8a353"
       rx="2.5810001"
       class="colore19974 svgShape"
       id="rect4" /><path
       fill="#d69f4b"
       d="m 579.99184,266.80366 a 1.59464,1.59464 0 1 1 -2.2533,2.25329 9.55928,9.55928 0 0 0 0.561,-0.89795 2.02763,2.02763 0 0 1 0.32531,-0.46887 c 0.24223,-0.24613 0.55595,-0.3186 1.36699,-0.88647 z m -2.2533,-28.77429 a 1.59461,1.59461 0 1 1 2.2533,2.25317 9.54258,9.54258 0 0 0 -0.89808,-0.561 2.03026,2.03026 0 0 1 -0.46887,-0.32531 c -0.24597,-0.24211 -0.3186,-0.55595 -0.88635,-1.36686 z m -39.52254,2.25317 a 1.5946,1.5946 0 1 1 2.25329,-2.25317 9.54221,9.54221 0 0 0 -0.561,0.89794 2.03066,2.03066 0 0 1 -0.32532,0.46888 c -0.24226,0.24609 -0.55597,0.3186 -1.36697,0.88635 z m 2.25325,28.77441 a 1.59464,1.59464 0 1 1 -2.25329,-2.25329 9.48741,9.48741 0 0 0 0.89807,0.561 2.02687,2.02687 0 0 1 0.46887,0.32544 c 0.24597,0.2421 0.3186,0.5559 0.88635,1.36685 z m 39.52259,37.16162 a 1.59465,1.59465 0 1 1 -2.2533,2.2533 9.55928,9.55928 0 0 0 0.561,-0.898 2.02868,2.02868 0 0 1 0.32531,-0.469 c 0.24223,-0.24587 0.55595,-0.31855 1.36699,-0.8863 z m -2.2533,-28.77441 a 1.59465,1.59465 0 1 1 2.2533,2.2533 9.54258,9.54258 0 0 0 -0.89808,-0.561 2.03,2.03 0 0 1 -0.46887,-0.32532 c -0.24597,-0.24222 -0.3186,-0.55594 -0.88635,-1.36698 z m -39.52254,2.2533 a 1.59464,1.59464 0 1 1 2.25329,-2.2533 9.5565,9.5565 0 0 0 -0.561,0.89795 2.029,2.029 0 0 1 -0.32532,0.469 c -0.24226,0.24597 -0.55597,0.3186 -1.36697,0.88635 z m 2.25325,28.77441 a 1.59464,1.59464 0 1 1 -2.25329,-2.2533 9.54144,9.54144 0 0 0 0.89807,0.561 2.03,2.03 0 0 1 0.46887,0.32532 c 0.24597,0.24222 0.3186,0.55594 0.88635,1.36698 z"
       class="colord6694b svgShape"
       id="path4" /><rect
       width="47.855"
       height="35.542999"
       x="535.17603"
       y="314.60101"
       fill="#d8a353"
       rx="2.5810001"
       class="colore19974 svgShape"
       id="rect5" /><rect
       width="47.855"
       height="35.542999"
       x="535.17603"
       y="354.01599"
       fill="#d8a353"
       rx="2.5810001"
       class="colore19974 svgShape"
       id="rect6" /><rect
       width="47.855"
       height="35.542999"
       x="535.17603"
       y="393.431"
       fill="#d8a353"
       rx="2.5810001"
       class="colore19974 svgShape"
       id="rect7" /><rect
       width="47.855"
       height="35.542999"
       x="535.17603"
       y="432.84601"
       fill="#d8a353"
       rx="2.5810001"
       class="colore19974 svgShape"
       id="rect8" /><rect
       width="14.713"
       height="5.421"
       x="551.74701"
       y="248.703"
       fill="#d69f4b"
       rx="1"
       class="colord6694b svgShape"
       id="rect9" /><rect
       width="14.713"
       height="5.421"
       x="551.74701"
       y="327.53299"
       fill="#d69f4b"
       rx="1"
       class="colord6694b svgShape"
       id="rect10" /><rect
       width="14.713"
       height="5.421"
       x="551.74701"
       y="366.948"
       fill="#d69f4b"
       rx="1"
       class="colord6694b svgShape"
       id="rect11" /><rect
       width="14.713"
       height="5.421"
       x="551.74701"
       y="445.77802"
       fill="#d69f4b"
       rx="1"
       class="colord6694b svgShape"
       id="rect12" /><rect
       width="14.713"
       height="5.421"
       x="551.74701"
       y="406.36301"
       fill="#d69f4b"
       rx="1"
       class="colord6694b svgShape"
       id="rect13" /><rect
       width="14.713"
       height="5.421"
       x="551.74701"
       y="288.11801"
       fill="#d69f4b"
       rx="1"
       class="colord6694b svgShape"
       id="rect14" /><path
       fill="#d69f4b"
       d="m 579.99184,345.63349 a 1.59461,1.59461 0 1 1 -2.2533,2.25318 9.54613,9.54613 0 0 0 0.561,-0.89795 2.02771,2.02771 0 0 1 0.32531,-0.46888 c 0.24223,-0.24609 0.55595,-0.3186 1.36699,-0.88635 z m -2.2533,-28.77441 a 1.59465,1.59465 0 1 1 2.2533,2.25329 9.48854,9.48854 0 0 0 -0.89808,-0.561 2.02687,2.02687 0 0 1 -0.46887,-0.32544 c -0.24597,-0.2421 -0.3186,-0.55593 -0.88635,-1.36685 z m -39.52254,2.25329 a 1.59464,1.59464 0 1 1 2.25329,-2.25329 9.5565,9.5565 0 0 0 -0.561,0.89795 2.02793,2.02793 0 0 1 -0.32532,0.46887 c -0.24226,0.2461 -0.55597,0.3186 -1.36697,0.88647 z m 2.25325,28.7743 a 1.59461,1.59461 0 1 1 -2.25329,-2.25318 9.54144,9.54144 0 0 0 0.89807,0.561 2.03026,2.03026 0 0 1 0.46887,0.32531 c 0.24597,0.24211 0.3186,0.55595 0.88635,1.36687 z m 39.52259,37.16162 a 1.59464,1.59464 0 1 1 -2.2533,2.25329 9.55928,9.55928 0 0 0 0.561,-0.89795 2.02763,2.02763 0 0 1 0.32531,-0.46887 c 0.24223,-0.24609 0.55595,-0.3186 1.36699,-0.88647 z m -2.2533,-28.77429 a 1.59461,1.59461 0 1 1 2.2533,2.25318 9.54258,9.54258 0 0 0 -0.89808,-0.561 2.03026,2.03026 0 0 1 -0.46887,-0.32531 c -0.24597,-0.24212 -0.3186,-0.55596 -0.88635,-1.36687 z m -39.52254,2.25317 a 1.59461,1.59461 0 1 1 2.25329,-2.25318 9.54336,9.54336 0 0 0 -0.561,0.89795 2.03088,2.03088 0 0 1 -0.32532,0.46888 c -0.24226,0.24609 -0.55597,0.3186 -1.36697,0.88635 z m 2.25325,28.77441 a 1.59464,1.59464 0 1 1 -2.25329,-2.25329 9.48741,9.48741 0 0 0 0.89807,0.561 2.02625,2.02625 0 0 1 0.46887,0.32544 c 0.24597,0.2421 0.3186,0.55594 0.88635,1.36685 z m 39.52259,76.57642 a 1.59465,1.59465 0 1 1 -2.2533,2.25329 9.55928,9.55928 0 0 0 0.561,-0.89795 2.02763,2.02763 0 0 1 0.32531,-0.46887 c 0.24223,-0.24609 0.55595,-0.3186 1.36699,-0.88647 z m -2.2533,-28.77429 a 1.59465,1.59465 0 1 1 2.2533,2.25329 9.52436,9.52436 0 0 0 -0.89808,-0.56116 2.02291,2.02291 0 0 1 -0.46887,-0.32531 c -0.24597,-0.24207 -0.3186,-0.55591 -0.88635,-1.36682 z M 538.216,437.357 a 1.59464,1.59464 0 1 1 2.25329,-2.25329 9.5565,9.5565 0 0 0 -0.561,0.898 2.02793,2.02793 0 0 1 -0.32532,0.46887 c -0.24226,0.24604 -0.55597,0.31855 -1.36697,0.88642 z m 2.25325,28.77429 a 1.59464,1.59464 0 1 1 -2.25325,-2.25329 9.52323,9.52323 0 0 0 0.89807,0.56116 2.02291,2.02291 0 0 1 0.46887,0.32531 c 0.24593,0.24207 0.31856,0.55591 0.88631,1.36682 z m 39.52259,-41.66809 a 1.59465,1.59465 0 1 1 -2.2533,2.2533 9.54276,9.54276 0 0 0 0.561,-0.89807 2.03026,2.03026 0 0 1 0.32531,-0.46887 c 0.24223,-0.24598 0.55595,-0.31856 1.36699,-0.88636 z m -2.2533,-28.77441 a 1.59464,1.59464 0 1 1 2.2533,2.25329 9.54411,9.54411 0 0 0 -0.89808,-0.561 2.02625,2.02625 0 0 1 -0.46887,-0.32544 c -0.24597,-0.2421 -0.3186,-0.55582 -0.88635,-1.36685 z m -39.52254,2.25329 a 1.59464,1.59464 0 1 1 2.25329,-2.25329 9.5565,9.5565 0 0 0 -0.561,0.898 2.0253,2.0253 0 0 1 -0.32532,0.46887 c -0.24226,0.24604 -0.55597,0.31855 -1.36697,0.88642 z m 2.25325,28.77442 a 1.59464,1.59464 0 1 1 -2.25329,-2.2533 9.54144,9.54144 0 0 0 0.89807,0.561 2.03,2.03 0 0 1 0.46887,0.32532 c 0.24597,0.24222 0.3186,0.55594 0.88635,1.36698 z"
       class="colord6694b svgShape"
       id="path14" /><path
       fill="#ad59d4"
       d="m 249.67527,291.79192 h 138.57647 a 20.803,20.803 0 0 1 20.803,20.803 v 90.08882 H 228.87226 v -90.08881 a 20.803,20.803 0 0 1 20.80301,-20.80301 z"
       class="color8795de svgShape"
       id="path15" /><rect
       width="57.298"
       height="57.298"
       x="409.05499"
       y="337.198"
       fill="#d0a2e6"
       class="colora2aee6 svgShape"
       id="rect15" /><path
       fill="#a74fd0"
       d="m 409.0547,337.19794 c 0.2063,4.77478 0.30286,9.54969 0.38294,14.32447 0.0823,4.7749 0.0747,9.54968 0.11657,14.32446 -0.0392,4.7749 -0.0351,9.54968 -0.11486,14.32459 l -0.13953,7.16223 c -0.083,2.38745 -0.13171,4.77478 -0.24512,7.16223 -0.11328,-2.38745 -0.162,-4.77478 -0.24512,-7.16223 l -0.1394,-7.16223 c -0.0797,-4.77491 -0.0757,-9.54969 -0.11487,-14.32459 0.0419,-4.77478 0.0343,-9.54956 0.11658,-14.32446 0.08,-4.77478 0.17664,-9.54969 0.38281,-14.32447 z M 381.61,312.248 c -0.943,0.52637 -1.87146,1.06153 -2.75464,1.66907 a 31.16725,31.16725 0 0 0 -2.61267,1.84216 33.85872,33.85872 0 0 0 -4.64551,4.30518 22.63053,22.63053 0 0 0 -3.428,5.26025 l -0.60192,1.46253 c -0.18128,0.49536 -0.27723,1.01684 -0.42591,1.52624 l -0.22363,0.76844 -0.11682,0.7893 c -0.0706,0.52881 -0.15405,1.06006 -0.24622,1.59632 a 15.4745,15.4745 0 0 1 0.90247,-6.434 18.73094,18.73094 0 0 1 3.38659,-5.62586 25.134,25.134 0 0 1 4.95472,-4.27209 24.6314,24.6314 0 0 1 5.81154,-2.88754 z m 7.42444,34.9735 c -0.6134,-0.88879 -1.23425,-1.76233 -1.92285,-2.58374 a 31.18492,31.18492 0 0 0 -2.08179,-2.426 33.85235,33.85235 0 0 0 -4.72656,-4.21607 22.63209,22.63209 0 0 0 -5.56189,-2.91333 l -1.51306,-0.46045 c -0.51038,-0.1333 -1.03846,-0.17944 -1.55982,-0.27917 l -0.78613,-0.14966 -0.79688,-0.0414 c -0.53308,-0.02 -1.06982,-0.0527 -1.61242,-0.0935 a 15.47443,15.47443 0 0 1 6.4906,0.28772 18.72971,18.72971 0 0 1 5.92175,2.83753 25.13063,25.13063 0 0 1 4.723,4.52685 24.6296,24.6296 0 0 1 3.42605,5.51121 z m -50.66919,-12.7882 a 24.63216,24.63216 0 0 1 5.71374,-3.07666 25.13241,25.13241 0 0 1 6.34913,-1.5774 18.72952,18.72952 0 0 1 6.54846,0.48438 15.47609,15.47609 0 0 1 5.77368,2.97912 c -0.491,-0.23437 -0.97278,-0.47314 -1.44531,-0.72094 l -0.7118,-0.36048 -0.75647,-0.26123 c -0.50183,-0.17285 -0.98291,-0.39563 -1.49194,-0.53381 l -1.54162,-0.35327 a 22.63165,22.63165 0 0 0 -6.274,-0.2395 33.85417,33.85417 0 0 0 -6.19763,1.306 31.15446,31.15446 0 0 0 -3.01282,1.069 c -1.00603,0.36999 -1.97918,0.81897 -2.95342,1.28479 z m 24.26306,26.25976 a 24.63461,24.63461 0 0 1 -2.52051,-5.98 25.13173,25.13173 0 0 1 -0.9678,-6.47006 18.72576,18.72576 0 0 1 1.10364,-6.473 15.474,15.474 0 0 1 3.51367,-5.465 c -0.28,0.46655 -0.56336,0.92358 -0.85486,1.37036 l -0.42651,0.67444 -0.33179,0.72827 c -0.21973,0.48316 -0.48706,0.94092 -0.673,1.43457 l -0.49793,1.5011 a 22.6303,22.6303 0 0 0 -0.83386,6.223 33.85367,33.85367 0 0 0 0.71191,6.29358 31.19842,31.19842 0 0 0 0.7782,3.10071 c 0.27301,1.03652 0.62762,2.04787 0.99884,3.06203 z M 292.13722,312.248 c -0.94287,0.52637 -1.87146,1.06153 -2.75451,1.66907 a 31.14775,31.14775 0 0 0 -2.61268,1.84216 33.85112,33.85112 0 0 0 -4.6455,4.30518 22.63422,22.63422 0 0 0 -3.4281,5.26025 l -0.60193,1.46253 c -0.18116,0.49536 -0.2771,1.01684 -0.42591,1.52624 l -0.22363,0.76844 -0.1167,0.7893 c -0.0707,0.52881 -0.154,1.06006 -0.24621,1.59632 a 15.47254,15.47254 0 0 1 0.90246,-6.434 18.72831,18.72831 0 0 1 3.3866,-5.62586 25.13642,25.13642 0 0 1 4.95459,-4.27209 24.63368,24.63368 0 0 1 5.81152,-2.88754 z m 7.42456,34.9735 c -0.6134,-0.88879 -1.23425,-1.76233 -1.92285,-2.58374 a 31.15832,31.15832 0 0 0 -2.08191,-2.426 33.84555,33.84555 0 0 0 -4.72656,-4.21607 22.62959,22.62959 0 0 0 -5.56189,-2.91333 l -1.51294,-0.46045 c -0.51038,-0.1333 -1.03857,-0.17944 -1.55981,-0.27917 l -0.78614,-0.14966 -0.79687,-0.0414 c -0.53321,-0.02 -1.06983,-0.0527 -1.61243,-0.0935 a 15.47459,15.47459 0 0 1 6.4906,0.28772 18.72971,18.72971 0 0 1 5.92175,2.83753 25.13069,25.13069 0 0 1 4.723,4.52685 24.63862,24.63862 0 0 1 3.42605,5.51121 z m -50.66919,-12.7882 a 24.63122,24.63122 0 0 1 5.71363,-3.07666 25.1335,25.1335 0 0 1 6.34912,-1.5774 18.73,18.73 0 0 1 6.54858,0.48438 15.476,15.476 0 0 1 5.77368,2.97912 c -0.49109,-0.23437 -0.9729,-0.47314 -1.44531,-0.72094 l -0.71191,-0.36048 -0.75647,-0.26123 c -0.50171,-0.17285 -0.98279,-0.39563 -1.49183,-0.53381 l -1.54162,-0.35327 a 22.63232,22.63232 0 0 0 -6.27417,-0.2395 33.85521,33.85521 0 0 0 -6.19751,1.306 31.144,31.144 0 0 0 -3.01282,1.069 c -1.00596,0.36999 -1.97912,0.81897 -2.95337,1.28479 z m 24.26306,26.25976 a 24.63419,24.63419 0 0 1 -2.5205,-5.98 25.13143,25.13143 0 0 1 -0.9679,-6.47009 18.72892,18.72892 0 0 1 1.10376,-6.473 15.47568,15.47568 0 0 1 3.51355,-5.465 c -0.27991,0.46655 -0.56335,0.92358 -0.85474,1.37036 l -0.42651,0.67444 -0.33179,0.72827 c -0.21972,0.48316 -0.48718,0.94092 -0.673,1.43457 l -0.49805,1.5011 a 22.63982,22.63982 0 0 0 -0.83386,6.223 33.853,33.853 0 0 0 0.712,6.29358 31.19289,31.19289 0 0 0 0.7782,3.10071 c 0.27301,1.03655 0.62751,2.0479 0.99884,3.06206 z"
       class="color4f66d0 svgShape"
       id="path16" /><path
       fill="#d0a2e6"
       d="M 227.27064,337.19791 H 264.188 v 136.218 H 207.25037 V 357.21819 a 20.02028,20.02028 0 0 1 20.02027,-20.02028 z"
       class="colora2aee6 svgShape"
       id="path17" /><path
       fill="#5fe4d4"
       d="M 304.54891,473.41586 H 264.188 v -136.218 h 20.3406 a 20.02028,20.02028 0 0 1 20.02028,20.02028 v 29.90506 l 161.85191,-1.10673 -0.048,-48.81861 h 16.37659 a 20.02027,20.02027 0 0 1 20.02027,20.02028 v 116.19772 z"
       class="colorc0d6f2 svgShape"
       id="path18" /><circle
       cx="414.31799"
       cy="153.32401"
       r="28.034"
       fill="#ffbb55"
       class="colorffba55 svgShape"
       id="circle18" /><path
       fill="#d79f4a"
       d="m 414.318,181.85883 a 28.53418,28.53418 0 1 1 28.5332,-28.53418 28.567,28.567 0 0 1 -28.5332,28.53418 z m 0,-56.06836 a 27.53418,27.53418 0 1 0 27.5332,27.53418 27.56508,27.56508 0 0 0 -27.5332,-27.53418 z"
       class="colord77f4a svgShape"
       id="path19" /><path
       fill="#d79f4a"
       d="m 414.318,155.82465 a 0.49971,0.49971 0 0 1 -0.5,-0.5 V 137.2475 a 0.5,0.5 0 0 1 1,0 v 18.07715 a 0.49971,0.49971 0 0 1 -0.5,0.5 z"
       class="colord77f4a svgShape"
       id="path20" /><path
       fill="#d79f4a"
       d="m 429.87172,159.56488 a 0.49864,0.49864 0 0 1 -0.22461,-0.0527 l -18.75684,-9.40723 a 0.5005,0.5005 0 0 1 0.44922,-0.89453 l 18.75684,9.40723 a 0.50015,0.50015 0 0 1 -0.22461,0.94726 z"
       class="colord77f4a svgShape"
       id="path21" /><path
       fill="#f9c67a"
       d="m 401.13855,449.10783 c 0,0 -1.0269,19.71693 0.58145,20.23426 1.60835,0.51733 41.15391,1.03292 33.76759,-1.91869 l -12.20019,-4.14794 a 11.72561,11.72561 0 0 1 -7.89522,-9.957 l -0.65322,-6.66037 z"
       class="colorf9977a svgShape"
       id="path22" /><path
       fill="#ffbb55"
       d="m 441.08,471.12993 v -0.0782 a 3.23663,3.23663 0 0 0 -1.78,-2.89032 l -21.70471,-11.64327 a 1.07888,1.07888 0 0 0 -1.34809,0.31537 l -8.07459,6.01019 a 1.07888,1.07888 0 0 1 -1.41762,0.27706 l -5.30032,-3.18019 a 1.07888,1.07888 0 0 0 -1.634,0.92512 v 10.26423 a 1.07888,1.07888 0 0 0 1.07888,1.07888 h 39.10151 A 1.07888,1.07888 0 0 0 441.08,471.12993 Z M 323.43994,281.1949 a 35.17345,35.17345 0 0 0 -23.8283,13.60455 c -3.012,3.89871 -5.70888,8.04763 -6.437,12.92015 a 75.04667,75.04667 0 0 0 0.51145,22.89761 1.64086,1.64086 0 0 0 1.9262,1.35488 l 18.76289,-3.60825 0.98109,32.5719 c 0,0 42.97135,22.36865 60.04216,-3.13946 l -10.88343,-42.64743 12.8718,-0.74628 a 1.63513,1.63513 0 0 0 1.43387,-2.21318 l -5.72594,-15.06952 a 24.68767,24.68767 0 0 0 -19.25305,-15.75234 q -0.3957,-0.0597 -0.78373,-0.10683 l -11.21254,-1.36227 z"
       class="colorffba55 svgShape"
       id="path23" /><path
       fill="#e69b2a"
       d="m 314.37514,328.36384 c -0.31861,-1.56055 -0.57788,-3.12879 -0.82825,-4.69837 -0.25159,-1.56933 -0.45459,-3.145 -0.68433,-4.71728 -0.186,-1.57788 -0.39526,-3.15283 -0.55932,-4.73364 -0.16358,-1.58094 -0.31873,-3.163 -0.41345,-4.75281 0.31933,1.5603 0.57849,3.12866 0.8291,4.69812 0.25024,1.56958 0.4552,3.145 0.68347,4.71741 0.18445,1.57812 0.39575,3.15283 0.55835,4.73388 0.16382,1.58085 0.31872,3.16285 0.41443,4.75269 z m 49.6427,-14.52002 c -0.42041,-1.38745 -0.7826,-2.78784 -1.13587,-4.19019 -0.35449,-1.402 -0.66113,-2.81457 -0.994,-4.22131 -0.28979,-1.41626 -0.60266,-2.82739 -0.871,-4.24841 -0.2677,-1.42115 -0.52722,-2.84412 -0.72729,-4.28 0.42138,1.38733 0.7832,2.78772 1.13684,4.18994 0.353,1.40234 0.66162,2.81445 0.99316,4.22156 0.28833,1.4165 0.603,2.82727 0.86988,4.24865 0.26819,1.42099 0.52735,2.84394 0.72828,4.27976 z m -29.09729,39.57031 a 23.23355,23.23355 0 0 0 5.9458,-2.2395 34.00776,34.00776 0 0 0 5.3053,-3.47949 42.34136,42.34136 0 0 0 4.672,-4.31226 c 0.74805,-0.75549 1.40821,-1.5918 2.12036,-2.384 l 2.00269,-2.49719 q -0.874,1.34142 -1.79248,2.6621 c -0.67371,0.83094 -1.30274,1.70325 -2.02,2.50086 a 30.72908,30.72908 0 0 1 -2.22937,2.32275 c -0.76,0.761 -1.58838,1.4469 -2.41565,2.13489 a 31.09016,31.09016 0 0 1 -5.45618,3.42566 19.03824,19.03824 0 0 1 -6.13247,1.86618 z m 3.16552,6.07996 c 1.44861,-0.50281 2.87586,-1.06311 4.29432,-1.64063 1.42321,-0.56482 2.83728,-1.15222 4.2351,-1.77453 2.80139,-1.22937 5.5708,-2.53565 8.2345,-4.03223 a 55.11459,55.11459 0 0 0 7.70459,-4.92761 l 0.91431,-0.68824 0.8584,-0.75451 a 18.70522,18.70522 0 0 0 1.67285,-1.55725 c 0.51465,-0.56018 1.08142,-1.082 1.55737,-1.67774 l 1.36572,-1.84668 a 24.91907,24.91907 0 0 1 -6.10876,6.85352 51.16787,51.16787 0 0 1 -7.70288,5.0758 81.79466,81.79466 0 0 1 -8.33338,3.93921 83.8598,83.8598 0 0 1 -8.69214,3.03089 z"
       class="colore6952a svgShape"
       id="path24" /><path
       fill="#753792"
       d="m 342.49946,368.06493 c 0,0 51.01622,-19.36 63.57406,-9.15676 12.25578,9.95782 8.52779,16.81647 12.6687,87.11472 a 5.00547,5.00547 0 0 1 -4.99072,5.30151 h -12.78358 a 5,5 0 0 1 -4.85306,-3.79673 l -12.98575,-57.47428 c 0,0 -11.77651,0.9385 -37.22857,-3.93657 z"
       class="color376f92 svgShape"
       id="path25" /><path
       fill="#191816"
       d="m 479.03676,473.90863 c -10.37305,-1.70605 -21.01953,-3.0664 -31.64551,-4.043 -11.28418,-1.03613 -19.94824,-1.39648 -26.91016,-1.68554 -13.5625,-0.56348 -21.749,-0.90332 -32.75781,-5.55176 -8.05078,-3.39941 -23.03515,-9.72656 -29.54492,-24.74121 -4.98535,-11.501 -3.23438,-23.59766 -1.95606,-32.42969 a 52.13,52.13 0 0 1 2.24415,-9.60547 92.00963,92.00963 0 0 0 3.166,-12.93457 c 2.0293,-11.12695 3.36914,-18.47754 1.792,-27.70508 a 49.38789,49.38789 0 0 0 -8.07812,-20.43945 47.96279,47.96279 0 0 0 -14.72754,-13.77734 l 0.51758,-0.85547 a 48.984,48.984 0 0 1 15.03222,14.0625 50.3761,50.3761 0 0 1 8.24219,20.84179 c 1.60645,9.40137 0.25391,16.82129 -1.79394,28.05274 a 92.95522,92.95522 0 0 1 -3.19727,13.05566 51.36873,51.36873 0 0 0 -2.207,9.44629 c -1.26172,8.71582 -2.98926,20.64942 1.88379,31.88965 6.35058,14.64844 21.09472,20.874 29.01562,24.21777 10.84278,4.57813 18.50293,4.89649 32.41016,5.47461 6.97363,0.29 15.65137,0.65039 26.96094,1.68848 10.64941,0.97852 21.32031,2.3418 31.71582,4.05273 z"
       class="color161819 svgShape"
       id="path26" /><path
       fill="#f9c67a"
       d="m 335.94578,429.40173 c 0,0 10.57136,21.14759 9.10225,22.2973 -1.46911,1.14971 -44.232,15.66335 -37.7048,9.7867 l 11.05863,-8.953 a 12.94716,12.94716 0 0 0 4.3815,-13.32954 l -1.86448,-7.15043 z"
       class="colorf9977a svgShape"
       id="path27" /><path
       fill="#191816"
       d="m 360.895,329.91829 -0.4709,-6.25662 0.1125,-0.0227 -0.519,-5.591 c -0.82113,-4.32982 -5.32775,-6.56677 -9.536,-5.7202 l -19.92747,4.00915 a 7.98439,7.98439 0 0 0 -6.13277,9.37245 l 0.949,5.00459 1.8945,6.29268 a 1.61186,1.61186 0 0 0 2.90474,0.44487 l 5.86269,-8.88262 14.14,-2.84464 8.18251,5.71206 a 1.63244,1.63244 0 0 0 2.5402,-1.51799 z"
       class="color161819 svgShape"
       id="path28" /><path
       fill="#3b104f"
       d="m 351.68251,380.71333 a 11.434,11.434 0 0 1 0.58081,-3.59571 14.588,14.588 0 0 1 1.5896,-3.30237 18.38547,18.38547 0 0 1 2.287,-2.85351 16.29255,16.29255 0 0 1 2.79809,-2.32532 30.033,30.033 0 0 0 -4.62683,5.47327 19.727,19.727 0 0 0 -1.65588,3.15149 17.37123,17.37123 0 0 0 -0.97279,3.45215 z m 3.28418,-12.40015 a 10.94018,10.94018 0 0 0 -1.73193,2.505 24.13877,24.13877 0 0 0 -1.24329,2.77723 c -0.37988,0.94335 -0.67651,1.9187 -0.99963,2.88891 l -0.86829,2.95715 c 0.0405,-0.515 0.11609,-1.02539 0.17346,-1.54064 l 0.28955,-1.52417 a 21.40444,21.40444 0 0 1 0.89685,-2.97767 14.91875,14.91875 0 0 1 1.39148,-2.79211 7.6041,7.6041 0 0 1 2.0918,-2.2937 z m 28.06055,21.77856 a 13.13745,13.13745 0 0 1 -0.718,-4.03979 17.76415,17.76415 0 0 1 0.44531,-4.10278 22.93458,22.93458 0 0 1 1.33972,-3.89527 18.90209,18.90209 0 0 1 2.06726,-3.54065 35.12943,35.12943 0 0 0 -1.68078,3.70325 27.4282,27.4282 0 0 0 -1.19593,3.856 20.10265,20.10265 0 0 0 -0.55822,3.98315 19.02445,19.02445 0 0 0 0.30064,4.03609 z"
       class="color10394f svgShape"
       id="path29" /><path
       fill="#3b104f"
       d="m 380.05946,376.72858 a 12.02363,12.02363 0 0 0 0.0562,3.43653 26.2337,26.2337 0 0 0 0.702,3.36426 c 0.28064,1.11364 0.65857,2.20092 1.01392,3.29882 l 1.19568,3.26355 c -0.29773,-0.50012 -0.56446,-1.017 -0.84851,-1.5271 l -0.738,-1.58508 a 24.89158,24.89158 0 0 1 -1.14942,-3.31006 17.17605,17.17605 0 0 1 -0.59106,-3.46362 8.71552,8.71552 0 0 1 0.35923,-3.4773 z"
       class="color10394f svgShape"
       id="path30" /><path
       fill="#f9c67a"
       d="m 296.69048,331.76474 1.16706,18.39318 c 0.54,7.38 1.99959,12.92837 6.75,11.43 l 10.70525,-2.09386 -2.18036,-30.89124 z"
       class="colorf9977a svgShape"
       id="path31" /><path
       fill="#f9c67a"
       d="m 300.90162,360.4779 -1.86862,-12.74074 14.0994,-20.55062 c 0,0 9.56542,-14.12756 21.78812,-11.773 0,0 2.35358,1.16032 -8.27872,4.70919 l 7.603,2.36284 a 4.42158,4.42158 0 0 1 3.12525,4.14946 6.63372,6.63372 0 0 1 -4.55063,6.63419 l -5.29147,-0.39243 c 0,0 -3.14475,10.72648 -9.3261,7.71783 0,0 -0.77414,14.31828 -2.8891,18.89941 z m 76.19155,-46.07533 -12.8718,0.74628 c -2.00067,-1.83174 -5.90684,-3.28917 -8.48753,-4.108 a 13.31481,13.31481 0 0 0 -4.612,-0.60184 12.94365,12.94365 0 0 1 -5.27707,-0.53488 2.78743,2.78743 0 0 0 -2.95034,0.725 2.50144,2.50144 0 0 0 0.0309,3.21475 c 16.69547,-2.35463 14.91236,2.15836 14.91236,2.15836 0,1.75365 -6.60609,4.6731 -9.08342,5.70621 a 1.57652,1.57652 0 0 0 -0.9684,1.47415 c 0.14974,9.11489 14.07432,6.71829 14.07432,6.71829 1.4716,5.85378 10.17928,16.057 10.17928,16.057 6.27367,5.78411 9.64691,-0.20477 11.32916,-5.80392 a 16.94739,16.94739 0 0 0 -0.97214,-12.1857 z"
       class="colorf9977a svgShape"
       id="path32" /><path
       fill="#ddaa5e"
       d="m 327.32545,324.95356 c 1.6897,0.1748 3.36451,0.44116 5.04053,0.70044 1.67139,0.287 3.344,0.56653 5.00159,0.939 -1.68994,-0.17395 -3.36463,-0.44091 -5.04053,-0.70044 -1.67151,-0.28727 -3.34399,-0.56742 -5.00159,-0.939 z m 1.37342,3.41028 c 1.35058,0.15832 2.68359,0.40759 4.01782,0.64978 1.3291,0.2699 2.65955,0.53235 3.97217,0.88721 -1.35059,-0.15735 -2.68347,-0.40723 -4.01782,-0.64979 -1.32898,-0.27004 -2.65931,-0.53304 -3.97217,-0.8872 z m 0,2.35461 c 0.99243,0.18408 1.95886,0.45728 2.92737,0.72351 0.96069,0.29322 1.92346,0.57935 2.86,0.95569 -0.99255,-0.18323 -1.95886,-0.457 -2.92737,-0.72351 -0.96059,-0.29346 -1.92324,-0.58008 -2.86,-0.95569 z m 19.61279,-5.76489 c 1.53516,-0.7019 3.10388,-1.31738 4.66992,-1.93945 1.5763,-0.596 3.14978,-1.19886 4.75733,-1.714 -1.53492,0.70263 -3.10376,1.3175 -4.66993,1.93933 -1.57629,0.59571 -3.15014,1.19813 -4.75732,1.71412 z m 1.81189,2.94116 c 1.23328,-0.58313 2.5,-1.07995 3.76416,-1.58337 1.27417,-0.47718 2.54578,-0.96143 3.8512,-1.35779 -1.233,0.584 -2.49988,1.0802 -3.76416,1.58337 -1.2743,0.47693 -2.54602,0.96057 -3.8512,1.35779 z m 3.80774,1.81828 c 0.80847,-0.32117 1.64111,-0.55274 2.47192,-0.79126 0.838,-0.21143 1.6742,-0.43 2.53479,-0.55786 -0.80835,0.3219 -1.64111,0.553 -2.47192,0.79126 -0.83814,0.21114 -1.67444,0.42916 -2.53479,0.55786 z M 364.515,315.14887 c 1.70593,1.41052 3.37146,2.86511 5.03088,4.3263 l 4.933,4.43335 4.84765,4.52636 c 1.60034,1.52576 3.19483,3.05786 4.74842,4.63477 -1.70655,-1.40991 -3.372,-2.86463 -5.03162,-4.32569 l -4.93225,-4.43408 -4.84705,-4.527 c -1.60056,-1.52549 -3.19492,-3.05771 -4.74903,-4.63401 z m -65.482,32.58826 c 0.989,-1.64014 2.02735,-3.24658 3.073,-4.84778 1.04468,-1.602 2.12976,-3.17627 3.19263,-4.76575 l 3.29663,-4.69433 c 1.1178,-1.55176 2.2428,-3.09864 3.41785,-4.61121 -0.98829,1.64075 -2.02674,3.24695 -3.07215,4.84839 l -3.19348,4.76514 c -1.10034,1.56372 -2.17871,3.1427 -3.29736,4.69384 -1.11759,1.55188 -2.24271,3.09876 -3.41712,4.6117 z"
       class="colordd765e svgShape"
       id="path33" /><path
       fill="#f9c67a"
       d="m 324.48688,269.65417 -3.60088,11.50621 c 0,0 9.09473,12.95667 19.789,17.63232 a 2.97993,2.97993 0 0 0 3.44537,-0.67812 c 0.93129,-1.07336 0.44395,-2.15482 -0.48133,-3.6483 a 9.24678,9.24678 0 0 1 -0.94512,-7.76768 l 0.88634,-2.68783 -14.30835,-20.75293 z"
       class="colorf9977a svgShape"
       id="path34" /><path
       fill="#ddaa5e"
       d="m 329.27187,263.25786 c 0,0 -0.45325,4.38606 -0.41986,4.86883 0.81181,11.71685 5.7928,23.069 13.45581,22.53806 0.0487,-0.003 -0.003,-2.45262 0.0455,-2.45675 a 9.14659,9.14659 0 0 1 0.34954,-1.53684 l 0.87734,-2.66042 z"
       class="colordd765e svgShape"
       id="path35" /><path
       fill="#f9c67a"
       d="m 356.3473,263.21363 c 0.81175,11.71685 -4.74226,21.64561 -12.40523,22.17651 -7.66297,0.5309 -14.5331,-8.5371 -15.34486,-20.25395 -0.81176,-11.71685 4.91236,-20.48535 12.40523,-22.1765 8.31208,-1.87605 14.5331,8.5371 15.34486,20.25394 z"
       class="colorf9977a svgShape"
       id="path36" /><path
       fill="#f9c67a"
       d="m 332.17239,258.2645 c 0.93411,3.60074 0.0796,6.93785 -1.90867,7.45364 -1.98824,0.51579 -4.35725,-1.98507 -5.29136,-5.58581 -0.93411,-3.60074 -2.03413,-7.07118 -0.0459,-7.587 1.98823,-0.51582 6.31183,2.11842 7.24593,5.71917 z"
       class="colorf9977a svgShape"
       id="path37" /><path
       fill="#ddaa5e"
       d="m 348.366,256.83112 a 6.90839,6.90839 0 0 0 0.67175,3.49549 16.47326,16.47326 0 0 0 1.7793,3.10949 l 0.57691,0.71448 a 1.56891,1.56891 0 0 1 0.38928,1.09021 2.47862,2.47862 0 0 1 -1.10486,1.762 4.15624,4.15624 0 0 1 -3.72583,0.29395 4.64874,4.64874 0 0 0 3.34851,-0.77454 1.95746,1.95746 0 0 0 0.74121,-1.305 0.8325,0.8325 0 0 0 -0.24792,-0.59131 c -0.17981,-0.21814 -0.39966,-0.45874 -0.595,-0.70923 a 12.31842,12.31842 0 0 1 -1.72364,-3.35632 5.60978,5.60978 0 0 1 -0.10971,-3.72922 z"
       class="colordd765e svgShape"
       id="path39" /><path
       fill="#212121"
       d="m 334.84332,255.12058 c -0.82674,2.972 -1.82,7.19692 -1.30625,8.80276 l -2.71951,-0.70512 c 0,0 0.102,-6.8 -1.0213,-8.65557 -0.45577,-0.75287 -3.40919,-2.22133 -4.5524,-0.0634 -1.14321,2.15789 0.781,9.72794 2.86685,10.73087 0,0 -3.78151,6.35486 -4.16634,6.15761 -0.38483,-0.19725 -2.26267,-12.70547 -2.26267,-12.70547 0,0 -12.33387,-13.40178 4.45643,-19.61954 0,0 -1.319,-6.20574 12.98316,-4.28621 0,0 5.13877,-9.64537 6.01228,0.002 0,0 12.83106,-9.32331 9.26687,3.567 0,0 11.3364,4.27171 -1.33184,12.29552 a 59.61264,59.61264 0 0 1 -6.04954,-2.79683 10.287,10.287 0 0 0 -7.6354,-1.14913 c -1.98012,0.51223 -3.71687,1.60349 -3.76171,3.85072 a 18.53751,18.53751 0 0 1 -0.77863,4.57502 z"
       class="color212121 svgShape"
       id="path41" /><path
       fill="#77582a"
       d="m 341.99544,269.50379 c 0,0 5.26107,10.0345 9.83693,3.52634"
       class="color77312a svgShape"
       id="path42" /><path
       fill="#753792"
       d="m 322.10575,438.31436 16.51866,-0.74494 a 3,3 0 0 0 2.73153,-3.88136 l -14.03053,-45.47826 18.57513,-2.093 -3.40108,-18.05189 c 0,0 -16.82792,-12.02692 -41.59784,-7.587 -27.22255,4.87951 3.7899,41.24079 18.30163,75.98319 a 2.99934,2.99934 0 0 0 2.9025,1.85326 z"
       class="color376f92 svgShape"
       id="path43" /><path
       fill="#3b104f"
       d="m 327.32545,388.20979 a 17.37888,17.37888 0 0 0 -0.99279,-3.44642 19.73574,19.73574 0 0 0 -1.6742,-3.14184 30.02672,30.02672 0 0 0 -4.65846,-5.44629 16.29027,16.29027 0 0 1 2.81153,2.30908 18.37977,18.37977 0 0 1 2.30346,2.84009 14.58972,14.58972 0 0 1 1.60877,3.29321 11.43492,11.43492 0 0 1 0.60169,3.59217 z"
       class="color10394f svgShape"
       id="path44" /><path
       fill="#3b104f"
       d="m 325.75563,376.17524 a 7.6015,7.6015 0 0 1 1.37439,2.78345 14.92077,14.92077 0 0 1 0.56323,3.06836 21.38112,21.38112 0 0 1 0.0365,3.10962 l -0.144,1.54467 c -0.0876,0.511 -0.1565,1.02234 -0.26026,1.52845 l -0.0148,-3.082 c -0.0417,-1.02172 -0.0565,-2.04113 -0.16,-3.05273 a 24.15257,24.15257 0 0 0 -0.425,-3.01306 10.93457,10.93457 0 0 0 -0.97009,-2.88676 z m 13.50159,6.14429 a 17.38325,17.38325 0 0 0 -1.38623,-3.30774 19.729,19.729 0 0 0 -2.02771,-2.92627 30.02694,30.02694 0 0 0 -5.2594,-4.86853 16.28158,16.28158 0 0 1 3.06067,1.967 18.3708,18.3708 0 0 1 2.61767,2.55347 14.58852,14.58852 0 0 1 1.98023,3.084 11.43,11.43 0 0 1 1.01477,3.49807 z m -4.771,-11.90735 a 7.603,7.603 0 0 1 2.35571,2.0216 14.91257,14.91257 0 0 1 1.72144,2.60181 21.40761,21.40761 0 0 1 1.253,2.84619 l 0.47315,1.47742 c 0.11975,0.50439 0.25695,1.00171 0.36,1.50806 l -1.22217,-2.82935 c -0.43908,-0.92358 -0.85229,-1.85547 -1.34436,-2.74548 a 24.12236,24.12236 0 0 0 -1.57251,-2.605 10.93756,10.93756 0 0 0 -2.02426,-2.27525 z"
       class="color10394f svgShape"
       id="path45" /><rect
       width="4.9489999"
       height="1.693"
       x="341.58801"
       y="312.151"
       fill="#191816"
       transform="rotate(-10.753,344.063,312.997)"
       class="color161819 svgShape"
       id="rect45" /><rect
       width="4.9489999"
       height="1.693"
       x="335.60101"
       y="313.23199"
       fill="#191816"
       transform="rotate(-10.753,338.075,314.079)"
       class="color161819 svgShape"
       id="rect46" /><path
       fill="#3b104f"
       d="m 293.83754,379.44147 a 8.32388,8.32388 0 0 0 5.36621,-3.40417 14.41273,14.41273 0 0 0 1.58447,-2.84668 l 0.59644,-1.56433 c 0.17,-0.53577 0.33838,-1.07617 0.55285,-1.61768 0.005,0.57386 -0.0354,1.14881 -0.0746,1.72852 -0.0915,0.56872 -0.19959,1.14172 -0.33728,1.70862 a 10.06873,10.06873 0 0 1 -1.5177,3.18481 7.36454,7.36454 0 0 1 -2.72876,2.29456 5.59843,5.59843 0 0 1 -3.44165,0.51635 z m 102.23999,-10.80505 a 43.09821,43.09821 0 0 0 2.34106,5.49951 16.82145,16.82145 0 0 0 3.40662,4.69409 6.1147,6.1147 0 0 0 5.12573,1.725 13.13465,13.13465 0 0 0 5.32654,-2.38708 10.63087,10.63087 0 0 1 -5.1936,3.156 6.08183,6.08183 0 0 1 -3.18457,-0.13086 7.67558,7.67558 0 0 1 -2.74158,-1.61926 14.83743,14.83743 0 0 1 -3.44128,-5.10437 22.89906,22.89906 0 0 1 -1.63892,-5.83303 z"
       class="color10394f svgShape"
       id="path46" /><path
       fill="#ffbb55"
       d="m 305.93079,464.27523 -0.0234,-0.07 a 3.04052,3.04052 0 0 1 0.8475,-3.16138 l 17.40554,-17.417 a 1.14837,1.14837 0 0 1 1.39223,-0.15187 l 9.57379,2.78061 a 1.14965,1.14965 0 0 0 1.44768,-0.20856 l 4.14952,-4.55491 a 1.09818,1.09818 0 0 1 1.85011,0.302 l 3.07535,9.19069 a 1.059,1.059 0 0 1 -0.71533,1.31356 l -37.64113,12.59533 a 1.059,1.059 0 0 1 -1.36183,-0.61847 z"
       class="colorffba55 svgShape"
       id="path47" /><path
       fill="#5fe4d4"
       d="M 304.54891,441.27787 H 264.188 v -104.08 h 20.3406 c 11.05689,0 20.02028,6.84865 20.02028,15.29688 v 88.78308 z"
       class="colorc0d6f2 svgShape"
       id="path48" /><path
       fill="#9d7436"
       d="m 164.66425,446.75835 c -0.37387,-0.73686 -37.37865,-74.07278 -35.08358,-103.57323 l -1.23651,-0.0952 c -2.32214,29.84623 33.68,101.20737 35.214,104.23038 z"
       class="color8b9d36 svgShape"
       id="path49" /><path
       fill="#9d7436"
       d="m 128.99983,344.80156 a 14.51132,14.51132 0 0 0 1.56683,-5.37628 19.36479,19.36479 0 0 0 -0.16873,-5.087 19.02869,19.02869 0 0 0 -1.483,-4.86763 l -0.0229,-0.0482 a 2.52865,2.52865 0 0 0 -4.78114,0.79729 l -0.006,0.053 a 19.03067,19.03067 0 0 0 0.17693,5.08563 19.3618,19.3618 0 0 0 1.49123,4.8663 14.51128,14.51128 0 0 0 3.22674,4.57691 z m 2.53217,18.91977 a 9.88453,9.88453 0 0 0 5.25037,-2.36558 13.001,13.001 0 0 0 3.38466,-4.44829 11.869,11.869 0 0 0 1.09824,-5.636 l -0.004,-0.0645 a 2.50346,2.50346 0 0 0 -4.69679,-0.96834 q -0.0507,0.0925 -0.10195,0.18458 c -0.72447,1.329 -1.31337,2.58526 -1.93206,3.89928 a 44.97622,44.97622 0 0 0 -1.68982,4.18955 29.46454,29.46454 0 0 0 -1.30907,5.20929 z m -2.25674,-11.89617 a 9.88462,9.88462 0 0 0 5.25037,-2.36559 13.001,13.001 0 0 0 3.38466,-4.44829 11.869,11.869 0 0 0 1.09824,-5.636 l -0.004,-0.0645 a 2.50346,2.50346 0 0 0 -4.69679,-0.96835 q -0.0507,0.0925 -0.10195,0.18458 c -0.72447,1.329 -1.31337,2.58527 -1.93206,3.89928 a 44.97734,44.97734 0 0 0 -1.68982,4.18955 29.46466,29.46466 0 0 0 -1.30907,5.2093 z m 0.34657,3.2651 a 15.34022,15.34022 0 0 0 -1.79954,-5.49047 20.85537,20.85537 0 0 0 -3.08621,-4.28984 20.48464,20.48464 0 0 0 -4.0601,-3.38109 l -0.0979,-0.0601 a 2.50567,2.50567 0 0 0 -3.52133,3.285 l 0.0535,0.1023 a 20.484,20.484 0 0 0 3.09252,4.284 20.88145,20.88145 0 0 0 4.06591,3.37558 15.35116,15.35116 0 0 0 5.35314,2.17467 z m 6.60717,24.69749 a 15.371,15.371 0 0 0 4.25514,-3.91765 20.91908,20.91908 0 0 0 2.629,-4.59144 20.54928,20.54928 0 0 0 1.39875,-5.10171 q 0.0126,-0.0988 0.0244,-0.19784 a 2.48269,2.48269 0 0 0 -4.40651,-1.82731 q -0.0618,0.0785 -0.12287,0.15723 a 20.54865,20.54865 0 0 0 -2.62117,4.59459 20.91955,20.91955 0 0 0 -1.39147,5.10513 15.36159,15.36159 0 0 0 0.2347,5.779 z m 4.69032,14.25453 a 17.02773,17.02773 0 0 0 4.29961,-4.3602 23.92054,23.92054 0 0 0 2.65932,-4.99724 23.492,23.492 0 0 0 1.41734,-5.47913 q 0.0101,-0.0832 0.0197,-0.16658 a 2.48211,2.48211 0 0 0 -4.46839,-1.73478 q -0.0492,0.0681 -0.0979,0.13629 a 23.50876,23.50876 0 0 0 -2.651,5 23.92722,23.92722 0 0 0 -1.40955,5.48221 17.0178,17.0178 0 0 0 0.23083,6.11943 z m 5.24614,13.01579 a 19.46654,19.46654 0 0 0 4.82492,-4.49 28.29381,28.29381 0 0 0 3.23466,-5.245 27.79493,27.79493 0 0 0 2.03262,-5.81733 l 0.0269,-0.125 a 2.4815,2.4815 0 0 0 -4.35194,-2.06824 l -0.0798,0.0997 a 27.81044,27.81044 0 0 0 -3.22777,5.249 28.29805,28.29805 0 0 0 -2.02465,5.82075 19.467,19.467 0 0 0 -0.43492,6.57616 z m 5.27954,13.04908 a 19.63956,19.63956 0 0 0 5.00386,-4.33912 28.59988,28.59988 0 0 0 3.443,-5.15268 28.08056,28.08056 0 0 0 2.26233,-5.76882 l 7e-5,-2.8e-4 a 2.50444,2.50444 0 0 0 -4.32395,-2.25516 v 0 a 28.10965,28.10965 0 0 0 -3.436,5.15686 28.62776,28.62776 0 0 0 -2.25483,5.77264 19.646,19.646 0 0 0 -0.69448,6.58656 z m 4.6606,10.85233 a 21.65405,21.65405 0 0 0 5.58448,-4.19152 32.22353,32.22353 0 0 0 4.10406,-5.14332 31.64563,31.64563 0 0 0 2.98406,-5.86382 l 1e-4,-2.7e-4 a 2.49681,2.49681 0 0 0 -4.10193,-2.63769 v 0 a 31.65031,31.65031 0 0 0 -4.09742,5.14812 32.2279,32.2279 0 0 0 -2.97688,5.86834 21.64015,21.64015 0 0 0 -1.49647,6.82016 z m 5.8044,11.76218 a 23.068,23.068 0 0 0 5.17373,-5.04237 34.77024,34.77024 0 0 0 3.5928,-5.81606 34.13882,34.13882 0 0 0 2.3962,-6.40144 l 9e-5,-3.5e-4 a 2.49231,2.49231 0 0 0 -4.38028,-2.14378 v 0 a 34.12125,34.12125 0 0 0 -3.58534,5.81982 34.76347,34.76347 0 0 0 -2.38877,6.40513 23.07022,23.07022 0 0 0 -0.80843,7.17905 z m -29.0971,-73.04225 a 18.53548,18.53548 0 0 0 -2.84952,-5.75021 26.62545,26.62545 0 0 0 -4.01334,-4.42962 26.16208,26.16208 0 0 0 -4.89348,-3.43057 l -0.12576,-0.066 a 2.48171,2.48171 0 0 0 -3.18008,3.6087 l 0.0813,0.11637 a 26.163,26.163 0 0 0 4.01892,4.42333 26.626,26.626 0 0 0 4.89907,3.42428 18.53654,18.53654 0 0 0 6.06292,2.10372 z m 4.16753,13.56602 a 15.86144,15.86144 0 0 0 -2.98962,-5.06971 21.78763,21.78763 0 0 0 -4.00174,-3.62909 21.39479,21.39479 0 0 0 -4.76694,-2.53945 l -0.0522,-0.0191 a 2.51756,2.51756 0 0 0 -2.78631,3.96735 l 0.0356,0.0426 a 21.3924,21.3924 0 0 0 4.0064,3.62236 21.78966,21.78966 0 0 0 4.77157,2.53264 15.8502,15.8502 0 0 0 5.78319,1.09239 z m 4.52241,12.85903 a 17.6745,17.6745 0 0 0 -4.01167,-4.79366 25.09662,25.09662 0 0 0 -4.81611,-3.22819 24.61954,24.61954 0 0 0 -5.42494,-2.04343 v 0 a 2.51426,2.51426 0 0 0 -2.2287,4.33769 v 0 a 24.61239,24.61239 0 0 0 4.81974,3.22079 25.08867,25.08867 0 0 0 5.42861,2.0361 17.66452,17.66452 0 0 0 6.23307,0.4707 z m 5.64587,13.84045 a 18.57909,18.57909 0 0 0 -4.61847,-4.47183 26.748,26.748 0 0 0 -5.27348,-2.83867 26.29569,26.29569 0 0 0 -5.7696,-1.60253 l -0.14016,-0.0202 a 2.4817,2.4817 0 0 0 -1.79189,4.46424 l 0.11519,0.0823 a 26.27437,26.27437 0 0 0 5.27687,2.8308 26.77273,26.77273 0 0 0 5.77294,1.5946 18.60145,18.60145 0 0 0 6.4286,-0.0387 z m 4.73849,11.52965 a 22.23657,22.23657 0 0 0 -5.8508,-3.9908 33.26881,33.26881 0 0 0 -6.28376,-2.28469 32.70166,32.70166 0 0 0 -6.61062,-0.9939 h -4e-4 a 2.49507,2.49507 0 0 0 -1.19865,4.72748 v 0 a 32.67562,32.67562 0 0 0 6.28568,2.27665 33.27531,33.27531 0 0 0 6.613,0.98552 22.22671,22.22671 0 0 0 7.04555,-0.72026 z"
       class="color8b9d36 svgShape"
       id="path50" /><path
       fill="#9d7436"
       d="m 156.59138,431.28669 a 19.29281,19.29281 0 0 0 -5.68311,-3.27216 27.98408,27.98408 0 0 0 -5.93345,-1.53017 27.48084,27.48084 0 0 0 -6.1231,-0.21172 h -1e-4 a 2.50621,2.50621 0 0 0 -0.69416,4.82743 v 0 a 27.48526,27.48526 0 0 0 5.93509,1.52161 27.97936,27.97936 0 0 0 6.12421,0.20343 19.28468,19.28468 0 0 0 6.37462,-1.53842 z m 3.38395,7.91567 a 24.16638,24.16638 0 0 0 -6.91861,-2.64272 36.72511,36.72511 0 0 0 -6.97277,-0.8833 36.07476,36.07476 0 0 0 -7.01272,0.44756 l -3.8e-4,7e-5 a 2.4896,2.4896 0 0 0 -0.149,4.87485 v 0 a 36.09657,36.09657 0 0 0 6.97312,0.8749 36.72575,36.72575 0 0 0 7.013,-0.456 24.1657,24.1657 0 0 0 7.06736,-2.21536 z m -17.56471,6.0484 a 2.48621,2.48621 0 0 0 0.74454,4.80272 h 1.7e-4 a 33.49845,33.49845 0 0 0 6.70034,-0.36076 32.88725,32.88725 0 0 0 6.49549,-1.67662 22.12351,22.12351 0 0 0 6.22406,-3.43266 22.127,22.127 0 0 0 -6.97132,-1.38662 32.89816,32.89816 0 0 0 -6.69824,0.36864 33.49552,33.49552 0 0 0 -6.495,1.68529 z"
       class="color8b9d36 svgShape"
       id="path51" /><path
       fill="#7d6137"
       d="m 146.91352,432.45054 c 0.15579,-0.9352 15.43655,-93.9397 2.77684,-125.44234 l 1.32077,-0.52959 c 12.80827,31.87183 -2.05427,122.36981 -2.69358,126.20654 z"
       class="color5f7d37 svgShape"
       id="path52" /><path
       fill="#7d6137"
       d="m 150.88218,308.5778 a 16.65021,16.65021 0 0 1 -3.56441,-5.34609 22.21884,22.21884 0 0 1 -1.56509,-5.6264 21.83351,21.83351 0 0 1 -0.051,-5.83838 l 0.008,-0.0606 a 2.90139,2.90139 0 0 1 5.50784,-0.77186 l 0.0247,0.0559 a 21.83624,21.83624 0 0 1 1.55566,5.62776 22.21641,22.21641 0 0 1 0.0416,5.83974 16.65033,16.65033 0 0 1 -1.95774,6.11996 z m 3.73616,21.5812 a 11.34161,11.34161 0 0 1 -6.56093,-0.78343 14.91752,14.91752 0 0 1 -5.23506,-3.705 13.61865,13.61865 0 0 1 -3.14082,-5.7916 l -0.0183,-0.0718 a 2.87248,2.87248 0 0 1 4.80816,-2.67557 q 0.0874,0.0838 0.17508,0.167 c 1.25018,1.20558 2.32693,2.37815 3.45616,3.60369 a 51.60812,51.60812 0 0 1 3.29083,4.00475 33.80839,33.80839 0 0 1 3.22484,5.25198 z m -1.62169,-13.79822 a 11.34161,11.34161 0 0 1 -6.56093,-0.78343 14.9173,14.9173 0 0 1 -5.23506,-3.705 13.61854,13.61854 0 0 1 -3.14082,-5.7916 l -0.0183,-0.0718 a 2.87248,2.87248 0 0 1 4.80816,-2.67557 q 0.0874,0.0838 0.17508,0.167 c 1.25017,1.20558 2.32693,2.37815 3.45616,3.60369 a 51.60875,51.60875 0 0 1 3.29083,4.00476 33.80825,33.80825 0 0 1 3.22484,5.25197 z m 0.74375,3.6933 a 17.60131,17.60131 0 0 1 0.0812,-6.629 23.92974,23.92974 0 0 1 1.90266,-5.75737 23.50453,23.50453 0 0 1 3.2813,-5.09763 l 0.0864,-0.0995 a 2.875,2.875 0 0 1 4.98452,2.38462 l -0.0233,0.13038 a 23.50307,23.50307 0 0 1 -1.91157,5.75314 23.95928,23.95928 0 0 1 -3.28955,5.09358 17.6141,17.6141 0 0 1 -5.11167,4.22178 z m 1.26289,29.30735 a 17.63675,17.63675 0 0 1 -6.00538,-2.82471 24.0031,24.0031 0 0 1 -4.45713,-4.12163 23.57761,23.57761 0 0 1 -3.286,-5.10334 q -0.0477,-0.1038 -0.0948,-0.20816 a 2.84864,2.84864 0 0 1 4.19494,-3.516 q 0.0947,0.0646 0.18859,0.12984 a 23.57847,23.57847 0 0 1 4.44964,4.12776 24.00408,24.00408 0 0 1 3.27919,5.10961 17.62577,17.62577 0 0 1 1.73094,6.40663 z m -0.23091,17.21679 a 19.53779,19.53779 0 0 1 -6.2063,-3.29384 27.44771,27.44771 0 0 1 -4.6299,-4.55539 A 26.9556,26.9556 0 0 1 140.5,353.2189 q -0.0397,-0.0876 -0.0789,-0.17557 a 2.848,2.848 0 0 1 4.29452,-3.436 q 0.0772,0.0576 0.154,0.11553 a 26.97406,26.97406 0 0 1 4.62175,4.56132 27.45363,27.45363 0 0 1 3.42868,5.51615 19.526,19.526 0 0 1 1.85232,6.77789 z m -1.26546,16.05203 a 22.336,22.336 0 0 1 -6.826,-3.25519 32.46375,32.46375 0 0 1 -5.34492,-4.62871 31.89241,31.89241 0 0 1 -4.226,-5.66866 l -0.0724,-0.12752 a 2.84728,2.84728 0 0 1 4.05233,-3.76093 l 0.12166,0.0817 a 31.90921,31.90921 0 0 1 5.33874,4.63544 32.46907,32.46907 0 0 1 4.21845,5.67514 22.33669,22.33669 0 0 1 2.73815,7.04878 z m -1.29062,16.09997 a 22.5344,22.5344 0 0 1 -6.96993,-3.02853 32.81556,32.81556 0 0 1 -5.54119,-4.456 32.22008,32.22008 0 0 1 -4.46075,-5.53654 l -1.8e-4,-2.8e-4 a 2.87361,2.87361 0 0 1 3.95742,-3.95591 v 0 a 32.25329,32.25329 0 0 1 5.535,4.463 32.84805,32.84805 0 0 1 4.45386,5.54331 22.54214,22.54214 0 0 1 3.02577,6.97095 z m -1.36866,13.48241 a 24.84576,24.84576 0 0 1 -7.55472,-2.66723 36.97463,36.97463 0 0 1 -6.26161,-4.21833 36.31059,36.31059 0 0 1 -5.28346,-5.39228 l -2e-4,-2.6e-4 a 2.86484,2.86484 0 0 1 3.5828,-4.29826 v 0 a 36.315,36.315 0 0 1 6.256,4.22587 36.97783,36.97783 0 0 1 5.27715,5.39969 24.8297,24.8297 0 0 1 3.98404,6.9508 z m -2.30771,14.87181 a 26.46792,26.46792 0 0 1 -7.39777,-3.7399 39.89575,39.89575 0 0 1 -5.93339,-5.1306 39.1713,39.1713 0 0 1 -4.82489,-6.183 l -2.2e-4,-3.5e-4 a 2.8597,2.8597 0 0 1 4.05738,-3.85337 v 0 a 39.151,39.151 0 0 1 5.92651,5.13729 39.88787,39.88787 0 0 1 4.818,6.18957 26.47086,26.47086 0 0 1 3.35438,7.58036 z m 6.72574,-89.96298 a 21.268,21.268 0 0 1 1.14123,-7.27453 30.55041,30.55041 0 0 1 2.86945,-6.22928 30.01854,30.01854 0 0 1 4.17652,-5.43845 l 0.11494,-0.11555 a 2.84752,2.84752 0 0 1 4.72232,2.85633 l -0.0489,0.15533 a 30.01981,30.01981 0 0 1 -2.87772,6.22433 30.55117,30.55117 0 0 1 -4.18479,5.43349 21.269,21.269 0 0 1 -5.91302,4.38833 z m 0.10448,16.28331 a 18.19931,18.19931 0 0 1 1.52867,-6.57781 24.99833,24.99833 0 0 1 3.13211,-5.349 24.54844,24.54844 0 0 1 4.34453,-4.41948 l 0.0505,-0.0388 a 2.88865,2.88865 0 0 1 4.41464,3.38435 l -0.0243,0.0589 a 24.54563,24.54563 0 0 1 -3.13952,5.34325 25.00112,25.00112 0 0 1 -4.35194,4.41361 18.18668,18.18668 0 0 1 -5.9547,3.18502 z m -0.52715,15.6315 a 20.27958,20.27958 0 0 1 2.74239,-6.62721 28.79589,28.79589 0 0 1 4.16144,-5.1903 28.2486,28.2486 0 0 1 5.23542,-4.10285 v 0 a 2.88487,2.88487 0 0 1 3.93167,3.98155 v 0 a 28.2397,28.2397 0 0 1 -4.16795,5.18345 28.78723,28.78723 0 0 1 -5.242,4.09609 20.26845,20.26845 0 0 1 -6.66097,2.65927 z m -1.41939,17.09222 a 21.31816,21.31816 0 0 1 3.51732,-6.48365 30.69126,30.69126 0 0 1 4.79609,-4.92124 30.171,30.171 0 0 1 5.76434,-3.73878 l 0.14647,-0.0704 a 2.84752,2.84752 0 0 1 3.49706,4.27033 l -0.0978,0.12967 a 30.14844,30.14844 0 0 1 -4.8025,4.91379 30.71955,30.71955 0 0 1 -5.77074,3.73126 21.34379,21.34379 0 0 1 -7.05024,2.16897 z m -1.22096,14.25064 a 25.5143,25.5143 0 0 1 5.03172,-6.381 38.1728,38.1728 0 0 1 6.09252,-4.66236 37.52249,37.52249 0 0 1 6.8943,-3.36185 l 4.4e-4,-1.5e-4 a 2.86285,2.86285 0 0 1 2.93822,4.76253 v 0 a 37.49267,37.49267 0 0 1 -6.09738,4.65422 38.17965,38.17965 0 0 1 -6.89984,3.35351 25.503,25.503 0 0 1 -7.95998,1.6351 z"
       class="color5f7d37 svgShape"
       id="path53" /><path
       fill="#7d6137"
       d="m 150.42845,412.73791 a 22.13652,22.13652 0 0 1 5.09536,-5.53666 32.10875,32.10875 0 0 1 5.96859,-3.71594 31.53171,31.53171 0 0 1 6.62971,-2.338 h 1.1e-4 a 2.87563,2.87563 0 0 1 2.42037,5.04548 v 0 a 31.5373,31.5373 0 0 1 -5.97333,3.70712 32.103,32.103 0 0 1 -6.63377,2.32926 22.12722,22.12722 0 0 1 -7.50704,0.50874 z m -0.98137,9.82873 a 27.72831,27.72831 0 0 1 6.66428,-5.27263 42.13939,42.13939 0 0 1 7.32877,-3.36536 41.39269,41.39269 0 0 1 7.8303,-1.92229 l 4.3e-4,-6e-5 a 2.85658,2.85658 0 0 1 1.83992,5.28491 v 0 a 41.41813,41.41813 0 0 1 -7.33205,3.35628 42.13929,42.13929 0 0 1 -7.83357,1.91312 27.72781,27.72781 0 0 1 -8.49808,0.006 z m 21.30737,0.57892 a 2.8527,2.8527 0 0 1 0.837,5.51332 l -1.8e-4,7e-5 a 38.43579,38.43579 0 0 1 -7.45849,1.90985 37.73409,37.73409 0 0 1 -7.68689,0.399 25.38461,25.38461 0 0 1 -7.99379,-1.61656 25.38823,25.38823 0 0 1 7.15406,-3.9158 37.74691,37.74691 0 0 1 7.4589,-1.90051 38.43313,38.43313 0 0 1 7.68935,-0.38938 z"
       class="color5f7d37 svgShape"
       id="path54" /><path
       fill="#cea86e"
       d="m 145.7032,451.75387 c 0.30688,-0.60484 30.6815,-60.80114 28.79764,-85.016 l 1.015,-0.0782 c 1.90609,24.49867 -27.64555,83.074 -28.9047,85.55539 z"
       class="colorc4ce6e svgShape"
       id="path55" /><path
       fill="#cea86e"
       d="m 174.97761,368.0647 a 11.91122,11.91122 0 0 1 -1.2861,-4.413 15.89481,15.89481 0 0 1 0.1385,-4.17554 15.61935,15.61935 0 0 1 1.21731,-3.99549 l 0.0188,-0.0396 a 2.07559,2.07559 0 0 1 3.9245,0.65444 l 0.005,0.0435 a 15.62081,15.62081 0 0 1 -0.14523,4.17444 15.893,15.893 0 0 1 -1.224,3.9944 11.91115,11.91115 0 0 1 -2.64865,3.75686 z m -2.07848,15.52992 a 8.11363,8.11363 0 0 1 -4.30967,-1.94174 10.67166,10.67166 0 0 1 -2.77823,-3.6513 9.74241,9.74241 0 0 1 -0.90146,-4.62621 l 0.003,-0.0529 a 2.05492,2.05492 0 0 1 3.85527,-0.79484 q 0.0417,0.0759 0.0837,0.1515 c 0.59467,1.09089 1.07806,2.12207 1.5859,3.20065 a 36.92032,36.92032 0 0 1 1.38705,3.43891 24.18655,24.18655 0 0 1 1.07453,4.27597 z m 1.8524,-9.76474 a 8.11348,8.11348 0 0 1 -4.30966,-1.94174 10.6715,10.6715 0 0 1 -2.77823,-3.65129 9.74248,9.74248 0 0 1 -0.90147,-4.62622 l 0.003,-0.0529 a 2.05492,2.05492 0 0 1 3.85527,-0.79485 q 0.0416,0.0759 0.0837,0.15151 c 0.59466,1.09089 1.078,2.12206 1.58589,3.20065 a 36.92008,36.92008 0 0 1 1.38706,3.4389 24.18573,24.18573 0 0 1 1.07452,4.27597 z m -0.28447,2.68012 a 12.59169,12.59169 0 0 1 1.47711,-4.50675 17.11848,17.11848 0 0 1 2.53325,-3.52122 16.81458,16.81458 0 0 1 3.33266,-2.77531 l 0.0803,-0.0494 a 2.05673,2.05673 0 0 1 2.89041,2.69644 l -0.0439,0.084 a 16.8137,16.8137 0 0 1 -2.53843,3.51642 17.14023,17.14023 0 0 1 -3.33742,2.77078 12.60087,12.60087 0 0 1 -4.39401,1.78501 z m -5.42339,20.27241 a 12.617,12.617 0 0 1 -3.49275,-3.21572 17.17138,17.17138 0 0 1 -2.158,-3.7688 16.86711,16.86711 0 0 1 -1.14814,-4.18763 q -0.0103,-0.0811 -0.02,-0.16239 a 2.03786,2.03786 0 0 1 3.617,-1.49992 q 0.0507,0.0644 0.10086,0.12906 a 16.86719,16.86719 0 0 1 2.15154,3.77138 17.17169,17.17169 0 0 1 1.14216,4.19045 12.60924,12.60924 0 0 1 -0.19267,4.74357 z m -3.84993,11.70059 a 13.97684,13.97684 0 0 1 -3.52925,-3.579 19.635,19.635 0 0 1 -2.18285,-4.10188 19.28311,19.28311 0 0 1 -1.16339,-4.49743 l -0.0162,-0.13674 a 2.0374,2.0374 0 0 1 3.66779,-1.424 l 0.0803,0.11188 a 19.29653,19.29653 0 0 1 2.176,4.10417 19.63991,19.63991 0 0 1 1.157,4.5 13.96845,13.96845 0 0 1 -0.18945,5.023 z m -4.30619,10.6837 a 15.97889,15.97889 0 0 1 -3.96044,-3.68549 23.22531,23.22531 0 0 1 -2.65511,-4.30527 22.8153,22.8153 0 0 1 -1.66843,-4.775 l -0.0221,-0.10256 a 2.03689,2.03689 0 0 1 3.5722,-1.69768 l 0.0655,0.0818 a 22.82726,22.82726 0 0 1 2.64945,4.30854 23.2273,23.2273 0 0 1 1.66189,4.77784 15.979,15.979 0 0 1 0.357,5.39781 z m -4.33363,10.71107 a 16.12069,16.12069 0 0 1 -4.10731,-3.56168 23.47546,23.47546 0 0 1 -2.82611,-4.22947 23.04945,23.04945 0 0 1 -1.857,-4.73521 l -6e-5,-2.4e-4 a 2.05572,2.05572 0 0 1 3.54923,-1.8511 v 0 a 23.07341,23.07341 0 0 1 2.82036,4.2329 23.498,23.498 0 0 1 1.85083,4.73836 16.126,16.126 0 0 1 0.57006,5.40644 z m -3.82553,8.90792 a 17.7745,17.7745 0 0 1 -4.58391,-3.44052 26.45091,26.45091 0 0 1 -3.36873,-4.22179 25.97582,25.97582 0 0 1 -2.44941,-4.8132 l -8e-5,-2.2e-4 a 2.04945,2.04945 0 0 1 3.367,-2.1651 v 0 a 25.97842,25.97842 0 0 1 3.36328,4.22573 26.45311,26.45311 0 0 1 2.44346,4.81692 17.763,17.763 0 0 1 1.22839,5.59818 z m -4.76439,9.65475 a 18.93482,18.93482 0 0 1 -4.24675,-4.13893 28.54134,28.54134 0 0 1 -2.94909,-4.774 28.02182,28.02182 0 0 1 -1.96687,-5.25449 l -7e-5,-2.8e-4 a 2.04577,2.04577 0 0 1 3.59546,-1.75969 v 0 a 28.00717,28.00717 0 0 1 2.94295,4.77709 28.534,28.534 0 0 1 1.96078,5.25752 18.937,18.937 0 0 1 0.66359,5.89278 z m 23.88373,-59.95526 a 15.21451,15.21451 0 0 1 2.339,-4.71994 21.85472,21.85472 0 0 1 3.29427,-3.636 21.47513,21.47513 0 0 1 4.01671,-2.81592 l 0.10323,-0.0542 a 2.03706,2.03706 0 0 1 2.61031,2.96213 l -0.0667,0.0955 a 21.47521,21.47521 0 0 1 -3.29885,3.6308 21.85564,21.85564 0 0 1 -4.0213,2.81076 15.21552,15.21552 0 0 1 -4.97666,1.72686 z m -3.42083,11.13539 a 13.01951,13.01951 0 0 1 2.454,-4.16136 17.88354,17.88354 0 0 1 3.28474,-2.97887 17.56173,17.56173 0 0 1 3.91285,-2.08445 l 0.0428,-0.0156 a 2.06648,2.06648 0 0 1 2.28708,3.25651 l -0.0292,0.035 a 17.55938,17.55938 0 0 1 -3.28858,2.97333 17.885,17.885 0 0 1 -3.91664,2.07887 13.0103,13.0103 0 0 1 -4.74704,0.89661 z m -3.71213,10.55508 a 14.50779,14.50779 0 0 1 3.2929,-3.93478 20.59976,20.59976 0 0 1 3.9532,-2.64979 20.2083,20.2083 0 0 1 4.453,-1.67731 v 0 a 2.06378,2.06378 0 0 1 1.82939,3.56051 v 0 a 20.20276,20.20276 0 0 1 -3.95626,2.64372 20.59418,20.59418 0 0 1 -4.456,1.67129 14.49968,14.49968 0 0 1 -5.11623,0.38636 z m -4.6343,11.36065 a 15.25026,15.25026 0 0 1 3.791,-3.67061 21.95566,21.95566 0 0 1 4.32863,-2.33006 21.58379,21.58379 0 0 1 4.73586,-1.3154 l 0.11505,-0.0166 a 2.037,2.037 0 0 1 1.47083,3.66438 l -0.0945,0.0675 a 21.56758,21.56758 0 0 1 -4.33141,2.32361 21.97683,21.97683 0 0 1 -4.73861,1.30889 15.26844,15.26844 0 0 1 -5.2768,-0.0317 z m -3.88947,9.46388 a 18.2524,18.2524 0 0 1 4.80251,-3.27577 27.30786,27.30786 0 0 1 5.15789,-1.87534 26.84349,26.84349 0 0 1 5.42619,-0.81582 h 3.3e-4 a 2.048,2.048 0 0 1 0.9839,3.88045 v 0 a 26.82183,26.82183 0 0 1 -5.15948,1.86874 27.313,27.313 0 0 1 -5.42818,0.80895 18.24427,18.24427 0 0 1 -5.78316,-0.59121 z"
       class="colorc4ce6e svgShape"
       id="path56" /><path
       fill="#cea86e"
       d="m 152.32964,439.05428 a 15.83624,15.83624 0 0 1 4.66487,-2.68589 22.96921,22.96921 0 0 1 4.87035,-1.256 22.5575,22.5575 0 0 1 5.026,-0.17379 h 8e-5 a 2.05717,2.05717 0 0 1 0.56979,3.9625 v 0 a 22.56123,22.56123 0 0 1 -4.8717,1.249 22.96644,22.96644 0 0 1 -5.02693,0.167 15.82954,15.82954 0 0 1 -5.23246,-1.26282 z m -2.77764,6.49741 a 19.83648,19.83648 0 0 1 5.679,-2.16922 30.14529,30.14529 0 0 1 5.72346,-0.725 29.61079,29.61079 0 0 1 5.75625,0.36737 h 3.1e-4 a 2.04354,2.04354 0 0 1 0.12229,4.00143 v 0 a 29.62906,29.62906 0 0 1 -5.72375,0.71814 30.146,30.146 0 0 1 -5.75652,-0.37433 19.83591,19.83591 0 0 1 -5.80104,-1.81839 z m 14.41764,4.96471 a 2.04076,2.04076 0 0 1 -0.61115,3.94221 h -1.3e-4 a 27.49616,27.49616 0 0 1 -5.49984,-0.29612 26.9944,26.9944 0 0 1 -5.3317,-1.37622 18.1597,18.1597 0 0 1 -5.10889,-2.81763 18.16249,18.16249 0 0 1 5.72227,-1.13818 27.00388,27.00388 0 0 1 5.49811,0.30259 27.49432,27.49432 0 0 1 5.33132,1.38333 z"
       class="colorc4ce6e svgShape"
       id="path57" /><path
       fill="#937850"
       d="m 165.33122,472.41586 h -25.7215 l -8.27487,-43.9008 a 1.7449,1.7449 0 0 1 1.70271,-2.07651 h 38.86583 a 1.7449,1.7449 0 0 1 1.70271,2.07651 z"
       class="color935b50 svgShape"
       id="path58" /><path
       fill="#d69f4b"
       d="m 173.00827,431.68712 0.59793,-3.172 a 1.74489,1.74489 0 0 0 -1.70271,-2.07652 h -38.86594 a 1.74489,1.74489 0 0 0 -1.70271,2.07652 l 0.59792,3.172 z"
       class="colord6694b svgShape"
       id="path59" /><polygon
       fill="#d69f4b"
       points="141.666,459.983 136.232,454.498 141.666,449.014 147.099,454.498 "
       class="colord6694b svgShape"
       id="polygon59" /><polygon
       fill="#d69f4b"
       points="152.533,459.983 147.099,454.498 152.533,449.014 157.966,454.498 "
       class="colord6694b svgShape"
       id="polygon60" /><polygon
       fill="#d69f4b"
       points="163.275,459.983 157.841,454.498 163.275,449.014 168.708,454.498 "
       class="colord6694b svgShape"
       id="polygon61" /><path
       fill="#d69f4b"
       d="m 534.39979,203.79019 h 50.00283 v 11.15992 a 16.92,16.92 0 0 1 -16.92,16.92 h -16.16283 a 16.92,16.92 0 0 1 -16.92,-16.92 z"
       class="colord6694b svgShape"
       id="path61" /><path
       fill="#9d7436"
       d="m 553.223,198.78512 a 14.25048,14.25048 0 0 1 -1.73169,-3.8634 8.97049,8.97049 0 0 1 -0.32666,-2.9961 3.28592,3.28592 0 0 1 1.084,-2.26037 15.35811,15.35811 0 0 0 1.91358,-1.90406 L 557.253,183.596 a 19.98276,19.98276 0 0 0 2.66479,-4.57031 l 0.0234,-0.0599 a 0.59576,0.59576 0 0 1 1.06616,-0.0913 14.04762,14.04762 0 0 1 1.58423,6.04346 27.05113,27.05113 0 0 1 -0.22607,6.02808 c -0.13989,0.9751 -0.0698,2.03491 -0.12744,3.05554 a 3.926,3.926 0 0 1 -1.12891,2.62549 8.39752,8.39752 0 0 1 -2.689,1.81909 11.04327,11.04327 0 0 1 -4.23853,0.87817 1.08714,1.08714 0 0 1 -0.939,-0.5072 z"
       class="color8b9d36 svgShape"
       id="path62" /><path
       fill="#7c5924"
       d="m 544.25226,178.93575 3.45483,8.27369 a 11.31077,11.31077 0 0 0 1.09839,1.83837 4.43,4.43 0 0 1 0.43774,0.88685 3.77128,3.77128 0 0 1 0.14893,0.93933 7.92794,7.92794 0 0 1 -0.0581,0.99768 8.2122,8.2122 0 0 1 -0.1914,1.06592 c -0.0676,0.33837 -0.19556,0.74389 -0.30445,1.18933 -0.12866,0.42932 -0.21362,0.87133 -0.36889,1.5177 l -0.0178,0.0742 a 0.55684,0.55684 0 0 1 -0.47559,0.42224 4.516,4.516 0 0 1 -1.771,-0.19971 7.55812,7.55812 0 0 1 -1.44677,-0.71265 8.08121,8.08121 0 0 1 -1.12061,-0.94848 7.7412,7.7412 0 0 1 -0.8457,-1.07544 4.22421,4.22421 0 0 1 -0.69507,-2.41931 c 0.009,-0.84961 0.13184,-1.692 0.11719,-2.48792 0.003,-0.801 0.0227,-1.5918 0.0644,-2.376 0.0708,-0.78942 0.16479,-1.571 0.2627,-2.34668 a 32.59813,32.59813 0 0 1 1.01171,-4.61047 0.372,0.372 0 0 1 0.46631,-0.24353 0.38179,0.38179 0 0 1 0.23316,0.21486 z"
       class="color5e7c24 svgShape"
       id="path63" /><path
       fill="#66481a"
       d="m 521.03619,184.94625 c 2.10327,0.56189 4.14234,1.233 6.187,1.88684 l 3.03492,1.03235 2.9851,1.1073 c 0.99073,0.37549 2.04395,0.62854 3.0752,0.91834 a 7.76864,7.76864 0 0 1 2.77124,1.43725 14.56236,14.56236 0 0 1 4.16309,5.47754 l 0.05,0.11035 a 0.42385,0.42385 0 0 1 -0.21118,0.56079 l -0.0149,0.006 a 9.32579,9.32579 0 0 1 -3.90015,0.60425 13.26556,13.26556 0 0 1 -3.34179,-0.56213 7.7198,7.7198 0 0 1 -2.80835,-1.53638 c -0.82154,-0.71509 -1.62183,-1.46509 -2.477,-2.10681 l -2.55079,-1.94715 -2.48632,-2.04858 c -1.63257,-1.40649 -3.26441,-2.80737 -4.82325,-4.33252 a 0.36169,0.36169 0 0 1 0.34717,-0.60779 z"
       class="color50661a svgShape"
       id="path64" /><path
       fill="#7c5924"
       d="m 517.43048,201.94039 c 1.852,-0.61853 3.709,-1.10168 5.56567,-1.59594 l 2.78711,-0.67554 2.791,-0.57068 c 0.93091,-0.17175 1.856,-0.50659 2.78393,-0.76294 a 6.13641,6.13641 0 0 1 2.8064,-0.13342 11.31434,11.31434 0 0 1 2.84326,0.92749 10.43713,10.43713 0 0 1 2.88184,2.0238 0.51608,0.51608 0 0 1 0.0244,0.69959 10.43342,10.43342 0 0 1 -2.73291,2.2207 11.31825,11.31825 0 0 1 -2.77148,1.12414 6.13529,6.13529 0 0 1 -2.8086,0.0635 c -0.94384,-0.19079 -1.89013,-0.46008 -2.83081,-0.56628 l -2.824,-0.37378 -2.82764,-0.47876 c -1.88672,-0.36316 -3.77295,-0.71509 -5.66382,-1.20239 a 0.36491,0.36491 0 0 1 -0.26245,-0.44446 0.36893,0.36893 0 0 1 0.23809,-0.25501 z"
       class="color5e7c24 svgShape"
       id="path65" /><path
       fill="#9d7436"
       d="m 530.97516,207.268 a 9.4752,9.4752 0 0 1 3.00244,1.49695 9.72353,9.72353 0 0 1 1.991,1.97095 5.23735,5.23735 0 0 1 1.00537,2.41284 c 0.13574,0.89111 0.19873,1.81006 0.40332,2.67065 l 0.55395,2.60437 0.40894,2.66455 c 0.10547,0.89722 0.209,1.79956 0.26025,2.71826 a 11.42482,11.42482 0 0 1 -0.10766,2.84351 0.35019,0.35019 0 0 1 -0.65528,0.0895 l -0.0449,-0.0895 a 41.72318,41.72318 0 0 0 -2.73242,-4.34058 l -1.45215,-2.15991 -1.40234,-2.18249 a 25.544,25.544 0 0 0 -1.604,-2.095 5.17835,5.17835 0 0 1 -1.04736,-2.33362 10.15642,10.15642 0 0 1 0.78442,-5.97913 0.5405,0.5405 0 0 1 0.63644,-0.29135 z m -28.49463,6.85635 a 20.26385,20.26385 0 0 1 4.32519,-3.678 q 1.20045,-0.76848 2.47657,-1.43335 c 0.85571,-0.42614 1.73632,-0.78686 2.626,-1.15869 0.89893,-0.30786 1.77637,-0.81579 2.69654,-1.15088 a 5.33007,5.33007 0 0 1 2.84985,-0.35485 8.6783,8.6783 0 0 1 5.58252,3.03173 0.51183,0.51183 0 0 1 -0.0102,0.67884 l -0.019,0.0206 a 11.82515,11.82515 0 0 1 -2.58764,2.09741 12.12855,12.12855 0 0 1 -2.40747,1.14917 5.36684,5.36684 0 0 1 -2.40894,0.23474 15.31989,15.31989 0 0 0 -2.51514,-0.23267 c -0.8269,0.0361 -1.66845,0.0615 -2.50073,0.15271 -0.84741,0.0399 -1.69678,0.12049 -2.54346,0.23865 a 35.32435,35.32435 0 0 0 -5.15966,0.97608 l -0.0352,0.009 a 0.3608,0.3608 0 0 1 -0.36914,-0.58094 z"
       class="color8b9d36 svgShape"
       id="path66" /><path
       fill="#66481a"
       d="m 521.55109,211.80734 a 7.50032,7.50032 0 0 1 3.34033,0.68921 8.50086,8.50086 0 0 1 2.43237,1.66333 5.28821,5.28821 0 0 1 1.40942,2.42492 c 0.25953,0.92761 0.40186,1.89771 0.65015,2.80091 l 0.3269,1.36926 0.24927,1.38574 a 26.33468,26.33468 0 0 1 0.19312,2.80322 17.82347,17.82347 0 0 1 -0.81055,5.43335 0.36382,0.36382 0 0 1 -0.69067,0.0122 l -0.009,-0.0266 a 28.50668,28.50668 0 0 0 -1.90283,-4.6438 22.39564,22.39564 0 0 0 -1.18774,-2.08179 l -0.61255,-1.00378 -0.67017,-0.9668 a 12.1342,12.1342 0 0 0 -1.6101,-1.74621 4.63387,4.63387 0 0 1 -1.19678,-1.93433 12.65226,12.65226 0 0 1 -0.41455,-5.69251 l 0.005,-0.0347 a 0.51876,0.51876 0 0 1 0.49874,-0.45166 z M 501.108,228.66708 c 1.37939,-1.18067 2.7959,-2.25757 4.19238,-3.35376 l 2.10694,-1.59693 2.11914,-1.52343 a 22.33611,22.33611 0 0 0 1.988,-1.72071 5.188,5.188 0 0 1 2.20655,-1.19043 10.571,10.571 0 0 1 2.65551,-0.32287 14.58991,14.58991 0 0 1 1.49756,0.0909 14.86948,14.86948 0 0 1 1.7334,0.30884 l 0.0276,0.007 a 0.53408,0.53408 0 0 1 0.39795,0.54858 6.93922,6.93922 0 0 1 -0.39795,1.80469 10.68532,10.68532 0 0 1 -0.70654,1.47791 9.50748,9.50748 0 0 1 -1.8772,2.2417 5.36424,5.36424 0 0 1 -2.41138,1.21862 c -0.89892,0.204 -1.82788,0.32459 -2.68384,0.58106 l -2.59057,0.70093 -2.63111,0.56652 c -1.772,0.32435 -3.53588,0.641 -5.35693,0.80713 a 0.36662,0.36662 0 0 1 -0.39868,-0.33191 0.37565,0.37565 0 0 1 0.12918,-0.31408 z"
       class="color50661a svgShape"
       id="path67" /><path
       fill="#9d7436"
       d="m 500.028,240.31067 c 1.37939,-1.18067 2.7959,-2.25757 4.19238,-3.35376 l 2.10694,-1.59693 2.11914,-1.52343 a 22.33611,22.33611 0 0 0 1.988,-1.72071 5.188,5.188 0 0 1 2.20655,-1.19043 10.571,10.571 0 0 1 2.65551,-0.32287 14.58991,14.58991 0 0 1 1.49756,0.0909 14.87159,14.87159 0 0 1 1.7334,0.30884 l 0.0276,0.007 a 0.53409,0.53409 0 0 1 0.398,0.54859 6.93924,6.93924 0 0 1 -0.398,1.80468 10.68532,10.68532 0 0 1 -0.70654,1.47791 9.50748,9.50748 0 0 1 -1.8772,2.2417 5.36424,5.36424 0 0 1 -2.41133,1.2186 c -0.89892,0.204 -1.82788,0.32459 -2.68384,0.58106 l -2.59057,0.70093 -2.63111,0.56653 c -1.772,0.32434 -3.53588,0.641 -5.35693,0.80712 a 0.36662,0.36662 0 0 1 -0.39868,-0.3319 0.37567,0.37567 0 0 1 0.12913,-0.31407 z"
       class="color8b9d36 svgShape"
       id="path68" /><path
       fill="#7c5924"
       d="m 519.88067,227.32162 0.42432,-0.0565 0.36694,-0.001 c 0.24634,0.004 0.48975,0.0154 0.73438,0.0325 a 5.035,5.035 0 0 1 1.21851,0.33142 4.40388,4.40388 0 0 1 1.76831,1.25219 2.52761,2.52761 0 0 1 0.62231,1.82666 c -0.0227,0.678 -0.1792,1.35572 -0.18994,1.98084 a 12.15415,12.15415 0 0 1 -0.70483,3.63061 12.63233,12.63233 0 0 1 -1.65284,3.1698 0.3912,0.3912 0 0 1 -0.68383,-0.0964 l -0.007,-0.0187 c -0.40063,-1.09961 -0.71264,-2.10608 -1.15673,-3.04175 a 11.316,11.316 0 0 0 -0.64234,-1.34033 c -0.19336,-0.43127 -0.44141,-0.83484 -0.64917,-1.23 a 5.03287,5.03287 0 0 0 -0.9458,-1.04431 1.28222,1.28222 0 0 1 -0.43579,-1.10559 5.7106,5.7106 0 0 1 0.39795,-1.54785 c 0.0964,-0.29016 0.2522,-0.63867 0.40161,-0.99683 0.22925,-0.4198 0.33276,-0.76868 0.606,-1.2843 l 0.0779,-0.1471 a 0.604,0.604 0 0 1 0.44966,-0.31284 z"
       class="color5e7c24 svgShape"
       id="path69" /><path
       fill="#9d7436"
       d="m 516.83819,237.75106 a 7.14109,7.14109 0 0 1 2.68531,2.48389 8.87509,8.87509 0 0 1 1.24389,3.01709 5.96763,5.96763 0 0 1 -0.1477,3.11853 c -0.303,1.01758 -0.76636,1.98047 -1.07276,2.94958 a 24.3937,24.3937 0 0 1 -2.65722,5.40528 29.007,29.007 0 0 1 -1.7478,2.37658 c -0.62207,0.7522 -1.31958,1.44385 -1.98829,2.12647 a 0.35962,0.35962 0 0 1 -0.60937,-0.323 l 0.007,-0.0337 c 0.19678,-0.93994 0.43384,-1.83606 0.6206,-2.73474 0.14307,-0.91724 0.38331,-1.776 0.45557,-2.67969 l 0.186,-1.31152 0.0947,-1.31116 c 0.11841,-0.85046 0.10254,-1.71631 0.136,-2.55359 a 12.94323,12.94323 0 0 0 -0.32813,-2.5155 7.48573,7.48573 0 0 1 -0.10742,-1.20471 6.93839,6.93839 0 0 1 0.15967,-1.18738 15.75137,15.75137 0 0 1 0.85181,-2.48328 21.04966,21.04966 0 0 1 1.55639,-2.91064 l 0.0378,-0.0593 a 0.48254,0.48254 0 0 1 0.6238,-0.16919 z"
       class="color8b9d36 svgShape"
       id="path70" /><path
       fill="#66481a"
       d="m 551.90338,197.18722 a 8.72133,8.72133 0 0 1 1.80786,2.57861 8.213,8.213 0 0 1 0.69849,2.454 4.22606,4.22606 0 0 1 -0.37207,2.3136 c -0.33716,0.74011 -0.75513,1.46643 -1.01782,2.2168 l -0.85572,2.24 -1.0039,2.21386 a 19.37543,19.37543 0 0 1 -2.62867,4.27076 0.35566,0.35566 0 0 1 -0.6206,-0.24842 l 0.003,-0.0811 a 45.46311,45.46311 0 0 0 -0.18482,-4.6322 l -0.14892,-2.33228 -0.0889,-2.32214 a 20.82555,20.82555 0 0 0 -0.30688,-2.35425 4.14247,4.14247 0 0 1 0.29443,-2.26416 8.45272,8.45272 0 0 1 1.32886,-2.129 9.23057,9.23057 0 0 1 2.40088,-2.00915 0.57893,0.57893 0 0 1 0.69482,0.085 z"
       class="color50661a svgShape"
       id="path71" /><path
       fill="#9d7436"
       d="m 560.09186,200.59823 0.40722,0.10437 0.33838,0.12512 0.66846,0.25794 a 6.50347,6.50347 0 0 1 1.03638,0.61157 4.75693,4.75693 0 0 1 1.37329,1.44116 2.2689,2.2689 0 0 1 0.27514,1.70606 c -0.12036,0.60485 -0.3457,1.2279 -0.40625,1.8164 a 16.40721,16.40721 0 0 1 -0.8374,3.59131 7.01155,7.01155 0 0 1 -2.11255,3.26074 0.37269,0.37269 0 0 1 -0.59375,-0.2854 l -0.003,-0.0802 a 8.46521,8.46521 0 0 0 -0.78955,-2.97412 c -0.19214,-0.48047 -0.38135,-0.94421 -0.616,-1.41943 l -0.60571,-1.41 a 8.97786,8.97786 0 0 0 -0.8728,-1.36828 1.84243,1.84243 0 0 1 -0.30127,-1.4607 5.0443,5.0443 0 0 1 0.6936,-1.70532 7.97876,7.97876 0 0 1 0.66016,-0.95325 l 0.47192,-0.52233 0.23608,-0.26429 0.30323,-0.2843 0.0208,-0.0193 a 0.70868,0.70868 0 0 1 0.65384,-0.16776 z"
       class="color8b9d36 svgShape"
       id="path72" /><path
       fill="#66481a"
       d="m 561.649,200.369 a 9.857,9.857 0 0 1 0.24218,-3.34607 10.05183,10.05183 0 0 1 1.02954,-2.59265 5.26638,5.26638 0 0 1 1.7959,-1.86853 c 0.75293,-0.47851 1.56128,-0.90564 2.25049,-1.44446 l 2.10156,-1.58374 2.16822,-1.5238 4.42944,-2.97449 0.009,-0.006 a 0.36491,0.36491 0 0 1 0.54346,0.43567 45.807,45.807 0 0 1 -2.38355,4.88965 l -1.33471,2.324 -1.42407,2.24329 c -0.49,0.733 -0.86133,1.57751 -1.292,2.36658 a 5.28294,5.28294 0 0 1 -1.75879,1.93151 9.94316,9.94316 0 0 1 -2.53564,1.19751 9.67659,9.67659 0 0 1 -3.33374,0.43372 0.5375,0.5375 0 0 1 -0.50729,-0.48219 z"
       class="color50661a svgShape"
       id="path73" /><path
       fill="#7c5924"
       d="m 571.06085,203.52267 a 10.57975,10.57975 0 0 1 0.86231,-3.47754 11.877,11.877 0 0 1 1.57568,-2.64392 6.5534,6.5534 0 0 1 2.25683,-1.82971 c 0.88721,-0.44641 1.82325,-0.83142 2.65552,-1.342 l 2.53052,-1.48829 2.59375,-1.40429 c 1.75537,-0.901 3.502,-1.809 5.32935,-2.60865 a 0.362,0.362 0 0 1 0.44433,0.53528 l -0.009,0.0131 c -1.13867,1.66492 -2.35815,3.22168 -3.5686,4.78528 l -1.85523,2.29261 -1.9187,2.20874 c -0.65063,0.72155 -1.19751,1.569 -1.79345,2.35485 a 6.43788,6.43788 0 0 1 -2.19214,1.86719 11.85266,11.85266 0 0 1 -2.87354,1.0531 10.86929,10.86929 0 0 1 -3.58667,0.21936 0.509,0.509 0 0 1 -0.45117,-0.53507 z m 0.22388,9.78747 a 8.847,8.847 0 0 1 0.0908,3.103 8.07346,8.07346 0 0 1 -0.731,2.37647 4.01437,4.01437 0 0 1 -1.52612,1.67321 22.90389,22.90389 0 0 0 -1.99829,1.256 l -1.854,1.38354 -1.93261,1.314 c -1.32129,0.84681 -2.63428,1.70105 -4.04883,2.46558 a 0.37276,0.37276 0 0 1 -0.52442,-0.46362 c 0.5857,-1.49744 1.27271,-2.90515 1.95118,-4.32031 l 1.06738,-2.079 1.146,-2.00953 a 22.90962,22.90962 0 0 0 1.002,-2.137 4.01507,4.01507 0 0 1 1.47363,-1.7196 8.06959,8.06959 0 0 1 2.269,-1.0166 8.84947,8.84947 0 0 1 3.09082,-0.28992 0.5849,0.5849 0 0 1 0.52444,0.46378 z"
       class="color5e7c24 svgShape"
       id="path74" /><path
       fill="#66481a"
       d="m 569.89264,222.28793 0.43554,0.0515 0.37159,0.0881 0.73608,0.19226 a 6.40036,6.40036 0 0 1 1.186,0.55664 5.36349,5.36349 0 0 1 1.69677,1.508 3.0355,3.0355 0 0 1 0.59937,1.97364 c -0.02,0.72631 -0.14893,1.47021 -0.13892,2.17065 a 15.60653,15.60653 0 0 1 -0.54883,4.22986 10.37713,10.37713 0 0 1 -1.92358,3.78174 0.37809,0.37809 0 0 1 -0.66089,-0.195 l -0.003,-0.0256 a 14.90988,14.90988 0 0 0 -0.91186,-3.518 16.01261,16.01261 0 0 0 -0.69531,-1.58215 c -0.21753,-0.51282 -0.49048,-1.02564 -0.73316,-1.5249 a 8.58454,8.58454 0 0 0 -1.04272,-1.41712 2.30676,2.30676 0 0 1 -0.53614,-1.54773 6.42615,6.42615 0 0 1 0.36109,-1.9425 9.91017,9.91017 0 0 1 0.44653,-1.13953 l 0.344,-0.64551 0.16894,-0.32776 0.22876,-0.3623 0.0259,-0.041 a 0.61767,0.61767 0 0 1 0.59428,-0.28331 z"
       class="color50661a svgShape"
       id="path75" /><path
       fill="#9d7436"
       d="m 571.26422,204.711 0.41431,-0.1145 0.3645,-0.0651 0.72412,-0.13428 a 8.503,8.503 0 0 1 1.23315,-0.0645 5.96621,5.96621 0 0 1 1.99683,0.31579 2.40132,2.40132 0 0 1 1.323,1.06751 10.44811,10.44811 0 0 0 0.98877,1.51941 c 0.38452,0.42028 0.76977,0.86511 1.16089,1.27527 0.37939,0.45617 0.77221,0.85168 1.18164,1.25927 a 7.09348,7.09348 0 0 0 2.77832,1.93811 l 0.0693,0.0231 a 0.36742,0.36742 0 0 1 0.0764,0.66163 6.80893,6.80893 0 0 1 -4.33814,0.57885 17.47763,17.47763 0 0 1 -4.04614,-1.08423 c -0.61914,-0.26086 -1.34839,-0.3894 -2.00659,-0.61047 a 2.89991,2.89991 0 0 1 -1.58423,-1.1814 5.53515,5.53515 0 0 1 -0.82348,-2.04113 6.93377,6.93377 0 0 1 -0.14454,-1.281 l 0.0425,-0.75085 0.0274,-0.377 0.0786,-0.42834 a 0.63641,0.63641 0 0 1 0.45557,-0.49866 z"
       class="color8b9d36 svgShape"
       id="path76" /><path
       fill="#88693b"
       d="m 510.89809,245.84125 -0.71094,-0.70313 c 3.35449,-3.39941 7.55273,-8.65234 8.502,-14.37011 a 55.73283,55.73283 0 0 0 0.71387,-9.02832 c -0.0137,-0.69141 -0.041,-1.2334 -0.0644,-1.7041 a 14.17138,14.17138 0 0 1 0.0684,-2.93067 c 0.21289,-1.61621 0.71093,-5.40137 3.27832,-7.74414 a 5.55654,5.55654 0 0 1 3.43261,-1.41016 30.93519,30.93519 0 0 0 5.38574,-1.334 c 3.68262,-1.23828 5.51661,-1.91113 6.97266,-3.68359 a 6.00059,6.00059 0 0 0 1.19824,-2.30078 5.59668,5.59668 0 0 1 1.416,-2.50684 9.28494,9.28494 0 0 1 8.19629,-2.56445 7.31765,7.31765 0 0 1 3.78125,2.248 7.60134,7.60134 0 0 0 3.9082,2.31348 6.34512,6.34512 0 0 0 2.39063,0.10059 22.77013,22.77013 0 0 1 2.541,-0.11329 28.30405,28.30405 0 0 1 8.35254,1.39551 2.18708,2.18708 0 0 1 1.49121,1.792 2.9106,2.9106 0 0 1 -0.43652,2.16309 1.65217,1.65217 0 0 0 -0.27735,1.31934 55.57171,55.57171 0 0 1 0.48438,8.7207 c -0.0957,4.49414 -0.66113,6.1084 -1.543,7.25488 a 6.15907,6.15907 0 0 1 -1.38476,1.30762 8.31383,8.31383 0 0 0 -1.28418,1.126 10.47286,10.47286 0 0 0 -2.51661,5.27441 l -0.98242,-0.18555 a 11.44671,11.44671 0 0 1 2.76465,-5.7666 9.12627,9.12627 0 0 1 1.42188,-1.25 5.23651,5.23651 0 0 0 1.18847,-1.11523 c 0.62207,-0.8086 1.23731,-1.98926 1.33594,-6.667 a 54.5452,54.5452 0 0 0 -0.47461,-8.5586 2.6339,2.6339 0 0 1 0.40918,-1.97265 1.933,1.933 0 0 0 0.30273,-1.52051 1.17859,1.17859 0 0 0 -0.80371,-0.96875 27.27293,27.27293 0 0 0 -8.05761,-1.34864 20.84475,20.84475 0 0 0 -2.44239,0.10938 7.28688,7.28688 0 0 1 -2.70605,-0.12207 8.66016,8.66016 0 0 1 -4.37207,-2.56445 6.32761,6.32761 0 0 0 -3.29981,-1.99317 8.2292,8.2292 0 0 0 -7.2666,2.2793 4.631,4.631 0 0 0 -1.18457,2.11719 7.01556,7.01556 0 0 1 -1.377,2.63183 c -1.70313,2.07227 -3.8584,2.79688 -7.42774,3.9961 a 31.71493,31.71493 0 0 1 -5.542,1.373 4.61966,4.61966 0 0 0 -2.9209,1.16211 c -2.29687,2.09766 -2.76172,5.62891 -2.96,7.13672 a 13.13756,13.13756 0 0 0 -0.0615,2.75 c 0.0234,0.47852 0.0508,1.03027 0.0654,1.73438 a 56.8562,56.8562 0 0 1 -0.72754,9.21191 c -0.99208,5.97567 -5.3202,11.40633 -8.77723,14.90926 z"
       class="color7e883b svgShape"
       id="path77" /><path
       fill="#66481a"
       d="m 512.20734,244.2358 0.14379,0.39051 0.0908,0.3435 0.17725,0.68335 a 7.07353,7.07353 0 0 1 0.12549,1.16406 4.77968,4.77968 0 0 1 -0.26734,1.87061 1.985,1.985 0 0 1 -1.07153,1.16 12.5699,12.5699 0 0 0 -1.5437,0.74305 c -0.4585,0.297 -0.92285,0.58911 -1.39917,0.87036 l -1.47827,0.8009 c -1.01831,0.50488 -2.02832,1.01709 -3.13965,1.4397 a 0.39535,0.39535 0 0 1 -0.52466,-0.4635 c 0.28223,-1.155 0.666,-2.22046 1.04126,-3.29334 l 0.61255,-1.56567 c 0.22022,-0.50757 0.45288,-1.00427 0.69116,-1.4961 a 12.54264,12.54264 0 0 0 0.54688,-1.62353 1.98568,1.98568 0 0 1 1.019,-1.20642 4.77813,4.77813 0 0 1 1.82349,-0.49585 7.07885,7.07885 0 0 1 1.17065,-0.0192 l 0.7,0.0917 0.35205,0.0476 0.40528,0.0947 a 0.74613,0.74613 0 0 1 0.52465,0.46353 z"
       class="color50661a svgShape"
       id="path78" /><path
       fill="#9d7436"
       d="m 565.37262,227.90267 a 7.86219,7.86219 0 0 1 2.13232,2.0868 6.87157,6.87157 0 0 1 0.99488,2.13635 3.4855,3.4855 0 0 1 -0.10914,2.13708 c -0.25585,0.70508 -0.60034,1.40259 -0.78906,2.10718 -0.21142,0.70544 -0.42993,1.40857 -0.66675,2.11182 -0.27392,0.70019 -0.56005,1.39685 -0.87622,2.09033 a 16.90425,16.90425 0 0 1 -1.15747,2.04431 3.96792,3.96792 0 0 1 -1.93188,1.69519 0.33635,0.33635 0 0 1 -0.40576,-0.46594 l 0.0723,-0.14942 a 3.97928,3.97928 0 0 0 0.17945,-1.75854 c -0.0366,-0.64624 -0.10132,-1.30615 -0.20386,-1.97168 -0.0798,-0.66333 -0.18579,-1.3324 -0.303,-2.00012 -0.0842,-0.66553 -0.18506,-1.33448 -0.29224,-2.0022 a 15.00239,15.00239 0 0 0 -0.54834,-2.01672 3.21841,3.21841 0 0 1 0.0339,-1.99158 7.282,7.282 0 0 1 1.0564,-1.99439 9.07833,9.07833 0 0 1 2.1145,-2.04418 l 0.01,-0.007 a 0.61439,0.61439 0 0 1 0.69045,-0.008 z"
       class="color8b9d36 svgShape"
       id="path79" /><path
       fill="#d69f4b"
       d="m 286.12561,245.05064 h -134.532 V 92.34414 h 134.532 z M 156.374,240.271 H 281.34523 V 97.12374 H 156.374 Z"
       class="colord6694b svgShape"
       id="path80" /><rect
       width="143.967"
       height="7.1550002"
       x="146.87601"
       y="245.093"
       fill="#937850"
       rx="1.291"
       class="color935b50 svgShape"
       id="rect80" /><rect
       width="124.971"
       height="5.724"
       x="156.37399"
       y="143.2"
       fill="#d8a353"
       class="colore19974 svgShape"
       id="rect81" /><rect
       width="58.918999"
       height="1"
       x="168.049"
       y="188.60201"
       fill="#d8a353"
       transform="rotate(-43.892,197.508,189.102)"
       class="colore19974 svgShape"
       id="rect82" /><rect
       width="48.557999"
       height="1.001"
       x="169.797"
       y="167.983"
       fill="#d8a353"
       transform="rotate(-42.785,194.076,168.483)"
       class="colore19974 svgShape"
       id="rect83" /><path
       fill="#ffbb55"
       d="m 215.89212,96.34414 c 0,0 -12.4869,56.42314 -55.51816,80.64449 0,0 33.95473,47.46368 37.70174,75.68251 h -42.48212 v -156.327 z"
       class="colorffba55 svgShape"
       id="path83" /><path
       fill="#e69b2a"
       d="m 160.37392,177.05 a 5.44376,5.44376 0 0 1 -2.39014,0.49963 5.38273,5.38273 0 0 1 -2.39014,-0.49963 5.38441,5.38441 0 0 1 2.39014,-0.49976 5.44379,5.44379 0 0 1 2.39014,0.49976 z m 5.44873,-14.28357 c 1.63525,-2.06128 3.26147,-4.12561 4.82934,-6.23511 1.59741,-2.08533 3.16724,-4.19165 4.68909,-6.33118 3.05371,-4.26977 6.08887,-8.55542 8.85071,-13.01575 2.81579,-4.42236 5.49328,-8.93737 7.86059,-13.614 0.63953,-1.14624 1.14112,-2.3573 1.71912,-3.53393 l 0.84045,-1.7782 0.74292,-1.819 c 0.47815,-1.21863 1.06336,-2.40357 1.45581,-3.65479 l 1.265,-3.73449 a 74.18088,74.18088 0 0 1 -5.33313,14.86 q -0.86408,1.77942 -1.7572,3.54627 c -0.61463,1.16687 -1.272,2.31018 -1.906,3.46667 -0.625,1.16223 -1.30273,2.29285 -1.98523,3.4209 -0.688,1.12427 -1.332,2.277 -2.05933,3.37634 q -4.27056,6.65754 -9.07934,12.93689 c -3.21252,4.17295 -6.54198,8.2594 -10.1328,12.10938 z m 2.88,-22.73487 c 0.91858,-2.35229 1.93567,-4.65649 2.96765,-6.95337 1.02173,-2.30188 2.114,-4.56933 3.20655,-6.83654 1.114,-2.257 2.22973,-4.51294 3.415,-6.735 l 1.78125,-3.33154 c 0.62659,-1.09436 1.22229,-2.204 1.8761,-3.28516 -0.45007,1.18067 -0.95825,2.33289 -1.43554,3.50025 l -1.53052,3.45385 c -1.02234,2.30152 -2.11438,4.56922 -3.20813,6.83582 -1.11524,2.25635 -2.23059,4.51245 -3.41663,6.73425 -1.17575,2.2267 -2.36638,4.44606 -3.65573,6.61744 z m -9.63513,0 c 0.36011,-3.09912 0.828,-6.17834 1.31226,-9.25464 0.473,-3.07837 1.02331,-6.14245 1.57385,-9.20654 0.574,-3.05969 1.1499,-6.11914 1.802,-9.16455 l 0.98157,-4.5675 c 0.36316,-1.51587 0.6925,-3.038 1.08545,-4.54834 -0.16993,1.55139 -0.40357,3.09106 -0.60327,4.637 l -0.70716,4.61792 c -0.47388,3.07825 -1.0238,6.14245 -1.57568,9.2063 -0.57532,3.05945 -1.15088,6.11889 -1.80371,9.16418 -0.6416,3.04732 -1.29956,6.09161 -2.06531,9.11617 z m 3.37756,53.47364 c 2.72681,4.27221 5.26123,8.663 7.70508,13.10327 2.44531,4.4403 4.72656,8.97 6.92774,13.5404 2.11975,4.60755 4.1621,9.26123 5.838,14.06055 a 75.014,75.014 0 0 1 2.14,7.31811 24.52536,24.52536 0 0 1 0.68689,7.56592 26.30589,26.30589 0 0 0 -1.1626,-7.44763 c -0.66064,-2.4314 -1.48767,-4.817 -2.38708,-7.17334 -1.81262,-4.70911 -3.83618,-9.34058 -6.019,-13.89831 -2.11756,-4.58912 -4.40576,-9.09925 -6.70056,-13.6073 q -1.713,-3.38562 -3.49219,-6.739 z m -2.07116,16.53991 c 0.20629,3.25049 0.30285,6.501 0.38293,9.75135 0.0914,3.25048 0.10425,6.501 0.11682,9.75146 -0.0112,3.25037 -0.0245,6.50085 -0.11511,9.75134 L 160.619,244.175 c -0.083,1.62512 -0.13171,3.25036 -0.24511,4.87561 -0.11329,-1.62525 -0.162,-3.25049 -0.24512,-4.87561 l -0.13941,-4.87574 c -0.0907,-3.25049 -0.10388,-6.501 -0.11511,-9.75134 0.0126,-3.25049 0.0254,-6.501 0.11682,-9.75146 0.08,-3.25037 0.17667,-6.50086 0.38285,-9.75135 z m 5.44873,6.22705 c 0.95483,2.47071 1.74841,4.99512 2.49157,7.53394 0.7533,2.53674 1.37769,5.10962 1.9502,7.69519 a 76.17022,76.17022 0 0 1 1.30058,7.84371 c 0.14733,1.319 0.2268,2.64709 0.28588,3.97314 l -0.0469,1.99439 c -0.0416,0.66357 -0.13928,1.3241 -0.22131,1.97742 l -0.0437,-1.97754 -0.17725,-1.963 c -0.15747,-1.30529 -0.3208,-2.60583 -0.55872,-3.89953 -0.46008,-2.58631 -0.94055,-5.17029 -1.51574,-7.73889 -0.54432,-2.57447 -1.14026,-5.13941 -1.71436,-7.71289 l -0.89,-3.85547 z"
       class="colore6952a svgShape"
       id="path84" /><path
       fill="#ffbb55"
       d="m 221.59358,96.34414 c 0,0 12.4869,56.42314 55.51816,80.64449 0,0 -33.95473,47.46368 -37.70173,75.68251 h 42.48211 v -156.327 z"
       class="colorffba55 svgShape"
       id="path85" /><path
       fill="#e69b2a"
       d="m 277.11171,177.05 a 5.44461,5.44461 0 0 1 2.39026,-0.49976 5.3847,5.3847 0 0 1 2.39013,0.49976 5.383,5.383 0 0 1 -2.39013,0.49963 5.44458,5.44458 0 0 1 -2.39026,-0.49963 z M 271.663,162.76643 c -3.5907,-3.85 -6.92017,-7.93641 -10.13281,-12.10938 q -4.795,-6.279 -9.07923,-12.93689 c -0.72729,-1.09936 -1.37134,-2.25207 -2.05945,-3.37634 -0.68237,-1.12805 -1.3601,-2.25867 -1.9851,-3.4209 -0.63416,-1.15649 -1.29151,-2.2998 -1.906,-3.46667 q -0.89758,-1.764 -1.75732,-3.54627 a 74.18729,74.18729 0 0 1 -5.333,-14.86 l 1.265,3.73449 c 0.39246,1.25122 0.97754,2.43616 1.45581,3.65479 l 0.7428,1.819 0.84058,1.7782 c 0.578,1.17663 1.07959,2.38769 1.71911,3.53393 2.36731,4.67664 5.0448,9.19165 7.8606,13.614 2.76184,4.46033 5.79687,8.746 8.85071,13.01575 1.52185,2.13953 3.09167,4.24585 4.68908,6.33118 1.56772,2.1095 3.19394,4.17383 4.82922,6.23511 z m -2.88,-22.73487 c -1.28918,-2.17138 -2.47985,-4.39074 -3.65564,-6.61743 -1.186,-2.2218 -2.30151,-4.4779 -3.41662,-6.73425 -1.09387,-2.2666 -2.18579,-4.5343 -3.20825,-6.83582 l -1.5304,-3.45385 c -0.47729,-1.16736 -0.98547,-2.31958 -1.43555,-3.50025 0.65381,1.08118 1.24952,2.1908 1.8761,3.28516 l 1.78113,3.33154 c 1.1853,2.22205 2.30115,4.478 3.415,6.735 1.09265,2.26721 2.18494,4.53466 3.20666,6.83654 1.032,2.29687 2.04909,4.60107 2.96757,6.95336 z m 9.63523,0 c -0.76575,-3.02453 -1.42371,-6.06885 -2.06531,-9.11621 -0.65295,-3.04529 -1.22852,-6.10473 -1.80383,-9.16418 -0.55188,-3.06385 -1.10169,-6.12805 -1.57556,-9.2063 l -0.70716,-4.61792 c -0.19983,-1.5459 -0.43335,-3.08557 -0.60339,-4.637 0.39294,1.51037 0.72229,3.03247 1.08545,4.54834 l 0.98169,4.5675 c 0.652,3.04541 1.228,6.10486 1.802,9.16455 0.55054,3.06409 1.10083,6.12817 1.57385,9.20654 0.48425,3.07634 0.95215,6.15556 1.31226,9.25468 z m -3.37757,53.47364 -3.53637,6.72265 q -1.7732,3.35632 -3.49207,6.739 c -2.2948,4.508 -4.58313,9.01818 -6.70056,13.6073 -2.18286,4.55773 -4.20642,9.1892 -6.019,13.89831 -0.89954,2.35632 -1.72644,4.74194 -2.38709,7.17334 a 26.306,26.306 0 0 0 -1.16272,7.44763 24.52941,24.52941 0 0 1 0.687,-7.56592 74.98349,74.98349 0 0 1 2.14,-7.31811 c 1.6759,-4.79932 3.71826,-9.453 5.838,-14.06055 2.20105,-4.57043 4.48242,-9.1001 6.92774,-13.5404 2.44384,-4.44029 4.97827,-8.83104 7.70507,-13.10325 z m 2.07105,16.53991 c 0.2063,3.25049 0.30286,6.501 0.38293,9.75135 0.0913,3.25048 0.10425,6.501 0.11682,9.75146 -0.0112,3.25037 -0.0245,6.50085 -0.11511,9.75134 l -0.13952,4.87574 c -0.083,1.62512 -0.13172,3.25036 -0.24512,4.87561 -0.11328,-1.62525 -0.162,-3.25049 -0.24512,-4.87561 l -0.1394,-4.87574 c -0.0907,-3.25049 -0.10388,-6.501 -0.11511,-9.75134 0.0126,-3.25049 0.0254,-6.501 0.11682,-9.75146 0.0799,-3.25037 0.17663,-6.50086 0.38281,-9.75135 z m -5.44871,6.22705 -0.86011,3.87049 -0.89014,3.85547 c -0.574,2.57348 -1.16992,5.13842 -1.71423,7.71289 -0.57519,2.5686 -1.05579,5.15258 -1.51575,7.73889 -0.238,1.2937 -0.40136,2.59424 -0.55871,3.89953 l -0.17725,1.963 -0.0438,1.97757 c -0.0819,-0.65332 -0.17957,-1.31385 -0.22119,-1.97742 l -0.047,-1.99439 c 0.0592,-1.32605 0.13867,-2.65417 0.28589,-3.97314 a 76.16786,76.16786 0 0 1 1.30066,-7.84375 c 0.57239,-2.58557 1.1969,-5.15845 1.95019,-7.69519 0.74314,-2.53883 1.53659,-5.06324 2.49145,-7.53395 z"
       class="colore6952a svgShape"
       id="path86" /><polygon
       fill="#d8a353"
       points="224.93,240.198 210.793,240.198 206.03,215.164 229.693,215.164 "
       class="colore19974 svgShape"
       id="polygon86" /><polygon
       fill="#d69f4b"
       points="229.149,218.022 229.693,215.164 206.03,215.164 206.574,218.022 "
       class="colord6694b svgShape"
       id="polygon87" /><rect
       width="4.223"
       height="4.223"
       x="209.811"
       y="228.33099"
       fill="#d69f4b"
       transform="rotate(45,211.923,230.442)"
       class="colord6694b svgShape"
       id="rect87" /><rect
       width="4.223"
       height="4.223"
       x="215.784"
       y="228.33099"
       fill="#d69f4b"
       transform="rotate(45,217.896,230.442)"
       class="colord6694b svgShape"
       id="rect88" /><rect
       width="4.223"
       height="4.223"
       x="221.688"
       y="228.33099"
       fill="#d69f4b"
       transform="rotate(45,223.8,230.442)"
       class="colord6694b svgShape"
       id="rect89" /><path
       fill="#806131"
       d="m 223.3679,194.09562 c 0,0 1.24137,17.53747 -6.03438,21.25414 0,0 -2.51885,-6.64905 6.03438,-21.25414 z"
       class="color558031 svgShape"
       id="path89" /><path
       fill="#9f7e4c"
       d="m 199.89043,201.629 c 0,0 11.90278,2.05371 17.44309,13.7208 0,-4e-5 -13.08901,-4.4456 -17.44309,-13.7208 z"
       class="color849f4c svgShape"
       id="path90" /><path
       fill="#b89662"
       d="m 204.11084,224.6007 c 0,0 6.05338,-9.05609 13.22268,-9.25094 0,0 -1.07931,7.29183 -13.22268,9.25094 z"
       class="colora6b862 svgShape"
       id="path91" /><path
       fill="#9f7e4c"
       d="m 211.57779,196.59539 c 0,0 8.39909,7.66866 5.75573,18.75437 0,0 -4.6528,-4.93189 -5.75573,-18.75437 z"
       class="color849f4c svgShape"
       id="path92" /><path
       fill="#b89662"
       d="m 217.33352,215.34976 c 0,0 2.9509,-10.802 17.86843,-13.572 5e-5,2e-5 -3.3571,9.83546 -17.86843,13.572 z"
       class="colora6b862 svgShape"
       id="path93" /><path
       fill="#9f7e4c"
       d="m 239.15364,212.526 c 0,0 -11.38165,-4.69218 -21.82012,2.82373 0,3e-5 13.87683,1.66607 21.82012,-2.82373 z"
       class="color849f4c svgShape"
       id="path94" /><path
       fill="#806131"
       d="m 239.0501,223.44993 c 0,0 -5.49567,-8.80277 -21.71658,-8.10017 z m -45.29039,-9.52504 c 0,0 14.94766,-5.54253 23.76941,1.15986 0,0 -8.37649,4.61386 -23.76941,-1.15986 z"
       class="color558031 svgShape"
       id="path95" /><path
       fill="#806131"
       d="m 206.01716,197.876 c 0,0 13.33786,9.43347 11.42452,17.48144 0,-1e-5 -9.25339,-7.41926 -11.42452,-17.48144 z"
       class="color558031 svgShape"
       id="path96" /><path
       fill="#9f7e4c"
       d="m 229.41418,224.73927 c 0,0 -10.99554,-1.87718 -12.08066,-9.38951 0,0 8.03413,0.39793 12.08066,9.38951 z"
       class="color849f4c svgShape"
       id="path97" /><rect
       width="500"
       height="2"
       x="100"
       y="472.10001"
       fill="#937850"
       class="color935b50 svgShape"
       id="rect97" /></g></svg>
