<?xml version="1.0" encoding="UTF-8" standalone="no"?>
<svg
   enable-background="new 0 0 1080 1080"
   viewBox="0 0 1400 1000"
   id="Businessgoal"
   version="1.1"
   sodipodi:docname="Rewards.svg"
   width="1400"
   height="1000"
   xmlns:inkscape="http://www.inkscape.org/namespaces/inkscape"
   xmlns:sodipodi="http://sodipodi.sourceforge.net/DTD/sodipodi-0.dtd"
   xmlns="http://www.w3.org/2000/svg"
   xmlns:svg="http://www.w3.org/2000/svg">
  <defs
     id="defs58" />
  <sodipodi:namedview
     id="namedview58"
     pagecolor="#505050"
     bordercolor="#ffffff"
     borderopacity="1"
     inkscape:showpageshadow="0"
     inkscape:pageopacity="0"
     inkscape:pagecheckerboard="1"
     inkscape:deskcolor="#505050" />
  <path
     fill="#ad59d4"
     d="m 347.48282,232.25405 c -44.14041,19.85569 -89.18026,41.98722 -120.18348,79.16383 -10.34349,12.40129 -19.24244,27.46 -18.343,43.58167 1.67621,30.06291 36.15452,47.96982 66.25831,48.02433 30.10379,0.0545 59.38991,-11.22929 89.4937,-11.14753 15.53568,0.0409 34.98253,7.56343 34.77812,23.11273 -0.12265,9.29416 -7.59068,16.61228 -14.5136,22.7993 -53.13475,47.49285 -106.26951,94.98569 -159.41789,142.47854 -17.7025,15.82187 -35.96373,32.40689 -45.17612,54.29312 -9.21239,21.88623 -6.55497,50.72263 12.51031,64.89553 12.5512,9.33504 29.21798,10.56154 44.86269,10.8341 71.04167,1.26738 141.71538,-9.66211 211.58506,-22.54037 247.05821,-45.51682 489.52385,-115.83621 722.61358,-209.52727 42.6822,-17.15739 88.4989,-38.23958 108.8179,-79.50453 23.467,-47.69726 -1.5672,-112.87898 -50.9407,-132.58477 -29.5041,-11.78803 -62.6742,-8.42197 -93.9091,-14.20015 -31.2349,-5.77819 -64.732,-27.18744 -65.0591,-58.9402 -0.5178,-52.53513 84.4923,-72.47258 86.9317,-124.953202 1.2947,-27.787064 -23.9576,-51.267747 -51.1178,-57.304858 -27.1602,-6.0371105 -55.3697,1.240129 -81.9167,9.580337 0,-0.02726 -481.46979,123.876613 -677.27388,211.939393 z"
     class="colorf7f7f7 svgShape"
     id="path1"
     style="stroke-width:1.36278" />
  <path
     fill="#ccfff9"
     d="m 274.27433,777.31114 c 22.39046,-19.61039 47.99708,-40.4064 77.71929,-39.07088 24.67993,1.10386 46.19821,17.71613 61.5431,37.09485 15.34489,19.36509 26.20624,41.90545 40.92425,61.76114 15.50843,20.90503 37.91251,39.73864 63.94159,39.54785 27.32372,-0.20442 49.63242,-20.82326 68.97025,-40.13384 l 128.04671,-127.8423 c 23.64422,-23.60333 52.33072,-49.06004 85.48713,-44.98533 33.1019,4.0747 54.75646,35.66392 71.98199,64.22777 26.20624,43.45902 52.39885,86.93167 78.60509,130.39069 5.21945,8.66728 10.80684,17.68888 19.58314,22.73116 23.20812,13.34161 50.53183,-7.86324 68.88843,-27.35098 18.9018,-20.07373 38.3486,-40.44728 62.7424,-53.32554 24.3801,-12.87826 55.0018,-17.18464 79.3682,-4.2655 15.5357,8.23119 26.9149,22.40409 37.8444,36.18179 42.2053,53.23014 84.4242,106.46029 126.6294,159.69044 H 63.779488 c 0,-0.0136 140.325352,-153.20362 210.494842,-214.65132 z"
     class="colorcce9ff svgShape"
     id="path2"
     style="stroke-width:1.36278" />
  <path
     fill="#ccfff9"
     d="m 301.63894,778.75568 c 17.66161,-15.44028 36.98582,-31.98442 60.53464,-37.10847 23.9304,-5.20581 46.48439,5.39661 63.61452,21.68182 32.76121,31.15312 44.61739,80.28131 84.247,104.92035 17.2119,10.69782 37.3674,13.46426 56.3918,5.94172 19.39234,-7.65882 34.77812,-22.74478 49.29171,-37.2175 38.55302,-38.45762 77.09241,-76.95613 115.6318,-115.44101 29.65407,-29.61318 71.13707,-74.32596 116.8583,-48.5967 18.42477,10.37075 31.46657,28.34581 42.60047,45.83026 13.80495,21.69544 26.68322,44.01776 39.95668,66.04027 14.03663,23.2899 28.07325,46.56616 42.10987,69.85605 10.0028,16.58503 21.46377,34.62822 43.54077,32.36601 19.5832,-2.01692 36.4271,-16.84395 49.5098,-30.41723 16.7622,-17.38906 33.1291,-35.37774 53.5981,-48.54219 20.2373,-13.02817 45.0807,-21.04131 69.2428,-16.51688 24.3528,4.56531 40.2837,22.81292 54.9609,41.27858 34.0422,42.83214 67.989,85.74605 101.9903,128.61908 8.4356,10.6433 16.8849,21.28661 25.3205,31.94354 0.4769,-1.15836 0.9675,-2.33035 1.4445,-3.48872 H 109.02375 c -5.46474,0 -11.747154,-0.87218 -17.171015,0 -0.667761,0.10903 -1.444545,0 -2.125935,0 0.476973,1.15837 0.967573,2.33036 1.444546,3.48872 C 142.19379,937.6966 194.17018,882.70847 247.86368,829.57371 c 17.49808,-17.34817 35.22783,-34.54644 53.77526,-50.81803 1.97602,-1.74435 -0.91307,-4.61982 -2.8891,-2.88909 -35.65029,31.27578 -68.86122,65.44065 -101.8541,99.45561 -30.62164,31.57559 -60.83445,63.57365 -90.76108,95.817 -5.96897,6.43231 -11.951573,12.87826 -17.879661,19.36509 -1.17199,1.28101 -0.381578,3.48871 1.444545,3.48871 H 1320.289 c 16.6531,0 33.3881,0.46335 50.0412,0 0.7087,-0.0136 1.4173,0 2.126,0 1.9215,0 2.4939,-2.16682 1.4445,-3.48871 -34.8871,-44.00414 -69.7879,-88.00827 -104.675,-132.01241 -14.9906,-18.90174 -29.1226,-40.66532 -48.0107,-55.98296 -16.735,-13.57328 -37.5582,-18.31575 -58.7358,-15.37214 -21.9544,3.05262 -41.6465,13.6823 -58.8176,27.33734 -18.7927,14.94969 -33.4834,33.98771 -51.5403,49.64604 -17.9205,15.54931 -44.5492,29.04082 -63.4237,7.12734 -8.58551,-9.97555 -14.67713,-22.554 -21.45014,-33.7833 -7.24999,-12.03333 -14.49997,-24.05305 -21.74996,-36.08638 L 902.69262,730.3634 C 892.14471,712.86532 881.18796,695.01291 866.02023,681.07169 852.4197,668.575 835.23505,660.22117 816.41508,661.29776 c -20.48257,1.17199 -38.60753,12.44217 -54.04782,25.1569 -19.62402,16.16256 -36.97219,35.2551 -54.94725,53.18927 -19.74667,19.71941 -39.49333,39.43882 -59.25363,59.14461 -17.98868,17.96142 -35.35049,37.08121 -54.74283,53.52996 -18.45203,15.65833 -41.33309,27.39185 -65.87674,19.63764 -47.19304,-14.9088 -61.9383,-71.0553 -92.15112,-104.60692 -13.76406,-15.29038 -31.86177,-28.20952 -52.73954,-30.75792 -21.46377,-2.63016 -41.66016,6.77301 -58.76303,18.91537 -8.80356,6.24153 -17.02111,13.24622 -25.14328,20.3463 -1.98965,1.75798 0.91307,4.63344 2.8891,2.90271 z"
     class="colorcce9ff svgShape"
     id="path3"
     style="stroke-width:1.36278" />
  <path
     fill="#dcfffb"
     d="m 1268.2717,362.07238 c -26.6151,-25.18416 -58.9129,-32.24336 -98.8696,-30.37635 -6.5413,0.31344 -13.8595,1.40366 -17.6344,5.92809 -3.7612,4.52443 0.2998,12.78287 6.6913,11.51548 -45.1216,-21.34112 -98.9105,-29.36788 -149.9875,-22.37683 -5.6419,0.77679 -11.78802,2.00329 -15.16771,5.88721 -3.36606,3.89755 -1.1311,11.01125 4.59257,11.06576 -41.95997,-17.40269 -117.63509,16.20344 -110.05804,19.10616 z m -183.7299,240.72128 c -24.5981,-23.27627 -54.4566,-29.80398 -91.37429,-28.07325 -6.05074,0.28619 -12.81012,1.29464 -16.29883,5.47837 -3.47509,4.18373 0.28618,11.8153 6.17339,10.64331 -41.70104,-19.73304 -91.41522,-27.14656 -138.62188,-20.68699 -5.21945,0.70865 -10.90224,1.85338 -14.00937,5.45112 -3.12077,3.59773 -1.04934,10.17996 4.23824,10.23447 -38.78469,-16.09442 -108.70888,14.97694 -101.7042,17.66161 z"
     class="colordcf2ff svgShape"
     id="path4"
     style="stroke-width:1.36278" />
  <path
     fill="#d8a353"
     d="M 343.6943,545.85675 70.075527,551.58042 195.3558,577.26881 127.61206,626.66955 347.51008,575.26552 Z"
     class="colorffbe55 svgShape"
     id="path5"
     style="stroke-width:1.36278" />
  <path
     fill="#d8a353"
     d="M 353.42454,585.69078 56.502248,760.43993 220.44456,637.20383 63.288887,633.81051 353.42454,560.90183 Z"
     class="colorffbe55 svgShape"
     id="path6"
     style="stroke-width:1.36278" />
  <path
     fill="#d8a353"
     d="M 121.73848,693.69102 166.64205,653.77522 9.5,643.48624 117.03689,585.73167 13.601965,537.18948 H 139.53637 l -71.64129,-79.69532 2.384864,0.76316 c 2.739185,0.87218 273.632396,86.93167 283.144596,86.93167 h 1.73073 l -86.26391,80.21317 z M 14.337865,642.4369 169.99448,652.63049 129.58809,688.55334 268.23722,624.20292 351.93911,546.33373 C 329.39874,541.89107 100.07029,469.13229 72.269601,460.30149 l 70.333029,78.23714 H 19.707215 l 100.355045,47.09764 z"
     class="colorffbe55 svgShape"
     id="path7"
     style="stroke-width:1.36278" />
  <path
     fill="#d8a353"
     d="m 330.63887,537.23036 -176.8342,-70.51018 37.272,47.91531 L 24.708614,492.6266 347.51008,569.20116 Z"
     class="colorffbe55 svgShape"
     id="path8"
     style="stroke-width:1.36278" />
  <path
     fill="#21d6c0"
     d="m 620.07951,320.09878 c 0,0 -22.19967,78.57784 58.61312,89.19389 -4.03383,8.40834 -4.85149,11.82892 -4.85149,11.82892 0,0 -82.32548,-19.69216 -78.23715,-69.88331 14.49997,-31.68461 24.47552,-31.1395 24.47552,-31.1395 z"
     class="color2189d6 svgShape"
     id="path9"
     style="stroke-width:1.36278" />
  <path
     fill="#2af4dc"
     d="m 445.23496,464.90768 -82.65255,-39.34343 -93.97724,112.29299 78.90491,-17.23915 z m 32.31149,147.87515 -58.72215,70.23763 -132.23044,-62.87862 78.89127,-17.23916 z"
     class="color2a94f4 svgShape"
     id="path10"
     style="stroke-width:1.36278" />
  <path
     fill="#8526fe"
     d="m 376.22383,590.13344 -33.17004,3.92481 -12.41492,-56.82789 31.94354,-9.47131 z"
     class="color0e538c svgShape"
     id="path11"
     style="stroke-width:1.36278" />
  <path
     fill="#ccfff9"
     d="m 899.58548,443.10322 c 0,0 -84.75123,91.53786 -194.42768,139.94377 -2.04417,0.89944 -4.08834,1.78524 -6.14613,2.64379 -2.04417,0.88581 -4.1156,1.73073 -6.17339,2.56203 -18.24761,7.37263 -37.1221,13.45063 -56.33729,17.64799 -92.77799,20.27815 -203.68095,14.48634 -270.72967,-1.67622 l -18.26124,-83.60649 c 54.19772,-42.68224 152.29055,-95.48993 245.06855,-115.75445 19.21518,-4.19736 38.89371,-6.54134 58.55861,-7.44078 2.23496,-0.10902 4.46991,-0.19079 6.69124,-0.25892 2.23496,-0.0681 4.45629,-0.12265 6.69125,-0.14991 119.87004,-1.75799 235.06575,46.08919 235.06575,46.08919 z"
     class="colorcce9ff svgShape"
     id="path12"
     style="stroke-width:1.36278" />
  <path
     fill="#2af4dc"
     d="m 899.58548,443.10322 c 0,0 -84.75123,91.53786 -194.42768,139.94377 -2.04417,0.89944 -4.08834,1.78524 -6.14613,2.64379 -26.60145,-24.53002 -44.39934,-54.7292 -51.55393,-87.50404 -7.15459,-32.7612 -3.57049,-67.63472 10.38437,-101.0228 2.23496,-0.0681 4.45629,-0.12265 6.69125,-0.14991 119.85641,-1.75799 235.05212,46.08919 235.05212,46.08919 z"
     class="color2a94f4 svgShape"
     id="path13"
     style="stroke-width:1.36278" />
  <path
     fill="#8526fe"
     d="m 664.51973,397.01403 c -2.23496,0.0273 -4.45629,0.0818 -6.69125,0.14991 -2.22133,0.0681 -4.45628,0.1499 -6.69124,0.25892 -6.30967,15.69922 -10.43889,31.68462 -12.29227,47.6155 -2.12593,18.35663 -1.24013,36.67238 2.64379,54.44302 3.88392,17.77064 10.71145,34.80538 20.30541,50.58636 8.32658,13.70956 18.75184,26.53331 31.03048,38.17144 2.0578,-0.8313 4.12922,-1.68985 6.17339,-2.56203 2.05779,-0.87217 4.10196,-1.74435 6.14613,-2.64379 -26.16536,-23.4398 -44.41297,-52.60327 -51.74472,-86.15489 -7.31812,-33.55161 -2.88909,-67.64834 11.12028,-99.86444 z"
     class="color0e538c svgShape"
     id="path14"
     style="stroke-width:1.36278" />
  <path
     fill="#ccfff9"
     d="m 690.63057,404.80913 c 35.2551,1.60807 154.44375,25.21141 181.84924,37.05396 -23.67148,-1.8125 -169.05274,-28.22316 -177.48834,-17.07562 -4.06108,-11.51549 -4.3609,-19.97834 -4.3609,-19.97834 z"
     class="colorcce9ff svgShape"
     id="path15"
     style="stroke-width:1.36278" />
  <path
     fill="#2af4dc"
     d="m 463.79601,549.84969 -147.41181,32.2161 -38.78469,-3.06625 33.97408,-18.95626 147.41181,-32.20247 z"
     class="color2a94f4 svgShape"
     id="path16"
     style="stroke-width:1.36278" />
  <path
     fill="#370b70"
     d="m 608.95923,549.30458 21.88623,27.96423 -30.48537,-18.07045 v 4.08834 l -7.359,-4.94689 6.92291,-12.48306 z"
     class="color0b4870 svgShape"
     id="path17"
     style="stroke-width:1.36278" />
  <path
     fill="#300b60"
     d="m 630.25946,476.90013 c 2.00329,-2.50751 0.61326,-6.24152 -2.53476,-6.84115 -26.90126,-5.16493 -87.24512,-20.60521 -96.36211,-30.59438 -10.16633,-11.13391 3.87029,-25.64751 14.03663,-33.38809 l 32.20246,13.69593 83.03413,38.97548 a 4.2791261,4.2791261 0 0 1 1.85338,6.06436 l -51.07696,86.78177 c 0,0 -9.19876,-0.96757 -15.48117,-2.42574 0,0 23.86226,-61.84292 34.3284,-72.26818 z"
     class="color0b3e60 svgShape"
     id="path18"
     style="stroke-width:1.36278" />
  <path
     fill="#fcdeb1"
     d="m 641.20258,416.12019 h 22.75841 l -6.99106,2.13956 6.99106,5.91447 -7.52254,7.53616 -15.23587,-8.87169 z"
     class="colorfcd2b1 svgShape"
     id="path19"
     style="stroke-width:1.36278" />
  <path
     fill="#2af4dc"
     d="m 621.07433,317.63215 -8.14941,47.09764 -35.32324,55.02902 -37.66721,-10.0028 35.30961,-102.04489 39.75226,-8.59913 z"
     class="color2a94f4 svgShape"
     id="path20"
     style="stroke-width:1.36278" />
  <path
     fill="#fcdeb1"
     d="m 632.88963,305.33989 -12.81012,14.75889 -5.08317,-20.98679 6.07799,-3.78853 z"
     class="colorfcd2b1 svgShape"
     id="path21"
     style="stroke-width:1.36278" />
  <path
     fill="#8526fe"
     d="m 618.53957,259.01903 c -5.81907,2.34398 -8.73542,17.25278 -7.83598,20.4008 0.89943,3.14802 9.48494,15.90363 9.48494,15.90363 l 15.31763,-33.6879 z"
     class="color0e538c svgShape"
     id="path22"
     style="stroke-width:1.36278" />
  <path
     fill="#ffeaca"
     d="m 641.13444,269.22624 c 0,0 11.4746,43.49991 3.01174,41.52388 -8.46285,-1.98966 -20.83689,-3.61137 -22.40408,-7.80873 -1.5672,-4.19735 -5.28759,-31.84814 -1.73073,-36.11364 3.55685,-4.2655 20.46894,-0.29981 20.46894,-0.29981 z"
     class="colorffe3ca svgShape"
     id="path23"
     style="stroke-width:1.36278" />
  <path
     fill="#8526fe"
     d="m 617.40846,270.56177 c -2.04417,-1.74436 -2.91635,-4.7561 -2.12594,-7.33176 1.11748,-3.61136 4.97415,-5.69641 8.69453,-6.35055 3.72039,-0.65413 7.5498,-0.2453 11.29744,-0.79041 3.73402,-0.54511 7.65882,-2.38486 9.07611,-5.87357 2.01691,1.79886 3.14802,4.55168 2.98449,7.24998 1.25375,-1.13111 2.52114,-2.26221 3.77489,-3.39332 -1.81249,5.51925 -3.9248,11.44734 -8.77629,14.63625 -4.72885,3.0935 -10.8341,2.76644 -16.46237,2.33035 -0.0136,-0.0136 -6.41869,1.26738 -8.46286,-0.47697 z"
     class="color0e538c svgShape"
     id="path24"
     style="stroke-width:1.36278" />
  <path
     fill="#8526fe"
     d="m 625.40797,269.73047 -7.90412,12.2105 -0.77678,-15.18136 z"
     class="color0e538c svgShape"
     id="path25"
     style="stroke-width:1.36278" />
  <ellipse
     cx="509.56076"
     cy="453.12106"
     fill="#ffeaca"
     rx="2.7800691"
     ry="3.8294089"
     transform="rotate(-16.804)"
     class="colorffe3ca svgShape"
     id="ellipse25"
     style="stroke-width:1.36278" />
  <path
     fill="#5fe4d4"
     d="m 575.24408,307.71112 c 0,0 -56.58259,108.40907 68.17983,117.96215 -0.62688,-6.07799 -0.62688,-10.76595 -0.62688,-10.76595 0,0 -64.55484,-8.59914 -54.75646,-64.70475 1.04934,-5.9826 2.99811,-11.76078 5.41023,-17.33455 10.984,-25.44308 -18.20672,-25.1569 -18.20672,-25.1569 z"
     class="color45afff svgShape"
     id="path26"
     style="stroke-width:1.36278" />
  <path
     fill="#ad59d4"
     d="m 1175.4801,589.12499 c -4.5517,0.55874 -9.2805,1.14473 -12.7284,1.59445 -26.9694,-34.94166 -49.7959,-101.07732 -61.3932,-175.23976 4.2519,-0.51785 8.4902,-1.04933 12.742,-1.56719 11.5973,74.13518 34.4102,140.25721 61.3796,175.2125 z"
     class="colorf7f7f7 svgShape"
     id="path27"
     style="stroke-width:1.36278" />
  <path
     fill="#ad59d4"
     d="m 1175.4801,589.12499 0.8585,1.10385 c -4.2518,0.51785 -8.4901,1.04934 -12.7419,1.56719 -0.2862,-0.35432 -0.5588,-0.72227 -0.845,-1.07659 3.4479,-0.44972 8.1767,-1.03571 12.7284,-1.59445 z"
     class="colorf7f7f7 svgShape"
     id="path28"
     style="stroke-width:1.36278" />
  <path
     fill="#ad59d4"
     d="m 1176.3386,590.22884 c 5.4648,6.93654 11.1067,12.57845 16.844,16.74855 l -12.742,1.5672 c -5.7373,-4.17011 -11.3792,-9.81201 -16.8439,-16.74856 4.2518,-0.51785 8.4901,-1.04934 12.7419,-1.56719 z"
     class="colorf7f7f7 svgShape"
     id="path29"
     style="stroke-width:1.36278" />
  <path
     fill="#d8a353"
     d="m 1121.5549,332.93616 c 1.7989,100.99555 33.5244,204.85294 70.8645,231.98587 l -12.742,1.5672 c -37.3401,-27.13293 -69.0656,-130.99032 -70.8645,-231.98587 -0.4497,-25.2523 1.0085,-47.92894 4.0475,-67.32129 4.2519,-0.51785 8.4901,-1.04934 12.742,-1.56719 -3.0254,19.39234 -4.4972,42.06899 -4.0475,67.32128 z"
     class="colorffbe55 svgShape"
     id="path30"
     style="stroke-width:1.36278" />
  <path
     fill="#ad59d4"
     d="m 1155.8561,451.27989 c 9.3895,30.74429 22.0361,54.71558 35.7048,64.65024 l -12.742,1.56719 c -13.6687,-9.93466 -26.3153,-33.90594 -35.7048,-64.65023 4.2519,-0.51786 8.4901,-1.04934 12.742,-1.5672 z"
     class="colorf7f7f7 svgShape"
     id="path31"
     style="stroke-width:1.36278" />
  <path
     fill="#d8a353"
     d="m 1177.9603,453.8828 c 3.9657,7.27724 8.2857,12.851 12.7829,16.10805 l -12.742,1.56719 c -4.4835,-3.25704 -8.8171,-8.83081 -12.7828,-16.10805 4.2382,-0.51785 8.4901,-1.03571 12.7419,-1.56719 z"
     class="colorffbe55 svgShape"
     id="path32"
     style="stroke-width:1.36278" />
  <path
     fill="#ad59d4"
     d="m 1174.7987,379.58409 c 1.7035,19.26969 7.9314,37.34014 15.086,42.54596 l -12.742,1.56719 c -7.1546,-5.20581 -13.3825,-23.27626 -15.086,-42.54596 4.2383,-0.53148 8.4901,-1.04934 12.742,-1.56719 z m -35.1324,-33.49711 c 0.6541,36.95856 6.8002,74.44862 16.1898,105.19291 -4.2519,0.51786 -8.4901,1.04934 -12.742,1.5672 -9.3896,-30.73067 -15.5221,-68.22072 -16.1898,-105.19292 -1.0766,-59.9759 12.6057,-100.137 32.3932,-102.57637 l 12.742,-1.5672 c -19.7875,2.453 -33.4562,42.6141 -32.3932,102.57638 z"
     class="colorf7f7f7 svgShape"
     id="path33"
     style="stroke-width:1.36278" />
  <path
     fill="#ad59d4"
     d="m 1106.0056,321.63872 c 0.5588,31.04411 3.407,62.30626 8.0949,92.27377 -4.2518,0.51786 -8.4901,1.04934 -12.742,1.56719 -4.6879,-29.95388 -7.5361,-61.22966 -8.0949,-92.27376 -1.7988,-100.76388 21.1776,-168.2487 54.4294,-172.33703 l 12.742,-1.5672 c -33.2518,4.08834 -56.2283,71.57315 -54.4294,172.33703 z"
     class="colorf7f7f7 svgShape"
     id="path34"
     style="stroke-width:1.36278" />
  <path
     fill="#d8a353"
     d="m 1156.6465,358.43376 c 0.6541,36.42708 9.4032,73.63095 21.3002,95.46267 -4.2519,0.51785 -8.4901,1.04933 -12.742,1.56719 -11.9107,-21.83172 -20.6597,-59.03559 -21.3002,-95.46267 -0.7086,-39.39794 8.2721,-65.78134 21.273,-67.37579 l 12.742,-1.5672 c -12.9873,1.59445 -21.968,27.97785 -21.273,67.3758 z m 9.1579,-165.61854 c -18.6974,2.3031 -33.4018,29.2725 -40.202,72.79966 -4.2519,0.51785 -8.4901,1.04934 -12.742,1.56719 6.8003,-43.52716 21.5046,-70.49655 40.202,-72.79965 3.8294,-0.46335 8.9262,-1.09022 12.742,-1.5672 z"
     class="colorffbe55 svgShape"
     id="path35"
     style="stroke-width:1.36278" />
  <path
     fill="#ad59d4"
     d="m 1174.349,371.28476 c 0.054,2.76644 0.2044,5.53288 0.4497,8.2857 -4.2519,0.51785 -8.4901,1.04934 -12.742,1.56719 a 120.0472,120.0472 0 0 1 -0.4497,-8.28569 c -0.3271,-17.9478 3.7749,-29.96751 9.703,-30.68979 l 12.742,-1.56719 c -5.9281,0.72227 -10.0301,12.75561 -9.703,30.68978 z"
     class="colorf7f7f7 svgShape"
     id="path36"
     style="stroke-width:1.36278" />
  <path
     fill="#d8a353"
     d="m 1190.7296,469.99085 c 3.3933,2.46663 6.6367,3.4342 9.6621,3.06625 l -12.742,1.56719 c -3.0254,0.36795 -6.2688,-0.59962 -9.6621,-3.06625 3.8294,-0.46334 9.0216,-2.52114 12.742,-1.56719 z"
     class="colorffbe55 svgShape"
     id="path37"
     style="stroke-width:1.36278" />
  <path
     fill="#ad59d4"
     d="m 1189.8847,422.11642 c 1.5399,1.11748 3.0253,1.56719 4.4017,1.39003 l -12.7419,1.5672 c -1.3765,0.16353 -2.8619,-0.27256 -4.4018,-1.39004 3.8158,-0.46334 9.0079,-2.53476 12.742,-1.56719 z m 1.6762,93.81371 c 5.1649,3.74764 10.0982,5.23307 14.7044,4.6607 l -12.742,1.5672 c -4.6062,0.57236 -9.5395,-0.91307 -14.7044,-4.66071 3.8158,-0.46334 8.9126,-1.10385 12.742,-1.56719 z"
     class="colorf7f7f7 svgShape"
     id="path38"
     style="stroke-width:1.36278" />
  <path
     fill="#d8a353"
     d="m 1192.4331,564.92203 c 7.0455,5.12405 13.7913,7.14096 20.0873,6.36418 l -12.742,1.56719 c -6.296,0.77679 -13.0418,-1.24012 -20.0873,-6.36417 3.8158,-0.46335 9.0079,-2.53477 12.742,-1.5672 z"
     class="colorffbe55 svgShape"
     id="path39"
     style="stroke-width:1.36278" />
  <path
     fill="#ad59d4"
     d="m 1193.1826,606.97739 c 8.6673,6.29604 16.9666,8.78993 24.7072,7.83598 l -12.742,1.5672 c -7.7406,0.95394 -16.0399,-1.53994 -24.7072,-7.83598 3.8158,-0.46335 8.9126,-1.10385 12.742,-1.5672 z"
     class="colorf7f7f7 svgShape"
     id="path40"
     style="stroke-width:1.36278" />
  <path
     fill="#d8a353"
     d="m 1171.31,342.16217 12.742,-1.56719 c 1.3764,-0.16353 2.8618,0.27255 4.4017,1.39003 l -12.7419,1.5672 c -1.5536,-1.11748 -3.0254,-1.55357 -4.4018,-1.39004 z"
     class="colorffbe55 svgShape"
     id="path41"
     style="stroke-width:1.36278" />
  <path
     fill="#ad59d4"
     d="m 1165.1911,292.62516 12.742,-1.5672 c 3.0254,-0.36795 6.2688,0.59962 9.6621,3.06625 l -12.742,1.5672 c -3.3933,-2.46663 -6.6367,-3.44783 -9.6621,-3.06625 z"
     class="colorf7f7f7 svgShape"
     id="path42"
     style="stroke-width:1.36278" />
  <path
     fill="#d8a353"
     d="m 1159.3175,245.09143 12.742,-1.5672 c 4.6062,-0.57237 9.5531,0.91306 14.718,4.6607 l -12.742,1.5672 c -5.1649,-3.76127 -10.1118,-5.23307 -14.718,-4.6607 z m 34.9689,178.41502 -12.7419,1.5672 c 5.9144,-0.7359 10.0164,-12.74198 9.6893,-30.70341 -0.3952,-22.11791 -7.3454,-44.88994 -15.522,-50.81803 l 12.7419,-1.5672 c 8.1767,5.94172 15.1269,28.70013 15.5221,50.81803 0.3134,17.96143 -3.7749,29.98114 -9.6894,30.70341 z"
     class="colorffbe55 svgShape"
     id="path43"
     style="stroke-width:1.36278" />
  <path
     fill="#ad59d4"
     d="m 1153.0624,194.38242 12.742,-1.5672 c 6.296,-0.77678 13.0418,1.24013 20.1009,6.36418 l -12.7419,1.5672 c -7.0592,-5.11042 -13.805,-7.14096 -20.101,-6.36418 z"
     class="colorf7f7f7 svgShape"
     id="path44"
     style="stroke-width:1.36278" />
  <path
     fill="#d8a353"
     d="m 1147.693,150.86889 12.742,-1.5672 c 7.7406,-0.95395 16.0399,1.52631 24.7208,7.83598 l -12.742,1.56719 c -8.6809,-6.30966 -16.9802,-8.78992 -24.7208,-7.83597 z"
     class="colorffbe55 svgShape"
     id="path45"
     style="stroke-width:1.36278" />
  <path
     fill="#ad59d4"
     d="m 1200.3917,473.0571 -12.742,1.56719 c 13.0009,-1.60808 21.9816,-27.99148 21.273,-67.37579 -0.8722,-48.56944 -16.1353,-98.51529 -34.0831,-111.55709 l 12.742,-1.5672 c 17.9478,13.0418 33.2109,62.98765 34.0831,111.55709 0.7086,39.38432 -8.2721,65.76772 -21.273,67.3758 z"
     class="colorf7f7f7 svgShape"
     id="path46"
     style="stroke-width:1.36278" />
  <path
     fill="#d8a353"
     d="m 1206.2653,520.59083 -12.742,1.5672 c 19.7875,-2.43938 33.4562,-42.6141 32.3932,-102.57638 -1.3219,-73.94439 -24.5572,-149.97383 -51.881,-169.82952 l 12.742,-1.5672 c 27.3237,19.85569 50.5591,95.89876 51.881,169.82952 1.063,59.96228 -12.6057,100.13701 -32.3932,102.57638 z"
     class="colorffbe55 svgShape"
     id="path47"
     style="stroke-width:1.36278" />
  <path
     fill="#ad59d4"
     d="m 1212.5204,571.28621 -12.742,1.56719 c 27.0239,-3.3388 45.694,-58.20429 44.2358,-140.12093 -1.7988,-100.99555 -33.5243,-204.85294 -70.8645,-231.98587 l 12.742,-1.5672 c 37.3402,27.1193 69.0657,130.99032 70.8645,231.98587 1.4718,81.91665 -17.1982,136.79576 -44.2358,140.12094 z"
     class="colorf7f7f7 svgShape"
     id="path48"
     style="stroke-width:1.36278" />
  <path
     fill="#d8a353"
     d="m 1217.9034,614.81337 -12.742,1.5672 c 33.2382,-4.10197 56.2146,-71.58679 54.4158,-172.33704 -2.2213,-124.2173 -41.2513,-251.96421 -87.1634,-285.33867 l 12.742,-1.56719 c 45.9257,33.36083 84.942,161.12136 87.1634,285.33867 1.7988,100.75025 -21.1776,168.23507 -54.4158,172.33703 z"
     class="colorffbe55 svgShape"
     id="path49"
     style="stroke-width:1.36278" />
  <path
     fill="#d8a353"
     d="m 1172.4138,158.70486 c 45.9257,33.36083 84.9421,161.12137 87.1634,285.33867 2.2213,124.23094 -33.2109,197.87551 -79.1366,164.51468 -45.9256,-33.36083 -84.9556,-161.10773 -87.177,-285.33866 -2.2077,-124.23094 33.2246,-197.88914 79.1502,-164.51469 z m 7.2773,407.78437 c 37.3401,27.1193 66.1356,-32.74758 64.3368,-133.75676 -1.7989,-100.99555 -33.5244,-204.85294 -70.8645,-231.98587 -37.3402,-27.13293 -66.1357,32.7612 -64.3368,133.75676 1.7988,101.00918 33.5243,204.86656 70.8645,231.98587"
     class="colorffbe55 svgShape"
     id="path50"
     style="stroke-width:1.36278" />
  <path
     fill="#ad59d4"
     d="m 1174.8532,295.69141 c 17.9478,13.0418 33.2109,62.98765 34.0831,111.55709 0.8722,48.56944 -12.9873,77.36496 -30.9351,64.32317 -17.9614,-13.0418 -33.2109,-62.98765 -34.0831,-111.55709 -0.8722,-48.58307 12.9873,-77.37859 30.9351,-64.32317 z m 2.2895,127.9922 c 8.1767,5.94172 14.4863,-7.16821 14.0911,-29.29974 -0.3952,-22.11791 -7.3454,-44.88994 -15.522,-50.81803 -8.1767,-5.94172 -14.5,7.18184 -14.1048,29.29975 0.3952,22.13153 7.3454,44.87631 15.5357,50.81802"
     class="colorf7f7f7 svgShape"
     id="path51"
     style="stroke-width:1.36278" />
  <path
     fill="#ad59d4"
     d="m 1244.0279,432.74609 c -1.3219,-74.16243 -18.7927,-149.87843 -42.7504,-195.61329 -0.5042,-0.96758 -1.0221,-1.93515 -1.5399,-2.87547 -2.5757,-4.72884 -5.2331,-9.10336 -7.945,-13.10993 -0.5452,-0.80404 -1.0903,-1.58082 -1.6354,-2.35761 -5.4647,-7.68607 -11.1611,-13.79132 -16.9938,-18.02957 -7.0047,-5.08316 -13.696,-7.1137 -19.9511,-6.3778 -3.6523,0.42246 -7.141,1.78524 -10.4662,4.03383 -0.9539,0.6405 -1.8806,1.34915 -2.7937,2.13956 -0.913,0.77678 -1.8261,1.63533 -2.7119,2.56202 -2.6574,2.76644 -5.1649,6.14614 -7.5225,10.11182 -0.7904,1.3219 -1.5536,2.71193 -2.2895,4.15648 a 88.130918,88.130918 0 0 0 -2.1804,4.53805 c -0.7087,1.58083 -1.4037,3.21616 -2.0715,4.90601 -9.0352,22.90831 -14.3909,56.84151 -14.4318,98.35176 0,3.07988 0.027,6.18701 0.082,9.34866 0.7086,39.45245 5.9689,79.341 14.3637,114.92316 l 1.022,4.25187 c 2.7665,11.27018 5.8327,22.09064 9.1852,32.28423 3.7612,11.4746 7.8496,22.15879 12.2241,31.84815 0.9676,2.15319 1.9488,4.25187 2.9436,6.30966 9.4577,19.50137 20.0465,34.31478 31.1395,42.3688 1.7444,1.26739 3.4751,2.35761 5.1922,3.24342 1.1447,0.59962 2.2758,1.10385 3.3933,1.53994 1.1175,0.43609 2.235,0.77678 3.3252,1.04934 1.649,0.40883 3.2707,0.62687 4.8787,0.68139 1.063,0.0272 2.126,-0.0136 3.1617,-0.13628 26.0563,-3.039 44.3857,-53.92517 44.4538,-130.7859 0,-3.09351 -0.027,-6.21428 -0.082,-9.3623 z m -65.209,84.75123 c -27.3373,-19.85569 -50.5727,-95.89876 -51.881,-169.82952 -1.3219,-73.94439 19.7739,-117.77136 47.1113,-97.91567 27.3237,19.85569 50.5591,95.89876 51.881,169.82952 1.3082,73.94439 -19.7876,117.77136 -47.1113,97.91567"
     class="colorf7f7f7 svgShape"
     id="path52"
     style="stroke-width:1.36278" />
  <path
     fill="#dbdbdb"
     d="m 1223.2046,657.78179 -12.742,1.5672 c 39.3843,-4.86512 66.599,-84.80574 64.4595,-204.17155 -2.6302,-147.15288 -48.8557,-298.50312 -103.2578,-338.02371 l 12.742,-1.56719 c 54.4021,39.52059 100.6412,190.87082 103.2578,338.0237 2.1395,119.36581 -25.0752,199.32006 -64.4595,204.17155 z"
     class="colordbdbdb svgShape"
     id="path53"
     style="stroke-width:1.36278" />
  <path
     fill="#ad59d4"
     d="m 1274.9357,455.19107 c -2.6302,-147.15288 -48.8556,-298.50312 -103.2578,-338.02371 -54.4021,-39.534218 -96.3757,47.72452 -93.7592,194.89103 2.6302,147.1665 48.8557,298.50311 103.2714,338.0237 54.3885,39.52059 96.3621,-47.72452 93.7456,-194.89102 z m -16.585,38.08967 c -0.3816,5.27395 -0.8449,10.41163 -1.3764,15.3994 a 375.68274,375.68274 0 0 1 -2.4803,18.76547 c -0.4361,2.76644 -0.8994,5.47837 -1.39,8.13579 -0.2589,1.43092 -0.5315,2.83458 -0.8041,4.23824 -0.5042,2.53477 -1.0357,5.0014 -1.5808,7.42715 -0.1226,0.55874 -0.2589,1.11748 -0.3816,1.67622 -0.4633,1.98965 -0.9403,3.93843 -1.4445,5.84632 -0.1499,0.59962 -0.3134,1.18561 -0.477,1.78524 -1.5263,5.65553 -3.1753,10.95674 -4.9741,15.89 -0.259,0.70865 -0.5179,1.39004 -0.7768,2.08505 -1.2674,3.36607 -2.6029,6.54134 -4.0066,9.53946 -1.3491,2.87546 -2.7392,5.58739 -4.1837,8.10853 -1.6353,2.84821 -3.3388,5.47837 -5.0968,7.84961 -0.9403,1.26738 -1.9079,2.46663 -2.9027,3.59773 -0.1227,0.14991 -0.2589,0.29982 -0.3816,0.43609 a 49.496133,49.496133 0 0 1 -4.8106,4.76973 c -1.1311,0.96757 -2.2758,1.83975 -3.4478,2.63016 -1.172,0.79042 -2.344,1.48543 -3.5569,2.09868 -1.1992,0.61325 -2.4257,1.13111 -3.6522,1.55357 -1.1175,0.39521 -2.2486,0.69502 -3.3934,0.92669 l -0.6541,0.12265 c -1.1175,0.20442 -2.2486,0.3407 -3.3933,0.39521 -0.054,0 -0.109,0.0136 -0.1635,0.0136 -7.1274,0.29982 -14.7044,-2.27584 -22.5949,-7.99951 -28.155,-20.45531 -53.7071,-76.37013 -69.7879,-145.2041 -0.6405,-2.71193 -1.2538,-5.45112 -1.8534,-8.20393 -0.9403,-4.30638 -1.8534,-8.65365 -2.7256,-13.0418 -1.3082,-6.59585 -2.5211,-13.28709 -3.6522,-20.04647 -0.4089,-2.45301 -0.8041,-4.93326 -1.1856,-7.39989 -3.1344,-20.21002 -5.4375,-41.00602 -6.7594,-61.92468 l -0.041,-0.7359 c -0.5996,-9.59397 -0.9948,-19.20156 -1.1584,-28.79552 -2.2213,-124.21731 33.211,-197.87552 79.1366,-164.50106 4.2383,3.07988 8.422,6.97743 12.5239,11.58362 0.8859,0.99483 1.7717,2.03054 2.6438,3.09351 39.0573,47.34295 70.0333,160.38546 71.9957,270.64791 0.327,17.4572 -0.1091,33.9332 -1.2129,49.23721"
     class="colorf7f7f7 svgShape"
     id="path54"
     style="stroke-width:1.36278" />
  <path
     fill="#d8a353"
     d="m 1188.6445,371.72085 c -0.2453,-1.15836 -0.5042,-2.31672 -0.7767,-3.4342 -0.15,-0.61325 -0.3135,-1.2265 -0.4634,-1.82613 a 83.402075,83.402075 0 0 0 -1.0085,-3.54322 c -0.1771,-0.57237 -0.3543,-1.14474 -0.5314,-1.70347 -0.368,-1.11748 -0.7496,-2.19408 -1.1448,-3.24342 -2.562,-6.80027 -5.6828,-11.97883 -9.0079,-14.40457 -1.0221,-0.74953 -2.017,-1.18562 -2.9709,-1.34915 -5.2467,-0.91307 -9.335,6.58222 -10.6706,19.22881 -0.055,0.57236 -0.1226,1.15836 -0.1635,1.75798 -0.095,1.18562 -0.1772,2.42575 -0.2317,3.69313 -0.082,1.90789 -0.095,3.89755 -0.068,5.9826 0.1772,9.68936 1.5945,19.48774 3.843,27.9506 0.3135,1.21287 0.6542,2.38486 1.0085,3.54323 0.7086,2.30309 1.4718,4.46991 2.2758,6.48682 0.8177,2.01692 1.6763,3.8703 2.5893,5.51926 0.2317,0.40883 0.4497,0.81767 0.6814,1.21287 0.9267,1.55357 1.8806,2.91635 2.8755,4.03383 0.7359,0.84492 1.499,1.53994 2.2622,2.09868 3.0662,2.22133 5.8736,1.77161 8.163,-0.8313 0.3816,-0.43609 0.7496,-0.92669 1.1039,-1.4718 0.8722,-1.37641 1.6626,-3.10713 2.3303,-5.16493 0.2726,-0.81767 0.5179,-1.68985 0.7359,-2.61654 0.3407,-1.3764 0.6405,-2.87546 0.8858,-4.46991 0.586,-3.72039 0.8995,-7.98589 0.8995,-12.7011 0,-0.66776 0,-1.36278 -0.014,-2.04417 -0.1499,-7.76784 -1.0902,-15.56294 -2.6029,-22.7039 z"
     class="colorffbe55 svgShape"
     id="path55"
     style="stroke-width:1.36278" />
  <path
     fill="#dbdbdb"
     d="m 1142.3782,107.88684 12.742,-1.5672 c 9.1715,-1.13111 19.0107,1.8125 29.2861,9.28052 l -12.742,1.5672 c -10.2753,-7.46803 -20.1146,-10.41163 -29.2861,-9.28052 z"
     class="colordbdbdb svgShape"
     id="path56"
     style="stroke-width:1.36278" />
  <path
     fill="#d8a353"
     d="m 1174.0355,249.75213 c 27.3238,19.85569 50.5591,95.89876 51.881,169.82952 1.3219,73.94439 -19.7739,117.77136 -47.0976,97.91567 -27.3373,-19.85569 -50.5727,-95.89876 -51.881,-169.82952 -1.3355,-73.94439 19.7603,-117.77136 47.0976,-97.91567 z m 3.9657,221.81954 c 17.9478,13.04179 31.8073,-15.75373 30.9351,-64.32317 -0.8722,-48.56944 -16.1353,-98.51529 -34.0831,-111.55709 -17.9614,-13.04179 -31.8073,15.7401 -30.9487,64.32317 0.8722,48.55582 16.1353,98.50167 34.0967,111.55709"
     class="colorffbe55 svgShape"
     id="path57"
     style="stroke-width:1.36278" />
  <path
     fill="#dcfffb"
     d="m 731.07786,172.52344 c -36.18179,-34.21938 -80.0769,-43.82697 -134.38364,-41.27857 -8.89895,0.42246 -18.84724,1.90789 -23.95766,8.05402 -5.12405,6.14614 0.40884,17.37543 9.08974,15.6447 -61.32506,-29.01356 -134.43815,-39.91579 -203.85811,-30.41722 -7.67245,1.04934 -16.02628,2.71193 -20.60522,8.01314 -4.57894,5.28758 -1.53994,14.96331 6.2279,15.04508 -57.04593,-23.67147 -159.89486,21.99525 -149.59225,25.94731 z"
     class="colordcf2ff svgShape"
     id="path58"
     style="stroke-width:1.36278" />
</svg>
