<?xml version="1.0" encoding="UTF-8" standalone="no"?>
<svg
   data-name="Layer 1"
   viewBox="0 0 1400 1000"
   id="Indianbusinessmanfindingsolutionofproblem"
   version="1.1"
   sodipodi:docname="Riddle.svg"
   width="1400"
   height="1000"
   inkscape:export-filename="Riddle.svg"
   inkscape:export-xdpi="96"
   inkscape:export-ydpi="96"
   xml:space="preserve"
   xmlns:inkscape="http://www.inkscape.org/namespaces/inkscape"
   xmlns:sodipodi="http://sodipodi.sourceforge.net/DTD/sodipodi-0.dtd"
   xmlns="http://www.w3.org/2000/svg"
   xmlns:svg="http://www.w3.org/2000/svg"><defs
     id="defs58" /><sodipodi:namedview
     id="namedview58"
     pagecolor="#505050"
     bordercolor="#ffffff"
     borderopacity="1"
     inkscape:showpageshadow="0"
     inkscape:pageopacity="0"
     inkscape:pagecheckerboard="1"
     inkscape:deskcolor="#505050" /><g
     id="g58"
     transform="matrix(1.4268527,0,0,1.4268527,-878.96852,-127.85996)"><path
       fill="#34c3ea"
       d="M 754.6,700.1 C 707.8,633.3 638.2,551.2 656.6,409.7 677.6,248 920.8,-8.7 1180.9,183.8 c 102.2,75.7 107.8,248.2 244.4,204 136.6,-44.2 228.5,299 23.3,343.5 -205.2,44.5 -605.2,95.6 -694,-31.2 z"
       opacity="0.1"
       id="path1" /><ellipse
       cx="1101.3"
       cy="743.70001"
       fill="#34c3ea"
       opacity="0.1"
       rx="361.29999"
       ry="36.400002"
       id="ellipse1" /><path
       fill="#cce9ff"
       d="m 1219.6,587.2 c -10.7,-7.8 -89.3,-4.9 -96.6,0 -7.4,4.9 8.3,18.8 33.1,32.8 10.4,5.9 16.8,11.7 31,0.9 14.2,-10.7 39.7,-28.5 32.5,-33.7 z"
       id="path2" /><path
       fill="#cce9ff"
       d="m 1160.6,615.3 h 20.9 V 710 h -20.9 z m -55.2,111.5 h 128.8 c 2.3,0 4.1,-1.8 4.1,-4.1 0,-2 -1.5,-3.7 -3.4,-4 l -53.3,-8.6 h -20.9 l -55.8,8.6 c -2,0.3 -3.5,2 -3.5,4 -0.1,2.2 1.7,4.1 4,4.1 z m 114.2,-412.1 c -64.9,-2.8 -83.9,56.4 -87.6,94.5 -3.7,38 -13.9,72.4 -43.7,88.4 -29.9,16 -58.1,23.3 -40.9,49.1 17.2,25.8 76.3,51.8 129.4,50.5 53.1,-1.2 107.4,-29.7 122.2,-105.8 14.7,-76.1 -15.1,-173.9 -79.4,-176.7 z"
       id="path3" /><path
       fill="#efaca5"
       d="m 1162.8,713.1 3.9,14 -18.9,5.7 -6,-17.2 z M 1048.3,703 v 11.2 h 16.8 L 1067,703 Z m 129,-324.5 -25.4,62.6 -0.6,1.4 c -1.5,3.7 -5.1,6 -8.9,6 l -72.2,-0.5 c -2.9,0 -5.3,-2.4 -5.3,-5.3 0,-2.6 2,-4.8 4.5,-5.2 l 71.6,-10.5 -9.5,7.4 17.1,-65.4 c 2.1,-8.1 10.4,-13 18.5,-10.8 8.1,2.1 13,10.4 10.8,18.5 -0.1,0.6 -0.4,1.2 -0.6,1.8 z"
       id="path4" /><path
       fill="#e7ad87"
       d="m 1078.1,436.2 -24.7,-0.5 c -6.1,0 -11,5.5 -11,12.3 h 36 z"
       id="path5" /><path
       fill="#2a94f4"
       d="m 1137.4,386.1 39.5,9.6 6.5,-35.2 c 1.7,-9.5 -4.8,-18.5 -14.5,-19.9 -8.2,-1.2 -16,3.4 -18.8,11.1 z"
       id="path6" /><path
       fill="#0b4870"
       d="m 1178.2,454.6 -121.7,61.8 c -11.3,5.7 -18.1,17.6 -17.4,30.3 l 9.2,156.4 h 18.7 l 25.2,-167.3 94.8,-66.5 z M 1156.7,241 c 0,0 39.9,-17.7 61.3,39.5 19.9,53 -2.2,42.6 -34.4,42.8 -26.2,0.2 -72.5,25 -60.8,-7.7 8.4,-23.3 4,-38.1 4,-38.1 z"
       id="path7" /><path
       fill="#2a94f4"
       d="m 1183.7,324.5 -17.5,7.8 c -10.4,4.6 -17.1,15 -17,26.4 0.3,23 5.5,80 24.9,101.9 h 59.2 c 9.2,-40.4 3.9,-102.5 3.9,-102.5 0.6,-15.2 -10.6,-28.4 -25.7,-30.2 z"
       id="path8" /><path
       fill="#efaca5"
       d="m 1185.4,343.4 c -6.2,0.7 -11.8,-3.7 -12.5,-9.8 l -4.9,-37.6 22.5,-2.6 4.8,37.3 c 0.8,6.3 -3.7,12 -9.9,12.7 z"
       id="path9" /><path
       fill="#fab9af"
       d="m 1166.8,324 -0.9,0.1 c -15,2 -28.7,-8.6 -30.7,-23.6 l -4.3,-32.8 55.2,-7.2 4.3,32.8 c 1.9,15 -8.6,28.8 -23.6,30.7 z"
       id="path10" /><path
       fill="#0b4870"
       d="m 1192.2,280.7 -4.7,9.8 c 0,0 -6.3,5.4 -8.1,-8.2 -1.5,-11.6 -9.9,-9.6 -9.9,-9.6 0,0 -28.8,21.8 -45.7,6.8 -13.3,-11.8 8.2,-33.4 32.9,-38.5 l 32.4,14.1 z"
       id="path11" /><path
       fill="#fab9af"
       d="m 1184,289.2 c 0.7,6 2.2,10.4 7.2,9.8 0,0 5,-5 5.7,-12.1 0.7,-6 -0.2,-10.2 -5.2,-9.6 -4.9,0.6 -8.4,5.9 -7.7,11.9 z"
       id="path12" /><path
       fill="#0b4870"
       d="m 1233.3,460.6 h -59.2 l -94.7,57.2 c -11.2,6.7 -15.6,20.7 -10.3,32.7 l 72.7,165.1 21,-2.5 -39.1,-159.3 c 32.8,-1.4 93.6,-6.3 109.5,-24.1 27,-30 0.1,-69.1 0.1,-69.1 z"
       id="path13" /><path
       fill="#ffbe55"
       d="m 1031.5,357 33.8,90.7 H 955.6 l -31.2,-85.5 c -0.9,-2.6 1,-5.3 3.7,-5.3 h 103.4 z"
       id="path14" /><path
       fill="#ffbe55"
       d="m 1031.5,357 h 5.3 c 2.8,0 5.3,1.8 6.3,4.4 l 31.8,86.3 h -9.6 z m -73.3,99.5 h 107.1 v -8.7 H 955.9 v 6.4 c 0,1.2 1,2.3 2.3,2.3 z m 107.1,0 h 67.7 c 2.4,0 4.4,-2 4.4,-4.4 0,-2.4 -2,-4.4 -4.4,-4.4 h -67.7 z"
       id="path15" /><path
       fill="#ffffff"
       d="m 1004,402.1 c 2.1,6.3 -0.4,12.7 -5.6,14.4 -5.2,1.7 -11,-2 -13.1,-8.3 -2.1,-6.3 0.4,-12.7 5.6,-14.4 5.2,-1.7 11.1,2 13.1,8.3 z"
       id="path16" /><path
       fill="#fab9af"
       d="m 1223.6,376.8 -25.4,63.8 -0.6,1.4 c -1.5,3.8 -5.2,6.1 -9,6.1 l -72.3,-0.5 c -2.9,0 -5.3,-2.4 -5.3,-5.4 0,-2.7 2,-4.9 4.6,-5.2 l 71.5,-10.6 -9.6,7.5 17,-66.6 c 2.1,-8.2 10.4,-13.1 18.6,-11 8.2,2.1 13.1,10.4 11,18.6 0,0.6 -0.3,1.3 -0.5,1.9 z"
       id="path17" /><path
       fill="#fab9af"
       d="m 1124.2,435.7 -24.7,-0.5 c -6.1,0 -11,5.6 -11,12.5 h 36 z"
       id="path18" /><path
       fill="#31a1f4"
       d="m 1183.5,384.7 39.5,9.8 6.5,-35.9 c 1.7,-9.6 -4.8,-18.8 -14.5,-20.2 -8.2,-1.2 -16,3.5 -18.8,11.3 z"
       id="path19" /><path
       fill="#0b4870"
       d="m 1135.4,719.4 -9.2,9.1 -20.7,5 c -2.1,0.5 -3.9,2.1 -4.6,4.2 l -1.1,3 c -0.5,1.5 0.6,3 2.2,3 l 66.7,-1.6 c 2.2,0 3.9,-1.9 3.7,-4.1 l -5.3,-18.9 -10.1,2.4 c -3.4,1.1 -7.1,0.7 -10.1,-1 l -3.6,-2.1 c -2.5,-1.5 -5.7,-1.1 -7.9,1 z m -95.6,-13.1 -9.2,9.1 -20.7,5 c -2.1,0.5 -3.9,2.1 -4.6,4.2 l -1.1,3 c -0.5,1.5 0.6,3 2.2,3 l 60.3,-1.3 c 2.2,0 3.9,-1.9 3.7,-4.1 l -1.6,-19.3 -7.4,2.5 c -3.4,1.1 -7.1,0.7 -10.1,-1 l -3.6,-2.1 c -2.6,-1.5 -5.8,-1.1 -7.9,1 z"
       id="path20" /><g
       id="g37"><path
         fill="#0b4870"
         d="m 973.2,743.7 c 0.2,0 0.5,0 0.7,-0.1 2.3,-0.4 3.9,-2.3 3.5,-4.4 L 922.9,472.9 c -0.4,-2.1 -2.6,-3.5 -5,-3.1 -2.3,0.4 -3.9,2.3 -3.5,4.4 L 969,740.5 c 0.3,1.9 2.1,3.2 4.2,3.2 z m -140.6,0 c 2.1,0 3.9,-1.3 4.2,-3.2 L 895,474.2 c 0.4,-2.1 -1.2,-4.1 -3.5,-4.4 -2.4,-0.3 -4.6,1.1 -5,3.1 l -58.2,266.3 c -0.4,2.1 1.2,4.1 3.5,4.4 0.3,0.1 0.5,0.1 0.8,0.1 z"
         id="path21" /><path
         fill="#0b4870"
         d="m 856.8,455.1 h 511.7 v 24.8 H 856.8 Z"
         transform="rotate(180,1112.62,467.462)"
         id="path22" /><path
         fill="#0b4870"
         d="M 850.3,642.5 H 955.2 V 650 H 850.3 Z"
         transform="rotate(180,902.726,646.319)"
         id="path23" /><path
         fill="#0b4870"
         d="m 1364.2,743.7 c 0.2,0 0.5,0 0.7,-0.1 2.3,-0.4 3.9,-2.3 3.5,-4.4 L 1314,472.9 c -0.4,-2.1 -2.6,-3.5 -5,-3.1 -2.3,0.4 -3.9,2.3 -3.5,4.4 l 54.5,266.3 c 0.3,1.9 2.2,3.2 4.2,3.2 z m -140.6,0 c 2.1,0 3.9,-1.3 4.2,-3.2 L 1286,474.2 c 0.4,-2.1 -1.2,-4.1 -3.5,-4.4 -2.4,-0.3 -4.6,1.1 -5,3.1 l -58.2,266.3 c -0.4,2.1 1.2,4.1 3.5,4.4 0.3,0.1 0.5,0.1 0.8,0.1 z"
         id="path24" /><path
         fill="#0b4870"
         d="m 1241.3,642.5 h 104.9 v 7.5 h -104.9 z"
         transform="rotate(180,1293.752,646.319)"
         id="path25" /><path
         fill="#ffbe55"
         d="m 900.3,359.4 h -60.9 c -5.8,0 -10.5,-4.7 -10.5,-10.5 V 288 c 0,-5.8 4.7,-10.5 10.5,-10.5 h 60.9 c 5.8,0 10.5,4.7 10.5,10.5 v 60.9 c 0,5.8 -4.7,10.5 -10.5,10.5 z"
         id="path26" /><path
         fill="#ffffff"
         d="m 890,348.3 h -53.4 c -4.6,0 -8.4,-3.8 -8.4,-8.4 v -53.4 c 0,-4.6 3.8,-8.4 8.4,-8.4 H 890 c 4.6,0 8.4,3.8 8.4,8.4 v 53.4 c 0,4.6 -3.7,8.4 -8.4,8.4 z"
         opacity="0.39"
         id="path27" /><path
         fill="#ffffff"
         d="m 877.3,328.4 -3,-8.5 h -15 l -3,8.5 h -9.4 l 14.6,-35.9 h 10.7 l 14.6,35.9 z m -5,-14.8 c -2.8,-7.7 -4.3,-12.1 -4.7,-13.1 -0.3,-1 -0.6,-1.8 -0.7,-2.4 -0.6,2.1 -2.4,7.2 -5.3,15.5 z"
         id="path28" /><path
         fill="#ffbe55"
         d="m 1049,189.6 h -61 c -5.8,0 -10.5,-4.7 -10.5,-10.5 v -60.9 c 0,-5.8 4.7,-10.5 10.5,-10.5 h 60.9 c 5.8,0 10.5,4.7 10.5,10.5 v 60.9 c 0,5.8 -4.7,10.5 -10.4,10.5 z"
         id="path29" /><path
         fill="#ffffff"
         d="m 1039.5,178.5 h -53.4 c -4.6,0 -8.4,-3.8 -8.4,-8.4 v -53.4 c 0,-4.6 3.8,-8.4 8.4,-8.4 h 53.4 c 4.6,0 8.4,3.8 8.4,8.4 v 53.4 c 0,4.6 -3.7,8.4 -8.4,8.4 z"
         opacity="0.39"
         id="path30" /><path
         fill="#ffffff"
         d="m 1027.8,148.8 c 0,3.2 -1.3,5.8 -4,7.6 -2.7,1.9 -6.4,2.8 -11.2,2.8 -4.4,0 -8.3,-0.7 -11.7,-2.2 v -7 c 2.8,1.1 5.1,1.8 7.1,2.3 2,0.5 3.7,0.7 5.3,0.7 1.9,0 3.4,-0.3 4.4,-1 1,-0.6 1.5,-1.6 1.5,-2.8 0,-0.7 -0.2,-1.3 -0.7,-1.9 -0.5,-0.5 -1.1,-1.1 -2,-1.6 -0.9,-0.5 -2.7,-1.3 -5.3,-2.4 -2.5,-1 -4.4,-2 -5.7,-3 -1.3,-0.9 -2.3,-2 -3,-3.3 -0.8,-1.3 -1.1,-2.7 -1.1,-4.4 0,-3.2 1.2,-5.6 3.7,-7.5 2.5,-1.8 5.9,-2.7 10.3,-2.7 2.1,0 4.2,0.2 6.1,0.7 1.9,0.5 4,1.1 6.1,1.9 l -2.8,5.9 c -2.2,-0.8 -4,-1.3 -5.5,-1.6 -1.4,-0.3 -2.9,-0.5 -4.2,-0.5 -1.7,0 -2.9,0.3 -3.8,1 -0.9,0.7 -1.3,1.5 -1.3,2.6 0,0.7 0.2,1.3 0.5,1.7 0.4,0.5 0.9,1 1.7,1.4 0.8,0.4 2.6,1.3 5.5,2.5 3.9,1.6 6.5,3.2 7.9,4.8 1.5,1.7 2.2,3.6 2.2,6 z"
         id="path31" /><path
         fill="#ffbe55"
         d="m 1459.5,454.7 h -60.9 c -5.8,0 -10.5,-4.7 -10.5,-10.5 v -60.9 c 0,-5.8 4.7,-10.5 10.5,-10.5 h 60.9 c 5.8,0 10.5,4.7 10.5,10.5 v 60.9 c 0,5.8 -4.7,10.5 -10.5,10.5 z"
         id="path32" /><path
         fill="#ffffff"
         d="m 1450.1,443.6 h -53.4 c -4.6,0 -8.4,-3.8 -8.4,-8.4 v -53.4 c 0,-4.6 3.8,-8.4 8.4,-8.4 h 53.4 c 4.6,0 8.4,3.8 8.4,8.4 v 53.4 c 0,4.7 -3.8,8.4 -8.4,8.4 z"
         opacity="0.39"
         id="path33" /><path
         fill="#ffffff"
         d="m 1422.6,423.8 h -8.6 v -35.7 h 23.6 v 6.2 h -15 v 9.2 h 14 v 6.2 h -14 z"
         id="path34" /><path
         fill="#ffbe55"
         d="M 1335.9,254.7 H 1275 c -5.8,0 -10.5,-4.7 -10.5,-10.5 v -60.9 c 0,-5.8 4.7,-10.5 10.5,-10.5 h 60.9 c 5.8,0 10.5,4.7 10.5,10.5 v 60.9 c 0,5.8 -4.7,10.5 -10.5,10.5 z"
         id="path35" /><path
         fill="#ffffff"
         d="m 1326.1,243 h -53.4 c -4.6,0 -8.4,-3.8 -8.4,-8.4 v -53.4 c 0,-4.6 3.8,-8.4 8.4,-8.4 h 53.4 c 4.6,0 8.4,3.8 8.4,8.4 v 53.4 c 0,4.6 -3.7,8.4 -8.4,8.4 z"
         opacity="0.39"
         id="path36" /><path
         fill="#ffffff"
         d="m 1322.3,205 c 0,5.9 -1.9,10.4 -5.8,13.5 -3.9,3.1 -9.4,4.7 -16.7,4.7 h -11.7 v -35.7 h 12.9 c 6.7,0 12,1.5 15.7,4.6 3.7,3 5.6,7.3 5.6,12.9 z m -9.1,0.2 c 0,-7.7 -3.9,-11.5 -11.7,-11.5 h -4.7 V 217 h 3.8 c 8.4,-0.1 12.6,-4 12.6,-11.8 z"
         id="path37" /></g></g></svg>
