<?xml version="1.0" encoding="UTF-8" standalone="no"?>
<svg
   data-name="Layer 1"
   viewBox="0 0 1400 1000"
   id="Indianbusinessmanfindingsolutionofproblem"
   version="1.1"
   sodipodi:docname="Riddle.svg"
   width="1400"
   height="1000"
   xmlns:inkscape="http://www.inkscape.org/namespaces/inkscape"
   xmlns:sodipodi="http://sodipodi.sourceforge.net/DTD/sodipodi-0.dtd"
   xmlns="http://www.w3.org/2000/svg"
   xmlns:svg="http://www.w3.org/2000/svg">
  <defs
     id="defs58" />
  <sodipodi:namedview
     id="namedview58"
     pagecolor="#505050"
     bordercolor="#ffffff"
     borderopacity="1"
     inkscape:showpageshadow="0"
     inkscape:pageopacity="0"
     inkscape:pagecheckerboard="1"
     inkscape:deskcolor="#505050" />
  <path
     fill="#8526fe"
     d="M 399.50994,164.53206 C 256.73063,275.98418 171.56401,745.14598 439.28188,748.4773 580.20309,750.2306 830.85225,842.84571 996.10351,928.81678 1156.7878,1012.4111 1121.0764,555.92421 956.33153,344.87267 791.58669,133.82115 542.28929,53.07991 399.50994,164.53206 Z"
     class="colorefedef svgShape"
     id="path1"
     style="stroke-width:2.662" />
  <path
     fill="#8526fe"
     d="m 1066.9457,975.2123 c -12.122,0 -25.4345,-3.69664 -39.7063,-11.12373 l 1.227,-2.36044 c 33.1112,17.22761 59.7233,14.15746 79.08,-9.11423 35.3598,-42.50878 42.831,-149.2253 19.4944,-278.49859 C 1102.5369,538.37161 1048.7563,407.17201 983.17332,323.15788 803.19207,92.585667 530.0227,3.939025 374.2256,125.5591 l -1.63775,-2.10048 C 529.53928,0.93911151 804.38794,89.79108 985.27379,321.52013 c 65.83251,84.33907 119.81071,215.97281 144.38741,352.12207 23.4718,130.02717 15.7822,237.57556 -20.0664,280.67184 -11.5709,13.90791 -25.9857,20.89826 -42.6491,20.89826 z"
     class="colorefedef svgShape"
     id="path2"
     style="stroke-width:2.662" />
  <rect
     width="54.943642"
     height="54.943642"
     x="662.43872"
     y="26.341499"
     fill="#d8a353"
     rx="14.31889"
     class="colordc8758 svgShape"
     id="rect2"
     style="stroke-width:2.662" />
  <polygon
     fill="#d8a353"
     points="331.23,305.399 288.641,453.091 280.282,453.091 314.162,300.804 "
     class="colordc8758 svgShape"
     id="polygon2"
     transform="matrix(2.6619984,0,0,2.6619984,-227.65897,-230.91403)" />
  <polygon
     fill="#d8a353"
     points="359.175,305.399 401.763,453.091 410.122,453.091 376.242,300.804 "
     class="colordc8758 svgShape"
     id="polygon3"
     transform="matrix(2.6619984,0,0,2.6619984,-227.65897,-230.91403)" />
  <rect
     width="708.27258"
     height="566.73407"
     x="337.00681"
     y="58.77528"
     fill="#ffeacb"
     rx="9.3808823"
     class="colorffe3cb svgShape"
     id="rect3"
     style="stroke-width:2.662" />
  <rect
     width="256.34778"
     height="34.994633"
     x="562.9679"
     y="601.45288"
     fill="#d8a353"
     rx="7.3976936"
     class="colordc8758 svgShape"
     id="rect4"
     style="stroke-width:2.662" />
  <rect
     width="1330.9993"
     height="5.323997"
     x="38.540874"
     y="972.54883"
     fill="#937850"
     class="color935b50 svgShape"
     id="rect5"
     style="stroke-width:2.662" />
  <polygon
     fill="#f9c67a"
     points="144.964,441.3 165.426,451.297 134.005,451.297 134.005,429.517 146.145,429.517 "
     class="colorf9977a svgShape"
     id="polygon5"
     transform="matrix(2.6619984,0,0,2.6619984,-227.65897,-230.91403)" />
  <polygon
     fill="#f9c67a"
     points="178.686,441.3 199.147,451.297 167.727,451.297 167.727,429.517 179.866,429.517 "
     class="colorf9977a svgShape"
     id="polygon6"
     transform="matrix(2.6619984,0,0,2.6619984,-227.65897,-230.91403)" />
  <path
     fill="#c69956"
     d="m 165.75942,928.5559 h -36.84246 a 7.5113075,7.5113075 0 0 1 -7.51131,-7.5113 V 790.03571 a 341.41505,341.41505 0 0 1 8.58367,-76.07565 v 0 a 50.478969,50.478969 0 0 0 1.21103,-13.65097 c -1.60564,-33.73471 -7.60449,-181.68035 9.21475,-208.59108 l 107.58665,-7.9434 -74.83807,438.53356 a 7.5113342,7.5113342 0 0 1 -7.40426,6.24773 z"
     class="colorc67a56 svgShape"
     id="path6"
     style="stroke-width:2.662" />
  <path
     fill="#c69956"
     d="m 283.03291,478.19732 c 0,0 5.65594,91.56375 5.65594,113.09135 v 127.0275 q 0,7.84681 -0.77056,15.66517 l -18.83811,191.01968 a 7.5113342,7.5113342 0 0 1 -7.47506,6.77412 h -43.41131 a 7.5113075,7.5113075 0 0 1 -7.49152,-8.05619 l 11.72964,-161.27297 a 159.61561,159.61561 0 0 0 -2.96116,-44.26033 L 172.09745,491.71806 Z"
     class="colorc67a56 svgShape"
     id="path7"
     style="stroke-width:2.662" />
  <path
     fill="#f9c67a"
     d="m 366.40483,333.66707 c 0,0 0.3948,-10.33307 16.28499,-26.69329 15.89018,-16.36022 30.13915,-27.54156 21.86565,-13.75604 l -6.47853,10.40062 c 0,0 17.09642,-6.62979 26.93546,-11.4714 a 13.578853,13.578853 0 0 1 15.94047,2.63972 c 3.70716,3.99847 3.59524,8.36932 -6.62984,16.12542 a 130.28928,130.28928 0 0 1 -30.98436,18.31037 7.7361133,7.7361133 0 0 0 -3.83301,3.20239 l -11.42868,9.30282 z"
     class="colorf9977a svgShape"
     id="path8"
     style="stroke-width:2.662" />
  <path
     fill="#ddaa5e"
     d="m 388.07706,308.44707 a 18.284974,18.284974 0 0 1 4.63383,-3.16339 19.314395,19.314395 0 0 1 2.59212,-1.05463 12.160008,12.160008 0 0 1 2.77396,-0.61075 27.341704,27.341704 0 0 1 -4.75079,2.9192 23.359967,23.359967 0 0 1 -5.24912,1.90957 z m 23.61633,-3.166 c 3.87666,-2.44265 7.8383,-4.64322 11.74473,-6.93802 3.92588,-2.27093 7.80402,-4.54264 11.55654,-7.15947 a 31.49027,31.49027 0 0 1 -5.10839,4.60291 58.050916,58.050916 0 0 1 -5.74741,3.76473 c -1.98585,1.13716 -4.00388,2.21357 -6.08617,3.15918 a 57.968608,57.968608 0 0 1 -6.3593,2.57067 z m 4.24351,5.26535 c 4.42504,-2.35233 8.86419,-4.56458 13.15842,-7.02235 2.16612,-1.19436 4.25602,-2.5052 6.29528,-3.8812 a 25.687671,25.687671 0 0 0 5.56235,-4.85623 17.73245,17.73245 0 0 1 -4.91296,5.71281 42.372412,42.372412 0 0 1 -6.25514,4.23932 63.273918,63.273918 0 0 1 -6.76044,3.30913 55.75686,55.75686 0 0 1 -7.08751,2.49852 z m 5.12123,3.94913 10.95298,-5.93815 c 1.81386,-0.99026 3.57624,-2.05825 5.36201,-3.10085 1.76903,-1.07135 3.48282,-2.22038 5.24193,-3.37478 a 37.353666,37.353666 0 0 1 -9.92393,7.69533 53.828641,53.828641 0 0 1 -5.6704,2.72456 40.614588,40.614588 0 0 1 -5.96259,1.99389 z"
     class="colordd765e svgShape"
     id="path9"
     style="stroke-width:2.662" />
  <path
     fill="#ffbb55"
     d="m 242.43048,281.19076 c 0,0 8.60962,3.84868 15.28219,7.2697 9.2493,4.74209 23.61254,21.40598 40.42143,63.02624 l 11.17012,27.65817 c 0,0 33.52992,-39.14029 62.53788,-63.96375 l 28.63034,23.23163 -66.26711,76.33134 A 46.82543,46.82543 0 0 1 317.603,429.36658 c -15.13011,7.7318 -30.57982,5.18253 -39.06131,-10.54177 -13.26711,-24.59674 -29.03998,-62.04627 -30.54888,-72.48124 z"
     class="colorffba55 svgShape"
     id="path10"
     style="stroke-width:2.662" />
  <path
     fill="#e69b2a"
     d="m 309.1975,379.63995 a 21.953793,21.953793 0 0 1 2.81277,5.95146 25.755047,25.755047 0 0 1 1.21095,6.52189 18.459175,18.459175 0 0 1 -0.7903,6.70068 10.720985,10.720985 0 0 1 -3.80468,5.49069 19.931606,19.931606 0 0 0 1.7817,-5.96222 31.714063,31.714063 0 0 0 0.15625,-6.09283 c -0.16983,-4.12035 -0.90792,-8.23601 -1.36674,-12.60967 z"
     class="colore6952a svgShape"
     id="path11"
     style="stroke-width:2.662" />
  <path
     fill="#a3732b"
     d="m 180.5128,509.46491 c 0,0 0,45.27389 -49.9549,33.42747 l 2.76235,-40.7543 z"
     class="colora3862b svgShape"
     id="path12"
     style="stroke-width:2.662" />
  <path
     fill="#5d3f11"
     d="m 310.86639,973.29042 v -0.1914 a 7.9205897,7.9205897 0 0 0 -4.35591,-7.07312 l -56.53642,-28.49301 a 2.6401965,2.6401965 0 0 0 -3.29902,0.77173 l -11.05094,14.70802 a 2.6402232,2.6402232 0 0 1 -3.46917,0.67799 l -12.97085,-7.78252 a 2.6401965,2.6401965 0 0 0 -3.99859,2.26396 v 25.11835 a 2.6401965,2.6401965 0 0 0 2.64019,2.64022 h 90.40045 a 2.6401965,2.6401965 0 0 0 2.64026,-2.64022 z"
     class="color5d1115 svgShape"
     id="path13"
     style="stroke-width:2.662" />
  <path
     fill="#5d3f11"
     d="m 221.0996,973.29042 v -0.1914 a 7.9206429,7.9206429 0 0 0 -4.35591,-7.07312 l -56.53643,-28.49301 a 2.6401965,2.6401965 0 0 0 -3.29901,0.77173 l -11.05097,14.70802 a 2.6401965,2.6401965 0 0 1 -3.46914,0.67799 l -12.97083,-7.78248 a 2.6401965,2.6401965 0 0 0 -3.99856,2.26394 v 25.11835 a 2.6401965,2.6401965 0 0 0 2.6402,2.64022 h 90.40045 a 2.6401965,2.6401965 0 0 0 2.6402,-2.64024 z"
     class="color5d1115 svgShape"
     id="path14"
     style="stroke-width:2.662" />
  <path
     fill="#f9c67a"
     d="m 208.22354,174.40595 a 48.744038,48.744038 0 0 1 22.76783,1.95155 c 3.43443,1.21774 15.99557,5.67128 22.11799,17.56387 2.32536,4.51659 2.85078,9.94992 3.90294,20.81654 0.65711,6.78748 3.27125,11.6489 3.26726,19.92718 a 69.937299,69.937299 0 0 1 -3.26726,19.75435 c -3.04405,10.0076 -1.08392,15.69327 -2.60194,17.56386 -6.11781,7.53928 -19.23643,0.5701 -19.51538,10.40815 -0.17223,6.07469 3.68758,9.9198 -1.38267,15.36856 -6.28785,6.75669 -30.17306,4.19969 -38.94973,-0.40656 -1.19643,-0.62791 -18.74908,-10.07239 -17.56386,-20.81653 0.6333,-5.73973 6.00531,-6.33343 9.75804,-14.9619 a 34.453499,34.453499 0 0 0 1.95146,-18.86499 c -1.69208,-12.55953 -8.02095,-14.09121 -13.01046,-29.27325 a 23.615147,23.615147 0 0 1 3.90301,-22.76808 48.236927,48.236927 0 0 1 28.62277,-16.26275 z"
     class="colorf9977a svgShape"
     id="path15"
     style="stroke-width:2.662" />
  <circle
     cx="239.35934"
     cy="500.01486"
     r="4.2485495"
     fill="#5d3f11"
     class="color5d1115 svgShape"
     id="circle16"
     style="stroke-width:2.662" />
  <path
     fill="#ddaa5e"
     d="m 245.40444,220.36766 a 14.390177,14.390177 0 0 0 1.39222,7.68136 32.040079,32.040079 0 0 0 4.00128,6.78625 l 1.28745,1.53395 a 3.1255853,3.1255853 0 0 1 0.82538,2.14808 5.1144442,5.1144442 0 0 1 -2.16612,3.69486 9.2297605,9.2297605 0 0 1 -7.93824,1.00604 9.9067333,9.9067333 0 0 0 7.41507,-1.64442 4.5909356,4.5909356 0 0 0 1.71266,-3.06705 c 0.0833,-1.07811 -1.13401,-1.89883 -1.96824,-2.99571 a 29.204784,29.204784 0 0 1 -3.92112,-7.13072 12.62711,12.62711 0 0 1 -0.64034,-8.01264 z m -47.11043,1.07314 a 9.6974471,9.6974471 0 0 0 -2.44298,1.20686 11.780328,11.780328 0 0 0 -2.0391,1.70437 38.316192,38.316192 0 0 0 -3.51304,4.20942 10.327648,10.327648 0 0 1 1.02589,-2.6628 11.804365,11.804365 0 0 1 1.73473,-2.30976 6.6941272,6.6941272 0 0 1 5.2345,-2.14809 z"
     class="colordd765e svgShape"
     id="path17"
     style="stroke-width:2.662" />
  <path
     fill="#ddaa5e"
     d="m 196.22213,234.66517 a 19.550036,19.550036 0 0 0 -0.065,-5.8894 13.184718,13.184718 0 0 0 -0.70903,-2.81374 c -0.29311,-0.93861 -0.7456,-1.81516 -1.15179,-2.76937 a 9.5478694,9.5478694 0 0 1 1.92567,11.47251 z"
     class="colordd765e svgShape"
     id="path18"
     style="stroke-width:2.662" />
  <path
     fill="#e69b2a"
     d="m 284.20488,430.03805 c -0.995,-9.46778 -1.3978,-18.90126 -1.81081,-28.33621 -0.36002,-9.44293 -0.69832,-18.84002 -0.90092,-28.35215 a 144.66897,144.66897 0 0 1 3.5591,28.24474 189.3646,189.3646 0 0 1 -0.84737,28.44362 z"
     class="colore6952a svgShape"
     id="path19"
     style="stroke-width:2.662" />
  <path
     fill="#0a0907"
     d="m 232.18855,254.42545 c 0,0 10.04371,9.36757 19.02512,0"
     class="color0a0709 svgShape"
     id="path20"
     style="stroke-width:2.662" />
  <path
     fill="#5d3f11"
     d="m 284.42617,491.04628 c -9.96386,7.74977 -22.28077,11.79069 -34.42271,14.80768 a 195.74353,195.74353 0 0 1 -37.38465,4.89899 c -6.28372,0.40505 -12.57072,0.0742 -18.85266,0.0873 -6.27383,-0.24756 -12.54816,-0.59237 -18.8017,-1.10141 -6.23304,-0.74883 -12.47389,-1.38916 -18.68483,-2.22688 -6.17944,-1.08762 -12.3657,-2.08408 -18.51687,-3.24935 6.24574,0.56914 12.45603,1.30705 18.67331,1.95375 6.22413,0.57289 12.46082,0.98202 18.68209,1.48066 6.24037,0.18367 12.46787,0.60065 18.70142,0.72106 6.23241,-0.0919 12.47412,0.14907 18.68792,-0.32171 a 212.458,212.458 0 0 0 37.05044,-4.23151 137.86663,137.86663 0 0 0 18.00439,-4.85346 71.402995,71.402995 0 0 0 16.86385,-7.96521 z"
     class="color5d1115 svgShape"
     id="path22"
     style="stroke-width:2.662" />
  <path
     fill="#5d3f11"
     d="m 244.0432,506.08843 c -2.03289,15.24963 -4.35351,30.45061 -6.71787,45.64391 -2.358,15.19469 -4.9521,30.34896 -7.41667,45.52549 -2.67697,15.14028 -5.24065,30.2999 -8.02401,45.42213 l -4.22725,22.67445 c -1.50518,7.54195 -2.92001,15.09917 -4.50464,22.62747 0.9895,-7.62929 2.14892,-15.22996 3.21801,-22.84586 l 3.4952,-22.79887 c 2.36497,-15.19324 4.9498,-30.34928 7.42122,-45.52448 2.68394,-15.13932 5.23821,-30.30038 8.0286,-45.4215 2.78423,-15.12212 5.6121,-30.23686 8.72741,-45.30274 z m 21.4955,-18.82134 a 25.017008,25.017008 0 0 1 1.33021,8.49783 24.736807,24.736807 0 0 1 -1.33021,8.49779 24.741251,24.741251 0 0 1 -1.33016,-8.49779 25.021533,25.021533 0 0 1 1.33016,-8.49783 z m -64.93851,6.92813 a 32.930118,32.930118 0 0 1 0.16797,9.89006 32.563294,32.563294 0 0 1 -2.47401,9.57726 32.564385,32.564385 0 0 1 -0.16798,-9.89021 32.935095,32.935095 0 0 1 2.47402,-9.57711 z"
     class="color5d1115 svgShape"
     id="path23"
     style="stroke-width:2.662" />
  <path
     fill="#5d3f11"
     d="m 234.19493,507.66167 a 171.84326,171.84326 0 0 1 -1.77002,18.57306 c -0.89654,6.14062 -1.99118,12.24839 -3.33935,18.31442 l -0.3698,-0.92372 c 2.65875,2.25224 5.25316,4.58961 7.7556,7.04916 -3.05371,-1.72808 -6.01532,-3.57833 -8.91259,-5.51393 l -0.4387,-0.29281 0.0687,-0.63157 c 0.67103,-6.17765 1.59584,-12.31352 2.71853,-18.41658 a 171.93358,171.93358 0 0 1 4.28774,-18.15803 z m -96.43231,98.06826 c 1.10111,4.35062 2.38092,8.6117 3.67569,12.84109 a 130.54065,130.54065 0 0 0 4.51179,12.4188 76.043656,76.043656 0 0 0 6.00931,11.64806 46.615025,46.615025 0 0 0 8.61055,9.96266 31.323867,31.323867 0 0 1 -10.30337,-8.75889 53.118127,53.118127 0 0 1 -6.76728,-11.8166 73.555726,73.555726 0 0 1 -4.06059,-12.92102 67.418942,67.418942 0 0 1 -1.6761,-13.3741 z m 0,30.90365 c 3.42067,5.50451 6.73446,10.87383 10.43728,15.98335 1.802,2.58891 3.80159,5.01223 5.81468,7.44043 2.04378,2.41339 4.2679,4.63834 6.55538,6.96482 a 39.840691,39.840691 0 0 1 -14.52806,-12.8492 57.87424,57.87424 0 0 1 -4.97874,-8.3891 42.419982,42.419982 0 0 1 -3.30054,-9.1503 z m 97.2086,123.22856 c 1.10094,4.35077 2.38075,8.6117 3.67553,12.84109 a 130.61246,130.61246 0 0 0 4.51179,12.4188 76.029788,76.029788 0 0 0 6.00946,11.64806 46.606693,46.606693 0 0 0 8.61055,9.96266 31.324187,31.324187 0 0 1 -10.30352,-8.75891 53.119378,53.119378 0 0 1 -6.76712,-11.81661 73.557962,73.557962 0 0 1 -4.06059,-12.92103 67.407122,67.407122 0 0 1 -1.6761,-13.37406 z m 0,30.90365 c 3.42067,5.50451 6.73445,10.87383 10.43711,15.98351 1.80201,2.5889 3.80176,5.01222 5.81468,7.44042 2.04378,2.41324 4.26806,4.63819 6.55554,6.96483 a 39.838615,39.838615 0 0 1 -14.52807,-12.84947 57.856777,57.856777 0 0 1 -4.97874,-8.38894 42.40976,42.40976 0 0 1 -3.30052,-9.15035 z M 189.42203,544.393 a 46.644893,46.644893 0 0 1 2.20887,15.89627 22.599168,22.599168 0 0 1 -5.7792,15.37305 15.433947,15.433947 0 0 1 -7.57575,3.95402 24.599101,24.599101 0 0 1 -8.30347,0.1717 46.788029,46.788029 0 0 1 -15.17424,-5.27656 73.183658,73.183658 0 0 0 15.38561,3.21019 c 5.066,0.30791 10.38156,-0.48092 13.81675,-3.97025 a 22.445384,22.445384 0 0 0 5.56754,-13.6265 72.240966,72.240966 0 0 0 -0.14614,-15.73179 z"
     class="color5d1115 svgShape"
     id="path24"
     style="stroke-width:2.662" />
  <path
     fill="#ffbb55"
     d="m 230.82893,283.21523 c 0,0 -6.05114,30.62816 -48.98524,-14.25766 l -41.42577,25.63078 A 59.53578,59.53578 0 0 0 118.70645,319.0366 299.95397,299.95397 0 0 0 90.479918,429.40837 c 0,0 -5.854661,38.55248 51.390842,114.57697 0,0 29.92376,5.76854 37.07944,-26.10667 l -18.38019,-25.37016 c 0,0 97.09275,9.10724 122.4629,-14.31137 0,0 13.28086,-165.97758 -42.93412,-199.05817 z"
     class="colorffba55 svgShape"
     id="path25"
     style="stroke-width:2.662" />
  <path
     fill="#e69b2a"
     d="m 158.78419,353.29811 q -0.72721,10.95122 -1.70079,21.8749 c -0.68482,7.27841 -1.279,14.56704 -2.03826,21.83716 l -2.29088,21.80894 c -0.72514,7.27385 -1.68771,14.52119 -2.52001,21.78313 l 0.005,-0.21935 c 0.31343,4.39762 0.80345,8.83362 1.3833,13.23151 0.53278,4.41024 1.16189,8.81186 1.95362,13.18472 a 131.91205,131.91205 0 0 0 6.99424,25.70959 105.31536,105.31536 0 0 1 -8.65391,-25.3738 195.74326,195.74326 0 0 1 -4.10215,-26.58272 l -0.008,-0.1006 0.0133,-0.12006 c 0.79401,-7.26622 1.45774,-14.54691 2.35882,-21.80129 l 2.58791,-21.77559 c 0.86697,-7.25794 1.89918,-14.49753 2.84073,-21.74735 q 1.47504,-10.8673 3.17811,-21.70935 z"
     class="colore6952a svgShape"
     id="path26"
     style="stroke-width:2.662" />
  <path
     fill="#e69b2a"
     d="m 169.01605,360.45386 a 42.432254,42.432254 0 0 1 -5.45137,9.83593 41.950166,41.950166 0 0 1 -7.60953,8.28025 41.953892,41.953892 0 0 1 5.45153,-9.83609 42.424641,42.424641 0 0 1 7.60937,-8.28009 z m -19.98964,80.01349 a 11.26185,11.26185 0 0 1 -3.81038,2.16839 15.477524,15.477524 0 0 1 -4.30301,0.86957 13.266521,13.266521 0 0 1 -4.43151,-0.56933 8.0271495,8.0271495 0 0 1 -3.71793,-2.46863 c 1.49935,0.20924 2.79717,0.35256 4.10788,0.42845 1.31735,0.0133 2.60611,0.0266 3.91809,-0.048 2.63813,-0.10616 5.26988,-0.41142 8.23686,-0.38054 z m 72.59486,-147.56901 a 431.42565,431.42565 0 0 1 15.94095,47.95464 c 4.45573,16.26705 7.94489,32.79177 10.80689,49.42554 a 408.64798,408.64798 0 0 1 4.70042,50.39793 258.55903,258.55903 0 0 1 -4.00048,50.36983 c 0.68632,-8.40518 1.96483,-16.71644 1.93818,-25.13952 0.55103,-8.38307 0.15812,-16.78354 0.016,-25.16711 a 453.2361,453.2361 0 0 0 -5.27899,-50.03937 c -2.62838,-16.5819 -6.13857,-33.01729 -10.15409,-49.3329 q -2.99911,-12.24149 -6.53198,-24.35196 c -2.24363,-8.10674 -4.78662,-16.12492 -7.43651,-24.11708 z"
     class="colore6952a svgShape"
     id="path27"
     style="stroke-width:2.662" />
  <path
     fill="#e69b2a"
     d="m 240.09879,279.1391 a 111.75867,111.75867 0 0 1 3.54277,13.21366 56.514997,56.514997 0 0 1 1.01401,6.81356 25.600438,25.600438 0 0 1 -0.19805,7.03777 6.8263487,6.8263487 0 0 1 -1.64262,3.50819 4.3051435,4.3051435 0 0 1 -3.96587,1.22782 15.361168,15.361168 0 0 1 -6.52722,-3.24231 82.484281,82.484281 0 0 1 -10.0122,-9.5685 l 2.17261,-0.7903 a 24.609403,24.609403 0 0 1 -2.49774,9.93767 10.788227,10.788227 0 0 1 -8.55418,6.13995 18.820328,18.820328 0 0 1 -9.9911,-2.50408 48.78679,48.78679 0 0 1 -8.28006,-5.5154 126.78148,126.78148 0 0 1 -13.98005,-13.74752 c -4.32526,-4.87542 -8.30011,-10.0327 -12.16309,-15.25418 a 216.01672,216.01672 0 0 0 27.53976,27.21758 46.515573,46.515573 0 0 0 7.96782,5.14932 16.510991,16.510991 0 0 0 8.64483,2.11705 8.4053396,8.4053396 0 0 0 6.49299,-4.83801 22.191323,22.191323 0 0 0 2.33249,-8.77928 l 0.21669,-2.97817 1.95622,2.18759 a 80.371959,80.371959 0 0 0 9.54859,9.40782 15.199106,15.199106 0 0 0 5.44408,3.00188 c 1.85693,0.52609 3.08768,-0.9547 3.56195,-3.08036 a 41.463046,41.463046 0 0 0 -0.1528,-13.27006 c -0.58101,-4.49015 -1.47936,-8.94897 -2.46981,-13.39169 z"
     class="colore6952a svgShape"
     id="path28"
     style="stroke-width:2.662" />
  <circle
     cx="232.37428"
     cy="347.65002"
     r="2.7179003"
     fill="#5d3f11"
     class="color5d1115 svgShape"
     id="circle28"
     style="stroke-width:2.662" />
  <circle
     cx="224.21794"
     cy="316.08405"
     r="2.7179003"
     fill="#5d3f11"
     class="color5d1115 svgShape"
     id="circle29"
     style="stroke-width:2.662" />
  <circle
     cx="239.14906"
     cy="384.65714"
     r="2.7179003"
     fill="#5d3f11"
     class="color5d1115 svgShape"
     id="circle30"
     style="stroke-width:2.662" />
  <circle
     cx="244.71532"
     cy="423.71127"
     r="2.7179003"
     fill="#5d3f11"
     class="color5d1115 svgShape"
     id="circle31"
     style="stroke-width:2.662" />
  <circle
     cx="246.42432"
     cy="466.47363"
     r="2.7179003"
     fill="#5d3f11"
     class="color5d1115 svgShape"
     id="circle32"
     style="stroke-width:2.662" />
  <path
     fill="#0a0907"
     d="m 260.23475,255.11685 a 7.4706854,7.4706854 0 0 0 -2.93791,-6.38903 c -1.47047,-1.11607 -3.32763,-2.35358 -5.13499,-3.45817 a 20.68977,20.68977 0 0 0 -17.59092,-2.01107 114.42722,114.42722 0 0 0 -14.15986,6.12074 6.3799049,6.3799049 0 0 1 -8.58869,-2.89493 c 0,0 -4.2246,-18.23734 -3.45119,-23.45867 1.07831,-7.27564 1.61752,-10.91323 0.74617,-13.87407 -1.3946,-4.73921 0.91492,-5.35631 3.88526,-10.44947 2.78778,-4.78014 11.42506,-0.91074 13.58048,-1.70745 6.04953,-2.23648 5.82581,-4.78377 9.91578,-5.03808 4.1947,-0.26087 7.27301,-1.36897 9.98279,1.33737 2.76353,2.76241 7.83493,10.10526 9.0854,8.83137 a 23.902776,23.902776 0 0 0 4.67809,-12.0505 26.495987,26.495987 0 0 0 -2.9706,-12.38258 c -0.99293,-2.20945 -4.69044,-10.4321 -12.38894,-12.62729 -4.43412,-1.26446 -5.28487,0.87095 -14.87656,1.43865 -9.94849,0.5891 -10.25733,-1.63534 -15.46738,-0.15467 -5.76724,1.63946 -5.5479,4.40872 -15.40362,9.79244 a 102.05255,102.05255 0 0 1 -10.06203,4.63866 c -12.37321,5.23953 -13.99147,4.40175 -16.83714,7.15159 -6.13488,5.92848 -5.13314,16.12191 -4.89122,18.58408 0.68185,6.9345 3.38937,9.01829 9.27816,20.12657 9.32453,17.59152 10.89633,28.1383 14.37416,27.75431 2.05505,-0.22707 7.01822,-5.38195 6.97724,-8.48025 -0.0532,-4.06149 -2.97949,-5.34311 -6.42576,-11.21342 -2.4069,-4.10268 -5.86425,-9.99289 -3.87435,-15.33235 1.20418,-3.22762 2.54772,-2.3447 5.89196,-2.03461 4.53871,0.42084 6.77166,6.74332 8.59157,11.38353 a 24.837243,24.837243 0 0 1 1.65963,10.56081 c -0.48065,8.0296 -0.46836,21.83302 4.43978,28.65593 10.29362,14.31152 28.29832,13.97816 28.29832,13.97816 19.89367,0.17489 23.14208,-18.97046 23.67637,-26.79771 z m -12.86626,8.28518 a 12.70271,12.70271 0 0 1 -12.38217,-0.39307 c -0.77798,-0.46665 -5.74532,-3.57203 -5.24356,-8.02621 0.50006,-4.45353 6.02764,-6.35244 6.63793,-6.54107 a 13.050261,13.050261 0 0 1 7.80788,0.27645 c 3.17519,0.82413 8.73668,2.27401 9.4777,6.00241 0.72404,3.58342 -3.4458,7.20765 -6.29784,8.68149 z"
     class="color0a0709 svgShape"
     id="path32"
     style="stroke-width:2.662" />
  <path
     fill="#f7ac3c"
     d="m 814.57124,207.1925 a 27.888132,27.888132 0 0 1 -15.03644,-39.24946 29.013839,29.013839 0 0 1 47.06469,-5.63037 l 18.69984,-49.24915 125.23814,47.55279 a 18.634334,18.634334 0 0 1 10.82723,24.08273 l -48.5063,127.7493 -48.61341,-18.45829 a 30.319842,30.319842 0 0 0 7.84818,-11.28031 28.316927,28.316927 0 0 0 -15.98985,-36.73794 28.738216,28.738216 0 0 0 -36.34377,16.86693 30.319256,30.319256 0 0 0 -1.61667,13.64638 L 809.52946,258.02669 828.21738,208.809 a 30.66316,30.66316 0 0 1 -13.64625,-1.61643 z m 0,0"
     class="colorf73c4f svgShape"
     id="path33"
     style="stroke-width:2.662" />
  <path
     fill="#ffbb55"
     d="M 591.31454,312.68733 A 27.88816,27.88816 0 0 1 559.95865,340.677 29.013865,29.013865 0 0 1 537.98828,298.67598 H 485.3085 V 164.71367 a 18.634308,18.634308 0 0 1 18.67102,-18.67081 h 136.64836 v 51.99974 a 30.319309,30.319309 0 0 0 -13.33158,-3.33282 28.316875,28.316875 0 0 0 -28.66952,27.98944 28.738162,28.738162 0 0 0 28.66952,27.98967 30.319442,30.319442 0 0 0 13.33158,-3.33266 v 51.99974 h -52.64635 a 30.663559,30.663559 0 0 1 3.33283,13.33128 z m 0,0"
     class="colorffba55 svgShape"
     id="path34"
     style="stroke-width:2.662" />
  <path
     fill="#ffd79b"
     d="m 569.66337,156.55381 a 71.992787,71.992787 0 0 0 -1.57058,-10.51489 h -64.10103 a 18.641096,18.641096 0 0 0 -18.68723,18.68723 v 69.6645 a 73.250208,73.250208 0 0 0 84.35889,-77.83684 z"
     class="colorffd69b svgShape"
     id="path35"
     style="stroke-width:2.662" />
  <path
     fill="#ffbb55"
     d="m 966.33876,504.2827 a 27.888132,27.888132 0 0 1 4.16409,41.82432 29.013865,29.013865 0 0 1 -46.88522,-6.96868 l -31.01478,42.5822 -108.28451,-78.86912 a 18.634361,18.634361 0 0 1 -4.09961,-26.08447 l 80.45059,-110.45579 42.03251,30.61442 a 30.319416,30.319416 0 0 0 -10.5429,8.81388 28.316901,28.316901 0 0 0 5.74555,39.65272 28.738216,28.738216 0 0 0 39.50357,-6.69548 30.319363,30.319363 0 0 0 5.15496,-12.73831 l 42.03251,30.61445 -30.99503,42.55505 a 30.663293,30.663293 0 0 1 12.73824,5.1547 z m 0,0"
     class="colorffba55 svgShape"
     id="path36"
     style="stroke-width:2.662" />
  <path
     fill="#ad59d4"
     d="m 441.48093,563.59047 a 27.88816,27.88816 0 0 1 -41.96374,-2.3803 29.013865,29.013865 0 0 1 14.16385,-45.23464 l -37.25006,-37.25023 94.72556,-94.72556 a 18.634334,18.634334 0 0 1 26.40468,0 l 96.62487,96.62508 -36.76936,36.76936 a 30.319549,30.319549 0 0 0 -7.07026,-11.78354 28.316901,28.316901 0 0 0 -40.06396,-0.48087 28.738188,28.738188 0 0 0 0.48073,40.06409 30.318857,30.318857 0 0 0 11.78341,7.07026 l -36.76938,36.76939 -37.22637,-37.22645 a 30.663745,30.663745 0 0 1 -7.06997,11.78341 z m 0,0"
     class="color6c7fd8 svgShape"
     id="path37"
     style="stroke-width:2.662" />
  <path
     fill="#ffffff"
     d="m 711.72905,475.38495 a 12.005319,12.005319 0 0 1 -11.79962,-11.86986 11.83607,11.83607 0 1 1 11.79962,11.86986 z m 0,-15.14531 a 3.2749768,3.2749768 0 1 0 3.34571,3.27551 3.2239728,3.2239728 0 0 0 -3.34571,-3.27551 z m -1.3856,-20.5551 a 7.572001,7.572001 0 0 1 -7.57263,-7.57267 v -35.70041 a 7.572001,7.572001 0 0 1 7.57263,-7.57265 42.407418,42.407418 0 1 0 0,-84.81481 42.973917,42.973917 0 0 0 -42.40738,42.40741 12.145686,12.145686 0 0 0 0.6187,5.20442 7.5722468,7.5722468 0 1 1 -13.61154,6.6394 25.309481,25.309481 0 0 1 -2.15247,-11.84382 58.325609,58.325609 0 0 1 57.55269,-57.55272 57.567045,57.567045 0 0 1 7.57267,114.6323 v 28.60088 a 7.5720277,7.5720277 0 0 1 -7.57267,7.57267 z"
     class="colorffffff svgShape"
     id="path38"
     style="stroke-width:2.662" />
  <path
     fill="#f7ac3c"
     d="m 212.04806,151.78319 a 6.9552693,6.9552693 0 1 1 6.95654,-6.95396 7.1193549,7.1193549 0 0 1 -6.95654,6.95396 z m 0,-7.986 a 1.0307524,1.0307524 0 0 0 0,2.06148 0.93066124,0.93066124 0 0 0 1.08143,-1.02944 0.95073272,0.95073272 0 0 0 -1.08143,-1.03204 z M 211.094,127.17528 a 3.9940091,3.9940091 0 0 1 -3.993,-3.993 V 98.577006 a 3.9940357,3.9940357 0 0 1 3.993,-3.993002 30.458319,30.458319 0 0 0 0,-60.916603 30.866296,30.866296 0 0 0 -30.45702,30.459588 9.411016,9.411016 0 0 0 0.55104,4.128207 3.992527,3.992527 0 1 1 -7.18011,3.493867 16.425701,16.425701 0 0 1 -1.35701,-7.622074 38.959917,38.959917 0 0 1 38.4431,-38.445667 38.451182,38.451182 0 0 1 3.993,76.693638 v 20.80724 a 3.9940357,3.9940357 0 0 1 -3.993,3.99314 z m 358.56937,29.37853 a 71.992787,71.992787 0 0 0 -1.57058,-10.51489 73.252152,73.252152 0 1 0 -108.4232,79.19445 l -10.83452,18.95343 a 9.363526,9.363526 0 0 0 -10.51489,4.65849 l -44.13615,81.98955 a 9.3391686,9.3391686 0 0 0 3.83312,12.67111 8.4447905,8.4447905 0 0 0 2.18303,0.85184 9.3774483,9.3774483 0 0 0 10.48811,-4.65849 l 44.1095,-81.98955 a 9.3675722,9.3675722 0 0 0 -1.17112,-10.56813 l 10.99373,-19.27287 a 72.363204,72.363204 0 0 0 14.53472,5.29737 c 2.02313,0.47917 4.07262,0.90508 6.14907,1.22453 a 73.250208,73.250208 0 0 0 84.35888,-77.83684 z m -24.65011,47.14399 a 63.358223,63.358223 0 0 1 -43.65677,22.01473 63.948521,63.948521 0 1 1 58.96326,-68.4666 63.366794,63.366794 0 0 1 -15.30652,46.45176 z"
     class="colorf73c4f svgShape"
     id="path39"
     style="stroke-width:2.662" />
  <path
     fill="#f9c67a"
     d="m 411.38357,317.33489 c 0,0 -8.37493,-1.57507 -8.38901,4.25164 a 6.7880958,6.7880958 0 0 0 4.62578,6.20134 c 8.21588,3.00203 28.84415,9.50333 26.12642,-2.03217 0,0 13.02945,-2.36288 6.37187,-9.98396 0,0 8.29952,-3.26571 2.94723,-9.59088 0,0 6.73301,-2.79678 0.25981,-9.5716 -6.47316,-6.77481 -32.62713,-7.53193 -25.99223,0.9592 l 2.39143,1.74955 a 5.8109294,5.8109294 0 0 0 -4.47245,8.8985 c 0,0 -8.78142,1.58615 -3.86889,9.11838 z"
     class="colorf9977a svgShape"
     id="path40"
     style="stroke-width:2.662" />
  <path
     fill="#ddaa5e"
     d="m 433.74681,325.75575 a 53.625957,53.625957 0 0 1 -11.60317,-3.09093 53.01548,53.01548 0 0 1 -10.76011,-5.33001 53.020644,53.020644 0 0 1 11.60314,3.09095 53.625158,53.625158 0 0 1 10.76014,5.32999 z m 6.37182,-9.98395 a 63.2531,63.2531 0 0 1 -12.78082,-2.63308 62.527679,62.527679 0 0 1 -12.08526,-4.92219 62.529277,62.529277 0 0 1 12.78081,2.63306 63.23412,63.23412 0 0 1 12.08527,4.92221 z m 2.9473,-9.59092 a 55.544326,55.544326 0 0 1 -12.00793,-2.28376 54.92999,54.92999 0 0 1 -11.33313,-4.57906 54.89951,54.89951 0 0 1 12.0079,2.28376 55.548851,55.548851 0 0 1 11.33316,4.57906 z"
     class="colordd765e svgShape"
     id="path41"
     style="stroke-width:2.662" />
  <path
     fill="#937850"
     d="m 1142.9842,208.59788 v 766.61453 h 173.3159 V 208.59788 a 8.3164821,8.3164821 0 0 0 -8.3165,-8.31651 h -156.683 a 8.3164821,8.3164821 0 0 0 -8.3164,8.31651 z"
     class="color935b50 svgShape"
     id="path42"
     style="stroke-width:2.662" />
  <rect
     width="154.18826"
     height="114.51917"
     x="1152.5472"
     y="339.74921"
     fill="#e1b674"
     rx="8.316083"
     class="colore19974 svgShape"
     id="rect42"
     style="stroke-width:2.662" />
  <rect
     width="154.18826"
     height="114.51917"
     x="1152.5472"
     y="212.75592"
     fill="#e1b674"
     rx="8.316083"
     class="colore19974 svgShape"
     id="rect43"
     style="stroke-width:2.662" />
  <path
     fill="#d69f4b"
     d="m 1296.942,312.73983 a 4.3154986,4.3154986 0 0 1 1.7791,3.74524 5.5984221,5.5984221 0 0 1 -5.2905,5.3019 4.3011238,4.3011238 0 0 1 -3.7486,-1.78707 31.693326,31.693326 0 0 0 1.8077,-2.89335 6.5250903,6.5250903 0 0 1 1.0482,-1.51071 6.9509036,6.9509036 0 0 1 1.5188,-1.04489 30.605234,30.605234 0 0 0 2.8853,-1.81112 z m -7.26,-92.70964 a 4.3141676,4.3141676 0 0 1 3.745,-1.77911 5.5980494,5.5980494 0 0 1 5.302,5.29053 4.3001388,4.3001388 0 0 1 -1.787,3.74863 31.785139,31.785139 0 0 0 -2.8933,-1.80771 6.5272199,6.5272199 0 0 1 -1.5108,-1.04827 6.9482948,6.9482948 0 0 1 -1.045,-1.51883 30.601002,30.601002 0 0 0 -1.8109,-2.88524 z m -127.3395,7.26005 a 4.3138215,4.3138215 0 0 1 -1.7792,-3.74522 5.59773,5.59773 0 0 1 5.2905,-5.3019 4.3004849,4.3004849 0 0 1 3.7484,1.78707 31.836196,31.836196 0 0 0 -1.8077,2.89336 6.5153474,6.5153474 0 0 1 -1.0483,1.51071 6.9547901,6.9547901 0 0 1 -1.5185,1.04487 30.569164,30.569164 0 0 0 -2.8852,1.81111 z m 7.2597,92.7096 a 4.3145935,4.3145935 0 0 1 -3.7451,1.7791 5.5980494,5.5980494 0 0 1 -5.3019,-5.29051 4.300272,4.300272 0 0 1 1.7873,-3.74865 31.740363,31.740363 0 0 0 2.893,1.8077 6.5265012,6.5265012 0 0 1 1.5107,1.0483 6.9469905,6.9469905 0 0 1 1.045,1.51883 30.690179,30.690179 0 0 0 1.811,2.88523 z m 127.3398,119.7328 a 4.3154187,4.3154187 0 0 1 1.7791,3.74523 5.5984221,5.5984221 0 0 1 -5.2905,5.3019 4.3011238,4.3011238 0 0 1 -3.7486,-1.78709 31.693326,31.693326 0 0 0 1.8077,-2.89335 6.5250903,6.5250903 0 0 1 1.0482,-1.51071 6.9509036,6.9509036 0 0 1 1.5188,-1.04488 30.609254,30.609254 0 0 0 2.8853,-1.8111 z m -7.26,-92.70965 a 4.3146201,4.3146201 0 0 1 3.745,-1.77912 5.5981825,5.5981825 0 0 1 5.302,5.29054 4.299926,4.299926 0 0 1 -1.787,3.74862 31.783355,31.783355 0 0 0 -2.8933,-1.80768 6.5272199,6.5272199 0 0 1 -1.5108,-1.0483 6.9476559,6.9476559 0 0 1 -1.045,-1.51883 30.621898,30.621898 0 0 0 -1.8109,-2.88523 z m -127.3395,7.26004 a 4.3138215,4.3138215 0 0 1 -1.7792,-3.74522 5.5977833,5.5977833 0 0 1 5.2905,-5.30191 4.3005648,4.3005648 0 0 1 3.7484,1.78709 31.836196,31.836196 0 0 0 -1.8077,2.89335 6.5153474,6.5153474 0 0 1 -1.0483,1.51071 6.9547901,6.9547901 0 0 1 -1.5185,1.04486 30.569164,30.569164 0 0 0 -2.8852,1.81112 z m 7.2597,92.70965 a 4.3142209,4.3142209 0 0 1 -3.7451,1.77912 5.5981825,5.5981825 0 0 1 -5.3019,-5.29053 4.3003785,4.3003785 0 0 1 1.7873,-3.74863 31.744676,31.744676 0 0 0 2.893,1.80768 6.5265012,6.5265012 0 0 1 1.5107,1.0483 6.9469905,6.9469905 0 0 1 1.045,1.51883 30.690179,30.690179 0 0 0 1.811,2.88523 z"
     class="colord6694b svgShape"
     id="path43"
     style="stroke-width:2.662" />
  <rect
     width="154.18826"
     height="114.51917"
     x="1152.5472"
     y="593.73315"
     fill="#e1b674"
     rx="8.316083"
     class="colore19974 svgShape"
     id="rect44"
     style="stroke-width:2.662" />
  <rect
     width="154.18826"
     height="114.51917"
     x="1152.5472"
     y="720.72644"
     fill="#e1b674"
     rx="8.316083"
     class="colore19974 svgShape"
     id="rect45"
     style="stroke-width:2.662" />
  <rect
     width="47.404869"
     height="17.465372"
     x="1205.939"
     y="254.42154"
     fill="#d69f4b"
     rx="3.2210181"
     class="colord6694b svgShape"
     id="rect46"
     style="stroke-width:2.662" />
  <rect
     width="47.404869"
     height="17.465372"
     x="1205.939"
     y="635.39874"
     fill="#d69f4b"
     rx="3.2210181"
     class="colord6694b svgShape"
     id="rect47"
     style="stroke-width:2.662" />
  <rect
     width="47.404869"
     height="17.465372"
     x="1205.939"
     y="762.39203"
     fill="#d69f4b"
     rx="3.2210181"
     class="colord6694b svgShape"
     id="rect48"
     style="stroke-width:2.662" />
  <rect
     width="47.404869"
     height="17.465372"
     x="1205.939"
     y="381.41483"
     fill="#d69f4b"
     rx="3.2210181"
     class="colord6694b svgShape"
     id="rect49"
     style="stroke-width:2.662" />
  <path
     fill="#d69f4b"
     d="m 1296.942,693.71822 a 4.3154187,4.3154187 0 0 1 1.7791,3.74522 5.5984221,5.5984221 0 0 1 -5.2905,5.3019 4.3007512,4.3007512 0 0 1 -3.7486,-1.78708 31.718668,31.718668 0 0 0 1.8077,-2.89319 6.5265012,6.5265012 0 0 1 1.0482,-1.51088 6.9499985,6.9499985 0 0 1 1.5188,-1.04485 30.616575,30.616575 0 0 0 2.8853,-1.81112 z m -7.26,-92.7095 a 4.3138215,4.3138215 0 0 1 3.745,-1.77912 5.5977833,5.5977833 0 0 1 5.302,5.29038 4.2998993,4.2998993 0 0 1 -1.787,3.74862 31.783355,31.783355 0 0 0 -2.8933,-1.80768 6.5216032,6.5216032 0 0 1 -1.5108,-1.04829 6.9476559,6.9476559 0 0 1 -1.045,-1.51883 30.603717,30.603717 0 0 0 -1.8109,-2.88508 z m -127.3395,7.25988 a 4.3137949,4.3137949 0 0 1 -1.7792,-3.74521 5.5977833,5.5977833 0 0 1 5.2905,-5.30191 4.3003252,4.3003252 0 0 1 3.7484,1.78724 31.820517,31.820517 0 0 0 -1.8077,2.8932 6.5153474,6.5153474 0 0 1 -1.0483,1.51071 6.9547901,6.9547901 0 0 1 -1.5185,1.04485 30.608855,30.608855 0 0 0 -2.8852,1.81112 z m 7.2597,92.70966 a 4.3142209,4.3142209 0 0 1 -3.7451,1.77912 5.5981825,5.5981825 0 0 1 -5.3019,-5.29053 4.3003785,4.3003785 0 0 1 1.7873,-3.74863 31.671631,31.671631 0 0 0 2.893,1.80769 6.5265012,6.5265012 0 0 1 1.5107,1.04828 6.9476559,6.9476559 0 0 1 1.045,1.51883 30.669256,30.669256 0 0 0 1.811,2.88524 z m 127.3398,119.73282 a 4.3154187,4.3154187 0 0 1 1.7791,3.74523 5.5984221,5.5984221 0 0 1 -5.2905,5.3019 4.3007512,4.3007512 0 0 1 -3.7486,-1.78709 31.692661,31.692661 0 0 0 1.8077,-2.89319 6.529882,6.529882 0 0 1 1.0482,-1.51087 6.9555355,6.9555355 0 0 1 1.5188,-1.04486 30.610904,30.610904 0 0 0 2.8853,-1.81112 z m -7.26,-92.70957 a 4.3137418,4.3137418 0 0 1 3.745,-1.7791 5.59773,5.59773 0 0 1 5.302,5.29051 4.2998195,4.2998195 0 0 1 -1.787,3.74847 31.783355,31.783355 0 0 0 -2.8933,-1.80768 6.5216032,6.5216032 0 0 1 -1.5108,-1.04829 6.9430773,6.9430773 0 0 1 -1.045,-1.51884 30.603717,30.603717 0 0 0 -1.8109,-2.88507 z m -127.3395,7.25988 a 4.3137949,4.3137949 0 0 1 -1.7792,-3.74522 5.5977833,5.5977833 0 0 1 5.2905,-5.3019 4.3003252,4.3003252 0 0 1 3.7484,1.78724 31.820517,31.820517 0 0 0 -1.8077,2.89319 6.5153474,6.5153474 0 0 1 -1.0483,1.51072 6.9558016,6.9558016 0 0 1 -1.5185,1.04488 30.601534,30.601534 0 0 0 -2.8852,1.81109 z m 7.2597,92.70966 a 4.3142209,4.3142209 0 0 1 -3.7451,1.77912 5.5981825,5.5981825 0 0 1 -5.3019,-5.29054 4.3003785,4.3003785 0 0 1 1.7873,-3.74863 31.712679,31.712679 0 0 0 2.893,1.80784 6.5216298,6.5216298 0 0 1 1.5107,1.04815 6.9476559,6.9476559 0 0 1 1.045,1.51882 30.669256,30.669256 0 0 0 1.811,2.88524 z"
     class="colord6694b svgShape"
     id="path49"
     style="stroke-width:2.662" />
  <path
     fill="#5fe4d4"
     d="m 1193.2676,792.46536 c 0,0 84.5997,1.71678 97.4521,-12.57833 0,0 -27.7039,99.25793 -6.7893,147.95697 l -94.0946,-9.93654 c 0,0 11.0038,-76.87302 3.4318,-125.4421 z"
     class="color7ca1b1 svgShape"
     id="path50"
     style="stroke-width:2.662" />
  <path
     fill="#f6a52b"
     d="m 1172.5525,804.62526 c 0,0 84.5997,1.71681 97.4522,-12.57831 0,0 -27.704,99.25793 -6.7895,147.95695 l -94.0944,-9.93651 c 0,0 11.0037,-76.87303 3.4317,-125.44213 z"
     class="colorf65b2b svgShape"
     id="path51"
     style="stroke-width:2.662" />
  <path
     fill="#ffffff"
     d="m 1183.1346,813.96939 c 0,0 84.5997,1.7168 97.4522,-12.57832 0,0 -27.7039,99.25794 -6.7894,147.95696 l -94.0944,-9.93655 c 0,0 11.0037,-76.87303 3.4316,-125.44209 z"
     class="colorffffff svgShape"
     id="path52"
     style="stroke-width:2.662" />
  <path
     fill="#ffbb55"
     d="m 1193.4921,417.43468 c 0,0 84.5999,1.7168 97.4522,-12.57832 0,0 -27.7039,99.25794 -6.7894,147.95697 l -94.0944,-9.93656 c 0,0 11.0037,-76.87302 3.4316,-125.44209 z"
     class="colorffba55 svgShape"
     id="path53"
     style="stroke-width:2.662" />
  <path
     fill="#f6a52b"
     d="m 1172.7771,429.59461 c 0,0 84.5996,1.7167 97.4521,-12.57824 0,0 -27.7039,99.25794 -6.7893,147.95699 l -94.0946,-9.93655 c 0,0 11.0039,-76.87313 3.4318,-125.4422 z"
     class="colorf65b2b svgShape"
     id="path54"
     style="stroke-width:2.662" />
  <path
     fill="#ffffff"
     d="m 1183.3593,438.9387 c 0,0 84.5997,1.71681 97.452,-12.57832 0,0 -27.7039,99.25793 -6.7893,147.95699 l -94.0945,-9.93654 c 0,0 11.0037,-76.87304 3.4318,-125.44213 z"
     class="colorffffff svgShape"
     id="path55"
     style="stroke-width:2.662" />
  <rect
     width="154.18826"
     height="114.51917"
     x="1152.5472"
     y="847.71973"
     fill="#e1b674"
     rx="8.316083"
     class="colore19974 svgShape"
     id="rect55"
     style="stroke-width:2.662" />
  <rect
     width="47.404869"
     height="17.465372"
     x="1205.939"
     y="889.38538"
     fill="#d69f4b"
     rx="3.2210181"
     class="colord6694b svgShape"
     id="rect56"
     style="stroke-width:2.662" />
  <path
     fill="#d69f4b"
     d="m 1296.942,947.70379 a 4.3159246,4.3159246 0 0 1 1.7791,3.74543 5.5987415,5.5987415 0 0 1 -5.2905,5.3019 4.3012037,4.3012037 0 0 1 -3.7486,-1.78723 31.667372,31.667372 0 0 0 1.8077,-2.89335 6.5286041,6.5286041 0 0 1 1.0482,-1.51071 6.9556154,6.9556154 0 0 1 1.5188,-1.0447 30.694864,30.694864 0 0 0 2.8853,-1.81134 z m -7.26,-92.7095 a 4.3137418,4.3137418 0 0 1 3.745,-1.77908 5.59773,5.59773 0 0 1 5.302,5.2905 4.3003252,4.3003252 0 0 1 -1.787,3.74866 31.753061,31.753061 0 0 0 -2.8933,-1.80787 6.5216032,6.5216032 0 0 1 -1.5108,-1.0483 6.9430773,6.9430773 0 0 1 -1.045,-1.51883 30.603717,30.603717 0 0 0 -1.8109,-2.88508 z m -127.3395,7.26008 a 4.3143274,4.3143274 0 0 1 -1.7792,-3.74544 5.5977833,5.5977833 0 0 1 5.2905,-5.3019 4.3003252,4.3003252 0 0 1 3.7484,1.78724 31.820517,31.820517 0 0 0 -1.8077,2.8932 6.5153474,6.5153474 0 0 1 -1.0483,1.51071 6.9611256,6.9611256 0 0 1 -1.5185,1.04504 30.529581,30.529581 0 0 0 -2.8852,1.81115 z m 7.2597,92.70946 a 4.3142209,4.3142209 0 0 1 -3.7451,1.77912 5.5981825,5.5981825 0 0 1 -5.3019,-5.29053 4.3004317,4.3004317 0 0 1 1.7873,-3.74863 31.665561,31.665561 0 0 0 2.893,1.80769 6.5321979,6.5321979 0 0 1 1.5107,1.04829 6.9515691,6.9515691 0 0 1 1.045,1.51883 30.669256,30.669256 0 0 0 1.811,2.88523 z"
     class="colord6694b svgShape"
     id="path56"
     style="stroke-width:2.662" />
  <rect
     width="154.18826"
     height="114.51917"
     x="1152.5472"
     y="466.74246"
     fill="#e1b674"
     rx="8.316083"
     class="colore19974 svgShape"
     id="rect57"
     style="stroke-width:2.662" />
  <rect
     width="47.404869"
     height="17.465372"
     x="1205.939"
     y="508.40808"
     fill="#d69f4b"
     rx="3.2210181"
     class="colord6694b svgShape"
     id="rect58"
     style="stroke-width:2.662" />
  <path
     fill="#d69f4b"
     d="m 1296.942,566.72543 a 4.3154187,4.3154187 0 0 1 1.7791,3.74522 5.5984221,5.5984221 0 0 1 -5.2905,5.3019 4.3011238,4.3011238 0 0 1 -3.7486,-1.78707 31.693326,31.693326 0 0 0 1.8077,-2.89336 6.5286041,6.5286041 0 0 1 1.0482,-1.51071 6.9509036,6.9509036 0 0 1 1.5188,-1.04489 30.609254,30.609254 0 0 0 2.8853,-1.81109 z m -7.26,-92.70965 a 4.3146201,4.3146201 0 0 1 3.745,-1.77912 5.5981825,5.5981825 0 0 1 5.302,5.29053 4.2998993,4.2998993 0 0 1 -1.787,3.74863 31.783355,31.783355 0 0 0 -2.8933,-1.80769 6.5265012,6.5265012 0 0 1 -1.5108,-1.0483 6.9476559,6.9476559 0 0 1 -1.045,-1.51882 30.621898,30.621898 0 0 0 -1.8109,-2.88523 z m -127.3395,7.26004 a 4.3137949,4.3137949 0 0 1 -1.7792,-3.74522 5.5977833,5.5977833 0 0 1 5.2905,-5.3019 4.3005648,4.3005648 0 0 1 3.7484,1.78708 31.836196,31.836196 0 0 0 -1.8077,2.89334 6.5153474,6.5153474 0 0 1 -1.0483,1.51071 6.9547901,6.9547901 0 0 1 -1.5185,1.04487 30.569164,30.569164 0 0 0 -2.8852,1.81112 z m 7.2597,92.70966 a 4.3142209,4.3142209 0 0 1 -3.7451,1.77912 5.5981825,5.5981825 0 0 1 -5.3019,-5.29055 4.3003785,4.3003785 0 0 1 1.7873,-3.74862 31.7081,31.7081 0 0 0 2.893,1.80768 6.5265012,6.5265012 0 0 1 1.5107,1.0483 6.9476559,6.9476559 0 0 1 1.045,1.51883 30.669256,30.669256 0 0 0 1.811,2.88524 z"
     class="colord6694b svgShape"
     id="path58"
     style="stroke-width:2.662" />
</svg>
